G04 #@! TF.FileFunction,Soldermask,Bot*
%FSLAX46Y46*%
G04 Gerber Fmt 4.6, Leading zero omitted, Abs format (unit mm)*
G04 Created by KiCad (PCBNEW 4.0.2-4+6225~38~ubuntu14.04.1-stable) date 2016年05月02日 21時32分02秒*
%MOMM*%
G01*
G04 APERTURE LIST*
%ADD10C,0.101600*%
G04 APERTURE END LIST*
D10*
G36*
X51129851Y-88921963D02*
X51696562Y-89038292D01*
X52229880Y-89262478D01*
X52709500Y-89585986D01*
X53117151Y-89996493D01*
X53437303Y-90478359D01*
X53657758Y-91013226D01*
X53770061Y-91580394D01*
X53770061Y-91580404D01*
X53770127Y-91580738D01*
X53760900Y-92241522D01*
X53760824Y-92241856D01*
X53760824Y-92241868D01*
X53632732Y-92805669D01*
X53397423Y-93334180D01*
X53063944Y-93806918D01*
X52644987Y-94205884D01*
X52156527Y-94515870D01*
X51617152Y-94725081D01*
X51047419Y-94825539D01*
X50469020Y-94813424D01*
X49903984Y-94689193D01*
X49373849Y-94457583D01*
X48898794Y-94127410D01*
X48496915Y-93711252D01*
X48183525Y-93224967D01*
X47970555Y-92687067D01*
X47866119Y-92118041D01*
X47874198Y-91539574D01*
X47994478Y-90973694D01*
X48222385Y-90441949D01*
X48549233Y-89964600D01*
X48962575Y-89559825D01*
X49446663Y-89243047D01*
X49983062Y-89026328D01*
X50551337Y-88917924D01*
X51129851Y-88921963D01*
X51129851Y-88921963D01*
G37*
G36*
X117129851Y-88921963D02*
X117696562Y-89038292D01*
X118229880Y-89262478D01*
X118709500Y-89585986D01*
X119117151Y-89996493D01*
X119437303Y-90478359D01*
X119657758Y-91013226D01*
X119770061Y-91580394D01*
X119770061Y-91580404D01*
X119770127Y-91580738D01*
X119760900Y-92241522D01*
X119760824Y-92241856D01*
X119760824Y-92241868D01*
X119632732Y-92805669D01*
X119397423Y-93334180D01*
X119063944Y-93806918D01*
X118644987Y-94205884D01*
X118156527Y-94515870D01*
X117617152Y-94725081D01*
X117047419Y-94825539D01*
X116469020Y-94813424D01*
X115903984Y-94689193D01*
X115373849Y-94457583D01*
X114898794Y-94127410D01*
X114496915Y-93711252D01*
X114183525Y-93224967D01*
X113970555Y-92687067D01*
X113866119Y-92118041D01*
X113874198Y-91539574D01*
X113994478Y-90973694D01*
X114222385Y-90441949D01*
X114549233Y-89964600D01*
X114962575Y-89559825D01*
X115446663Y-89243047D01*
X115983062Y-89026328D01*
X116551337Y-88917924D01*
X117129851Y-88921963D01*
X117129851Y-88921963D01*
G37*
G36*
X73013484Y-91103240D02*
X73224703Y-91146598D01*
X73423474Y-91230153D01*
X73602233Y-91350727D01*
X73754169Y-91503728D01*
X73873492Y-91683323D01*
X73955658Y-91882672D01*
X73997471Y-92093846D01*
X73997471Y-92093855D01*
X73997537Y-92094189D01*
X73994098Y-92340469D01*
X73994022Y-92340803D01*
X73994022Y-92340815D01*
X73946331Y-92550731D01*
X73858629Y-92747713D01*
X73734339Y-92923906D01*
X73578187Y-93072606D01*
X73396136Y-93188139D01*
X73195105Y-93266115D01*
X72982762Y-93303556D01*
X72767188Y-93299041D01*
X72556592Y-93252738D01*
X72359006Y-93166414D01*
X72181950Y-93043357D01*
X72032164Y-92888250D01*
X71915363Y-92707010D01*
X71835987Y-92506529D01*
X71797062Y-92294445D01*
X71800073Y-92078847D01*
X71844902Y-91867940D01*
X71929846Y-91669752D01*
X72051665Y-91491841D01*
X72205722Y-91340976D01*
X72386145Y-91222911D01*
X72586066Y-91142137D01*
X72797865Y-91101735D01*
X73013484Y-91103240D01*
X73013484Y-91103240D01*
G37*
G36*
X59701920Y-91238451D02*
X59708116Y-91238494D01*
X59895006Y-91259457D01*
X60074264Y-91316321D01*
X60239064Y-91406921D01*
X60383128Y-91527804D01*
X60500968Y-91674368D01*
X60588096Y-91841029D01*
X60641194Y-92021439D01*
X60641198Y-92021478D01*
X60641200Y-92021486D01*
X60658241Y-92208725D01*
X60638588Y-92395710D01*
X60638585Y-92395719D01*
X60638581Y-92395759D01*
X60582969Y-92575410D01*
X60493523Y-92740838D01*
X60373648Y-92885742D01*
X60227910Y-93004603D01*
X60061861Y-93092893D01*
X59881826Y-93147248D01*
X59694662Y-93165600D01*
X59685303Y-93165600D01*
X59678080Y-93165549D01*
X59671884Y-93165506D01*
X59484994Y-93144543D01*
X59305736Y-93087679D01*
X59140936Y-92997079D01*
X58996872Y-92876196D01*
X58879032Y-92729632D01*
X58791904Y-92562971D01*
X58738806Y-92382561D01*
X58738802Y-92382522D01*
X58738800Y-92382514D01*
X58721759Y-92195275D01*
X58741412Y-92008290D01*
X58741415Y-92008281D01*
X58741419Y-92008241D01*
X58797031Y-91828590D01*
X58886477Y-91663162D01*
X59006352Y-91518258D01*
X59152090Y-91399397D01*
X59318139Y-91311107D01*
X59498174Y-91256752D01*
X59685338Y-91238400D01*
X59694697Y-91238400D01*
X59701920Y-91238451D01*
X59701920Y-91238451D01*
G37*
G36*
X57161920Y-91238451D02*
X57168116Y-91238494D01*
X57355006Y-91259457D01*
X57534264Y-91316321D01*
X57699064Y-91406921D01*
X57843128Y-91527804D01*
X57960968Y-91674368D01*
X58048096Y-91841029D01*
X58101194Y-92021439D01*
X58101198Y-92021478D01*
X58101200Y-92021486D01*
X58118241Y-92208725D01*
X58098588Y-92395710D01*
X58098585Y-92395719D01*
X58098581Y-92395759D01*
X58042969Y-92575410D01*
X57953523Y-92740838D01*
X57833648Y-92885742D01*
X57687910Y-93004603D01*
X57521861Y-93092893D01*
X57341826Y-93147248D01*
X57154662Y-93165600D01*
X57145303Y-93165600D01*
X57138080Y-93165549D01*
X57131884Y-93165506D01*
X56944994Y-93144543D01*
X56765736Y-93087679D01*
X56600936Y-92997079D01*
X56456872Y-92876196D01*
X56339032Y-92729632D01*
X56251904Y-92562971D01*
X56198806Y-92382561D01*
X56198802Y-92382522D01*
X56198800Y-92382514D01*
X56181759Y-92195275D01*
X56201412Y-92008290D01*
X56201415Y-92008281D01*
X56201419Y-92008241D01*
X56257031Y-91828590D01*
X56346477Y-91663162D01*
X56466352Y-91518258D01*
X56612090Y-91399397D01*
X56778139Y-91311107D01*
X56958174Y-91256752D01*
X57145338Y-91238400D01*
X57154697Y-91238400D01*
X57161920Y-91238451D01*
X57161920Y-91238451D01*
G37*
G36*
X62241920Y-91238451D02*
X62248116Y-91238494D01*
X62435006Y-91259457D01*
X62614264Y-91316321D01*
X62779064Y-91406921D01*
X62923128Y-91527804D01*
X63040968Y-91674368D01*
X63128096Y-91841029D01*
X63181194Y-92021439D01*
X63181198Y-92021478D01*
X63181200Y-92021486D01*
X63198241Y-92208725D01*
X63178588Y-92395710D01*
X63178585Y-92395719D01*
X63178581Y-92395759D01*
X63122969Y-92575410D01*
X63033523Y-92740838D01*
X62913648Y-92885742D01*
X62767910Y-93004603D01*
X62601861Y-93092893D01*
X62421826Y-93147248D01*
X62234662Y-93165600D01*
X62225303Y-93165600D01*
X62218080Y-93165549D01*
X62211884Y-93165506D01*
X62024994Y-93144543D01*
X61845736Y-93087679D01*
X61680936Y-92997079D01*
X61536872Y-92876196D01*
X61419032Y-92729632D01*
X61331904Y-92562971D01*
X61278806Y-92382561D01*
X61278802Y-92382522D01*
X61278800Y-92382514D01*
X61261759Y-92195275D01*
X61281412Y-92008290D01*
X61281415Y-92008281D01*
X61281419Y-92008241D01*
X61337031Y-91828590D01*
X61426477Y-91663162D01*
X61546352Y-91518258D01*
X61692090Y-91399397D01*
X61858139Y-91311107D01*
X62038174Y-91256752D01*
X62225338Y-91238400D01*
X62234697Y-91238400D01*
X62241920Y-91238451D01*
X62241920Y-91238451D01*
G37*
G36*
X67321920Y-91238451D02*
X67328116Y-91238494D01*
X67515006Y-91259457D01*
X67694264Y-91316321D01*
X67859064Y-91406921D01*
X68003128Y-91527804D01*
X68120968Y-91674368D01*
X68208096Y-91841029D01*
X68261194Y-92021439D01*
X68261198Y-92021478D01*
X68261200Y-92021486D01*
X68278241Y-92208725D01*
X68258588Y-92395710D01*
X68258585Y-92395719D01*
X68258581Y-92395759D01*
X68202969Y-92575410D01*
X68113523Y-92740838D01*
X67993648Y-92885742D01*
X67847910Y-93004603D01*
X67681861Y-93092893D01*
X67501826Y-93147248D01*
X67314662Y-93165600D01*
X67305303Y-93165600D01*
X67298080Y-93165549D01*
X67291884Y-93165506D01*
X67104994Y-93144543D01*
X66925736Y-93087679D01*
X66760936Y-92997079D01*
X66616872Y-92876196D01*
X66499032Y-92729632D01*
X66411904Y-92562971D01*
X66358806Y-92382561D01*
X66358802Y-92382522D01*
X66358800Y-92382514D01*
X66341759Y-92195275D01*
X66361412Y-92008290D01*
X66361415Y-92008281D01*
X66361419Y-92008241D01*
X66417031Y-91828590D01*
X66506477Y-91663162D01*
X66626352Y-91518258D01*
X66772090Y-91399397D01*
X66938139Y-91311107D01*
X67118174Y-91256752D01*
X67305338Y-91238400D01*
X67314697Y-91238400D01*
X67321920Y-91238451D01*
X67321920Y-91238451D01*
G37*
G36*
X69861920Y-91238451D02*
X69868116Y-91238494D01*
X70055006Y-91259457D01*
X70234264Y-91316321D01*
X70399064Y-91406921D01*
X70543128Y-91527804D01*
X70660968Y-91674368D01*
X70748096Y-91841029D01*
X70801194Y-92021439D01*
X70801198Y-92021478D01*
X70801200Y-92021486D01*
X70818241Y-92208725D01*
X70798588Y-92395710D01*
X70798585Y-92395719D01*
X70798581Y-92395759D01*
X70742969Y-92575410D01*
X70653523Y-92740838D01*
X70533648Y-92885742D01*
X70387910Y-93004603D01*
X70221861Y-93092893D01*
X70041826Y-93147248D01*
X69854662Y-93165600D01*
X69845303Y-93165600D01*
X69838080Y-93165549D01*
X69831884Y-93165506D01*
X69644994Y-93144543D01*
X69465736Y-93087679D01*
X69300936Y-92997079D01*
X69156872Y-92876196D01*
X69039032Y-92729632D01*
X68951904Y-92562971D01*
X68898806Y-92382561D01*
X68898802Y-92382522D01*
X68898800Y-92382514D01*
X68881759Y-92195275D01*
X68901412Y-92008290D01*
X68901415Y-92008281D01*
X68901419Y-92008241D01*
X68957031Y-91828590D01*
X69046477Y-91663162D01*
X69166352Y-91518258D01*
X69312090Y-91399397D01*
X69478139Y-91311107D01*
X69658174Y-91256752D01*
X69845338Y-91238400D01*
X69854697Y-91238400D01*
X69861920Y-91238451D01*
X69861920Y-91238451D01*
G37*
G36*
X64781920Y-91238451D02*
X64788116Y-91238494D01*
X64975006Y-91259457D01*
X65154264Y-91316321D01*
X65319064Y-91406921D01*
X65463128Y-91527804D01*
X65580968Y-91674368D01*
X65668096Y-91841029D01*
X65721194Y-92021439D01*
X65721198Y-92021478D01*
X65721200Y-92021486D01*
X65738241Y-92208725D01*
X65718588Y-92395710D01*
X65718585Y-92395719D01*
X65718581Y-92395759D01*
X65662969Y-92575410D01*
X65573523Y-92740838D01*
X65453648Y-92885742D01*
X65307910Y-93004603D01*
X65141861Y-93092893D01*
X64961826Y-93147248D01*
X64774662Y-93165600D01*
X64765303Y-93165600D01*
X64758080Y-93165549D01*
X64751884Y-93165506D01*
X64564994Y-93144543D01*
X64385736Y-93087679D01*
X64220936Y-92997079D01*
X64076872Y-92876196D01*
X63959032Y-92729632D01*
X63871904Y-92562971D01*
X63818806Y-92382561D01*
X63818802Y-92382522D01*
X63818800Y-92382514D01*
X63801759Y-92195275D01*
X63821412Y-92008290D01*
X63821415Y-92008281D01*
X63821419Y-92008241D01*
X63877031Y-91828590D01*
X63966477Y-91663162D01*
X64086352Y-91518258D01*
X64232090Y-91399397D01*
X64398139Y-91311107D01*
X64578174Y-91256752D01*
X64765338Y-91238400D01*
X64774697Y-91238400D01*
X64781920Y-91238451D01*
X64781920Y-91238451D01*
G37*
G36*
X110035034Y-90912664D02*
X110227141Y-90952098D01*
X110407925Y-91028093D01*
X110570509Y-91137756D01*
X110708697Y-91276913D01*
X110817223Y-91440256D01*
X110891954Y-91621567D01*
X110929978Y-91813601D01*
X110929978Y-91813616D01*
X110930043Y-91813945D01*
X110926916Y-92037940D01*
X110926839Y-92038278D01*
X110926839Y-92038286D01*
X110883471Y-92229175D01*
X110803705Y-92408333D01*
X110690661Y-92568583D01*
X110548639Y-92703828D01*
X110383061Y-92808906D01*
X110200221Y-92879827D01*
X110007093Y-92913879D01*
X109811025Y-92909773D01*
X109619485Y-92867660D01*
X109439779Y-92789147D01*
X109278742Y-92677225D01*
X109142511Y-92536153D01*
X109036279Y-92371313D01*
X108964085Y-92188974D01*
X108928682Y-91996080D01*
X108931421Y-91799990D01*
X108972194Y-91608168D01*
X109049451Y-91427914D01*
X109160247Y-91266101D01*
X109300364Y-91128887D01*
X109464461Y-91021505D01*
X109646292Y-90948041D01*
X109838925Y-90911294D01*
X110035034Y-90912664D01*
X110035034Y-90912664D01*
G37*
G36*
X103535034Y-90912664D02*
X103727141Y-90952098D01*
X103907925Y-91028093D01*
X104070509Y-91137756D01*
X104208697Y-91276913D01*
X104317223Y-91440256D01*
X104391954Y-91621567D01*
X104429978Y-91813601D01*
X104429978Y-91813616D01*
X104430043Y-91813945D01*
X104426916Y-92037940D01*
X104426839Y-92038278D01*
X104426839Y-92038286D01*
X104383471Y-92229175D01*
X104303705Y-92408333D01*
X104190661Y-92568583D01*
X104048639Y-92703828D01*
X103883061Y-92808906D01*
X103700221Y-92879827D01*
X103507093Y-92913879D01*
X103311025Y-92909773D01*
X103119485Y-92867660D01*
X102939779Y-92789147D01*
X102778742Y-92677225D01*
X102642511Y-92536153D01*
X102536279Y-92371313D01*
X102464085Y-92188974D01*
X102428682Y-91996080D01*
X102431421Y-91799990D01*
X102472194Y-91608168D01*
X102549451Y-91427914D01*
X102660247Y-91266101D01*
X102800364Y-91128887D01*
X102964461Y-91021505D01*
X103146292Y-90948041D01*
X103338925Y-90911294D01*
X103535034Y-90912664D01*
X103535034Y-90912664D01*
G37*
G36*
X100891034Y-90912664D02*
X101083141Y-90952098D01*
X101263925Y-91028093D01*
X101426509Y-91137756D01*
X101564697Y-91276913D01*
X101673223Y-91440256D01*
X101747954Y-91621567D01*
X101785978Y-91813601D01*
X101785978Y-91813616D01*
X101786043Y-91813945D01*
X101782916Y-92037940D01*
X101782839Y-92038278D01*
X101782839Y-92038286D01*
X101739471Y-92229175D01*
X101659705Y-92408333D01*
X101546661Y-92568583D01*
X101404639Y-92703828D01*
X101239061Y-92808906D01*
X101056221Y-92879827D01*
X100863093Y-92913879D01*
X100667025Y-92909773D01*
X100475485Y-92867660D01*
X100295779Y-92789147D01*
X100134742Y-92677225D01*
X99998511Y-92536153D01*
X99892279Y-92371313D01*
X99820085Y-92188974D01*
X99784682Y-91996080D01*
X99787421Y-91799990D01*
X99828194Y-91608168D01*
X99905451Y-91427914D01*
X100016247Y-91266101D01*
X100156364Y-91128887D01*
X100320461Y-91021505D01*
X100502292Y-90948041D01*
X100694925Y-90911294D01*
X100891034Y-90912664D01*
X100891034Y-90912664D01*
G37*
G36*
X94391034Y-90912664D02*
X94583141Y-90952098D01*
X94763925Y-91028093D01*
X94926509Y-91137756D01*
X95064697Y-91276913D01*
X95173223Y-91440256D01*
X95247954Y-91621567D01*
X95285978Y-91813601D01*
X95285978Y-91813616D01*
X95286043Y-91813945D01*
X95282916Y-92037940D01*
X95282839Y-92038278D01*
X95282839Y-92038286D01*
X95239471Y-92229175D01*
X95159705Y-92408333D01*
X95046661Y-92568583D01*
X94904639Y-92703828D01*
X94739061Y-92808906D01*
X94556221Y-92879827D01*
X94363093Y-92913879D01*
X94167025Y-92909773D01*
X93975485Y-92867660D01*
X93795779Y-92789147D01*
X93634742Y-92677225D01*
X93498511Y-92536153D01*
X93392279Y-92371313D01*
X93320085Y-92188974D01*
X93284682Y-91996080D01*
X93287421Y-91799990D01*
X93328194Y-91608168D01*
X93405451Y-91427914D01*
X93516247Y-91266101D01*
X93656364Y-91128887D01*
X93820461Y-91021505D01*
X94002292Y-90948041D01*
X94194925Y-90911294D01*
X94391034Y-90912664D01*
X94391034Y-90912664D01*
G37*
G36*
X80100539Y-89298572D02*
X80266136Y-89332564D01*
X80421971Y-89398072D01*
X80562119Y-89492602D01*
X80681237Y-89612555D01*
X80774788Y-89753359D01*
X80839203Y-89909645D01*
X80871971Y-90075133D01*
X80871971Y-90075143D01*
X80872037Y-90075477D01*
X80869341Y-90268560D01*
X80869265Y-90268894D01*
X80869265Y-90268905D01*
X80831891Y-90433406D01*
X80763133Y-90587839D01*
X80665690Y-90725974D01*
X80543266Y-90842556D01*
X80400539Y-90933134D01*
X80242931Y-90994267D01*
X80076454Y-91023620D01*
X79907444Y-91020081D01*
X79742336Y-90983779D01*
X79587431Y-90916103D01*
X79448613Y-90819622D01*
X79331184Y-90698020D01*
X79239612Y-90555928D01*
X79177381Y-90398752D01*
X79146864Y-90232476D01*
X79149225Y-90063447D01*
X79184371Y-89898097D01*
X79250967Y-89742718D01*
X79346473Y-89603235D01*
X79467254Y-89484957D01*
X79608705Y-89392394D01*
X79765444Y-89329067D01*
X79931493Y-89297392D01*
X80100539Y-89298572D01*
X80100539Y-89298572D01*
G37*
G36*
X67321920Y-88698451D02*
X67328116Y-88698494D01*
X67515006Y-88719457D01*
X67694264Y-88776321D01*
X67859064Y-88866921D01*
X68003128Y-88987804D01*
X68120968Y-89134368D01*
X68208096Y-89301029D01*
X68261194Y-89481439D01*
X68261198Y-89481478D01*
X68261200Y-89481486D01*
X68278241Y-89668725D01*
X68258588Y-89855710D01*
X68258585Y-89855719D01*
X68258581Y-89855759D01*
X68202969Y-90035410D01*
X68113523Y-90200838D01*
X67993648Y-90345742D01*
X67847910Y-90464603D01*
X67681861Y-90552893D01*
X67501826Y-90607248D01*
X67314662Y-90625600D01*
X67305303Y-90625600D01*
X67298080Y-90625549D01*
X67291884Y-90625506D01*
X67104994Y-90604543D01*
X66925736Y-90547679D01*
X66760936Y-90457079D01*
X66616872Y-90336196D01*
X66499032Y-90189632D01*
X66411904Y-90022971D01*
X66358806Y-89842561D01*
X66358802Y-89842522D01*
X66358800Y-89842514D01*
X66341759Y-89655275D01*
X66361412Y-89468290D01*
X66361415Y-89468281D01*
X66361419Y-89468241D01*
X66417031Y-89288590D01*
X66506477Y-89123162D01*
X66626352Y-88978258D01*
X66772090Y-88859397D01*
X66938139Y-88771107D01*
X67118174Y-88716752D01*
X67305338Y-88698400D01*
X67314697Y-88698400D01*
X67321920Y-88698451D01*
X67321920Y-88698451D01*
G37*
G36*
X59701920Y-88698451D02*
X59708116Y-88698494D01*
X59895006Y-88719457D01*
X60074264Y-88776321D01*
X60239064Y-88866921D01*
X60383128Y-88987804D01*
X60500968Y-89134368D01*
X60588096Y-89301029D01*
X60641194Y-89481439D01*
X60641198Y-89481478D01*
X60641200Y-89481486D01*
X60658241Y-89668725D01*
X60638588Y-89855710D01*
X60638585Y-89855719D01*
X60638581Y-89855759D01*
X60582969Y-90035410D01*
X60493523Y-90200838D01*
X60373648Y-90345742D01*
X60227910Y-90464603D01*
X60061861Y-90552893D01*
X59881826Y-90607248D01*
X59694662Y-90625600D01*
X59685303Y-90625600D01*
X59678080Y-90625549D01*
X59671884Y-90625506D01*
X59484994Y-90604543D01*
X59305736Y-90547679D01*
X59140936Y-90457079D01*
X58996872Y-90336196D01*
X58879032Y-90189632D01*
X58791904Y-90022971D01*
X58738806Y-89842561D01*
X58738802Y-89842522D01*
X58738800Y-89842514D01*
X58721759Y-89655275D01*
X58741412Y-89468290D01*
X58741415Y-89468281D01*
X58741419Y-89468241D01*
X58797031Y-89288590D01*
X58886477Y-89123162D01*
X59006352Y-88978258D01*
X59152090Y-88859397D01*
X59318139Y-88771107D01*
X59498174Y-88716752D01*
X59685338Y-88698400D01*
X59694697Y-88698400D01*
X59701920Y-88698451D01*
X59701920Y-88698451D01*
G37*
G36*
X62241920Y-88698451D02*
X62248116Y-88698494D01*
X62435006Y-88719457D01*
X62614264Y-88776321D01*
X62779064Y-88866921D01*
X62923128Y-88987804D01*
X63040968Y-89134368D01*
X63128096Y-89301029D01*
X63181194Y-89481439D01*
X63181198Y-89481478D01*
X63181200Y-89481486D01*
X63198241Y-89668725D01*
X63178588Y-89855710D01*
X63178585Y-89855719D01*
X63178581Y-89855759D01*
X63122969Y-90035410D01*
X63033523Y-90200838D01*
X62913648Y-90345742D01*
X62767910Y-90464603D01*
X62601861Y-90552893D01*
X62421826Y-90607248D01*
X62234662Y-90625600D01*
X62225303Y-90625600D01*
X62218080Y-90625549D01*
X62211884Y-90625506D01*
X62024994Y-90604543D01*
X61845736Y-90547679D01*
X61680936Y-90457079D01*
X61536872Y-90336196D01*
X61419032Y-90189632D01*
X61331904Y-90022971D01*
X61278806Y-89842561D01*
X61278802Y-89842522D01*
X61278800Y-89842514D01*
X61261759Y-89655275D01*
X61281412Y-89468290D01*
X61281415Y-89468281D01*
X61281419Y-89468241D01*
X61337031Y-89288590D01*
X61426477Y-89123162D01*
X61546352Y-88978258D01*
X61692090Y-88859397D01*
X61858139Y-88771107D01*
X62038174Y-88716752D01*
X62225338Y-88698400D01*
X62234697Y-88698400D01*
X62241920Y-88698451D01*
X62241920Y-88698451D01*
G37*
G36*
X64781920Y-88698451D02*
X64788116Y-88698494D01*
X64975006Y-88719457D01*
X65154264Y-88776321D01*
X65319064Y-88866921D01*
X65463128Y-88987804D01*
X65580968Y-89134368D01*
X65668096Y-89301029D01*
X65721194Y-89481439D01*
X65721198Y-89481478D01*
X65721200Y-89481486D01*
X65738241Y-89668725D01*
X65718588Y-89855710D01*
X65718585Y-89855719D01*
X65718581Y-89855759D01*
X65662969Y-90035410D01*
X65573523Y-90200838D01*
X65453648Y-90345742D01*
X65307910Y-90464603D01*
X65141861Y-90552893D01*
X64961826Y-90607248D01*
X64774662Y-90625600D01*
X64765303Y-90625600D01*
X64758080Y-90625549D01*
X64751884Y-90625506D01*
X64564994Y-90604543D01*
X64385736Y-90547679D01*
X64220936Y-90457079D01*
X64076872Y-90336196D01*
X63959032Y-90189632D01*
X63871904Y-90022971D01*
X63818806Y-89842561D01*
X63818802Y-89842522D01*
X63818800Y-89842514D01*
X63801759Y-89655275D01*
X63821412Y-89468290D01*
X63821415Y-89468281D01*
X63821419Y-89468241D01*
X63877031Y-89288590D01*
X63966477Y-89123162D01*
X64086352Y-88978258D01*
X64232090Y-88859397D01*
X64398139Y-88771107D01*
X64578174Y-88716752D01*
X64765338Y-88698400D01*
X64774697Y-88698400D01*
X64781920Y-88698451D01*
X64781920Y-88698451D01*
G37*
G36*
X69861920Y-88698451D02*
X69868116Y-88698494D01*
X70055006Y-88719457D01*
X70234264Y-88776321D01*
X70399064Y-88866921D01*
X70543128Y-88987804D01*
X70660968Y-89134368D01*
X70748096Y-89301029D01*
X70801194Y-89481439D01*
X70801198Y-89481478D01*
X70801200Y-89481486D01*
X70818241Y-89668725D01*
X70798588Y-89855710D01*
X70798585Y-89855719D01*
X70798581Y-89855759D01*
X70742969Y-90035410D01*
X70653523Y-90200838D01*
X70533648Y-90345742D01*
X70387910Y-90464603D01*
X70221861Y-90552893D01*
X70041826Y-90607248D01*
X69854662Y-90625600D01*
X69845303Y-90625600D01*
X69838080Y-90625549D01*
X69831884Y-90625506D01*
X69644994Y-90604543D01*
X69465736Y-90547679D01*
X69300936Y-90457079D01*
X69156872Y-90336196D01*
X69039032Y-90189632D01*
X68951904Y-90022971D01*
X68898806Y-89842561D01*
X68898802Y-89842522D01*
X68898800Y-89842514D01*
X68881759Y-89655275D01*
X68901412Y-89468290D01*
X68901415Y-89468281D01*
X68901419Y-89468241D01*
X68957031Y-89288590D01*
X69046477Y-89123162D01*
X69166352Y-88978258D01*
X69312090Y-88859397D01*
X69478139Y-88771107D01*
X69658174Y-88716752D01*
X69845338Y-88698400D01*
X69854697Y-88698400D01*
X69861920Y-88698451D01*
X69861920Y-88698451D01*
G37*
G36*
X57161920Y-88698451D02*
X57168116Y-88698494D01*
X57355006Y-88719457D01*
X57534264Y-88776321D01*
X57699064Y-88866921D01*
X57843128Y-88987804D01*
X57960968Y-89134368D01*
X58048096Y-89301029D01*
X58101194Y-89481439D01*
X58101198Y-89481478D01*
X58101200Y-89481486D01*
X58118241Y-89668725D01*
X58098588Y-89855710D01*
X58098585Y-89855719D01*
X58098581Y-89855759D01*
X58042969Y-90035410D01*
X57953523Y-90200838D01*
X57833648Y-90345742D01*
X57687910Y-90464603D01*
X57521861Y-90552893D01*
X57341826Y-90607248D01*
X57154662Y-90625600D01*
X57145303Y-90625600D01*
X57138080Y-90625549D01*
X57131884Y-90625506D01*
X56944994Y-90604543D01*
X56765736Y-90547679D01*
X56600936Y-90457079D01*
X56456872Y-90336196D01*
X56339032Y-90189632D01*
X56251904Y-90022971D01*
X56198806Y-89842561D01*
X56198802Y-89842522D01*
X56198800Y-89842514D01*
X56181759Y-89655275D01*
X56201412Y-89468290D01*
X56201415Y-89468281D01*
X56201419Y-89468241D01*
X56257031Y-89288590D01*
X56346477Y-89123162D01*
X56466352Y-88978258D01*
X56612090Y-88859397D01*
X56778139Y-88771107D01*
X56958174Y-88716752D01*
X57145338Y-88698400D01*
X57154697Y-88698400D01*
X57161920Y-88698451D01*
X57161920Y-88698451D01*
G37*
G36*
X110035034Y-86412664D02*
X110227141Y-86452098D01*
X110407925Y-86528093D01*
X110570509Y-86637756D01*
X110708697Y-86776913D01*
X110817223Y-86940256D01*
X110891954Y-87121567D01*
X110929978Y-87313601D01*
X110929978Y-87313616D01*
X110930043Y-87313945D01*
X110926916Y-87537940D01*
X110926839Y-87538278D01*
X110926839Y-87538286D01*
X110883471Y-87729175D01*
X110803705Y-87908333D01*
X110690661Y-88068583D01*
X110548639Y-88203828D01*
X110383061Y-88308906D01*
X110200221Y-88379827D01*
X110007093Y-88413879D01*
X109811025Y-88409773D01*
X109619485Y-88367660D01*
X109439779Y-88289147D01*
X109278742Y-88177225D01*
X109142511Y-88036153D01*
X109036279Y-87871313D01*
X108964085Y-87688974D01*
X108928682Y-87496080D01*
X108931421Y-87299990D01*
X108972194Y-87108168D01*
X109049451Y-86927914D01*
X109160247Y-86766101D01*
X109300364Y-86628887D01*
X109464461Y-86521505D01*
X109646292Y-86448041D01*
X109838925Y-86411294D01*
X110035034Y-86412664D01*
X110035034Y-86412664D01*
G37*
G36*
X94391034Y-86412664D02*
X94583141Y-86452098D01*
X94763925Y-86528093D01*
X94926509Y-86637756D01*
X95064697Y-86776913D01*
X95173223Y-86940256D01*
X95247954Y-87121567D01*
X95285978Y-87313601D01*
X95285978Y-87313616D01*
X95286043Y-87313945D01*
X95282916Y-87537940D01*
X95282839Y-87538278D01*
X95282839Y-87538286D01*
X95239471Y-87729175D01*
X95159705Y-87908333D01*
X95046661Y-88068583D01*
X94904639Y-88203828D01*
X94739061Y-88308906D01*
X94556221Y-88379827D01*
X94363093Y-88413879D01*
X94167025Y-88409773D01*
X93975485Y-88367660D01*
X93795779Y-88289147D01*
X93634742Y-88177225D01*
X93498511Y-88036153D01*
X93392279Y-87871313D01*
X93320085Y-87688974D01*
X93284682Y-87496080D01*
X93287421Y-87299990D01*
X93328194Y-87108168D01*
X93405451Y-86927914D01*
X93516247Y-86766101D01*
X93656364Y-86628887D01*
X93820461Y-86521505D01*
X94002292Y-86448041D01*
X94194925Y-86411294D01*
X94391034Y-86412664D01*
X94391034Y-86412664D01*
G37*
G36*
X103535034Y-86412664D02*
X103727141Y-86452098D01*
X103907925Y-86528093D01*
X104070509Y-86637756D01*
X104208697Y-86776913D01*
X104317223Y-86940256D01*
X104391954Y-87121567D01*
X104429978Y-87313601D01*
X104429978Y-87313616D01*
X104430043Y-87313945D01*
X104426916Y-87537940D01*
X104426839Y-87538278D01*
X104426839Y-87538286D01*
X104383471Y-87729175D01*
X104303705Y-87908333D01*
X104190661Y-88068583D01*
X104048639Y-88203828D01*
X103883061Y-88308906D01*
X103700221Y-88379827D01*
X103507093Y-88413879D01*
X103311025Y-88409773D01*
X103119485Y-88367660D01*
X102939779Y-88289147D01*
X102778742Y-88177225D01*
X102642511Y-88036153D01*
X102536279Y-87871313D01*
X102464085Y-87688974D01*
X102428682Y-87496080D01*
X102431421Y-87299990D01*
X102472194Y-87108168D01*
X102549451Y-86927914D01*
X102660247Y-86766101D01*
X102800364Y-86628887D01*
X102964461Y-86521505D01*
X103146292Y-86448041D01*
X103338925Y-86411294D01*
X103535034Y-86412664D01*
X103535034Y-86412664D01*
G37*
G36*
X100891034Y-86412664D02*
X101083141Y-86452098D01*
X101263925Y-86528093D01*
X101426509Y-86637756D01*
X101564697Y-86776913D01*
X101673223Y-86940256D01*
X101747954Y-87121567D01*
X101785978Y-87313601D01*
X101785978Y-87313616D01*
X101786043Y-87313945D01*
X101782916Y-87537940D01*
X101782839Y-87538278D01*
X101782839Y-87538286D01*
X101739471Y-87729175D01*
X101659705Y-87908333D01*
X101546661Y-88068583D01*
X101404639Y-88203828D01*
X101239061Y-88308906D01*
X101056221Y-88379827D01*
X100863093Y-88413879D01*
X100667025Y-88409773D01*
X100475485Y-88367660D01*
X100295779Y-88289147D01*
X100134742Y-88177225D01*
X99998511Y-88036153D01*
X99892279Y-87871313D01*
X99820085Y-87688974D01*
X99784682Y-87496080D01*
X99787421Y-87299990D01*
X99828194Y-87108168D01*
X99905451Y-86927914D01*
X100016247Y-86766101D01*
X100156364Y-86628887D01*
X100320461Y-86521505D01*
X100502292Y-86448041D01*
X100694925Y-86411294D01*
X100891034Y-86412664D01*
X100891034Y-86412664D01*
G37*
G36*
X69861920Y-86158451D02*
X69868116Y-86158494D01*
X70055006Y-86179457D01*
X70234264Y-86236321D01*
X70399064Y-86326921D01*
X70543128Y-86447804D01*
X70660968Y-86594368D01*
X70748096Y-86761029D01*
X70801194Y-86941439D01*
X70801198Y-86941478D01*
X70801200Y-86941486D01*
X70818241Y-87128725D01*
X70798588Y-87315710D01*
X70798585Y-87315719D01*
X70798581Y-87315759D01*
X70742969Y-87495410D01*
X70653523Y-87660838D01*
X70533648Y-87805742D01*
X70387910Y-87924603D01*
X70221861Y-88012893D01*
X70041826Y-88067248D01*
X69854662Y-88085600D01*
X69845303Y-88085600D01*
X69838080Y-88085549D01*
X69831884Y-88085506D01*
X69644994Y-88064543D01*
X69465736Y-88007679D01*
X69300936Y-87917079D01*
X69156872Y-87796196D01*
X69039032Y-87649632D01*
X68951904Y-87482971D01*
X68898806Y-87302561D01*
X68898802Y-87302522D01*
X68898800Y-87302514D01*
X68881759Y-87115275D01*
X68901412Y-86928290D01*
X68901415Y-86928281D01*
X68901419Y-86928241D01*
X68957031Y-86748590D01*
X69046477Y-86583162D01*
X69166352Y-86438258D01*
X69312090Y-86319397D01*
X69478139Y-86231107D01*
X69658174Y-86176752D01*
X69845338Y-86158400D01*
X69854697Y-86158400D01*
X69861920Y-86158451D01*
X69861920Y-86158451D01*
G37*
G36*
X67321920Y-86158451D02*
X67328116Y-86158494D01*
X67515006Y-86179457D01*
X67694264Y-86236321D01*
X67859064Y-86326921D01*
X68003128Y-86447804D01*
X68120968Y-86594368D01*
X68208096Y-86761029D01*
X68261194Y-86941439D01*
X68261198Y-86941478D01*
X68261200Y-86941486D01*
X68278241Y-87128725D01*
X68258588Y-87315710D01*
X68258585Y-87315719D01*
X68258581Y-87315759D01*
X68202969Y-87495410D01*
X68113523Y-87660838D01*
X67993648Y-87805742D01*
X67847910Y-87924603D01*
X67681861Y-88012893D01*
X67501826Y-88067248D01*
X67314662Y-88085600D01*
X67305303Y-88085600D01*
X67298080Y-88085549D01*
X67291884Y-88085506D01*
X67104994Y-88064543D01*
X66925736Y-88007679D01*
X66760936Y-87917079D01*
X66616872Y-87796196D01*
X66499032Y-87649632D01*
X66411904Y-87482971D01*
X66358806Y-87302561D01*
X66358802Y-87302522D01*
X66358800Y-87302514D01*
X66341759Y-87115275D01*
X66361412Y-86928290D01*
X66361415Y-86928281D01*
X66361419Y-86928241D01*
X66417031Y-86748590D01*
X66506477Y-86583162D01*
X66626352Y-86438258D01*
X66772090Y-86319397D01*
X66938139Y-86231107D01*
X67118174Y-86176752D01*
X67305338Y-86158400D01*
X67314697Y-86158400D01*
X67321920Y-86158451D01*
X67321920Y-86158451D01*
G37*
G36*
X64781920Y-86158451D02*
X64788116Y-86158494D01*
X64975006Y-86179457D01*
X65154264Y-86236321D01*
X65319064Y-86326921D01*
X65463128Y-86447804D01*
X65580968Y-86594368D01*
X65668096Y-86761029D01*
X65721194Y-86941439D01*
X65721198Y-86941478D01*
X65721200Y-86941486D01*
X65738241Y-87128725D01*
X65718588Y-87315710D01*
X65718585Y-87315719D01*
X65718581Y-87315759D01*
X65662969Y-87495410D01*
X65573523Y-87660838D01*
X65453648Y-87805742D01*
X65307910Y-87924603D01*
X65141861Y-88012893D01*
X64961826Y-88067248D01*
X64774662Y-88085600D01*
X64765303Y-88085600D01*
X64758080Y-88085549D01*
X64751884Y-88085506D01*
X64564994Y-88064543D01*
X64385736Y-88007679D01*
X64220936Y-87917079D01*
X64076872Y-87796196D01*
X63959032Y-87649632D01*
X63871904Y-87482971D01*
X63818806Y-87302561D01*
X63818802Y-87302522D01*
X63818800Y-87302514D01*
X63801759Y-87115275D01*
X63821412Y-86928290D01*
X63821415Y-86928281D01*
X63821419Y-86928241D01*
X63877031Y-86748590D01*
X63966477Y-86583162D01*
X64086352Y-86438258D01*
X64232090Y-86319397D01*
X64398139Y-86231107D01*
X64578174Y-86176752D01*
X64765338Y-86158400D01*
X64774697Y-86158400D01*
X64781920Y-86158451D01*
X64781920Y-86158451D01*
G37*
G36*
X57161920Y-86158451D02*
X57168116Y-86158494D01*
X57355006Y-86179457D01*
X57534264Y-86236321D01*
X57699064Y-86326921D01*
X57843128Y-86447804D01*
X57960968Y-86594368D01*
X58048096Y-86761029D01*
X58101194Y-86941439D01*
X58101198Y-86941478D01*
X58101200Y-86941486D01*
X58118241Y-87128725D01*
X58098588Y-87315710D01*
X58098585Y-87315719D01*
X58098581Y-87315759D01*
X58042969Y-87495410D01*
X57953523Y-87660838D01*
X57833648Y-87805742D01*
X57687910Y-87924603D01*
X57521861Y-88012893D01*
X57341826Y-88067248D01*
X57154662Y-88085600D01*
X57145303Y-88085600D01*
X57138080Y-88085549D01*
X57131884Y-88085506D01*
X56944994Y-88064543D01*
X56765736Y-88007679D01*
X56600936Y-87917079D01*
X56456872Y-87796196D01*
X56339032Y-87649632D01*
X56251904Y-87482971D01*
X56198806Y-87302561D01*
X56198802Y-87302522D01*
X56198800Y-87302514D01*
X56181759Y-87115275D01*
X56201412Y-86928290D01*
X56201415Y-86928281D01*
X56201419Y-86928241D01*
X56257031Y-86748590D01*
X56346477Y-86583162D01*
X56466352Y-86438258D01*
X56612090Y-86319397D01*
X56778139Y-86231107D01*
X56958174Y-86176752D01*
X57145338Y-86158400D01*
X57154697Y-86158400D01*
X57161920Y-86158451D01*
X57161920Y-86158451D01*
G37*
G36*
X62241920Y-86158451D02*
X62248116Y-86158494D01*
X62435006Y-86179457D01*
X62614264Y-86236321D01*
X62779064Y-86326921D01*
X62923128Y-86447804D01*
X63040968Y-86594368D01*
X63128096Y-86761029D01*
X63181194Y-86941439D01*
X63181198Y-86941478D01*
X63181200Y-86941486D01*
X63198241Y-87128725D01*
X63178588Y-87315710D01*
X63178585Y-87315719D01*
X63178581Y-87315759D01*
X63122969Y-87495410D01*
X63033523Y-87660838D01*
X62913648Y-87805742D01*
X62767910Y-87924603D01*
X62601861Y-88012893D01*
X62421826Y-88067248D01*
X62234662Y-88085600D01*
X62225303Y-88085600D01*
X62218080Y-88085549D01*
X62211884Y-88085506D01*
X62024994Y-88064543D01*
X61845736Y-88007679D01*
X61680936Y-87917079D01*
X61536872Y-87796196D01*
X61419032Y-87649632D01*
X61331904Y-87482971D01*
X61278806Y-87302561D01*
X61278802Y-87302522D01*
X61278800Y-87302514D01*
X61261759Y-87115275D01*
X61281412Y-86928290D01*
X61281415Y-86928281D01*
X61281419Y-86928241D01*
X61337031Y-86748590D01*
X61426477Y-86583162D01*
X61546352Y-86438258D01*
X61692090Y-86319397D01*
X61858139Y-86231107D01*
X62038174Y-86176752D01*
X62225338Y-86158400D01*
X62234697Y-86158400D01*
X62241920Y-86158451D01*
X62241920Y-86158451D01*
G37*
G36*
X59701920Y-86158451D02*
X59708116Y-86158494D01*
X59895006Y-86179457D01*
X60074264Y-86236321D01*
X60239064Y-86326921D01*
X60383128Y-86447804D01*
X60500968Y-86594368D01*
X60588096Y-86761029D01*
X60641194Y-86941439D01*
X60641198Y-86941478D01*
X60641200Y-86941486D01*
X60658241Y-87128725D01*
X60638588Y-87315710D01*
X60638585Y-87315719D01*
X60638581Y-87315759D01*
X60582969Y-87495410D01*
X60493523Y-87660838D01*
X60373648Y-87805742D01*
X60227910Y-87924603D01*
X60061861Y-88012893D01*
X59881826Y-88067248D01*
X59694662Y-88085600D01*
X59685303Y-88085600D01*
X59678080Y-88085549D01*
X59671884Y-88085506D01*
X59484994Y-88064543D01*
X59305736Y-88007679D01*
X59140936Y-87917079D01*
X58996872Y-87796196D01*
X58879032Y-87649632D01*
X58791904Y-87482971D01*
X58738806Y-87302561D01*
X58738802Y-87302522D01*
X58738800Y-87302514D01*
X58721759Y-87115275D01*
X58741412Y-86928290D01*
X58741415Y-86928281D01*
X58741419Y-86928241D01*
X58797031Y-86748590D01*
X58886477Y-86583162D01*
X59006352Y-86438258D01*
X59152090Y-86319397D01*
X59318139Y-86231107D01*
X59498174Y-86176752D01*
X59685338Y-86158400D01*
X59694697Y-86158400D01*
X59701920Y-86158451D01*
X59701920Y-86158451D01*
G37*
G36*
X51763600Y-86815600D02*
X49836400Y-86815600D01*
X49836400Y-84888400D01*
X51763600Y-84888400D01*
X51763600Y-86815600D01*
X51763600Y-86815600D01*
G37*
G36*
X53351920Y-84888451D02*
X53358116Y-84888494D01*
X53545006Y-84909457D01*
X53724264Y-84966321D01*
X53889064Y-85056921D01*
X54033128Y-85177804D01*
X54150968Y-85324368D01*
X54238096Y-85491029D01*
X54291194Y-85671439D01*
X54291198Y-85671478D01*
X54291200Y-85671486D01*
X54308241Y-85858725D01*
X54288588Y-86045710D01*
X54288585Y-86045719D01*
X54288581Y-86045759D01*
X54232969Y-86225410D01*
X54143523Y-86390838D01*
X54023648Y-86535742D01*
X53877910Y-86654603D01*
X53711861Y-86742893D01*
X53531826Y-86797248D01*
X53344662Y-86815600D01*
X53335303Y-86815600D01*
X53328080Y-86815549D01*
X53321884Y-86815506D01*
X53134994Y-86794543D01*
X52955736Y-86737679D01*
X52790936Y-86647079D01*
X52646872Y-86526196D01*
X52529032Y-86379632D01*
X52441904Y-86212971D01*
X52388806Y-86032561D01*
X52388802Y-86032522D01*
X52388800Y-86032514D01*
X52371759Y-85845275D01*
X52391412Y-85658290D01*
X52391415Y-85658281D01*
X52391419Y-85658241D01*
X52447031Y-85478590D01*
X52536477Y-85313162D01*
X52656352Y-85168258D01*
X52802090Y-85049397D01*
X52968139Y-84961107D01*
X53148174Y-84906752D01*
X53335338Y-84888400D01*
X53344697Y-84888400D01*
X53351920Y-84888451D01*
X53351920Y-84888451D01*
G37*
G36*
X117655034Y-83800664D02*
X117847141Y-83840098D01*
X118027925Y-83916093D01*
X118190509Y-84025756D01*
X118328697Y-84164913D01*
X118437223Y-84328256D01*
X118511954Y-84509567D01*
X118549978Y-84701601D01*
X118549978Y-84701616D01*
X118550043Y-84701945D01*
X118546916Y-84925940D01*
X118546839Y-84926278D01*
X118546839Y-84926286D01*
X118503471Y-85117175D01*
X118423705Y-85296333D01*
X118310661Y-85456583D01*
X118168639Y-85591828D01*
X118003061Y-85696906D01*
X117820221Y-85767827D01*
X117627093Y-85801879D01*
X117431025Y-85797773D01*
X117239485Y-85755660D01*
X117059779Y-85677147D01*
X116898742Y-85565225D01*
X116762511Y-85424153D01*
X116656279Y-85259313D01*
X116584085Y-85076974D01*
X116548682Y-84884080D01*
X116551421Y-84687990D01*
X116592194Y-84496168D01*
X116669451Y-84315914D01*
X116780247Y-84154101D01*
X116920364Y-84016887D01*
X117084461Y-83909505D01*
X117266292Y-83836041D01*
X117458925Y-83799294D01*
X117655034Y-83800664D01*
X117655034Y-83800664D01*
G37*
G36*
X111155034Y-83800664D02*
X111347141Y-83840098D01*
X111527925Y-83916093D01*
X111690509Y-84025756D01*
X111828697Y-84164913D01*
X111937223Y-84328256D01*
X112011954Y-84509567D01*
X112049978Y-84701601D01*
X112049978Y-84701616D01*
X112050043Y-84701945D01*
X112046916Y-84925940D01*
X112046839Y-84926278D01*
X112046839Y-84926286D01*
X112003471Y-85117175D01*
X111923705Y-85296333D01*
X111810661Y-85456583D01*
X111668639Y-85591828D01*
X111503061Y-85696906D01*
X111320221Y-85767827D01*
X111127093Y-85801879D01*
X110931025Y-85797773D01*
X110739485Y-85755660D01*
X110559779Y-85677147D01*
X110398742Y-85565225D01*
X110262511Y-85424153D01*
X110156279Y-85259313D01*
X110084085Y-85076974D01*
X110048682Y-84884080D01*
X110051421Y-84687990D01*
X110092194Y-84496168D01*
X110169451Y-84315914D01*
X110280247Y-84154101D01*
X110420364Y-84016887D01*
X110584461Y-83909505D01*
X110766292Y-83836041D01*
X110958925Y-83799294D01*
X111155034Y-83800664D01*
X111155034Y-83800664D01*
G37*
G36*
X58113600Y-85545600D02*
X56186400Y-85545600D01*
X56186400Y-83618400D01*
X58113600Y-83618400D01*
X58113600Y-85545600D01*
X58113600Y-85545600D01*
G37*
G36*
X63193600Y-85545600D02*
X61266400Y-85545600D01*
X61266400Y-83618400D01*
X63193600Y-83618400D01*
X63193600Y-85545600D01*
X63193600Y-85545600D01*
G37*
G36*
X59701920Y-83618451D02*
X59708116Y-83618494D01*
X59895006Y-83639457D01*
X60074264Y-83696321D01*
X60239064Y-83786921D01*
X60383128Y-83907804D01*
X60500968Y-84054368D01*
X60588096Y-84221029D01*
X60641194Y-84401439D01*
X60641198Y-84401478D01*
X60641200Y-84401486D01*
X60658241Y-84588725D01*
X60638588Y-84775710D01*
X60638585Y-84775719D01*
X60638581Y-84775759D01*
X60582969Y-84955410D01*
X60493523Y-85120838D01*
X60373648Y-85265742D01*
X60227910Y-85384603D01*
X60061861Y-85472893D01*
X59881826Y-85527248D01*
X59694662Y-85545600D01*
X59685303Y-85545600D01*
X59678080Y-85545549D01*
X59671884Y-85545506D01*
X59484994Y-85524543D01*
X59305736Y-85467679D01*
X59140936Y-85377079D01*
X58996872Y-85256196D01*
X58879032Y-85109632D01*
X58791904Y-84942971D01*
X58738806Y-84762561D01*
X58738802Y-84762522D01*
X58738800Y-84762514D01*
X58721759Y-84575275D01*
X58741412Y-84388290D01*
X58741415Y-84388281D01*
X58741419Y-84388241D01*
X58797031Y-84208590D01*
X58886477Y-84043162D01*
X59006352Y-83898258D01*
X59152090Y-83779397D01*
X59318139Y-83691107D01*
X59498174Y-83636752D01*
X59685338Y-83618400D01*
X59694697Y-83618400D01*
X59701920Y-83618451D01*
X59701920Y-83618451D01*
G37*
G36*
X68273600Y-85545600D02*
X66346400Y-85545600D01*
X66346400Y-83618400D01*
X68273600Y-83618400D01*
X68273600Y-85545600D01*
X68273600Y-85545600D01*
G37*
G36*
X69861920Y-83618451D02*
X69868116Y-83618494D01*
X70055006Y-83639457D01*
X70234264Y-83696321D01*
X70399064Y-83786921D01*
X70543128Y-83907804D01*
X70660968Y-84054368D01*
X70748096Y-84221029D01*
X70801194Y-84401439D01*
X70801198Y-84401478D01*
X70801200Y-84401486D01*
X70818241Y-84588725D01*
X70798588Y-84775710D01*
X70798585Y-84775719D01*
X70798581Y-84775759D01*
X70742969Y-84955410D01*
X70653523Y-85120838D01*
X70533648Y-85265742D01*
X70387910Y-85384603D01*
X70221861Y-85472893D01*
X70041826Y-85527248D01*
X69854662Y-85545600D01*
X69845303Y-85545600D01*
X69838080Y-85545549D01*
X69831884Y-85545506D01*
X69644994Y-85524543D01*
X69465736Y-85467679D01*
X69300936Y-85377079D01*
X69156872Y-85256196D01*
X69039032Y-85109632D01*
X68951904Y-84942971D01*
X68898806Y-84762561D01*
X68898802Y-84762522D01*
X68898800Y-84762514D01*
X68881759Y-84575275D01*
X68901412Y-84388290D01*
X68901415Y-84388281D01*
X68901419Y-84388241D01*
X68957031Y-84208590D01*
X69046477Y-84043162D01*
X69166352Y-83898258D01*
X69312090Y-83779397D01*
X69478139Y-83691107D01*
X69658174Y-83636752D01*
X69845338Y-83618400D01*
X69854697Y-83618400D01*
X69861920Y-83618451D01*
X69861920Y-83618451D01*
G37*
G36*
X64781920Y-83618451D02*
X64788116Y-83618494D01*
X64975006Y-83639457D01*
X65154264Y-83696321D01*
X65319064Y-83786921D01*
X65463128Y-83907804D01*
X65580968Y-84054368D01*
X65668096Y-84221029D01*
X65721194Y-84401439D01*
X65721198Y-84401478D01*
X65721200Y-84401486D01*
X65738241Y-84588725D01*
X65718588Y-84775710D01*
X65718585Y-84775719D01*
X65718581Y-84775759D01*
X65662969Y-84955410D01*
X65573523Y-85120838D01*
X65453648Y-85265742D01*
X65307910Y-85384603D01*
X65141861Y-85472893D01*
X64961826Y-85527248D01*
X64774662Y-85545600D01*
X64765303Y-85545600D01*
X64758080Y-85545549D01*
X64751884Y-85545506D01*
X64564994Y-85524543D01*
X64385736Y-85467679D01*
X64220936Y-85377079D01*
X64076872Y-85256196D01*
X63959032Y-85109632D01*
X63871904Y-84942971D01*
X63818806Y-84762561D01*
X63818802Y-84762522D01*
X63818800Y-84762514D01*
X63801759Y-84575275D01*
X63821412Y-84388290D01*
X63821415Y-84388281D01*
X63821419Y-84388241D01*
X63877031Y-84208590D01*
X63966477Y-84043162D01*
X64086352Y-83898258D01*
X64232090Y-83779397D01*
X64398139Y-83691107D01*
X64578174Y-83636752D01*
X64765338Y-83618400D01*
X64774697Y-83618400D01*
X64781920Y-83618451D01*
X64781920Y-83618451D01*
G37*
G36*
X80100539Y-81698572D02*
X80266136Y-81732564D01*
X80421971Y-81798072D01*
X80562119Y-81892602D01*
X80681237Y-82012555D01*
X80774788Y-82153359D01*
X80839203Y-82309645D01*
X80871971Y-82475133D01*
X80871971Y-82475143D01*
X80872037Y-82475477D01*
X80869341Y-82668560D01*
X80869265Y-82668894D01*
X80869265Y-82668905D01*
X80831891Y-82833406D01*
X80763133Y-82987839D01*
X80665690Y-83125974D01*
X80543266Y-83242556D01*
X80400539Y-83333134D01*
X80242931Y-83394267D01*
X80076454Y-83423620D01*
X79907444Y-83420081D01*
X79742336Y-83383779D01*
X79587431Y-83316103D01*
X79448613Y-83219622D01*
X79331184Y-83098020D01*
X79239612Y-82955928D01*
X79177381Y-82798752D01*
X79146864Y-82632476D01*
X79149225Y-82463447D01*
X79184371Y-82298097D01*
X79250967Y-82142718D01*
X79346473Y-82003235D01*
X79467254Y-81884957D01*
X79608705Y-81792394D01*
X79765444Y-81729067D01*
X79931493Y-81697392D01*
X80100539Y-81698572D01*
X80100539Y-81698572D01*
G37*
G36*
X117655034Y-79300664D02*
X117847141Y-79340098D01*
X118027925Y-79416093D01*
X118190509Y-79525756D01*
X118328697Y-79664913D01*
X118437223Y-79828256D01*
X118511954Y-80009567D01*
X118549978Y-80201601D01*
X118549978Y-80201616D01*
X118550043Y-80201945D01*
X118546916Y-80425940D01*
X118546839Y-80426278D01*
X118546839Y-80426286D01*
X118503471Y-80617175D01*
X118423705Y-80796333D01*
X118310661Y-80956583D01*
X118168639Y-81091828D01*
X118003061Y-81196906D01*
X117820221Y-81267827D01*
X117627093Y-81301879D01*
X117431025Y-81297773D01*
X117239485Y-81255660D01*
X117059779Y-81177147D01*
X116898742Y-81065225D01*
X116762511Y-80924153D01*
X116656279Y-80759313D01*
X116584085Y-80576974D01*
X116548682Y-80384080D01*
X116551421Y-80187990D01*
X116592194Y-79996168D01*
X116669451Y-79815914D01*
X116780247Y-79654101D01*
X116920364Y-79516887D01*
X117084461Y-79409505D01*
X117266292Y-79336041D01*
X117458925Y-79299294D01*
X117655034Y-79300664D01*
X117655034Y-79300664D01*
G37*
G36*
X111155034Y-79300664D02*
X111347141Y-79340098D01*
X111527925Y-79416093D01*
X111690509Y-79525756D01*
X111828697Y-79664913D01*
X111937223Y-79828256D01*
X112011954Y-80009567D01*
X112049978Y-80201601D01*
X112049978Y-80201616D01*
X112050043Y-80201945D01*
X112046916Y-80425940D01*
X112046839Y-80426278D01*
X112046839Y-80426286D01*
X112003471Y-80617175D01*
X111923705Y-80796333D01*
X111810661Y-80956583D01*
X111668639Y-81091828D01*
X111503061Y-81196906D01*
X111320221Y-81267827D01*
X111127093Y-81301879D01*
X110931025Y-81297773D01*
X110739485Y-81255660D01*
X110559779Y-81177147D01*
X110398742Y-81065225D01*
X110262511Y-80924153D01*
X110156279Y-80759313D01*
X110084085Y-80576974D01*
X110048682Y-80384080D01*
X110051421Y-80187990D01*
X110092194Y-79996168D01*
X110169451Y-79815914D01*
X110280247Y-79654101D01*
X110420364Y-79516887D01*
X110584461Y-79409505D01*
X110766292Y-79336041D01*
X110958925Y-79299294D01*
X111155034Y-79300664D01*
X111155034Y-79300664D01*
G37*
G36*
X55223034Y-78502664D02*
X55415141Y-78542098D01*
X55595925Y-78618093D01*
X55758509Y-78727756D01*
X55896697Y-78866913D01*
X56005223Y-79030256D01*
X56079954Y-79211567D01*
X56117978Y-79403601D01*
X56117978Y-79403616D01*
X56118043Y-79403945D01*
X56114916Y-79627940D01*
X56114839Y-79628278D01*
X56114839Y-79628286D01*
X56071471Y-79819175D01*
X55991705Y-79998333D01*
X55878661Y-80158583D01*
X55736639Y-80293828D01*
X55571061Y-80398906D01*
X55388221Y-80469827D01*
X55195093Y-80503879D01*
X54999025Y-80499773D01*
X54807485Y-80457660D01*
X54627779Y-80379147D01*
X54466742Y-80267225D01*
X54330511Y-80126153D01*
X54224279Y-79961313D01*
X54152085Y-79778974D01*
X54116682Y-79586080D01*
X54119421Y-79389990D01*
X54160194Y-79198168D01*
X54237451Y-79017914D01*
X54348247Y-78856101D01*
X54488364Y-78718887D01*
X54652461Y-78611505D01*
X54834292Y-78538041D01*
X55026925Y-78501294D01*
X55223034Y-78502664D01*
X55223034Y-78502664D01*
G37*
G36*
X52683034Y-78502664D02*
X52875141Y-78542098D01*
X53055925Y-78618093D01*
X53218509Y-78727756D01*
X53356697Y-78866913D01*
X53465223Y-79030256D01*
X53539954Y-79211567D01*
X53577978Y-79403601D01*
X53577978Y-79403616D01*
X53578043Y-79403945D01*
X53574916Y-79627940D01*
X53574839Y-79628278D01*
X53574839Y-79628286D01*
X53531471Y-79819175D01*
X53451705Y-79998333D01*
X53338661Y-80158583D01*
X53196639Y-80293828D01*
X53031061Y-80398906D01*
X52848221Y-80469827D01*
X52655093Y-80503879D01*
X52459025Y-80499773D01*
X52267485Y-80457660D01*
X52087779Y-80379147D01*
X51926742Y-80267225D01*
X51790511Y-80126153D01*
X51684279Y-79961313D01*
X51612085Y-79778974D01*
X51576682Y-79586080D01*
X51579421Y-79389990D01*
X51620194Y-79198168D01*
X51697451Y-79017914D01*
X51808247Y-78856101D01*
X51948364Y-78718887D01*
X52112461Y-78611505D01*
X52294292Y-78538041D01*
X52486925Y-78501294D01*
X52683034Y-78502664D01*
X52683034Y-78502664D01*
G37*
G36*
X87945399Y-77381995D02*
X88108799Y-77415537D01*
X88262568Y-77480175D01*
X88400857Y-77573452D01*
X88518396Y-77691815D01*
X88610705Y-77830750D01*
X88674268Y-77984966D01*
X88706600Y-78148254D01*
X88706600Y-78148258D01*
X88706667Y-78148597D01*
X88704007Y-78339121D01*
X88695148Y-78378112D01*
X88667052Y-78501784D01*
X88599206Y-78654165D01*
X88503055Y-78790469D01*
X88382255Y-78905505D01*
X88241420Y-78994881D01*
X88085902Y-79055204D01*
X87921633Y-79084168D01*
X87754864Y-79080675D01*
X87591945Y-79044855D01*
X87439096Y-78978077D01*
X87302118Y-78882875D01*
X87186248Y-78762887D01*
X87095887Y-78622676D01*
X87034482Y-78467586D01*
X87004370Y-78303515D01*
X87006700Y-78136727D01*
X87041379Y-77973571D01*
X87107092Y-77820251D01*
X87201332Y-77682618D01*
X87320511Y-77565908D01*
X87460087Y-77474572D01*
X87614747Y-77412086D01*
X87778594Y-77380830D01*
X87945399Y-77381995D01*
X87945399Y-77381995D01*
G37*
G36*
X92827279Y-77381995D02*
X92990679Y-77415537D01*
X93144448Y-77480175D01*
X93282737Y-77573452D01*
X93400276Y-77691815D01*
X93492585Y-77830750D01*
X93556148Y-77984966D01*
X93588480Y-78148254D01*
X93588480Y-78148258D01*
X93588547Y-78148597D01*
X93585887Y-78339121D01*
X93577028Y-78378112D01*
X93548932Y-78501784D01*
X93481086Y-78654165D01*
X93384935Y-78790469D01*
X93264135Y-78905505D01*
X93123300Y-78994881D01*
X92967782Y-79055204D01*
X92803513Y-79084168D01*
X92636744Y-79080675D01*
X92473825Y-79044855D01*
X92320976Y-78978077D01*
X92183998Y-78882875D01*
X92068128Y-78762887D01*
X91977767Y-78622676D01*
X91916362Y-78467586D01*
X91886250Y-78303515D01*
X91888580Y-78136727D01*
X91923259Y-77973571D01*
X91988972Y-77820251D01*
X92083212Y-77682618D01*
X92202391Y-77565908D01*
X92341967Y-77474572D01*
X92496627Y-77412086D01*
X92660474Y-77380830D01*
X92827279Y-77381995D01*
X92827279Y-77381995D01*
G37*
G36*
X80757017Y-75954018D02*
X80761400Y-75954049D01*
X80858375Y-75964926D01*
X80951390Y-75994432D01*
X81036903Y-76041443D01*
X81111655Y-76104168D01*
X81172801Y-76180218D01*
X81218011Y-76266697D01*
X81245563Y-76360309D01*
X81245566Y-76360343D01*
X81245570Y-76360356D01*
X81254410Y-76457488D01*
X81244213Y-76554491D01*
X81244212Y-76554496D01*
X81244207Y-76554539D01*
X81215351Y-76647758D01*
X81168938Y-76733596D01*
X81106736Y-76808785D01*
X81031115Y-76870461D01*
X80944954Y-76916273D01*
X80851536Y-76944478D01*
X80754419Y-76954000D01*
X80749549Y-76954000D01*
X80746983Y-76953982D01*
X80742600Y-76953951D01*
X80645625Y-76943074D01*
X80552610Y-76913568D01*
X80467097Y-76866557D01*
X80392345Y-76803832D01*
X80331199Y-76727782D01*
X80285989Y-76641303D01*
X80258437Y-76547691D01*
X80258434Y-76547657D01*
X80258430Y-76547644D01*
X80249590Y-76450512D01*
X80259787Y-76353509D01*
X80259788Y-76353504D01*
X80259793Y-76353461D01*
X80288649Y-76260242D01*
X80335062Y-76174404D01*
X80397264Y-76099215D01*
X80472885Y-76037539D01*
X80559046Y-75991727D01*
X80652464Y-75963522D01*
X80749581Y-75954000D01*
X80754451Y-75954000D01*
X80757017Y-75954018D01*
X80757017Y-75954018D01*
G37*
G36*
X80002000Y-76954000D02*
X79002000Y-76954000D01*
X79002000Y-75954000D01*
X80002000Y-75954000D01*
X80002000Y-76954000D01*
X80002000Y-76954000D01*
G37*
G36*
X111771920Y-70156451D02*
X111778116Y-70156494D01*
X111965006Y-70177457D01*
X112144264Y-70234321D01*
X112309064Y-70324921D01*
X112453128Y-70445804D01*
X112570968Y-70592368D01*
X112658096Y-70759029D01*
X112711194Y-70939439D01*
X112711198Y-70939478D01*
X112711200Y-70939486D01*
X112728241Y-71126725D01*
X112708588Y-71313710D01*
X112708585Y-71313719D01*
X112708581Y-71313759D01*
X112652969Y-71493410D01*
X112563523Y-71658838D01*
X112443648Y-71803742D01*
X112297910Y-71922603D01*
X112131861Y-72010893D01*
X111951826Y-72065248D01*
X111764662Y-72083600D01*
X111755303Y-72083600D01*
X111748080Y-72083549D01*
X111741884Y-72083506D01*
X111554994Y-72062543D01*
X111375736Y-72005679D01*
X111210936Y-71915079D01*
X111066872Y-71794196D01*
X110949032Y-71647632D01*
X110861904Y-71480971D01*
X110808806Y-71300561D01*
X110808802Y-71300522D01*
X110808800Y-71300514D01*
X110791759Y-71113275D01*
X110811412Y-70926290D01*
X110811415Y-70926281D01*
X110811419Y-70926241D01*
X110867031Y-70746590D01*
X110956477Y-70581162D01*
X111076352Y-70436258D01*
X111222090Y-70317397D01*
X111388139Y-70229107D01*
X111568174Y-70174752D01*
X111755338Y-70156400D01*
X111764697Y-70156400D01*
X111771920Y-70156451D01*
X111771920Y-70156451D01*
G37*
G36*
X109231920Y-70156451D02*
X109238116Y-70156494D01*
X109425006Y-70177457D01*
X109604264Y-70234321D01*
X109769064Y-70324921D01*
X109913128Y-70445804D01*
X110030968Y-70592368D01*
X110118096Y-70759029D01*
X110171194Y-70939439D01*
X110171198Y-70939478D01*
X110171200Y-70939486D01*
X110188241Y-71126725D01*
X110168588Y-71313710D01*
X110168585Y-71313719D01*
X110168581Y-71313759D01*
X110112969Y-71493410D01*
X110023523Y-71658838D01*
X109903648Y-71803742D01*
X109757910Y-71922603D01*
X109591861Y-72010893D01*
X109411826Y-72065248D01*
X109224662Y-72083600D01*
X109215303Y-72083600D01*
X109208080Y-72083549D01*
X109201884Y-72083506D01*
X109014994Y-72062543D01*
X108835736Y-72005679D01*
X108670936Y-71915079D01*
X108526872Y-71794196D01*
X108409032Y-71647632D01*
X108321904Y-71480971D01*
X108268806Y-71300561D01*
X108268802Y-71300522D01*
X108268800Y-71300514D01*
X108251759Y-71113275D01*
X108271412Y-70926290D01*
X108271415Y-70926281D01*
X108271419Y-70926241D01*
X108327031Y-70746590D01*
X108416477Y-70581162D01*
X108536352Y-70436258D01*
X108682090Y-70317397D01*
X108848139Y-70229107D01*
X109028174Y-70174752D01*
X109215338Y-70156400D01*
X109224697Y-70156400D01*
X109231920Y-70156451D01*
X109231920Y-70156451D01*
G37*
G36*
X109231920Y-67616451D02*
X109238116Y-67616494D01*
X109425006Y-67637457D01*
X109604264Y-67694321D01*
X109769064Y-67784921D01*
X109913128Y-67905804D01*
X110030968Y-68052368D01*
X110118096Y-68219029D01*
X110171194Y-68399439D01*
X110171198Y-68399478D01*
X110171200Y-68399486D01*
X110188241Y-68586725D01*
X110168588Y-68773710D01*
X110168585Y-68773719D01*
X110168581Y-68773759D01*
X110112969Y-68953410D01*
X110023523Y-69118838D01*
X109903648Y-69263742D01*
X109757910Y-69382603D01*
X109591861Y-69470893D01*
X109411826Y-69525248D01*
X109224662Y-69543600D01*
X109215303Y-69543600D01*
X109208080Y-69543549D01*
X109201884Y-69543506D01*
X109014994Y-69522543D01*
X108835736Y-69465679D01*
X108670936Y-69375079D01*
X108526872Y-69254196D01*
X108409032Y-69107632D01*
X108321904Y-68940971D01*
X108268806Y-68760561D01*
X108268802Y-68760522D01*
X108268800Y-68760514D01*
X108251759Y-68573275D01*
X108271412Y-68386290D01*
X108271415Y-68386281D01*
X108271419Y-68386241D01*
X108327031Y-68206590D01*
X108416477Y-68041162D01*
X108536352Y-67896258D01*
X108682090Y-67777397D01*
X108848139Y-67689107D01*
X109028174Y-67634752D01*
X109215338Y-67616400D01*
X109224697Y-67616400D01*
X109231920Y-67616451D01*
X109231920Y-67616451D01*
G37*
G36*
X111771920Y-67616451D02*
X111778116Y-67616494D01*
X111965006Y-67637457D01*
X112144264Y-67694321D01*
X112309064Y-67784921D01*
X112453128Y-67905804D01*
X112570968Y-68052368D01*
X112658096Y-68219029D01*
X112711194Y-68399439D01*
X112711198Y-68399478D01*
X112711200Y-68399486D01*
X112728241Y-68586725D01*
X112708588Y-68773710D01*
X112708585Y-68773719D01*
X112708581Y-68773759D01*
X112652969Y-68953410D01*
X112563523Y-69118838D01*
X112443648Y-69263742D01*
X112297910Y-69382603D01*
X112131861Y-69470893D01*
X111951826Y-69525248D01*
X111764662Y-69543600D01*
X111755303Y-69543600D01*
X111748080Y-69543549D01*
X111741884Y-69543506D01*
X111554994Y-69522543D01*
X111375736Y-69465679D01*
X111210936Y-69375079D01*
X111066872Y-69254196D01*
X110949032Y-69107632D01*
X110861904Y-68940971D01*
X110808806Y-68760561D01*
X110808802Y-68760522D01*
X110808800Y-68760514D01*
X110791759Y-68573275D01*
X110811412Y-68386290D01*
X110811415Y-68386281D01*
X110811419Y-68386241D01*
X110867031Y-68206590D01*
X110956477Y-68041162D01*
X111076352Y-67896258D01*
X111222090Y-67777397D01*
X111388139Y-67689107D01*
X111568174Y-67634752D01*
X111755338Y-67616400D01*
X111764697Y-67616400D01*
X111771920Y-67616451D01*
X111771920Y-67616451D01*
G37*
G36*
X109231920Y-65076451D02*
X109238116Y-65076494D01*
X109425006Y-65097457D01*
X109604264Y-65154321D01*
X109769064Y-65244921D01*
X109913128Y-65365804D01*
X110030968Y-65512368D01*
X110118096Y-65679029D01*
X110171194Y-65859439D01*
X110171198Y-65859478D01*
X110171200Y-65859486D01*
X110188241Y-66046725D01*
X110168588Y-66233710D01*
X110168585Y-66233719D01*
X110168581Y-66233759D01*
X110112969Y-66413410D01*
X110023523Y-66578838D01*
X109903648Y-66723742D01*
X109757910Y-66842603D01*
X109591861Y-66930893D01*
X109411826Y-66985248D01*
X109224662Y-67003600D01*
X109215303Y-67003600D01*
X109208080Y-67003549D01*
X109201884Y-67003506D01*
X109014994Y-66982543D01*
X108835736Y-66925679D01*
X108670936Y-66835079D01*
X108526872Y-66714196D01*
X108409032Y-66567632D01*
X108321904Y-66400971D01*
X108268806Y-66220561D01*
X108268802Y-66220522D01*
X108268800Y-66220514D01*
X108251759Y-66033275D01*
X108271412Y-65846290D01*
X108271415Y-65846281D01*
X108271419Y-65846241D01*
X108327031Y-65666590D01*
X108416477Y-65501162D01*
X108536352Y-65356258D01*
X108682090Y-65237397D01*
X108848139Y-65149107D01*
X109028174Y-65094752D01*
X109215338Y-65076400D01*
X109224697Y-65076400D01*
X109231920Y-65076451D01*
X109231920Y-65076451D01*
G37*
G36*
X111771920Y-65076451D02*
X111778116Y-65076494D01*
X111965006Y-65097457D01*
X112144264Y-65154321D01*
X112309064Y-65244921D01*
X112453128Y-65365804D01*
X112570968Y-65512368D01*
X112658096Y-65679029D01*
X112711194Y-65859439D01*
X112711198Y-65859478D01*
X112711200Y-65859486D01*
X112728241Y-66046725D01*
X112708588Y-66233710D01*
X112708585Y-66233719D01*
X112708581Y-66233759D01*
X112652969Y-66413410D01*
X112563523Y-66578838D01*
X112443648Y-66723742D01*
X112297910Y-66842603D01*
X112131861Y-66930893D01*
X111951826Y-66985248D01*
X111764662Y-67003600D01*
X111755303Y-67003600D01*
X111748080Y-67003549D01*
X111741884Y-67003506D01*
X111554994Y-66982543D01*
X111375736Y-66925679D01*
X111210936Y-66835079D01*
X111066872Y-66714196D01*
X110949032Y-66567632D01*
X110861904Y-66400971D01*
X110808806Y-66220561D01*
X110808802Y-66220522D01*
X110808800Y-66220514D01*
X110791759Y-66033275D01*
X110811412Y-65846290D01*
X110811415Y-65846281D01*
X110811419Y-65846241D01*
X110867031Y-65666590D01*
X110956477Y-65501162D01*
X111076352Y-65356258D01*
X111222090Y-65237397D01*
X111388139Y-65149107D01*
X111568174Y-65094752D01*
X111755338Y-65076400D01*
X111764697Y-65076400D01*
X111771920Y-65076451D01*
X111771920Y-65076451D01*
G37*
G36*
X116363043Y-65232362D02*
X116374909Y-65239922D01*
X116395226Y-65244392D01*
X116405524Y-65244464D01*
X116539999Y-65272068D01*
X116666547Y-65325264D01*
X116780359Y-65402031D01*
X116877089Y-65499438D01*
X116953055Y-65613778D01*
X117005368Y-65740696D01*
X117031964Y-65875017D01*
X117031964Y-65875027D01*
X117032030Y-65875361D01*
X117029841Y-66032158D01*
X117029764Y-66032496D01*
X117029764Y-66032504D01*
X116999430Y-66166022D01*
X116943594Y-66291433D01*
X116864463Y-66403608D01*
X116765046Y-66498281D01*
X116649143Y-66571835D01*
X116521156Y-66621478D01*
X116385965Y-66645316D01*
X116248718Y-66642442D01*
X116114640Y-66612962D01*
X115988844Y-66558003D01*
X115876120Y-66479658D01*
X115780757Y-66380907D01*
X115706395Y-66265520D01*
X115655859Y-66137882D01*
X115631078Y-66002855D01*
X115632995Y-65865592D01*
X115661535Y-65731319D01*
X115715615Y-65605142D01*
X115793177Y-65491866D01*
X115891252Y-65395822D01*
X116006123Y-65320653D01*
X116133404Y-65269228D01*
X116268247Y-65243506D01*
X116313932Y-65243825D01*
X116327875Y-65241942D01*
X116340742Y-65236250D01*
X116351513Y-65227199D01*
X116354534Y-65222684D01*
X116363043Y-65232362D01*
X116363043Y-65232362D01*
G37*
G36*
X116363043Y-63732362D02*
X116374909Y-63739922D01*
X116395226Y-63744392D01*
X116405524Y-63744464D01*
X116539999Y-63772068D01*
X116666547Y-63825264D01*
X116780359Y-63902031D01*
X116877089Y-63999438D01*
X116953055Y-64113778D01*
X117005368Y-64240696D01*
X117031964Y-64375017D01*
X117031964Y-64375027D01*
X117032030Y-64375361D01*
X117029841Y-64532158D01*
X117029764Y-64532496D01*
X117029764Y-64532504D01*
X116999430Y-64666022D01*
X116943594Y-64791433D01*
X116864463Y-64903608D01*
X116765046Y-64998281D01*
X116649143Y-65071835D01*
X116521155Y-65121478D01*
X116386892Y-65145153D01*
X116373518Y-65149521D01*
X116361890Y-65157442D01*
X116355109Y-65165652D01*
X116353133Y-65162353D01*
X116342826Y-65152775D01*
X116330260Y-65146448D01*
X116315328Y-65143837D01*
X116248718Y-65142442D01*
X116114640Y-65112962D01*
X115988844Y-65058003D01*
X115876120Y-64979658D01*
X115780757Y-64880907D01*
X115706395Y-64765520D01*
X115655859Y-64637882D01*
X115631078Y-64502855D01*
X115632995Y-64365592D01*
X115661535Y-64231319D01*
X115715615Y-64105142D01*
X115793177Y-63991866D01*
X115891252Y-63895822D01*
X116006123Y-63820653D01*
X116133404Y-63769228D01*
X116268247Y-63743506D01*
X116313932Y-63743825D01*
X116327875Y-63741942D01*
X116340742Y-63736250D01*
X116351513Y-63727199D01*
X116354534Y-63722684D01*
X116363043Y-63732362D01*
X116363043Y-63732362D01*
G37*
G36*
X109231920Y-62536451D02*
X109238116Y-62536494D01*
X109425006Y-62557457D01*
X109604264Y-62614321D01*
X109769064Y-62704921D01*
X109913128Y-62825804D01*
X110030968Y-62972368D01*
X110118096Y-63139029D01*
X110171194Y-63319439D01*
X110171198Y-63319478D01*
X110171200Y-63319486D01*
X110188241Y-63506725D01*
X110168588Y-63693710D01*
X110168585Y-63693719D01*
X110168581Y-63693759D01*
X110112969Y-63873410D01*
X110023523Y-64038838D01*
X109903648Y-64183742D01*
X109757910Y-64302603D01*
X109591861Y-64390893D01*
X109411826Y-64445248D01*
X109224662Y-64463600D01*
X109215303Y-64463600D01*
X109208080Y-64463549D01*
X109201884Y-64463506D01*
X109014994Y-64442543D01*
X108835736Y-64385679D01*
X108670936Y-64295079D01*
X108526872Y-64174196D01*
X108409032Y-64027632D01*
X108321904Y-63860971D01*
X108268806Y-63680561D01*
X108268802Y-63680522D01*
X108268800Y-63680514D01*
X108251759Y-63493275D01*
X108271412Y-63306290D01*
X108271415Y-63306281D01*
X108271419Y-63306241D01*
X108327031Y-63126590D01*
X108416477Y-62961162D01*
X108536352Y-62816258D01*
X108682090Y-62697397D01*
X108848139Y-62609107D01*
X109028174Y-62554752D01*
X109215338Y-62536400D01*
X109224697Y-62536400D01*
X109231920Y-62536451D01*
X109231920Y-62536451D01*
G37*
G36*
X111771920Y-62536451D02*
X111778116Y-62536494D01*
X111965006Y-62557457D01*
X112144264Y-62614321D01*
X112309064Y-62704921D01*
X112453128Y-62825804D01*
X112570968Y-62972368D01*
X112658096Y-63139029D01*
X112711194Y-63319439D01*
X112711198Y-63319478D01*
X112711200Y-63319486D01*
X112728241Y-63506725D01*
X112708588Y-63693710D01*
X112708585Y-63693719D01*
X112708581Y-63693759D01*
X112652969Y-63873410D01*
X112563523Y-64038838D01*
X112443648Y-64183742D01*
X112297910Y-64302603D01*
X112131861Y-64390893D01*
X111951826Y-64445248D01*
X111764662Y-64463600D01*
X111755303Y-64463600D01*
X111748080Y-64463549D01*
X111741884Y-64463506D01*
X111554994Y-64442543D01*
X111375736Y-64385679D01*
X111210936Y-64295079D01*
X111066872Y-64174196D01*
X110949032Y-64027632D01*
X110861904Y-63860971D01*
X110808806Y-63680561D01*
X110808802Y-63680522D01*
X110808800Y-63680514D01*
X110791759Y-63493275D01*
X110811412Y-63306290D01*
X110811415Y-63306281D01*
X110811419Y-63306241D01*
X110867031Y-63126590D01*
X110956477Y-62961162D01*
X111076352Y-62816258D01*
X111222090Y-62697397D01*
X111388139Y-62609107D01*
X111568174Y-62554752D01*
X111755338Y-62536400D01*
X111764697Y-62536400D01*
X111771920Y-62536451D01*
X111771920Y-62536451D01*
G37*
G36*
X116363043Y-62232362D02*
X116374909Y-62239922D01*
X116395226Y-62244392D01*
X116405524Y-62244464D01*
X116539999Y-62272068D01*
X116666547Y-62325264D01*
X116780359Y-62402031D01*
X116877089Y-62499438D01*
X116953055Y-62613778D01*
X117005368Y-62740696D01*
X117031964Y-62875017D01*
X117031964Y-62875027D01*
X117032030Y-62875361D01*
X117029841Y-63032158D01*
X117029764Y-63032496D01*
X117029764Y-63032504D01*
X116999430Y-63166022D01*
X116943594Y-63291433D01*
X116864463Y-63403608D01*
X116765046Y-63498281D01*
X116649143Y-63571835D01*
X116521155Y-63621478D01*
X116386892Y-63645153D01*
X116373518Y-63649521D01*
X116361890Y-63657442D01*
X116355109Y-63665652D01*
X116353133Y-63662353D01*
X116342826Y-63652775D01*
X116330260Y-63646448D01*
X116315328Y-63643837D01*
X116248718Y-63642442D01*
X116114640Y-63612962D01*
X115988844Y-63558003D01*
X115876120Y-63479658D01*
X115780757Y-63380907D01*
X115706395Y-63265520D01*
X115655859Y-63137882D01*
X115631078Y-63002855D01*
X115632995Y-62865592D01*
X115661535Y-62731319D01*
X115715615Y-62605142D01*
X115793177Y-62491866D01*
X115891252Y-62395822D01*
X116006123Y-62320653D01*
X116133404Y-62269228D01*
X116268247Y-62243506D01*
X116313932Y-62243825D01*
X116327875Y-62241942D01*
X116340742Y-62236250D01*
X116351513Y-62227199D01*
X116354534Y-62222684D01*
X116363043Y-62232362D01*
X116363043Y-62232362D01*
G37*
G36*
X116363043Y-60732362D02*
X116374909Y-60739922D01*
X116395226Y-60744392D01*
X116405524Y-60744464D01*
X116539999Y-60772068D01*
X116666547Y-60825264D01*
X116780359Y-60902031D01*
X116877089Y-60999438D01*
X116953055Y-61113778D01*
X117005368Y-61240696D01*
X117031964Y-61375017D01*
X117031964Y-61375027D01*
X117032030Y-61375361D01*
X117029841Y-61532158D01*
X117029764Y-61532496D01*
X117029764Y-61532504D01*
X116999430Y-61666022D01*
X116943594Y-61791433D01*
X116864463Y-61903608D01*
X116765046Y-61998281D01*
X116649143Y-62071835D01*
X116521155Y-62121478D01*
X116386892Y-62145153D01*
X116373518Y-62149521D01*
X116361890Y-62157442D01*
X116355109Y-62165652D01*
X116353133Y-62162353D01*
X116342826Y-62152775D01*
X116330260Y-62146448D01*
X116315328Y-62143837D01*
X116248718Y-62142442D01*
X116114640Y-62112962D01*
X115988844Y-62058003D01*
X115876120Y-61979658D01*
X115780757Y-61880907D01*
X115706395Y-61765520D01*
X115655859Y-61637882D01*
X115631078Y-61502855D01*
X115632995Y-61365592D01*
X115661535Y-61231319D01*
X115715615Y-61105142D01*
X115793177Y-60991866D01*
X115891252Y-60895822D01*
X116006123Y-60820653D01*
X116133404Y-60769228D01*
X116268247Y-60743506D01*
X116313932Y-60743825D01*
X116327875Y-60741942D01*
X116340742Y-60736250D01*
X116351513Y-60727199D01*
X116354534Y-60722684D01*
X116363043Y-60732362D01*
X116363043Y-60732362D01*
G37*
G36*
X110183600Y-61923600D02*
X108256400Y-61923600D01*
X108256400Y-59996400D01*
X110183600Y-59996400D01*
X110183600Y-61923600D01*
X110183600Y-61923600D01*
G37*
G36*
X111771920Y-59996451D02*
X111778116Y-59996494D01*
X111965006Y-60017457D01*
X112144264Y-60074321D01*
X112309064Y-60164921D01*
X112453128Y-60285804D01*
X112570968Y-60432368D01*
X112658096Y-60599029D01*
X112711194Y-60779439D01*
X112711198Y-60779478D01*
X112711200Y-60779486D01*
X112728241Y-60966725D01*
X112708588Y-61153710D01*
X112708585Y-61153719D01*
X112708581Y-61153759D01*
X112652969Y-61333410D01*
X112563523Y-61498838D01*
X112443648Y-61643742D01*
X112297910Y-61762603D01*
X112131861Y-61850893D01*
X111951826Y-61905248D01*
X111764662Y-61923600D01*
X111755303Y-61923600D01*
X111748080Y-61923549D01*
X111741884Y-61923506D01*
X111554994Y-61902543D01*
X111375736Y-61845679D01*
X111210936Y-61755079D01*
X111066872Y-61634196D01*
X110949032Y-61487632D01*
X110861904Y-61320971D01*
X110808806Y-61140561D01*
X110808802Y-61140522D01*
X110808800Y-61140514D01*
X110791759Y-60953275D01*
X110811412Y-60766290D01*
X110811415Y-60766281D01*
X110811419Y-60766241D01*
X110867031Y-60586590D01*
X110956477Y-60421162D01*
X111076352Y-60276258D01*
X111222090Y-60157397D01*
X111388139Y-60069107D01*
X111568174Y-60014752D01*
X111755338Y-59996400D01*
X111764697Y-59996400D01*
X111771920Y-59996451D01*
X111771920Y-59996451D01*
G37*
G36*
X75003524Y-60260464D02*
X75137999Y-60288068D01*
X75264547Y-60341264D01*
X75378359Y-60418031D01*
X75475089Y-60515438D01*
X75551055Y-60629778D01*
X75603368Y-60756696D01*
X75629964Y-60891017D01*
X75629964Y-60891027D01*
X75630030Y-60891361D01*
X75627841Y-61048158D01*
X75627764Y-61048496D01*
X75627764Y-61048504D01*
X75597430Y-61182022D01*
X75541594Y-61307433D01*
X75462463Y-61419608D01*
X75363046Y-61514281D01*
X75247143Y-61587835D01*
X75119156Y-61637478D01*
X74983965Y-61661316D01*
X74846718Y-61658442D01*
X74712640Y-61628962D01*
X74586844Y-61574003D01*
X74474120Y-61495658D01*
X74378757Y-61396907D01*
X74304395Y-61281520D01*
X74253859Y-61153882D01*
X74229078Y-61018855D01*
X74230995Y-60881592D01*
X74259535Y-60747319D01*
X74313615Y-60621142D01*
X74391177Y-60507866D01*
X74489252Y-60411822D01*
X74604123Y-60336653D01*
X74731404Y-60285228D01*
X74866247Y-60259506D01*
X75003524Y-60260464D01*
X75003524Y-60260464D01*
G37*
G36*
X76503524Y-60260464D02*
X76637999Y-60288068D01*
X76764547Y-60341264D01*
X76878359Y-60418031D01*
X76975089Y-60515438D01*
X77051055Y-60629778D01*
X77103368Y-60756696D01*
X77129964Y-60891017D01*
X77129964Y-60891027D01*
X77130030Y-60891361D01*
X77127841Y-61048158D01*
X77127764Y-61048496D01*
X77127764Y-61048504D01*
X77097430Y-61182022D01*
X77041594Y-61307433D01*
X76962463Y-61419608D01*
X76863046Y-61514281D01*
X76747143Y-61587835D01*
X76619156Y-61637478D01*
X76483965Y-61661316D01*
X76346718Y-61658442D01*
X76212640Y-61628962D01*
X76086844Y-61574003D01*
X75974120Y-61495658D01*
X75878757Y-61396907D01*
X75804395Y-61281520D01*
X75753859Y-61153882D01*
X75729078Y-61018855D01*
X75730995Y-60881592D01*
X75759535Y-60747319D01*
X75813615Y-60621142D01*
X75891177Y-60507866D01*
X75989252Y-60411822D01*
X76104123Y-60336653D01*
X76231404Y-60285228D01*
X76366247Y-60259506D01*
X76503524Y-60260464D01*
X76503524Y-60260464D01*
G37*
G36*
X78003524Y-60260464D02*
X78137999Y-60288068D01*
X78264547Y-60341264D01*
X78378359Y-60418031D01*
X78475089Y-60515438D01*
X78551055Y-60629778D01*
X78603368Y-60756696D01*
X78629964Y-60891017D01*
X78629964Y-60891027D01*
X78630030Y-60891361D01*
X78627841Y-61048158D01*
X78627764Y-61048496D01*
X78627764Y-61048504D01*
X78597430Y-61182022D01*
X78541594Y-61307433D01*
X78462463Y-61419608D01*
X78363046Y-61514281D01*
X78247143Y-61587835D01*
X78119156Y-61637478D01*
X77983965Y-61661316D01*
X77846718Y-61658442D01*
X77712640Y-61628962D01*
X77586844Y-61574003D01*
X77474120Y-61495658D01*
X77378757Y-61396907D01*
X77304395Y-61281520D01*
X77253859Y-61153882D01*
X77229078Y-61018855D01*
X77230995Y-60881592D01*
X77259535Y-60747319D01*
X77313615Y-60621142D01*
X77391177Y-60507866D01*
X77489252Y-60411822D01*
X77604123Y-60336653D01*
X77731404Y-60285228D01*
X77866247Y-60259506D01*
X78003524Y-60260464D01*
X78003524Y-60260464D01*
G37*
G36*
X116405524Y-59244464D02*
X116539999Y-59272068D01*
X116666547Y-59325264D01*
X116780359Y-59402031D01*
X116877089Y-59499438D01*
X116953055Y-59613778D01*
X117005368Y-59740696D01*
X117031964Y-59875017D01*
X117031964Y-59875027D01*
X117032030Y-59875361D01*
X117029841Y-60032158D01*
X117029764Y-60032496D01*
X117029764Y-60032504D01*
X116999430Y-60166022D01*
X116943594Y-60291433D01*
X116864463Y-60403608D01*
X116765046Y-60498281D01*
X116649143Y-60571835D01*
X116521155Y-60621478D01*
X116386892Y-60645153D01*
X116373518Y-60649521D01*
X116361890Y-60657442D01*
X116355109Y-60665652D01*
X116353133Y-60662353D01*
X116342826Y-60652775D01*
X116330260Y-60646448D01*
X116315328Y-60643837D01*
X116248718Y-60642442D01*
X116114640Y-60612962D01*
X115988844Y-60558003D01*
X115876120Y-60479658D01*
X115780757Y-60380907D01*
X115706395Y-60265520D01*
X115655859Y-60137882D01*
X115631078Y-60002855D01*
X115632995Y-59865592D01*
X115661535Y-59731319D01*
X115715615Y-59605142D01*
X115793177Y-59491866D01*
X115891252Y-59395822D01*
X116006123Y-59320653D01*
X116133404Y-59269228D01*
X116268247Y-59243506D01*
X116405524Y-59244464D01*
X116405524Y-59244464D01*
G37*
G36*
X73853710Y-52391412D02*
X73853719Y-52391415D01*
X73853759Y-52391419D01*
X74033410Y-52447031D01*
X74198838Y-52536477D01*
X74343742Y-52656352D01*
X74462603Y-52802090D01*
X74550893Y-52968139D01*
X74605248Y-53148174D01*
X74623600Y-53335338D01*
X74623600Y-53344662D01*
X74623506Y-53358116D01*
X74602543Y-53545006D01*
X74545679Y-53724264D01*
X74455079Y-53889064D01*
X74334196Y-54033128D01*
X74187632Y-54150968D01*
X74020971Y-54238096D01*
X73840561Y-54291194D01*
X73840522Y-54291198D01*
X73840514Y-54291200D01*
X73653275Y-54308241D01*
X73466290Y-54288588D01*
X73466281Y-54288585D01*
X73466241Y-54288581D01*
X73286590Y-54232969D01*
X73121162Y-54143523D01*
X72976258Y-54023648D01*
X72857397Y-53877910D01*
X72769107Y-53711861D01*
X72714752Y-53531826D01*
X72696400Y-53344662D01*
X72696400Y-53335338D01*
X72696494Y-53321884D01*
X72717457Y-53134994D01*
X72774321Y-52955736D01*
X72864921Y-52790936D01*
X72985804Y-52646872D01*
X73132368Y-52529032D01*
X73299029Y-52441904D01*
X73479439Y-52388806D01*
X73479478Y-52388802D01*
X73479486Y-52388800D01*
X73666725Y-52371759D01*
X73853710Y-52391412D01*
X73853710Y-52391412D01*
G37*
G36*
X76393710Y-52391412D02*
X76393719Y-52391415D01*
X76393759Y-52391419D01*
X76573410Y-52447031D01*
X76738838Y-52536477D01*
X76883742Y-52656352D01*
X77002603Y-52802090D01*
X77090893Y-52968139D01*
X77145248Y-53148174D01*
X77163600Y-53335338D01*
X77163600Y-53344662D01*
X77163506Y-53358116D01*
X77142543Y-53545006D01*
X77085679Y-53724264D01*
X76995079Y-53889064D01*
X76874196Y-54033128D01*
X76727632Y-54150968D01*
X76560971Y-54238096D01*
X76380561Y-54291194D01*
X76380522Y-54291198D01*
X76380514Y-54291200D01*
X76193275Y-54308241D01*
X76006290Y-54288588D01*
X76006281Y-54288585D01*
X76006241Y-54288581D01*
X75826590Y-54232969D01*
X75661162Y-54143523D01*
X75516258Y-54023648D01*
X75397397Y-53877910D01*
X75309107Y-53711861D01*
X75254752Y-53531826D01*
X75236400Y-53344662D01*
X75236400Y-53335338D01*
X75236494Y-53321884D01*
X75257457Y-53134994D01*
X75314321Y-52955736D01*
X75404921Y-52790936D01*
X75525804Y-52646872D01*
X75672368Y-52529032D01*
X75839029Y-52441904D01*
X76019439Y-52388806D01*
X76019478Y-52388802D01*
X76019486Y-52388800D01*
X76206725Y-52371759D01*
X76393710Y-52391412D01*
X76393710Y-52391412D01*
G37*
G36*
X78933710Y-52391412D02*
X78933719Y-52391415D01*
X78933759Y-52391419D01*
X79113410Y-52447031D01*
X79278838Y-52536477D01*
X79423742Y-52656352D01*
X79542603Y-52802090D01*
X79630893Y-52968139D01*
X79685248Y-53148174D01*
X79703600Y-53335338D01*
X79703600Y-53344662D01*
X79703506Y-53358116D01*
X79682543Y-53545006D01*
X79625679Y-53724264D01*
X79535079Y-53889064D01*
X79414196Y-54033128D01*
X79267632Y-54150968D01*
X79100971Y-54238096D01*
X78920561Y-54291194D01*
X78920522Y-54291198D01*
X78920514Y-54291200D01*
X78733275Y-54308241D01*
X78546290Y-54288588D01*
X78546281Y-54288585D01*
X78546241Y-54288581D01*
X78366590Y-54232969D01*
X78201162Y-54143523D01*
X78056258Y-54023648D01*
X77937397Y-53877910D01*
X77849107Y-53711861D01*
X77794752Y-53531826D01*
X77776400Y-53344662D01*
X77776400Y-53335338D01*
X77776494Y-53321884D01*
X77797457Y-53134994D01*
X77854321Y-52955736D01*
X77944921Y-52790936D01*
X78065804Y-52646872D01*
X78212368Y-52529032D01*
X78379029Y-52441904D01*
X78559439Y-52388806D01*
X78559478Y-52388802D01*
X78559486Y-52388800D01*
X78746725Y-52371759D01*
X78933710Y-52391412D01*
X78933710Y-52391412D01*
G37*
G36*
X81473710Y-52391412D02*
X81473719Y-52391415D01*
X81473759Y-52391419D01*
X81653410Y-52447031D01*
X81818838Y-52536477D01*
X81963742Y-52656352D01*
X82082603Y-52802090D01*
X82170893Y-52968139D01*
X82225248Y-53148174D01*
X82243600Y-53335338D01*
X82243600Y-53344662D01*
X82243506Y-53358116D01*
X82222543Y-53545006D01*
X82165679Y-53724264D01*
X82075079Y-53889064D01*
X81954196Y-54033128D01*
X81807632Y-54150968D01*
X81640971Y-54238096D01*
X81460561Y-54291194D01*
X81460522Y-54291198D01*
X81460514Y-54291200D01*
X81273275Y-54308241D01*
X81086290Y-54288588D01*
X81086281Y-54288585D01*
X81086241Y-54288581D01*
X80906590Y-54232969D01*
X80741162Y-54143523D01*
X80596258Y-54023648D01*
X80477397Y-53877910D01*
X80389107Y-53711861D01*
X80334752Y-53531826D01*
X80316400Y-53344662D01*
X80316400Y-53335338D01*
X80316494Y-53321884D01*
X80337457Y-53134994D01*
X80394321Y-52955736D01*
X80484921Y-52790936D01*
X80605804Y-52646872D01*
X80752368Y-52529032D01*
X80919029Y-52441904D01*
X81099439Y-52388806D01*
X81099478Y-52388802D01*
X81099486Y-52388800D01*
X81286725Y-52371759D01*
X81473710Y-52391412D01*
X81473710Y-52391412D01*
G37*
G36*
X84013710Y-52391412D02*
X84013719Y-52391415D01*
X84013759Y-52391419D01*
X84193410Y-52447031D01*
X84358838Y-52536477D01*
X84503742Y-52656352D01*
X84622603Y-52802090D01*
X84710893Y-52968139D01*
X84765248Y-53148174D01*
X84783600Y-53335338D01*
X84783600Y-53344662D01*
X84783506Y-53358116D01*
X84762543Y-53545006D01*
X84705679Y-53724264D01*
X84615079Y-53889064D01*
X84494196Y-54033128D01*
X84347632Y-54150968D01*
X84180971Y-54238096D01*
X84000561Y-54291194D01*
X84000522Y-54291198D01*
X84000514Y-54291200D01*
X83813275Y-54308241D01*
X83626290Y-54288588D01*
X83626281Y-54288585D01*
X83626241Y-54288581D01*
X83446590Y-54232969D01*
X83281162Y-54143523D01*
X83136258Y-54023648D01*
X83017397Y-53877910D01*
X82929107Y-53711861D01*
X82874752Y-53531826D01*
X82856400Y-53344662D01*
X82856400Y-53335338D01*
X82856494Y-53321884D01*
X82877457Y-53134994D01*
X82934321Y-52955736D01*
X83024921Y-52790936D01*
X83145804Y-52646872D01*
X83292368Y-52529032D01*
X83459029Y-52441904D01*
X83639439Y-52388806D01*
X83639478Y-52388802D01*
X83639486Y-52388800D01*
X83826725Y-52371759D01*
X84013710Y-52391412D01*
X84013710Y-52391412D01*
G37*
G36*
X86553710Y-52391412D02*
X86553719Y-52391415D01*
X86553759Y-52391419D01*
X86733410Y-52447031D01*
X86898838Y-52536477D01*
X87043742Y-52656352D01*
X87162603Y-52802090D01*
X87250893Y-52968139D01*
X87305248Y-53148174D01*
X87323600Y-53335338D01*
X87323600Y-53344662D01*
X87323506Y-53358116D01*
X87302543Y-53545006D01*
X87245679Y-53724264D01*
X87155079Y-53889064D01*
X87034196Y-54033128D01*
X86887632Y-54150968D01*
X86720971Y-54238096D01*
X86540561Y-54291194D01*
X86540522Y-54291198D01*
X86540514Y-54291200D01*
X86353275Y-54308241D01*
X86166290Y-54288588D01*
X86166281Y-54288585D01*
X86166241Y-54288581D01*
X85986590Y-54232969D01*
X85821162Y-54143523D01*
X85676258Y-54023648D01*
X85557397Y-53877910D01*
X85469107Y-53711861D01*
X85414752Y-53531826D01*
X85396400Y-53344662D01*
X85396400Y-53335338D01*
X85396494Y-53321884D01*
X85417457Y-53134994D01*
X85474321Y-52955736D01*
X85564921Y-52790936D01*
X85685804Y-52646872D01*
X85832368Y-52529032D01*
X85999029Y-52441904D01*
X86179439Y-52388806D01*
X86179478Y-52388802D01*
X86179486Y-52388800D01*
X86366725Y-52371759D01*
X86553710Y-52391412D01*
X86553710Y-52391412D01*
G37*
G36*
X89093710Y-52391412D02*
X89093719Y-52391415D01*
X89093759Y-52391419D01*
X89273410Y-52447031D01*
X89438838Y-52536477D01*
X89583742Y-52656352D01*
X89702603Y-52802090D01*
X89790893Y-52968139D01*
X89845248Y-53148174D01*
X89863600Y-53335338D01*
X89863600Y-53344662D01*
X89863506Y-53358116D01*
X89842543Y-53545006D01*
X89785679Y-53724264D01*
X89695079Y-53889064D01*
X89574196Y-54033128D01*
X89427632Y-54150968D01*
X89260971Y-54238096D01*
X89080561Y-54291194D01*
X89080522Y-54291198D01*
X89080514Y-54291200D01*
X88893275Y-54308241D01*
X88706290Y-54288588D01*
X88706281Y-54288585D01*
X88706241Y-54288581D01*
X88526590Y-54232969D01*
X88361162Y-54143523D01*
X88216258Y-54023648D01*
X88097397Y-53877910D01*
X88009107Y-53711861D01*
X87954752Y-53531826D01*
X87936400Y-53344662D01*
X87936400Y-53335338D01*
X87936494Y-53321884D01*
X87957457Y-53134994D01*
X88014321Y-52955736D01*
X88104921Y-52790936D01*
X88225804Y-52646872D01*
X88372368Y-52529032D01*
X88539029Y-52441904D01*
X88719439Y-52388806D01*
X88719478Y-52388802D01*
X88719486Y-52388800D01*
X88906725Y-52371759D01*
X89093710Y-52391412D01*
X89093710Y-52391412D01*
G37*
G36*
X98491710Y-52391412D02*
X98491719Y-52391415D01*
X98491759Y-52391419D01*
X98671410Y-52447031D01*
X98836838Y-52536477D01*
X98981742Y-52656352D01*
X99100603Y-52802090D01*
X99188893Y-52968139D01*
X99243248Y-53148174D01*
X99261600Y-53335338D01*
X99261600Y-53344662D01*
X99261506Y-53358116D01*
X99240543Y-53545006D01*
X99183679Y-53724264D01*
X99093079Y-53889064D01*
X98972196Y-54033128D01*
X98825632Y-54150968D01*
X98658971Y-54238096D01*
X98478561Y-54291194D01*
X98478522Y-54291198D01*
X98478514Y-54291200D01*
X98291275Y-54308241D01*
X98104290Y-54288588D01*
X98104281Y-54288585D01*
X98104241Y-54288581D01*
X97924590Y-54232969D01*
X97759162Y-54143523D01*
X97614258Y-54023648D01*
X97495397Y-53877910D01*
X97407107Y-53711861D01*
X97352752Y-53531826D01*
X97334400Y-53344662D01*
X97334400Y-53335338D01*
X97334494Y-53321884D01*
X97355457Y-53134994D01*
X97412321Y-52955736D01*
X97502921Y-52790936D01*
X97623804Y-52646872D01*
X97770368Y-52529032D01*
X97937029Y-52441904D01*
X98117439Y-52388806D01*
X98117478Y-52388802D01*
X98117486Y-52388800D01*
X98304725Y-52371759D01*
X98491710Y-52391412D01*
X98491710Y-52391412D01*
G37*
G36*
X101031710Y-52391412D02*
X101031719Y-52391415D01*
X101031759Y-52391419D01*
X101211410Y-52447031D01*
X101376838Y-52536477D01*
X101521742Y-52656352D01*
X101640603Y-52802090D01*
X101728893Y-52968139D01*
X101783248Y-53148174D01*
X101801600Y-53335338D01*
X101801600Y-53344662D01*
X101801506Y-53358116D01*
X101780543Y-53545006D01*
X101723679Y-53724264D01*
X101633079Y-53889064D01*
X101512196Y-54033128D01*
X101365632Y-54150968D01*
X101198971Y-54238096D01*
X101018561Y-54291194D01*
X101018522Y-54291198D01*
X101018514Y-54291200D01*
X100831275Y-54308241D01*
X100644290Y-54288588D01*
X100644281Y-54288585D01*
X100644241Y-54288581D01*
X100464590Y-54232969D01*
X100299162Y-54143523D01*
X100154258Y-54023648D01*
X100035397Y-53877910D01*
X99947107Y-53711861D01*
X99892752Y-53531826D01*
X99874400Y-53344662D01*
X99874400Y-53335338D01*
X99874494Y-53321884D01*
X99895457Y-53134994D01*
X99952321Y-52955736D01*
X100042921Y-52790936D01*
X100163804Y-52646872D01*
X100310368Y-52529032D01*
X100477029Y-52441904D01*
X100657439Y-52388806D01*
X100657478Y-52388802D01*
X100657486Y-52388800D01*
X100844725Y-52371759D01*
X101031710Y-52391412D01*
X101031710Y-52391412D01*
G37*
G36*
X103571710Y-52391412D02*
X103571719Y-52391415D01*
X103571759Y-52391419D01*
X103751410Y-52447031D01*
X103916838Y-52536477D01*
X104061742Y-52656352D01*
X104180603Y-52802090D01*
X104268893Y-52968139D01*
X104323248Y-53148174D01*
X104341600Y-53335338D01*
X104341600Y-53344662D01*
X104341506Y-53358116D01*
X104320543Y-53545006D01*
X104263679Y-53724264D01*
X104173079Y-53889064D01*
X104052196Y-54033128D01*
X103905632Y-54150968D01*
X103738971Y-54238096D01*
X103558561Y-54291194D01*
X103558522Y-54291198D01*
X103558514Y-54291200D01*
X103371275Y-54308241D01*
X103184290Y-54288588D01*
X103184281Y-54288585D01*
X103184241Y-54288581D01*
X103004590Y-54232969D01*
X102839162Y-54143523D01*
X102694258Y-54023648D01*
X102575397Y-53877910D01*
X102487107Y-53711861D01*
X102432752Y-53531826D01*
X102414400Y-53344662D01*
X102414400Y-53335338D01*
X102414494Y-53321884D01*
X102435457Y-53134994D01*
X102492321Y-52955736D01*
X102582921Y-52790936D01*
X102703804Y-52646872D01*
X102850368Y-52529032D01*
X103017029Y-52441904D01*
X103197439Y-52388806D01*
X103197478Y-52388802D01*
X103197486Y-52388800D01*
X103384725Y-52371759D01*
X103571710Y-52391412D01*
X103571710Y-52391412D01*
G37*
G36*
X106111710Y-52391412D02*
X106111719Y-52391415D01*
X106111759Y-52391419D01*
X106291410Y-52447031D01*
X106456838Y-52536477D01*
X106601742Y-52656352D01*
X106720603Y-52802090D01*
X106808893Y-52968139D01*
X106863248Y-53148174D01*
X106881600Y-53335338D01*
X106881600Y-53344662D01*
X106881506Y-53358116D01*
X106860543Y-53545006D01*
X106803679Y-53724264D01*
X106713079Y-53889064D01*
X106592196Y-54033128D01*
X106445632Y-54150968D01*
X106278971Y-54238096D01*
X106098561Y-54291194D01*
X106098522Y-54291198D01*
X106098514Y-54291200D01*
X105911275Y-54308241D01*
X105724290Y-54288588D01*
X105724281Y-54288585D01*
X105724241Y-54288581D01*
X105544590Y-54232969D01*
X105379162Y-54143523D01*
X105234258Y-54023648D01*
X105115397Y-53877910D01*
X105027107Y-53711861D01*
X104972752Y-53531826D01*
X104954400Y-53344662D01*
X104954400Y-53335338D01*
X104954494Y-53321884D01*
X104975457Y-53134994D01*
X105032321Y-52955736D01*
X105122921Y-52790936D01*
X105243804Y-52646872D01*
X105390368Y-52529032D01*
X105557029Y-52441904D01*
X105737439Y-52388806D01*
X105737478Y-52388802D01*
X105737486Y-52388800D01*
X105924725Y-52371759D01*
X106111710Y-52391412D01*
X106111710Y-52391412D01*
G37*
G36*
X111191710Y-52391412D02*
X111191719Y-52391415D01*
X111191759Y-52391419D01*
X111371410Y-52447031D01*
X111536838Y-52536477D01*
X111681742Y-52656352D01*
X111800603Y-52802090D01*
X111888893Y-52968139D01*
X111943248Y-53148174D01*
X111961600Y-53335338D01*
X111961600Y-53344662D01*
X111961506Y-53358116D01*
X111940543Y-53545006D01*
X111883679Y-53724264D01*
X111793079Y-53889064D01*
X111672196Y-54033128D01*
X111525632Y-54150968D01*
X111358971Y-54238096D01*
X111178561Y-54291194D01*
X111178522Y-54291198D01*
X111178514Y-54291200D01*
X110991275Y-54308241D01*
X110804290Y-54288588D01*
X110804281Y-54288585D01*
X110804241Y-54288581D01*
X110624590Y-54232969D01*
X110459162Y-54143523D01*
X110314258Y-54023648D01*
X110195397Y-53877910D01*
X110107107Y-53711861D01*
X110052752Y-53531826D01*
X110034400Y-53344662D01*
X110034400Y-53335338D01*
X110034494Y-53321884D01*
X110055457Y-53134994D01*
X110112321Y-52955736D01*
X110202921Y-52790936D01*
X110323804Y-52646872D01*
X110470368Y-52529032D01*
X110637029Y-52441904D01*
X110817439Y-52388806D01*
X110817478Y-52388802D01*
X110817486Y-52388800D01*
X111004725Y-52371759D01*
X111191710Y-52391412D01*
X111191710Y-52391412D01*
G37*
G36*
X108651710Y-52391412D02*
X108651719Y-52391415D01*
X108651759Y-52391419D01*
X108831410Y-52447031D01*
X108996838Y-52536477D01*
X109141742Y-52656352D01*
X109260603Y-52802090D01*
X109348893Y-52968139D01*
X109403248Y-53148174D01*
X109421600Y-53335338D01*
X109421600Y-53344662D01*
X109421506Y-53358116D01*
X109400543Y-53545006D01*
X109343679Y-53724264D01*
X109253079Y-53889064D01*
X109132196Y-54033128D01*
X108985632Y-54150968D01*
X108818971Y-54238096D01*
X108638561Y-54291194D01*
X108638522Y-54291198D01*
X108638514Y-54291200D01*
X108451275Y-54308241D01*
X108264290Y-54288588D01*
X108264281Y-54288585D01*
X108264241Y-54288581D01*
X108084590Y-54232969D01*
X107919162Y-54143523D01*
X107774258Y-54023648D01*
X107655397Y-53877910D01*
X107567107Y-53711861D01*
X107512752Y-53531826D01*
X107494400Y-53344662D01*
X107494400Y-53335338D01*
X107494494Y-53321884D01*
X107515457Y-53134994D01*
X107572321Y-52955736D01*
X107662921Y-52790936D01*
X107783804Y-52646872D01*
X107930368Y-52529032D01*
X108097029Y-52441904D01*
X108277439Y-52388806D01*
X108277478Y-52388802D01*
X108277486Y-52388800D01*
X108464725Y-52371759D01*
X108651710Y-52391412D01*
X108651710Y-52391412D01*
G37*
G36*
X91633710Y-52391412D02*
X91633719Y-52391415D01*
X91633759Y-52391419D01*
X91813410Y-52447031D01*
X91978838Y-52536477D01*
X92123742Y-52656352D01*
X92242603Y-52802090D01*
X92330893Y-52968139D01*
X92385248Y-53148174D01*
X92403600Y-53335338D01*
X92403600Y-53344662D01*
X92403506Y-53358116D01*
X92382543Y-53545006D01*
X92325679Y-53724264D01*
X92235079Y-53889064D01*
X92114196Y-54033128D01*
X91967632Y-54150968D01*
X91800971Y-54238096D01*
X91620561Y-54291194D01*
X91620522Y-54291198D01*
X91620514Y-54291200D01*
X91433275Y-54308241D01*
X91246290Y-54288588D01*
X91246281Y-54288585D01*
X91246241Y-54288581D01*
X91066590Y-54232969D01*
X90901162Y-54143523D01*
X90756258Y-54023648D01*
X90637397Y-53877910D01*
X90549107Y-53711861D01*
X90494752Y-53531826D01*
X90476400Y-53344662D01*
X90476400Y-53335338D01*
X90476494Y-53321884D01*
X90497457Y-53134994D01*
X90554321Y-52955736D01*
X90644921Y-52790936D01*
X90765804Y-52646872D01*
X90912368Y-52529032D01*
X91079029Y-52441904D01*
X91259439Y-52388806D01*
X91259478Y-52388802D01*
X91259486Y-52388800D01*
X91446725Y-52371759D01*
X91633710Y-52391412D01*
X91633710Y-52391412D01*
G37*
G36*
X72083600Y-54303600D02*
X70156400Y-54303600D01*
X70156400Y-52376400D01*
X72083600Y-52376400D01*
X72083600Y-54303600D01*
X72083600Y-54303600D01*
G37*
G36*
X96721600Y-54303600D02*
X94794400Y-54303600D01*
X94794400Y-52376400D01*
X96721600Y-52376400D01*
X96721600Y-54303600D01*
X96721600Y-54303600D01*
G37*
G36*
X117129851Y-47421963D02*
X117696562Y-47538292D01*
X118229880Y-47762478D01*
X118709500Y-48085986D01*
X119117151Y-48496493D01*
X119437303Y-48978359D01*
X119657758Y-49513226D01*
X119770061Y-50080394D01*
X119770061Y-50080404D01*
X119770127Y-50080738D01*
X119760900Y-50741522D01*
X119760824Y-50741856D01*
X119760824Y-50741868D01*
X119632732Y-51305669D01*
X119397423Y-51834180D01*
X119063944Y-52306918D01*
X118644987Y-52705884D01*
X118156527Y-53015870D01*
X117617152Y-53225081D01*
X117047419Y-53325539D01*
X116469020Y-53313424D01*
X115903984Y-53189193D01*
X115373849Y-52957583D01*
X114898794Y-52627410D01*
X114496915Y-52211252D01*
X114183525Y-51724967D01*
X113970555Y-51187067D01*
X113866119Y-50618041D01*
X113874198Y-50039574D01*
X113994478Y-49473694D01*
X114222385Y-48941949D01*
X114549233Y-48464600D01*
X114962575Y-48059825D01*
X115446663Y-47743047D01*
X115983062Y-47526328D01*
X116551337Y-47417924D01*
X117129851Y-47421963D01*
X117129851Y-47421963D01*
G37*
G36*
X51129851Y-47421963D02*
X51696562Y-47538292D01*
X52229880Y-47762478D01*
X52709500Y-48085986D01*
X53117151Y-48496493D01*
X53437303Y-48978359D01*
X53657758Y-49513226D01*
X53770061Y-50080394D01*
X53770061Y-50080404D01*
X53770127Y-50080738D01*
X53760900Y-50741522D01*
X53760824Y-50741856D01*
X53760824Y-50741868D01*
X53632732Y-51305669D01*
X53397423Y-51834180D01*
X53063944Y-52306918D01*
X52644987Y-52705884D01*
X52156527Y-53015870D01*
X51617152Y-53225081D01*
X51047419Y-53325539D01*
X50469020Y-53313424D01*
X49903984Y-53189193D01*
X49373849Y-52957583D01*
X48898794Y-52627410D01*
X48496915Y-52211252D01*
X48183525Y-51724967D01*
X47970555Y-51187067D01*
X47866119Y-50618041D01*
X47874198Y-50039574D01*
X47994478Y-49473694D01*
X48222385Y-48941949D01*
X48549233Y-48464600D01*
X48962575Y-48059825D01*
X49446663Y-47743047D01*
X49983062Y-47526328D01*
X50551337Y-47417924D01*
X51129851Y-47421963D01*
X51129851Y-47421963D01*
G37*
G36*
X108651710Y-49851412D02*
X108651719Y-49851415D01*
X108651759Y-49851419D01*
X108831410Y-49907031D01*
X108996838Y-49996477D01*
X109141742Y-50116352D01*
X109260603Y-50262090D01*
X109348893Y-50428139D01*
X109403248Y-50608174D01*
X109421600Y-50795338D01*
X109421600Y-50804662D01*
X109421506Y-50818116D01*
X109400543Y-51005006D01*
X109343679Y-51184264D01*
X109253079Y-51349064D01*
X109132196Y-51493128D01*
X108985632Y-51610968D01*
X108818971Y-51698096D01*
X108638561Y-51751194D01*
X108638522Y-51751198D01*
X108638514Y-51751200D01*
X108451275Y-51768241D01*
X108264290Y-51748588D01*
X108264281Y-51748585D01*
X108264241Y-51748581D01*
X108084590Y-51692969D01*
X107919162Y-51603523D01*
X107774258Y-51483648D01*
X107655397Y-51337910D01*
X107567107Y-51171861D01*
X107512752Y-50991826D01*
X107494400Y-50804662D01*
X107494400Y-50795338D01*
X107494494Y-50781884D01*
X107515457Y-50594994D01*
X107572321Y-50415736D01*
X107662921Y-50250936D01*
X107783804Y-50106872D01*
X107930368Y-49989032D01*
X108097029Y-49901904D01*
X108277439Y-49848806D01*
X108277478Y-49848802D01*
X108277486Y-49848800D01*
X108464725Y-49831759D01*
X108651710Y-49851412D01*
X108651710Y-49851412D01*
G37*
G36*
X106111710Y-49851412D02*
X106111719Y-49851415D01*
X106111759Y-49851419D01*
X106291410Y-49907031D01*
X106456838Y-49996477D01*
X106601742Y-50116352D01*
X106720603Y-50262090D01*
X106808893Y-50428139D01*
X106863248Y-50608174D01*
X106881600Y-50795338D01*
X106881600Y-50804662D01*
X106881506Y-50818116D01*
X106860543Y-51005006D01*
X106803679Y-51184264D01*
X106713079Y-51349064D01*
X106592196Y-51493128D01*
X106445632Y-51610968D01*
X106278971Y-51698096D01*
X106098561Y-51751194D01*
X106098522Y-51751198D01*
X106098514Y-51751200D01*
X105911275Y-51768241D01*
X105724290Y-51748588D01*
X105724281Y-51748585D01*
X105724241Y-51748581D01*
X105544590Y-51692969D01*
X105379162Y-51603523D01*
X105234258Y-51483648D01*
X105115397Y-51337910D01*
X105027107Y-51171861D01*
X104972752Y-50991826D01*
X104954400Y-50804662D01*
X104954400Y-50795338D01*
X104954494Y-50781884D01*
X104975457Y-50594994D01*
X105032321Y-50415736D01*
X105122921Y-50250936D01*
X105243804Y-50106872D01*
X105390368Y-49989032D01*
X105557029Y-49901904D01*
X105737439Y-49848806D01*
X105737478Y-49848802D01*
X105737486Y-49848800D01*
X105924725Y-49831759D01*
X106111710Y-49851412D01*
X106111710Y-49851412D01*
G37*
G36*
X103571710Y-49851412D02*
X103571719Y-49851415D01*
X103571759Y-49851419D01*
X103751410Y-49907031D01*
X103916838Y-49996477D01*
X104061742Y-50116352D01*
X104180603Y-50262090D01*
X104268893Y-50428139D01*
X104323248Y-50608174D01*
X104341600Y-50795338D01*
X104341600Y-50804662D01*
X104341506Y-50818116D01*
X104320543Y-51005006D01*
X104263679Y-51184264D01*
X104173079Y-51349064D01*
X104052196Y-51493128D01*
X103905632Y-51610968D01*
X103738971Y-51698096D01*
X103558561Y-51751194D01*
X103558522Y-51751198D01*
X103558514Y-51751200D01*
X103371275Y-51768241D01*
X103184290Y-51748588D01*
X103184281Y-51748585D01*
X103184241Y-51748581D01*
X103004590Y-51692969D01*
X102839162Y-51603523D01*
X102694258Y-51483648D01*
X102575397Y-51337910D01*
X102487107Y-51171861D01*
X102432752Y-50991826D01*
X102414400Y-50804662D01*
X102414400Y-50795338D01*
X102414494Y-50781884D01*
X102435457Y-50594994D01*
X102492321Y-50415736D01*
X102582921Y-50250936D01*
X102703804Y-50106872D01*
X102850368Y-49989032D01*
X103017029Y-49901904D01*
X103197439Y-49848806D01*
X103197478Y-49848802D01*
X103197486Y-49848800D01*
X103384725Y-49831759D01*
X103571710Y-49851412D01*
X103571710Y-49851412D01*
G37*
G36*
X101031710Y-49851412D02*
X101031719Y-49851415D01*
X101031759Y-49851419D01*
X101211410Y-49907031D01*
X101376838Y-49996477D01*
X101521742Y-50116352D01*
X101640603Y-50262090D01*
X101728893Y-50428139D01*
X101783248Y-50608174D01*
X101801600Y-50795338D01*
X101801600Y-50804662D01*
X101801506Y-50818116D01*
X101780543Y-51005006D01*
X101723679Y-51184264D01*
X101633079Y-51349064D01*
X101512196Y-51493128D01*
X101365632Y-51610968D01*
X101198971Y-51698096D01*
X101018561Y-51751194D01*
X101018522Y-51751198D01*
X101018514Y-51751200D01*
X100831275Y-51768241D01*
X100644290Y-51748588D01*
X100644281Y-51748585D01*
X100644241Y-51748581D01*
X100464590Y-51692969D01*
X100299162Y-51603523D01*
X100154258Y-51483648D01*
X100035397Y-51337910D01*
X99947107Y-51171861D01*
X99892752Y-50991826D01*
X99874400Y-50804662D01*
X99874400Y-50795338D01*
X99874494Y-50781884D01*
X99895457Y-50594994D01*
X99952321Y-50415736D01*
X100042921Y-50250936D01*
X100163804Y-50106872D01*
X100310368Y-49989032D01*
X100477029Y-49901904D01*
X100657439Y-49848806D01*
X100657478Y-49848802D01*
X100657486Y-49848800D01*
X100844725Y-49831759D01*
X101031710Y-49851412D01*
X101031710Y-49851412D01*
G37*
G36*
X111191710Y-49851412D02*
X111191719Y-49851415D01*
X111191759Y-49851419D01*
X111371410Y-49907031D01*
X111536838Y-49996477D01*
X111681742Y-50116352D01*
X111800603Y-50262090D01*
X111888893Y-50428139D01*
X111943248Y-50608174D01*
X111961600Y-50795338D01*
X111961600Y-50804662D01*
X111961506Y-50818116D01*
X111940543Y-51005006D01*
X111883679Y-51184264D01*
X111793079Y-51349064D01*
X111672196Y-51493128D01*
X111525632Y-51610968D01*
X111358971Y-51698096D01*
X111178561Y-51751194D01*
X111178522Y-51751198D01*
X111178514Y-51751200D01*
X110991275Y-51768241D01*
X110804290Y-51748588D01*
X110804281Y-51748585D01*
X110804241Y-51748581D01*
X110624590Y-51692969D01*
X110459162Y-51603523D01*
X110314258Y-51483648D01*
X110195397Y-51337910D01*
X110107107Y-51171861D01*
X110052752Y-50991826D01*
X110034400Y-50804662D01*
X110034400Y-50795338D01*
X110034494Y-50781884D01*
X110055457Y-50594994D01*
X110112321Y-50415736D01*
X110202921Y-50250936D01*
X110323804Y-50106872D01*
X110470368Y-49989032D01*
X110637029Y-49901904D01*
X110817439Y-49848806D01*
X110817478Y-49848802D01*
X110817486Y-49848800D01*
X111004725Y-49831759D01*
X111191710Y-49851412D01*
X111191710Y-49851412D01*
G37*
G36*
X98491710Y-49851412D02*
X98491719Y-49851415D01*
X98491759Y-49851419D01*
X98671410Y-49907031D01*
X98836838Y-49996477D01*
X98981742Y-50116352D01*
X99100603Y-50262090D01*
X99188893Y-50428139D01*
X99243248Y-50608174D01*
X99261600Y-50795338D01*
X99261600Y-50804662D01*
X99261506Y-50818116D01*
X99240543Y-51005006D01*
X99183679Y-51184264D01*
X99093079Y-51349064D01*
X98972196Y-51493128D01*
X98825632Y-51610968D01*
X98658971Y-51698096D01*
X98478561Y-51751194D01*
X98478522Y-51751198D01*
X98478514Y-51751200D01*
X98291275Y-51768241D01*
X98104290Y-51748588D01*
X98104281Y-51748585D01*
X98104241Y-51748581D01*
X97924590Y-51692969D01*
X97759162Y-51603523D01*
X97614258Y-51483648D01*
X97495397Y-51337910D01*
X97407107Y-51171861D01*
X97352752Y-50991826D01*
X97334400Y-50804662D01*
X97334400Y-50795338D01*
X97334494Y-50781884D01*
X97355457Y-50594994D01*
X97412321Y-50415736D01*
X97502921Y-50250936D01*
X97623804Y-50106872D01*
X97770368Y-49989032D01*
X97937029Y-49901904D01*
X98117439Y-49848806D01*
X98117478Y-49848802D01*
X98117486Y-49848800D01*
X98304725Y-49831759D01*
X98491710Y-49851412D01*
X98491710Y-49851412D01*
G37*
G36*
X95951710Y-49851412D02*
X95951719Y-49851415D01*
X95951759Y-49851419D01*
X96131410Y-49907031D01*
X96296838Y-49996477D01*
X96441742Y-50116352D01*
X96560603Y-50262090D01*
X96648893Y-50428139D01*
X96703248Y-50608174D01*
X96721600Y-50795338D01*
X96721600Y-50804662D01*
X96721506Y-50818116D01*
X96700543Y-51005006D01*
X96643679Y-51184264D01*
X96553079Y-51349064D01*
X96432196Y-51493128D01*
X96285632Y-51610968D01*
X96118971Y-51698096D01*
X95938561Y-51751194D01*
X95938522Y-51751198D01*
X95938514Y-51751200D01*
X95751275Y-51768241D01*
X95564290Y-51748588D01*
X95564281Y-51748585D01*
X95564241Y-51748581D01*
X95384590Y-51692969D01*
X95219162Y-51603523D01*
X95074258Y-51483648D01*
X94955397Y-51337910D01*
X94867107Y-51171861D01*
X94812752Y-50991826D01*
X94794400Y-50804662D01*
X94794400Y-50795338D01*
X94794494Y-50781884D01*
X94815457Y-50594994D01*
X94872321Y-50415736D01*
X94962921Y-50250936D01*
X95083804Y-50106872D01*
X95230368Y-49989032D01*
X95397029Y-49901904D01*
X95577439Y-49848806D01*
X95577478Y-49848802D01*
X95577486Y-49848800D01*
X95764725Y-49831759D01*
X95951710Y-49851412D01*
X95951710Y-49851412D01*
G37*
G36*
X91633710Y-49851412D02*
X91633719Y-49851415D01*
X91633759Y-49851419D01*
X91813410Y-49907031D01*
X91978838Y-49996477D01*
X92123742Y-50116352D01*
X92242603Y-50262090D01*
X92330893Y-50428139D01*
X92385248Y-50608174D01*
X92403600Y-50795338D01*
X92403600Y-50804662D01*
X92403506Y-50818116D01*
X92382543Y-51005006D01*
X92325679Y-51184264D01*
X92235079Y-51349064D01*
X92114196Y-51493128D01*
X91967632Y-51610968D01*
X91800971Y-51698096D01*
X91620561Y-51751194D01*
X91620522Y-51751198D01*
X91620514Y-51751200D01*
X91433275Y-51768241D01*
X91246290Y-51748588D01*
X91246281Y-51748585D01*
X91246241Y-51748581D01*
X91066590Y-51692969D01*
X90901162Y-51603523D01*
X90756258Y-51483648D01*
X90637397Y-51337910D01*
X90549107Y-51171861D01*
X90494752Y-50991826D01*
X90476400Y-50804662D01*
X90476400Y-50795338D01*
X90476494Y-50781884D01*
X90497457Y-50594994D01*
X90554321Y-50415736D01*
X90644921Y-50250936D01*
X90765804Y-50106872D01*
X90912368Y-49989032D01*
X91079029Y-49901904D01*
X91259439Y-49848806D01*
X91259478Y-49848802D01*
X91259486Y-49848800D01*
X91446725Y-49831759D01*
X91633710Y-49851412D01*
X91633710Y-49851412D01*
G37*
G36*
X89093710Y-49851412D02*
X89093719Y-49851415D01*
X89093759Y-49851419D01*
X89273410Y-49907031D01*
X89438838Y-49996477D01*
X89583742Y-50116352D01*
X89702603Y-50262090D01*
X89790893Y-50428139D01*
X89845248Y-50608174D01*
X89863600Y-50795338D01*
X89863600Y-50804662D01*
X89863506Y-50818116D01*
X89842543Y-51005006D01*
X89785679Y-51184264D01*
X89695079Y-51349064D01*
X89574196Y-51493128D01*
X89427632Y-51610968D01*
X89260971Y-51698096D01*
X89080561Y-51751194D01*
X89080522Y-51751198D01*
X89080514Y-51751200D01*
X88893275Y-51768241D01*
X88706290Y-51748588D01*
X88706281Y-51748585D01*
X88706241Y-51748581D01*
X88526590Y-51692969D01*
X88361162Y-51603523D01*
X88216258Y-51483648D01*
X88097397Y-51337910D01*
X88009107Y-51171861D01*
X87954752Y-50991826D01*
X87936400Y-50804662D01*
X87936400Y-50795338D01*
X87936494Y-50781884D01*
X87957457Y-50594994D01*
X88014321Y-50415736D01*
X88104921Y-50250936D01*
X88225804Y-50106872D01*
X88372368Y-49989032D01*
X88539029Y-49901904D01*
X88719439Y-49848806D01*
X88719478Y-49848802D01*
X88719486Y-49848800D01*
X88906725Y-49831759D01*
X89093710Y-49851412D01*
X89093710Y-49851412D01*
G37*
G36*
X78933710Y-49851412D02*
X78933719Y-49851415D01*
X78933759Y-49851419D01*
X79113410Y-49907031D01*
X79278838Y-49996477D01*
X79423742Y-50116352D01*
X79542603Y-50262090D01*
X79630893Y-50428139D01*
X79685248Y-50608174D01*
X79703600Y-50795338D01*
X79703600Y-50804662D01*
X79703506Y-50818116D01*
X79682543Y-51005006D01*
X79625679Y-51184264D01*
X79535079Y-51349064D01*
X79414196Y-51493128D01*
X79267632Y-51610968D01*
X79100971Y-51698096D01*
X78920561Y-51751194D01*
X78920522Y-51751198D01*
X78920514Y-51751200D01*
X78733275Y-51768241D01*
X78546290Y-51748588D01*
X78546281Y-51748585D01*
X78546241Y-51748581D01*
X78366590Y-51692969D01*
X78201162Y-51603523D01*
X78056258Y-51483648D01*
X77937397Y-51337910D01*
X77849107Y-51171861D01*
X77794752Y-50991826D01*
X77776400Y-50804662D01*
X77776400Y-50795338D01*
X77776494Y-50781884D01*
X77797457Y-50594994D01*
X77854321Y-50415736D01*
X77944921Y-50250936D01*
X78065804Y-50106872D01*
X78212368Y-49989032D01*
X78379029Y-49901904D01*
X78559439Y-49848806D01*
X78559478Y-49848802D01*
X78559486Y-49848800D01*
X78746725Y-49831759D01*
X78933710Y-49851412D01*
X78933710Y-49851412D01*
G37*
G36*
X73853710Y-49851412D02*
X73853719Y-49851415D01*
X73853759Y-49851419D01*
X74033410Y-49907031D01*
X74198838Y-49996477D01*
X74343742Y-50116352D01*
X74462603Y-50262090D01*
X74550893Y-50428139D01*
X74605248Y-50608174D01*
X74623600Y-50795338D01*
X74623600Y-50804662D01*
X74623506Y-50818116D01*
X74602543Y-51005006D01*
X74545679Y-51184264D01*
X74455079Y-51349064D01*
X74334196Y-51493128D01*
X74187632Y-51610968D01*
X74020971Y-51698096D01*
X73840561Y-51751194D01*
X73840522Y-51751198D01*
X73840514Y-51751200D01*
X73653275Y-51768241D01*
X73466290Y-51748588D01*
X73466281Y-51748585D01*
X73466241Y-51748581D01*
X73286590Y-51692969D01*
X73121162Y-51603523D01*
X72976258Y-51483648D01*
X72857397Y-51337910D01*
X72769107Y-51171861D01*
X72714752Y-50991826D01*
X72696400Y-50804662D01*
X72696400Y-50795338D01*
X72696494Y-50781884D01*
X72717457Y-50594994D01*
X72774321Y-50415736D01*
X72864921Y-50250936D01*
X72985804Y-50106872D01*
X73132368Y-49989032D01*
X73299029Y-49901904D01*
X73479439Y-49848806D01*
X73479478Y-49848802D01*
X73479486Y-49848800D01*
X73666725Y-49831759D01*
X73853710Y-49851412D01*
X73853710Y-49851412D01*
G37*
G36*
X81473710Y-49851412D02*
X81473719Y-49851415D01*
X81473759Y-49851419D01*
X81653410Y-49907031D01*
X81818838Y-49996477D01*
X81963742Y-50116352D01*
X82082603Y-50262090D01*
X82170893Y-50428139D01*
X82225248Y-50608174D01*
X82243600Y-50795338D01*
X82243600Y-50804662D01*
X82243506Y-50818116D01*
X82222543Y-51005006D01*
X82165679Y-51184264D01*
X82075079Y-51349064D01*
X81954196Y-51493128D01*
X81807632Y-51610968D01*
X81640971Y-51698096D01*
X81460561Y-51751194D01*
X81460522Y-51751198D01*
X81460514Y-51751200D01*
X81273275Y-51768241D01*
X81086290Y-51748588D01*
X81086281Y-51748585D01*
X81086241Y-51748581D01*
X80906590Y-51692969D01*
X80741162Y-51603523D01*
X80596258Y-51483648D01*
X80477397Y-51337910D01*
X80389107Y-51171861D01*
X80334752Y-50991826D01*
X80316400Y-50804662D01*
X80316400Y-50795338D01*
X80316494Y-50781884D01*
X80337457Y-50594994D01*
X80394321Y-50415736D01*
X80484921Y-50250936D01*
X80605804Y-50106872D01*
X80752368Y-49989032D01*
X80919029Y-49901904D01*
X81099439Y-49848806D01*
X81099478Y-49848802D01*
X81099486Y-49848800D01*
X81286725Y-49831759D01*
X81473710Y-49851412D01*
X81473710Y-49851412D01*
G37*
G36*
X71313710Y-49851412D02*
X71313719Y-49851415D01*
X71313759Y-49851419D01*
X71493410Y-49907031D01*
X71658838Y-49996477D01*
X71803742Y-50116352D01*
X71922603Y-50262090D01*
X72010893Y-50428139D01*
X72065248Y-50608174D01*
X72083600Y-50795338D01*
X72083600Y-50804662D01*
X72083506Y-50818116D01*
X72062543Y-51005006D01*
X72005679Y-51184264D01*
X71915079Y-51349064D01*
X71794196Y-51493128D01*
X71647632Y-51610968D01*
X71480971Y-51698096D01*
X71300561Y-51751194D01*
X71300522Y-51751198D01*
X71300514Y-51751200D01*
X71113275Y-51768241D01*
X70926290Y-51748588D01*
X70926281Y-51748585D01*
X70926241Y-51748581D01*
X70746590Y-51692969D01*
X70581162Y-51603523D01*
X70436258Y-51483648D01*
X70317397Y-51337910D01*
X70229107Y-51171861D01*
X70174752Y-50991826D01*
X70156400Y-50804662D01*
X70156400Y-50795338D01*
X70156494Y-50781884D01*
X70177457Y-50594994D01*
X70234321Y-50415736D01*
X70324921Y-50250936D01*
X70445804Y-50106872D01*
X70592368Y-49989032D01*
X70759029Y-49901904D01*
X70939439Y-49848806D01*
X70939478Y-49848802D01*
X70939486Y-49848800D01*
X71126725Y-49831759D01*
X71313710Y-49851412D01*
X71313710Y-49851412D01*
G37*
G36*
X76393710Y-49851412D02*
X76393719Y-49851415D01*
X76393759Y-49851419D01*
X76573410Y-49907031D01*
X76738838Y-49996477D01*
X76883742Y-50116352D01*
X77002603Y-50262090D01*
X77090893Y-50428139D01*
X77145248Y-50608174D01*
X77163600Y-50795338D01*
X77163600Y-50804662D01*
X77163506Y-50818116D01*
X77142543Y-51005006D01*
X77085679Y-51184264D01*
X76995079Y-51349064D01*
X76874196Y-51493128D01*
X76727632Y-51610968D01*
X76560971Y-51698096D01*
X76380561Y-51751194D01*
X76380522Y-51751198D01*
X76380514Y-51751200D01*
X76193275Y-51768241D01*
X76006290Y-51748588D01*
X76006281Y-51748585D01*
X76006241Y-51748581D01*
X75826590Y-51692969D01*
X75661162Y-51603523D01*
X75516258Y-51483648D01*
X75397397Y-51337910D01*
X75309107Y-51171861D01*
X75254752Y-50991826D01*
X75236400Y-50804662D01*
X75236400Y-50795338D01*
X75236494Y-50781884D01*
X75257457Y-50594994D01*
X75314321Y-50415736D01*
X75404921Y-50250936D01*
X75525804Y-50106872D01*
X75672368Y-49989032D01*
X75839029Y-49901904D01*
X76019439Y-49848806D01*
X76019478Y-49848802D01*
X76019486Y-49848800D01*
X76206725Y-49831759D01*
X76393710Y-49851412D01*
X76393710Y-49851412D01*
G37*
G36*
X86553710Y-49851412D02*
X86553719Y-49851415D01*
X86553759Y-49851419D01*
X86733410Y-49907031D01*
X86898838Y-49996477D01*
X87043742Y-50116352D01*
X87162603Y-50262090D01*
X87250893Y-50428139D01*
X87305248Y-50608174D01*
X87323600Y-50795338D01*
X87323600Y-50804662D01*
X87323506Y-50818116D01*
X87302543Y-51005006D01*
X87245679Y-51184264D01*
X87155079Y-51349064D01*
X87034196Y-51493128D01*
X86887632Y-51610968D01*
X86720971Y-51698096D01*
X86540561Y-51751194D01*
X86540522Y-51751198D01*
X86540514Y-51751200D01*
X86353275Y-51768241D01*
X86166290Y-51748588D01*
X86166281Y-51748585D01*
X86166241Y-51748581D01*
X85986590Y-51692969D01*
X85821162Y-51603523D01*
X85676258Y-51483648D01*
X85557397Y-51337910D01*
X85469107Y-51171861D01*
X85414752Y-50991826D01*
X85396400Y-50804662D01*
X85396400Y-50795338D01*
X85396494Y-50781884D01*
X85417457Y-50594994D01*
X85474321Y-50415736D01*
X85564921Y-50250936D01*
X85685804Y-50106872D01*
X85832368Y-49989032D01*
X85999029Y-49901904D01*
X86179439Y-49848806D01*
X86179478Y-49848802D01*
X86179486Y-49848800D01*
X86366725Y-49831759D01*
X86553710Y-49851412D01*
X86553710Y-49851412D01*
G37*
G36*
X84013710Y-49851412D02*
X84013719Y-49851415D01*
X84013759Y-49851419D01*
X84193410Y-49907031D01*
X84358838Y-49996477D01*
X84503742Y-50116352D01*
X84622603Y-50262090D01*
X84710893Y-50428139D01*
X84765248Y-50608174D01*
X84783600Y-50795338D01*
X84783600Y-50804662D01*
X84783506Y-50818116D01*
X84762543Y-51005006D01*
X84705679Y-51184264D01*
X84615079Y-51349064D01*
X84494196Y-51493128D01*
X84347632Y-51610968D01*
X84180971Y-51698096D01*
X84000561Y-51751194D01*
X84000522Y-51751198D01*
X84000514Y-51751200D01*
X83813275Y-51768241D01*
X83626290Y-51748588D01*
X83626281Y-51748585D01*
X83626241Y-51748581D01*
X83446590Y-51692969D01*
X83281162Y-51603523D01*
X83136258Y-51483648D01*
X83017397Y-51337910D01*
X82929107Y-51171861D01*
X82874752Y-50991826D01*
X82856400Y-50804662D01*
X82856400Y-50795338D01*
X82856494Y-50781884D01*
X82877457Y-50594994D01*
X82934321Y-50415736D01*
X83024921Y-50250936D01*
X83145804Y-50106872D01*
X83292368Y-49989032D01*
X83459029Y-49901904D01*
X83639439Y-49848806D01*
X83639478Y-49848802D01*
X83639486Y-49848800D01*
X83826725Y-49831759D01*
X84013710Y-49851412D01*
X84013710Y-49851412D01*
G37*
M02*
