G04 #@! TF.FileFunction,Legend,Bot*
%FSLAX46Y46*%
G04 Gerber Fmt 4.6, Leading zero omitted, Abs format (unit mm)*
G04 Created by KiCad (PCBNEW 4.0.2-4+6225~38~ubuntu14.04.1-stable) date 2016年05月02日 21時32分02秒*
%MOMM*%
G01*
G04 APERTURE LIST*
%ADD10C,0.101600*%
%ADD11C,0.304800*%
%ADD12C,0.152400*%
%ADD13C,0.010000*%
%ADD14C,1.701140*%
%ADD15R,1.000000X1.000000*%
%ADD16O,1.000000X1.000000*%
%ADD17C,1.724000*%
%ADD18C,2.000000*%
%ADD19C,2.198980*%
%ADD20R,1.927200X1.927200*%
%ADD21O,1.927200X1.927200*%
%ADD22C,5.900000*%
%ADD23C,1.400000*%
G04 APERTURE END LIST*
D10*
D11*
X112376858Y-94342857D02*
X112231715Y-94415429D01*
X111941430Y-94415429D01*
X111796287Y-94342857D01*
X111723715Y-94197714D01*
X111723715Y-94125143D01*
X111796287Y-93980000D01*
X111941430Y-93907429D01*
X112159144Y-93907429D01*
X112304287Y-93834857D01*
X112376858Y-93689714D01*
X112376858Y-93617143D01*
X112304287Y-93472000D01*
X112159144Y-93399429D01*
X111941430Y-93399429D01*
X111796287Y-93472000D01*
X111288287Y-93399429D02*
X110707716Y-93399429D01*
X111070573Y-92891429D02*
X111070573Y-94197714D01*
X110998001Y-94342857D01*
X110852859Y-94415429D01*
X110707716Y-94415429D01*
X110199716Y-94415429D02*
X110199716Y-93399429D01*
X110199716Y-93544571D02*
X110127144Y-93472000D01*
X109982002Y-93399429D01*
X109764287Y-93399429D01*
X109619144Y-93472000D01*
X109546573Y-93617143D01*
X109546573Y-94415429D01*
X109546573Y-93617143D02*
X109474002Y-93472000D01*
X109328859Y-93399429D01*
X109111144Y-93399429D01*
X108966002Y-93472000D01*
X108893430Y-93617143D01*
X108893430Y-94415429D01*
X108312859Y-92891429D02*
X107369430Y-92891429D01*
X107877430Y-93472000D01*
X107659716Y-93472000D01*
X107514573Y-93544571D01*
X107442002Y-93617143D01*
X107369430Y-93762286D01*
X107369430Y-94125143D01*
X107442002Y-94270286D01*
X107514573Y-94342857D01*
X107659716Y-94415429D01*
X108095144Y-94415429D01*
X108240287Y-94342857D01*
X108312859Y-94270286D01*
X106788858Y-93036571D02*
X106716287Y-92964000D01*
X106571144Y-92891429D01*
X106208287Y-92891429D01*
X106063144Y-92964000D01*
X105990573Y-93036571D01*
X105918001Y-93181714D01*
X105918001Y-93326857D01*
X105990573Y-93544571D01*
X106861430Y-94415429D01*
X105918001Y-94415429D01*
X104103715Y-94415429D02*
X104103715Y-93399429D01*
X104103715Y-93544571D02*
X104031143Y-93472000D01*
X103886001Y-93399429D01*
X103668286Y-93399429D01*
X103523143Y-93472000D01*
X103450572Y-93617143D01*
X103450572Y-94415429D01*
X103450572Y-93617143D02*
X103378001Y-93472000D01*
X103232858Y-93399429D01*
X103015143Y-93399429D01*
X102870001Y-93472000D01*
X102797429Y-93617143D01*
X102797429Y-94415429D01*
X102071715Y-94415429D02*
X102071715Y-93399429D01*
X102071715Y-92891429D02*
X102144286Y-92964000D01*
X102071715Y-93036571D01*
X101999143Y-92964000D01*
X102071715Y-92891429D01*
X102071715Y-93036571D01*
X100692858Y-94342857D02*
X100838001Y-94415429D01*
X101128287Y-94415429D01*
X101273429Y-94342857D01*
X101346001Y-94270286D01*
X101418572Y-94125143D01*
X101418572Y-93689714D01*
X101346001Y-93544571D01*
X101273429Y-93472000D01*
X101128287Y-93399429D01*
X100838001Y-93399429D01*
X100692858Y-93472000D01*
X100039715Y-94415429D02*
X100039715Y-93399429D01*
X100039715Y-93689714D02*
X99967143Y-93544571D01*
X99894572Y-93472000D01*
X99749429Y-93399429D01*
X99604286Y-93399429D01*
X98878572Y-94415429D02*
X99023714Y-94342857D01*
X99096286Y-94270286D01*
X99168857Y-94125143D01*
X99168857Y-93689714D01*
X99096286Y-93544571D01*
X99023714Y-93472000D01*
X98878572Y-93399429D01*
X98660857Y-93399429D01*
X98515714Y-93472000D01*
X98443143Y-93544571D01*
X98370572Y-93689714D01*
X98370572Y-94125143D01*
X98443143Y-94270286D01*
X98515714Y-94342857D01*
X98660857Y-94415429D01*
X98878572Y-94415429D01*
X97064286Y-94342857D02*
X97209429Y-94415429D01*
X97499715Y-94415429D01*
X97644857Y-94342857D01*
X97717429Y-94270286D01*
X97790000Y-94125143D01*
X97790000Y-93689714D01*
X97717429Y-93544571D01*
X97644857Y-93472000D01*
X97499715Y-93399429D01*
X97209429Y-93399429D01*
X97064286Y-93472000D01*
X96193429Y-94415429D02*
X96338571Y-94342857D01*
X96411143Y-94270286D01*
X96483714Y-94125143D01*
X96483714Y-93689714D01*
X96411143Y-93544571D01*
X96338571Y-93472000D01*
X96193429Y-93399429D01*
X95975714Y-93399429D01*
X95830571Y-93472000D01*
X95758000Y-93544571D01*
X95685429Y-93689714D01*
X95685429Y-94125143D01*
X95758000Y-94270286D01*
X95830571Y-94342857D01*
X95975714Y-94415429D01*
X96193429Y-94415429D01*
X95032286Y-93399429D02*
X95032286Y-94415429D01*
X95032286Y-93544571D02*
X94959714Y-93472000D01*
X94814572Y-93399429D01*
X94596857Y-93399429D01*
X94451714Y-93472000D01*
X94379143Y-93617143D01*
X94379143Y-94415429D01*
X93871143Y-93399429D02*
X93290572Y-93399429D01*
X93653429Y-92891429D02*
X93653429Y-94197714D01*
X93580857Y-94342857D01*
X93435715Y-94415429D01*
X93290572Y-94415429D01*
X92782572Y-94415429D02*
X92782572Y-93399429D01*
X92782572Y-93689714D02*
X92710000Y-93544571D01*
X92637429Y-93472000D01*
X92492286Y-93399429D01*
X92347143Y-93399429D01*
X91621429Y-94415429D02*
X91766571Y-94342857D01*
X91839143Y-94270286D01*
X91911714Y-94125143D01*
X91911714Y-93689714D01*
X91839143Y-93544571D01*
X91766571Y-93472000D01*
X91621429Y-93399429D01*
X91403714Y-93399429D01*
X91258571Y-93472000D01*
X91186000Y-93544571D01*
X91113429Y-93689714D01*
X91113429Y-94125143D01*
X91186000Y-94270286D01*
X91258571Y-94342857D01*
X91403714Y-94415429D01*
X91621429Y-94415429D01*
X90242572Y-94415429D02*
X90387714Y-94342857D01*
X90460286Y-94197714D01*
X90460286Y-92891429D01*
X89444286Y-94415429D02*
X89589428Y-94342857D01*
X89662000Y-94197714D01*
X89662000Y-92891429D01*
X88283142Y-94342857D02*
X88428285Y-94415429D01*
X88718571Y-94415429D01*
X88863714Y-94342857D01*
X88936285Y-94197714D01*
X88936285Y-93617143D01*
X88863714Y-93472000D01*
X88718571Y-93399429D01*
X88428285Y-93399429D01*
X88283142Y-93472000D01*
X88210571Y-93617143D01*
X88210571Y-93762286D01*
X88936285Y-93907429D01*
X87557428Y-94415429D02*
X87557428Y-93399429D01*
X87557428Y-93689714D02*
X87484856Y-93544571D01*
X87412285Y-93472000D01*
X87267142Y-93399429D01*
X87121999Y-93399429D01*
X85452856Y-94415429D02*
X85452856Y-92891429D01*
X85452856Y-93472000D02*
X85307713Y-93399429D01*
X85017427Y-93399429D01*
X84872284Y-93472000D01*
X84799713Y-93544571D01*
X84727142Y-93689714D01*
X84727142Y-94125143D01*
X84799713Y-94270286D01*
X84872284Y-94342857D01*
X85017427Y-94415429D01*
X85307713Y-94415429D01*
X85452856Y-94342857D01*
X83856285Y-94415429D02*
X84001427Y-94342857D01*
X84073999Y-94270286D01*
X84146570Y-94125143D01*
X84146570Y-93689714D01*
X84073999Y-93544571D01*
X84001427Y-93472000D01*
X83856285Y-93399429D01*
X83638570Y-93399429D01*
X83493427Y-93472000D01*
X83420856Y-93544571D01*
X83348285Y-93689714D01*
X83348285Y-94125143D01*
X83420856Y-94270286D01*
X83493427Y-94342857D01*
X83638570Y-94415429D01*
X83856285Y-94415429D01*
X82041999Y-94415429D02*
X82041999Y-93617143D01*
X82114570Y-93472000D01*
X82259713Y-93399429D01*
X82549999Y-93399429D01*
X82695142Y-93472000D01*
X82041999Y-94342857D02*
X82187142Y-94415429D01*
X82549999Y-94415429D01*
X82695142Y-94342857D01*
X82767713Y-94197714D01*
X82767713Y-94052571D01*
X82695142Y-93907429D01*
X82549999Y-93834857D01*
X82187142Y-93834857D01*
X82041999Y-93762286D01*
X81316285Y-94415429D02*
X81316285Y-93399429D01*
X81316285Y-93689714D02*
X81243713Y-93544571D01*
X81171142Y-93472000D01*
X81025999Y-93399429D01*
X80880856Y-93399429D01*
X79719713Y-94415429D02*
X79719713Y-92891429D01*
X79719713Y-94342857D02*
X79864856Y-94415429D01*
X80155142Y-94415429D01*
X80300284Y-94342857D01*
X80372856Y-94270286D01*
X80445427Y-94125143D01*
X80445427Y-93689714D01*
X80372856Y-93544571D01*
X80300284Y-93472000D01*
X80155142Y-93399429D01*
X79864856Y-93399429D01*
X79719713Y-93472000D01*
D12*
X118802095Y-66401905D02*
X119068762Y-66020952D01*
X119259238Y-66401905D02*
X119259238Y-65601905D01*
X118954476Y-65601905D01*
X118878285Y-65640000D01*
X118840190Y-65678095D01*
X118802095Y-65754286D01*
X118802095Y-65868571D01*
X118840190Y-65944762D01*
X118878285Y-65982857D01*
X118954476Y-66020952D01*
X119259238Y-66020952D01*
X118497333Y-66363810D02*
X118383047Y-66401905D01*
X118192571Y-66401905D01*
X118116381Y-66363810D01*
X118078285Y-66325714D01*
X118040190Y-66249524D01*
X118040190Y-66173333D01*
X118078285Y-66097143D01*
X118116381Y-66059048D01*
X118192571Y-66020952D01*
X118344952Y-65982857D01*
X118421143Y-65944762D01*
X118459238Y-65906667D01*
X118497333Y-65830476D01*
X118497333Y-65754286D01*
X118459238Y-65678095D01*
X118421143Y-65640000D01*
X118344952Y-65601905D01*
X118154476Y-65601905D01*
X118040190Y-65640000D01*
X117811619Y-65601905D02*
X117354476Y-65601905D01*
X117583047Y-66401905D02*
X117583047Y-65601905D01*
X118973523Y-62592000D02*
X119049714Y-62553905D01*
X119163999Y-62553905D01*
X119278285Y-62592000D01*
X119354476Y-62668190D01*
X119392571Y-62744381D01*
X119430666Y-62896762D01*
X119430666Y-63011048D01*
X119392571Y-63163429D01*
X119354476Y-63239619D01*
X119278285Y-63315810D01*
X119163999Y-63353905D01*
X119087809Y-63353905D01*
X118973523Y-63315810D01*
X118935428Y-63277714D01*
X118935428Y-63011048D01*
X119087809Y-63011048D01*
X118592571Y-63353905D02*
X118592571Y-62553905D01*
X118135428Y-63353905D01*
X118135428Y-62553905D01*
X117754476Y-63353905D02*
X117754476Y-62553905D01*
X117564000Y-62553905D01*
X117449714Y-62592000D01*
X117373523Y-62668190D01*
X117335428Y-62744381D01*
X117297333Y-62896762D01*
X117297333Y-63011048D01*
X117335428Y-63163429D01*
X117373523Y-63239619D01*
X117449714Y-63315810D01*
X117564000Y-63353905D01*
X117754476Y-63353905D01*
X119449715Y-59505905D02*
X119183048Y-60305905D01*
X118916381Y-59505905D01*
X118764001Y-59772571D02*
X118459239Y-59772571D01*
X118649715Y-59505905D02*
X118649715Y-60191619D01*
X118611620Y-60267810D01*
X118535429Y-60305905D01*
X118459239Y-60305905D01*
X117849715Y-59772571D02*
X117849715Y-60420190D01*
X117887810Y-60496381D01*
X117925905Y-60534476D01*
X118002096Y-60572571D01*
X118116381Y-60572571D01*
X118192572Y-60534476D01*
X117849715Y-60267810D02*
X117925905Y-60305905D01*
X118078286Y-60305905D01*
X118154477Y-60267810D01*
X118192572Y-60229714D01*
X118230667Y-60153524D01*
X118230667Y-59924952D01*
X118192572Y-59848762D01*
X118154477Y-59810667D01*
X118078286Y-59772571D01*
X117925905Y-59772571D01*
X117849715Y-59810667D01*
X117583048Y-59772571D02*
X117278286Y-59772571D01*
X117468762Y-59505905D02*
X117468762Y-60191619D01*
X117430667Y-60267810D01*
X117354476Y-60305905D01*
X117278286Y-60305905D01*
X118783047Y-64877905D02*
X118783047Y-64077905D01*
X118249714Y-64077905D02*
X118097333Y-64077905D01*
X118021142Y-64116000D01*
X117944952Y-64192190D01*
X117906857Y-64344571D01*
X117906857Y-64611238D01*
X117944952Y-64763619D01*
X118021142Y-64839810D01*
X118097333Y-64877905D01*
X118249714Y-64877905D01*
X118325904Y-64839810D01*
X118402095Y-64763619D01*
X118440190Y-64611238D01*
X118440190Y-64344571D01*
X118402095Y-64192190D01*
X118325904Y-64116000D01*
X118249714Y-64077905D01*
X118840190Y-61753714D02*
X118878285Y-61791810D01*
X118992571Y-61829905D01*
X119068761Y-61829905D01*
X119183047Y-61791810D01*
X119259238Y-61715619D01*
X119297333Y-61639429D01*
X119335428Y-61487048D01*
X119335428Y-61372762D01*
X119297333Y-61220381D01*
X119259238Y-61144190D01*
X119183047Y-61068000D01*
X119068761Y-61029905D01*
X118992571Y-61029905D01*
X118878285Y-61068000D01*
X118840190Y-61106095D01*
X118116380Y-61829905D02*
X118497333Y-61829905D01*
X118497333Y-61029905D01*
X117849714Y-61829905D02*
X117849714Y-61029905D01*
X117392571Y-61829905D02*
X117735428Y-61372762D01*
X117392571Y-61029905D02*
X117849714Y-61487048D01*
D13*
G36*
X106252210Y-77995825D02*
X107366245Y-77995825D01*
X107366245Y-85348456D01*
X108480281Y-85348456D01*
X108480281Y-77995825D01*
X109638877Y-77995825D01*
X109638877Y-76926351D01*
X106252210Y-76926351D01*
X106252210Y-77995825D01*
X106252210Y-77995825D01*
G37*
X106252210Y-77995825D02*
X107366245Y-77995825D01*
X107366245Y-85348456D01*
X108480281Y-85348456D01*
X108480281Y-77995825D01*
X109638877Y-77995825D01*
X109638877Y-76926351D01*
X106252210Y-76926351D01*
X106252210Y-77995825D01*
G36*
X104826245Y-78964449D02*
X104636094Y-78774297D01*
X104414141Y-78603344D01*
X104165025Y-78512465D01*
X103877081Y-78497855D01*
X103808636Y-78504348D01*
X103565501Y-78552200D01*
X103391115Y-78635930D01*
X103268988Y-78765398D01*
X103219512Y-78856587D01*
X103203204Y-78895908D01*
X103189129Y-78941193D01*
X103177120Y-78998926D01*
X103167011Y-79075589D01*
X103158636Y-79177666D01*
X103151829Y-79311639D01*
X103146423Y-79483992D01*
X103142252Y-79701207D01*
X103139151Y-79969768D01*
X103136951Y-80296158D01*
X103135489Y-80686859D01*
X103134596Y-81148355D01*
X103134108Y-81687129D01*
X103133891Y-82195737D01*
X103132912Y-85348456D01*
X104155917Y-85348456D01*
X104168011Y-82475819D01*
X104170361Y-81887377D01*
X104172497Y-81381684D01*
X104175024Y-80952373D01*
X104178551Y-80593073D01*
X104183684Y-80297415D01*
X104191030Y-80059031D01*
X104201197Y-79871550D01*
X104214792Y-79728604D01*
X104232421Y-79623824D01*
X104254693Y-79550841D01*
X104282215Y-79503285D01*
X104315592Y-79474787D01*
X104355433Y-79458978D01*
X104402345Y-79449488D01*
X104456935Y-79439950D01*
X104457425Y-79439852D01*
X104562538Y-79432346D01*
X104649625Y-79470393D01*
X104735337Y-79546833D01*
X104870807Y-79682303D01*
X104870807Y-85348456D01*
X105940281Y-85348456D01*
X105940281Y-76881790D01*
X104826245Y-76881790D01*
X104826245Y-78964449D01*
X104826245Y-78964449D01*
G37*
X104826245Y-78964449D02*
X104636094Y-78774297D01*
X104414141Y-78603344D01*
X104165025Y-78512465D01*
X103877081Y-78497855D01*
X103808636Y-78504348D01*
X103565501Y-78552200D01*
X103391115Y-78635930D01*
X103268988Y-78765398D01*
X103219512Y-78856587D01*
X103203204Y-78895908D01*
X103189129Y-78941193D01*
X103177120Y-78998926D01*
X103167011Y-79075589D01*
X103158636Y-79177666D01*
X103151829Y-79311639D01*
X103146423Y-79483992D01*
X103142252Y-79701207D01*
X103139151Y-79969768D01*
X103136951Y-80296158D01*
X103135489Y-80686859D01*
X103134596Y-81148355D01*
X103134108Y-81687129D01*
X103133891Y-82195737D01*
X103132912Y-85348456D01*
X104155917Y-85348456D01*
X104168011Y-82475819D01*
X104170361Y-81887377D01*
X104172497Y-81381684D01*
X104175024Y-80952373D01*
X104178551Y-80593073D01*
X104183684Y-80297415D01*
X104191030Y-80059031D01*
X104201197Y-79871550D01*
X104214792Y-79728604D01*
X104232421Y-79623824D01*
X104254693Y-79550841D01*
X104282215Y-79503285D01*
X104315592Y-79474787D01*
X104355433Y-79458978D01*
X104402345Y-79449488D01*
X104456935Y-79439950D01*
X104457425Y-79439852D01*
X104562538Y-79432346D01*
X104649625Y-79470393D01*
X104735337Y-79546833D01*
X104870807Y-79682303D01*
X104870807Y-85348456D01*
X105940281Y-85348456D01*
X105940281Y-76881790D01*
X104826245Y-76881790D01*
X104826245Y-78964449D01*
G36*
X101350456Y-85348456D02*
X102419930Y-85348456D01*
X102419930Y-78575123D01*
X101350456Y-78575123D01*
X101350456Y-85348456D01*
X101350456Y-85348456D01*
G37*
X101350456Y-85348456D02*
X102419930Y-85348456D01*
X102419930Y-78575123D01*
X101350456Y-78575123D01*
X101350456Y-85348456D01*
G36*
X98626866Y-78500607D02*
X98366551Y-78561882D01*
X98172052Y-78678638D01*
X98036127Y-78855313D01*
X98030631Y-78866013D01*
X98013474Y-78902638D01*
X97998630Y-78943818D01*
X97985902Y-78996019D01*
X97975091Y-79065711D01*
X97965999Y-79159361D01*
X97958429Y-79283438D01*
X97952183Y-79444410D01*
X97947061Y-79648745D01*
X97942867Y-79902912D01*
X97939402Y-80213379D01*
X97936468Y-80586614D01*
X97933867Y-81029085D01*
X97931401Y-81547261D01*
X97928872Y-82147610D01*
X97928676Y-82195737D01*
X97915843Y-85348456D01*
X98988702Y-85348456D01*
X98988702Y-79640546D01*
X99103059Y-79526188D01*
X99202428Y-79448124D01*
X99302943Y-79431801D01*
X99359132Y-79440174D01*
X99490397Y-79488961D01*
X99590126Y-79557776D01*
X99608118Y-79577912D01*
X99623555Y-79604061D01*
X99636666Y-79642858D01*
X99647679Y-79700941D01*
X99656823Y-79784946D01*
X99664328Y-79901508D01*
X99670422Y-80057266D01*
X99675333Y-80258854D01*
X99679292Y-80512910D01*
X99682526Y-80826069D01*
X99685264Y-81204969D01*
X99687736Y-81656245D01*
X99690169Y-82186535D01*
X99691505Y-82497746D01*
X99703606Y-85348456D01*
X100726596Y-85348456D01*
X100726596Y-78575123D01*
X99657123Y-78575123D01*
X99657123Y-78973830D01*
X99466268Y-78782976D01*
X99230976Y-78604601D01*
X98964232Y-78509372D01*
X98664309Y-78496708D01*
X98626866Y-78500607D01*
X98626866Y-78500607D01*
G37*
X98626866Y-78500607D02*
X98366551Y-78561882D01*
X98172052Y-78678638D01*
X98036127Y-78855313D01*
X98030631Y-78866013D01*
X98013474Y-78902638D01*
X97998630Y-78943818D01*
X97985902Y-78996019D01*
X97975091Y-79065711D01*
X97965999Y-79159361D01*
X97958429Y-79283438D01*
X97952183Y-79444410D01*
X97947061Y-79648745D01*
X97942867Y-79902912D01*
X97939402Y-80213379D01*
X97936468Y-80586614D01*
X97933867Y-81029085D01*
X97931401Y-81547261D01*
X97928872Y-82147610D01*
X97928676Y-82195737D01*
X97915843Y-85348456D01*
X98988702Y-85348456D01*
X98988702Y-79640546D01*
X99103059Y-79526188D01*
X99202428Y-79448124D01*
X99302943Y-79431801D01*
X99359132Y-79440174D01*
X99490397Y-79488961D01*
X99590126Y-79557776D01*
X99608118Y-79577912D01*
X99623555Y-79604061D01*
X99636666Y-79642858D01*
X99647679Y-79700941D01*
X99656823Y-79784946D01*
X99664328Y-79901508D01*
X99670422Y-80057266D01*
X99675333Y-80258854D01*
X99679292Y-80512910D01*
X99682526Y-80826069D01*
X99685264Y-81204969D01*
X99687736Y-81656245D01*
X99690169Y-82186535D01*
X99691505Y-82497746D01*
X99703606Y-85348456D01*
X100726596Y-85348456D01*
X100726596Y-78575123D01*
X99657123Y-78575123D01*
X99657123Y-78973830D01*
X99466268Y-78782976D01*
X99230976Y-78604601D01*
X98964232Y-78509372D01*
X98664309Y-78496708D01*
X98626866Y-78500607D01*
G36*
X96315017Y-79291373D02*
X96314875Y-79816761D01*
X96314302Y-80259921D01*
X96313077Y-80627748D01*
X96310980Y-80927135D01*
X96307792Y-81164978D01*
X96303291Y-81348171D01*
X96297257Y-81483609D01*
X96289471Y-81578185D01*
X96279711Y-81638795D01*
X96267758Y-81672333D01*
X96253392Y-81685694D01*
X96238506Y-81686221D01*
X96214000Y-81668605D01*
X96187517Y-81619571D01*
X96156983Y-81530850D01*
X96120325Y-81394176D01*
X96075468Y-81201283D01*
X96020339Y-80943903D01*
X95952863Y-80613769D01*
X95888339Y-80290410D01*
X95819637Y-79943291D01*
X95755287Y-79617421D01*
X95697679Y-79324958D01*
X95649202Y-79078058D01*
X95612246Y-78888878D01*
X95589200Y-78769574D01*
X95584060Y-78742228D01*
X95553435Y-78575123D01*
X95020717Y-78575123D01*
X94814622Y-78577739D01*
X94645501Y-78584864D01*
X94530635Y-78595416D01*
X94487308Y-78608312D01*
X94487290Y-78608544D01*
X94496008Y-78658533D01*
X94521103Y-78785472D01*
X94560468Y-78979126D01*
X94611997Y-79229261D01*
X94673583Y-79525641D01*
X94743120Y-79858031D01*
X94803545Y-80145290D01*
X95120509Y-81648616D01*
X94781974Y-83468127D01*
X94709343Y-83859201D01*
X94642050Y-84222901D01*
X94581799Y-84549924D01*
X94530290Y-84830965D01*
X94489228Y-85056721D01*
X94460313Y-85217890D01*
X94445250Y-85305167D01*
X94443438Y-85318047D01*
X94485165Y-85329642D01*
X94599015Y-85339200D01*
X94767999Y-85345780D01*
X94975125Y-85348441D01*
X94992668Y-85348456D01*
X95541898Y-85348456D01*
X95852370Y-83577386D01*
X95931820Y-83126966D01*
X95998354Y-82756997D01*
X96053589Y-82460004D01*
X96099145Y-82228507D01*
X96136640Y-82055031D01*
X96167692Y-81932097D01*
X96193922Y-81852227D01*
X96216946Y-81807946D01*
X96238384Y-81791774D01*
X96238930Y-81791662D01*
X96257961Y-81792995D01*
X96273540Y-81810348D01*
X96286009Y-81851698D01*
X96295712Y-81925021D01*
X96302991Y-82038294D01*
X96308187Y-82199491D01*
X96311645Y-82416589D01*
X96313707Y-82697564D01*
X96314716Y-83050392D01*
X96315013Y-83483050D01*
X96315017Y-83562733D01*
X96315017Y-85348456D01*
X97339930Y-85348456D01*
X97339930Y-76881790D01*
X96315017Y-76881790D01*
X96315017Y-79291373D01*
X96315017Y-79291373D01*
G37*
X96315017Y-79291373D02*
X96314875Y-79816761D01*
X96314302Y-80259921D01*
X96313077Y-80627748D01*
X96310980Y-80927135D01*
X96307792Y-81164978D01*
X96303291Y-81348171D01*
X96297257Y-81483609D01*
X96289471Y-81578185D01*
X96279711Y-81638795D01*
X96267758Y-81672333D01*
X96253392Y-81685694D01*
X96238506Y-81686221D01*
X96214000Y-81668605D01*
X96187517Y-81619571D01*
X96156983Y-81530850D01*
X96120325Y-81394176D01*
X96075468Y-81201283D01*
X96020339Y-80943903D01*
X95952863Y-80613769D01*
X95888339Y-80290410D01*
X95819637Y-79943291D01*
X95755287Y-79617421D01*
X95697679Y-79324958D01*
X95649202Y-79078058D01*
X95612246Y-78888878D01*
X95589200Y-78769574D01*
X95584060Y-78742228D01*
X95553435Y-78575123D01*
X95020717Y-78575123D01*
X94814622Y-78577739D01*
X94645501Y-78584864D01*
X94530635Y-78595416D01*
X94487308Y-78608312D01*
X94487290Y-78608544D01*
X94496008Y-78658533D01*
X94521103Y-78785472D01*
X94560468Y-78979126D01*
X94611997Y-79229261D01*
X94673583Y-79525641D01*
X94743120Y-79858031D01*
X94803545Y-80145290D01*
X95120509Y-81648616D01*
X94781974Y-83468127D01*
X94709343Y-83859201D01*
X94642050Y-84222901D01*
X94581799Y-84549924D01*
X94530290Y-84830965D01*
X94489228Y-85056721D01*
X94460313Y-85217890D01*
X94445250Y-85305167D01*
X94443438Y-85318047D01*
X94485165Y-85329642D01*
X94599015Y-85339200D01*
X94767999Y-85345780D01*
X94975125Y-85348441D01*
X94992668Y-85348456D01*
X95541898Y-85348456D01*
X95852370Y-83577386D01*
X95931820Y-83126966D01*
X95998354Y-82756997D01*
X96053589Y-82460004D01*
X96099145Y-82228507D01*
X96136640Y-82055031D01*
X96167692Y-81932097D01*
X96193922Y-81852227D01*
X96216946Y-81807946D01*
X96238384Y-81791774D01*
X96238930Y-81791662D01*
X96257961Y-81792995D01*
X96273540Y-81810348D01*
X96286009Y-81851698D01*
X96295712Y-81925021D01*
X96302991Y-82038294D01*
X96308187Y-82199491D01*
X96311645Y-82416589D01*
X96313707Y-82697564D01*
X96314716Y-83050392D01*
X96315013Y-83483050D01*
X96315017Y-83562733D01*
X96315017Y-85348456D01*
X97339930Y-85348456D01*
X97339930Y-76881790D01*
X96315017Y-76881790D01*
X96315017Y-79291373D01*
G36*
X101785578Y-76680744D02*
X101570737Y-76764603D01*
X101394939Y-76910544D01*
X101275663Y-77105963D01*
X101239451Y-77235923D01*
X101229976Y-77378595D01*
X101261858Y-77513655D01*
X101312908Y-77627123D01*
X101439473Y-77824905D01*
X101592037Y-77948768D01*
X101790690Y-78013717D01*
X101840631Y-78021340D01*
X101999396Y-78026961D01*
X102141241Y-77988965D01*
X102236990Y-77942503D01*
X102422182Y-77800730D01*
X102540568Y-77621375D01*
X102594905Y-77420744D01*
X102587952Y-77215145D01*
X102522468Y-77020885D01*
X102401211Y-76854270D01*
X102226941Y-76731608D01*
X102021986Y-76671573D01*
X101785578Y-76680744D01*
X101785578Y-76680744D01*
G37*
X101785578Y-76680744D02*
X101570737Y-76764603D01*
X101394939Y-76910544D01*
X101275663Y-77105963D01*
X101239451Y-77235923D01*
X101229976Y-77378595D01*
X101261858Y-77513655D01*
X101312908Y-77627123D01*
X101439473Y-77824905D01*
X101592037Y-77948768D01*
X101790690Y-78013717D01*
X101840631Y-78021340D01*
X101999396Y-78026961D01*
X102141241Y-77988965D01*
X102236990Y-77942503D01*
X102422182Y-77800730D01*
X102540568Y-77621375D01*
X102594905Y-77420744D01*
X102587952Y-77215145D01*
X102522468Y-77020885D01*
X102401211Y-76854270D01*
X102226941Y-76731608D01*
X102021986Y-76671573D01*
X101785578Y-76680744D01*
%LPC*%
D14*
X87856060Y-78232000D03*
X92737940Y-78232000D03*
D15*
X79502000Y-76454000D03*
D16*
X80752000Y-76454000D03*
D17*
X80010000Y-90160000D03*
X80010000Y-82560000D03*
D18*
X52578000Y-79502000D03*
X55118000Y-79502000D03*
X94286000Y-91912000D03*
X100786000Y-91912000D03*
X94286000Y-87412000D03*
X100786000Y-87412000D03*
X103430000Y-91912000D03*
X109930000Y-91912000D03*
X103430000Y-87412000D03*
X109930000Y-87412000D03*
X111050000Y-84800000D03*
X117550000Y-84800000D03*
X111050000Y-80300000D03*
X117550000Y-80300000D03*
D19*
X72898000Y-92202000D03*
D20*
X109220000Y-60960000D03*
D21*
X111760000Y-60960000D03*
X109220000Y-63500000D03*
X111760000Y-63500000D03*
X109220000Y-66040000D03*
X111760000Y-66040000D03*
X109220000Y-68580000D03*
X111760000Y-68580000D03*
X109220000Y-71120000D03*
X111760000Y-71120000D03*
D20*
X57150000Y-84582000D03*
D21*
X59690000Y-84582000D03*
X57150000Y-87122000D03*
X59690000Y-87122000D03*
X57150000Y-89662000D03*
X59690000Y-89662000D03*
X57150000Y-92202000D03*
X59690000Y-92202000D03*
D20*
X62230000Y-84582000D03*
D21*
X64770000Y-84582000D03*
X62230000Y-87122000D03*
X64770000Y-87122000D03*
X62230000Y-89662000D03*
X64770000Y-89662000D03*
X62230000Y-92202000D03*
X64770000Y-92202000D03*
D20*
X67310000Y-84582000D03*
D21*
X69850000Y-84582000D03*
X67310000Y-87122000D03*
X69850000Y-87122000D03*
X67310000Y-89662000D03*
X69850000Y-89662000D03*
X67310000Y-92202000D03*
X69850000Y-92202000D03*
D20*
X71120000Y-53340000D03*
D21*
X71120000Y-50800000D03*
X73660000Y-53340000D03*
X73660000Y-50800000D03*
X76200000Y-53340000D03*
X76200000Y-50800000D03*
X78740000Y-53340000D03*
X78740000Y-50800000D03*
X81280000Y-53340000D03*
X81280000Y-50800000D03*
X83820000Y-53340000D03*
X83820000Y-50800000D03*
X86360000Y-53340000D03*
X86360000Y-50800000D03*
X88900000Y-53340000D03*
X88900000Y-50800000D03*
X91440000Y-53340000D03*
X91440000Y-50800000D03*
D20*
X95758000Y-53340000D03*
D21*
X95758000Y-50800000D03*
X98298000Y-53340000D03*
X98298000Y-50800000D03*
X100838000Y-53340000D03*
X100838000Y-50800000D03*
X103378000Y-53340000D03*
X103378000Y-50800000D03*
X105918000Y-53340000D03*
X105918000Y-50800000D03*
X108458000Y-53340000D03*
X108458000Y-50800000D03*
X110998000Y-53340000D03*
X110998000Y-50800000D03*
D20*
X50800000Y-85852000D03*
D21*
X53340000Y-85852000D03*
D22*
X50820000Y-91870000D03*
X116820000Y-91870000D03*
X116820000Y-50370000D03*
X50820000Y-50370000D03*
D23*
X116332000Y-59944000D03*
X116332000Y-61444000D03*
X116332000Y-62944000D03*
X116332000Y-64444000D03*
X116332000Y-65944000D03*
X74930000Y-60960000D03*
X76430000Y-60960000D03*
X77930000Y-60960000D03*
M02*
