G04 #@! TF.FileFunction,Copper,L2,Bot,Signal*
%FSLAX46Y46*%
G04 Gerber Fmt 4.6, Leading zero omitted, Abs format (unit mm)*
G04 Created by KiCad (PCBNEW 4.0.2-4+6225~38~ubuntu14.04.1-stable) date 2016年05月02日 21時32分02秒*
%MOMM*%
G01*
G04 APERTURE LIST*
%ADD10C,0.101600*%
%ADD11C,1.501140*%
%ADD12R,0.800000X0.800000*%
%ADD13O,0.800000X0.800000*%
%ADD14C,1.524000*%
%ADD15C,1.800000*%
%ADD16C,1.998980*%
%ADD17R,1.727200X1.727200*%
%ADD18O,1.727200X1.727200*%
%ADD19C,5.700000*%
%ADD20C,1.200000*%
%ADD21C,1.219200*%
%ADD22C,0.609600*%
%ADD23C,0.762000*%
%ADD24C,0.508000*%
%ADD25C,0.254000*%
G04 APERTURE END LIST*
D10*
D11*
X87856060Y-78232000D03*
X92737940Y-78232000D03*
D12*
X79502000Y-76454000D03*
D13*
X80752000Y-76454000D03*
D14*
X80010000Y-90160000D03*
X80010000Y-82560000D03*
D15*
X52578000Y-79502000D03*
X55118000Y-79502000D03*
X94286000Y-91912000D03*
X100786000Y-91912000D03*
X94286000Y-87412000D03*
X100786000Y-87412000D03*
X103430000Y-91912000D03*
X109930000Y-91912000D03*
X103430000Y-87412000D03*
X109930000Y-87412000D03*
X111050000Y-84800000D03*
X117550000Y-84800000D03*
X111050000Y-80300000D03*
X117550000Y-80300000D03*
D16*
X72898000Y-92202000D03*
D17*
X109220000Y-60960000D03*
D18*
X111760000Y-60960000D03*
X109220000Y-63500000D03*
X111760000Y-63500000D03*
X109220000Y-66040000D03*
X111760000Y-66040000D03*
X109220000Y-68580000D03*
X111760000Y-68580000D03*
X109220000Y-71120000D03*
X111760000Y-71120000D03*
D17*
X57150000Y-84582000D03*
D18*
X59690000Y-84582000D03*
X57150000Y-87122000D03*
X59690000Y-87122000D03*
X57150000Y-89662000D03*
X59690000Y-89662000D03*
X57150000Y-92202000D03*
X59690000Y-92202000D03*
D17*
X62230000Y-84582000D03*
D18*
X64770000Y-84582000D03*
X62230000Y-87122000D03*
X64770000Y-87122000D03*
X62230000Y-89662000D03*
X64770000Y-89662000D03*
X62230000Y-92202000D03*
X64770000Y-92202000D03*
D17*
X67310000Y-84582000D03*
D18*
X69850000Y-84582000D03*
X67310000Y-87122000D03*
X69850000Y-87122000D03*
X67310000Y-89662000D03*
X69850000Y-89662000D03*
X67310000Y-92202000D03*
X69850000Y-92202000D03*
D17*
X71120000Y-53340000D03*
D18*
X71120000Y-50800000D03*
X73660000Y-53340000D03*
X73660000Y-50800000D03*
X76200000Y-53340000D03*
X76200000Y-50800000D03*
X78740000Y-53340000D03*
X78740000Y-50800000D03*
X81280000Y-53340000D03*
X81280000Y-50800000D03*
X83820000Y-53340000D03*
X83820000Y-50800000D03*
X86360000Y-53340000D03*
X86360000Y-50800000D03*
X88900000Y-53340000D03*
X88900000Y-50800000D03*
X91440000Y-53340000D03*
X91440000Y-50800000D03*
D17*
X95758000Y-53340000D03*
D18*
X95758000Y-50800000D03*
X98298000Y-53340000D03*
X98298000Y-50800000D03*
X100838000Y-53340000D03*
X100838000Y-50800000D03*
X103378000Y-53340000D03*
X103378000Y-50800000D03*
X105918000Y-53340000D03*
X105918000Y-50800000D03*
X108458000Y-53340000D03*
X108458000Y-50800000D03*
X110998000Y-53340000D03*
X110998000Y-50800000D03*
D17*
X50800000Y-85852000D03*
D18*
X53340000Y-85852000D03*
D19*
X50820000Y-91870000D03*
X116820000Y-91870000D03*
X116820000Y-50370000D03*
X50820000Y-50370000D03*
D20*
X116332000Y-59944000D03*
X116332000Y-61444000D03*
X116332000Y-62944000D03*
X116332000Y-64444000D03*
X116332000Y-65944000D03*
X74930000Y-60960000D03*
X76430000Y-60960000D03*
X77930000Y-60960000D03*
D21*
X63754000Y-75692000D03*
X50292000Y-75184000D03*
D22*
X85598000Y-92202000D03*
X66802000Y-61468000D03*
X118618000Y-57658000D03*
X118618000Y-69342000D03*
X98298000Y-77470000D03*
X84328000Y-80010000D03*
X84328000Y-77216000D03*
X85090000Y-82550000D03*
X83820000Y-56642000D03*
X94742000Y-81788000D03*
X106680000Y-80518000D03*
X113792000Y-56896000D03*
X89916000Y-88138000D03*
X50800000Y-55880000D03*
X92710000Y-67564000D03*
X90678000Y-70358000D03*
X75946000Y-66294000D03*
X70358000Y-73660000D03*
X55372000Y-88392000D03*
X54356000Y-83820000D03*
X115316000Y-54356000D03*
X102743000Y-77978000D03*
X69088000Y-50038000D03*
X64516000Y-50038000D03*
X60706000Y-50292000D03*
X102743000Y-82296000D03*
X113030000Y-67310000D03*
X115824000Y-69850000D03*
X115824000Y-74676000D03*
X86868000Y-58674000D03*
X75438000Y-84582000D03*
X81788000Y-88392000D03*
X89662000Y-64770000D03*
X109982000Y-77470000D03*
X74930000Y-76454000D03*
X95222000Y-70104000D03*
X93726000Y-85090000D03*
X58420000Y-54610000D03*
X69088000Y-57277000D03*
D21*
X56134000Y-75692000D03*
D22*
X67310000Y-75692000D03*
X68072000Y-67310000D03*
X69088000Y-54610000D03*
X90678000Y-68326000D03*
X70866000Y-78486000D03*
X53340000Y-55626000D03*
X54864000Y-49784000D03*
X52070000Y-66040000D03*
X99314000Y-80772000D03*
X64770000Y-82804000D03*
X90424000Y-83312000D03*
X118618000Y-74676000D03*
X53340000Y-60452000D03*
X70104000Y-66040000D03*
X72390000Y-75692000D03*
X71374000Y-67310000D03*
X80010000Y-67310000D03*
X82042000Y-72390000D03*
X74930000Y-72390000D03*
X90170000Y-59182000D03*
X110490000Y-74676000D03*
X96266000Y-56134000D03*
X60198000Y-60198000D03*
X114300000Y-62230000D03*
X70866000Y-57404000D03*
X86868000Y-57404000D03*
X85090000Y-71120000D03*
X69088000Y-71120000D03*
X102870000Y-69088000D03*
X98044000Y-68580000D03*
X98552000Y-60960000D03*
X93726000Y-68580000D03*
X80772000Y-73406000D03*
X89408000Y-62230000D03*
X114300000Y-58928000D03*
X114300000Y-68834000D03*
X92710000Y-65024000D03*
X92710000Y-64008000D03*
X92202000Y-62992000D03*
X97028000Y-58928000D03*
X95758000Y-61468000D03*
X96266000Y-58420000D03*
X96012000Y-65278000D03*
X96266000Y-62230000D03*
X94996000Y-67564000D03*
X104648000Y-75184000D03*
X94488000Y-75184000D03*
X74168000Y-64262000D03*
X86360000Y-67056000D03*
X74676000Y-63500000D03*
X89154000Y-66294000D03*
X94996000Y-57658000D03*
X97028000Y-65278000D03*
X95504000Y-73660000D03*
X103124000Y-73660000D03*
X103886000Y-74422000D03*
X94996000Y-74422000D03*
X68326000Y-70612000D03*
X93472000Y-70612000D03*
X84328000Y-87376000D03*
X84582000Y-85852000D03*
D23*
X63754000Y-75692000D02*
X61976000Y-77470000D01*
D24*
X57150000Y-84582000D02*
X57150000Y-87122000D01*
X57150000Y-87122000D02*
X57150000Y-89662000D01*
X57150000Y-89662000D02*
X57150000Y-92202000D01*
D23*
X52070000Y-77470000D02*
X50292000Y-75184000D01*
X61976000Y-77470000D02*
X52070000Y-77470000D01*
D25*
X85598000Y-92202000D02*
X83820000Y-90424000D01*
X72898000Y-92202000D02*
X85598000Y-92202000D01*
X74930000Y-60960000D02*
X67310000Y-60960000D01*
X67310000Y-60960000D02*
X66802000Y-61468000D01*
X118618000Y-57658000D02*
X117094000Y-56134000D01*
X116380000Y-62992000D02*
X118110000Y-62992000D01*
X118618000Y-63500000D02*
X118110000Y-62992000D01*
X118618000Y-69342000D02*
X118618000Y-63500000D01*
X118618000Y-69342000D02*
X118618000Y-71882000D01*
X85090000Y-84582000D02*
X85090000Y-82550000D01*
X113792000Y-56134000D02*
X113792000Y-56896000D01*
X89916000Y-90424000D02*
X89916000Y-88138000D01*
X90678000Y-68326000D02*
X91948000Y-68326000D01*
X91948000Y-68326000D02*
X92710000Y-67564000D01*
X75946000Y-67310000D02*
X75946000Y-66294000D01*
X117094000Y-56134000D02*
X115316000Y-54356000D01*
X118618000Y-74676000D02*
X118618000Y-71882000D01*
X69088000Y-50038000D02*
X69088000Y-54610000D01*
X60960000Y-50038000D02*
X64516000Y-50038000D01*
X60706000Y-50292000D02*
X60960000Y-50038000D01*
X113030000Y-67310000D02*
X115062000Y-67310000D01*
X115824000Y-74676000D02*
X118618000Y-71882000D01*
X115824000Y-69850000D02*
X115824000Y-74676000D01*
X115824000Y-68072000D02*
X115824000Y-69850000D01*
X115062000Y-67310000D02*
X115824000Y-68072000D01*
X114300000Y-87542000D02*
X113792000Y-87542000D01*
X113792000Y-87542000D02*
X111050000Y-84800000D01*
X114300000Y-87542000D02*
X114808000Y-87542000D01*
X114808000Y-87542000D02*
X117550000Y-84800000D01*
X95758000Y-90424000D02*
X89916000Y-90424000D01*
X89916000Y-90424000D02*
X83820000Y-90424000D01*
X83820000Y-90424000D02*
X81788000Y-88392000D01*
X85090000Y-84582000D02*
X75438000Y-84582000D01*
X90424000Y-83312000D02*
X89154000Y-84582000D01*
X89154000Y-84582000D02*
X85090000Y-84582000D01*
X99298000Y-90424000D02*
X104918000Y-90424000D01*
X94286000Y-91912000D02*
X94286000Y-91896000D01*
X94286000Y-91896000D02*
X95758000Y-90424000D01*
X95758000Y-90424000D02*
X99298000Y-90424000D01*
X99298000Y-90424000D02*
X100786000Y-91912000D01*
X109930000Y-91912000D02*
X109930000Y-91896000D01*
X109930000Y-91896000D02*
X108458000Y-90424000D01*
X108458000Y-90424000D02*
X104918000Y-90424000D01*
X104918000Y-90424000D02*
X103430000Y-91912000D01*
X90678000Y-68326000D02*
X90678000Y-65786000D01*
X90678000Y-65786000D02*
X89662000Y-64770000D01*
X110490000Y-74676000D02*
X110490000Y-76962000D01*
X110490000Y-76962000D02*
X109982000Y-77470000D01*
X82042000Y-74168000D02*
X93218000Y-74168000D01*
X95222000Y-72164000D02*
X95222000Y-70104000D01*
X93218000Y-74168000D02*
X95222000Y-72164000D01*
X93726000Y-83312000D02*
X93726000Y-85090000D01*
X57150000Y-74676000D02*
X65024000Y-74676000D01*
X65024000Y-74676000D02*
X65532000Y-75184000D01*
X56134000Y-75692000D02*
X57150000Y-74676000D01*
X57150000Y-66040000D02*
X57150000Y-61722000D01*
X65532000Y-78994000D02*
X67310000Y-77216000D01*
X67310000Y-77216000D02*
X67310000Y-75692000D01*
X65532000Y-78994000D02*
X65532000Y-75184000D01*
X83566000Y-56134000D02*
X70612000Y-56134000D01*
X70612000Y-56134000D02*
X69088000Y-54610000D01*
X80010000Y-67310000D02*
X80010000Y-67818000D01*
X80518000Y-68326000D02*
X80010000Y-67818000D01*
X80518000Y-68326000D02*
X90678000Y-68326000D01*
X64770000Y-82804000D02*
X69850000Y-82804000D01*
X70866000Y-78486000D02*
X69850000Y-79502000D01*
X69850000Y-79502000D02*
X69850000Y-82804000D01*
X69850000Y-82804000D02*
X69850000Y-84582000D01*
X53340000Y-55626000D02*
X54864000Y-54102000D01*
X54864000Y-54102000D02*
X54864000Y-49784000D01*
X52070000Y-66040000D02*
X57150000Y-66040000D01*
X90424000Y-83312000D02*
X93726000Y-83312000D01*
X93726000Y-83312000D02*
X96774000Y-83312000D01*
X96774000Y-83312000D02*
X99314000Y-80772000D01*
X59690000Y-84582000D02*
X59690000Y-82804000D01*
X69850000Y-83058000D02*
X69850000Y-84582000D01*
X64770000Y-82804000D02*
X59690000Y-82804000D01*
X59690000Y-82804000D02*
X55372000Y-82804000D01*
X64770000Y-84582000D02*
X64770000Y-82804000D01*
X114300000Y-78994000D02*
X114300000Y-87542000D01*
X114300000Y-87542000D02*
X109930000Y-91912000D01*
X118618000Y-74676000D02*
X114300000Y-78994000D01*
X69850000Y-84582000D02*
X69850000Y-87122000D01*
X69850000Y-87122000D02*
X69850000Y-89662000D01*
X69850000Y-89662000D02*
X69850000Y-92202000D01*
X64770000Y-84582000D02*
X64770000Y-87122000D01*
X64770000Y-87122000D02*
X64770000Y-89662000D01*
X64770000Y-89662000D02*
X64770000Y-92202000D01*
X59690000Y-92202000D02*
X59690000Y-89662000D01*
X59690000Y-89662000D02*
X59690000Y-87122000D01*
X59690000Y-87122000D02*
X59690000Y-84582000D01*
X69850000Y-92202000D02*
X72898000Y-92202000D01*
X54356000Y-83820000D02*
X55372000Y-82804000D01*
X55372000Y-82804000D02*
X59182000Y-78994000D01*
X59182000Y-78994000D02*
X65532000Y-78994000D01*
X54610000Y-61722000D02*
X57150000Y-61722000D01*
X53340000Y-60452000D02*
X54610000Y-61722000D01*
X71374000Y-67310000D02*
X70104000Y-66040000D01*
X74930000Y-75692000D02*
X72390000Y-75692000D01*
X80010000Y-67310000D02*
X75946000Y-67310000D01*
X75946000Y-67310000D02*
X71374000Y-67310000D01*
X71374000Y-67310000D02*
X68072000Y-67310000D01*
X82042000Y-75946000D02*
X81534000Y-76454000D01*
X81534000Y-76454000D02*
X80752000Y-76454000D01*
X82042000Y-72390000D02*
X82042000Y-74168000D01*
X82042000Y-74168000D02*
X82042000Y-75946000D01*
X74930000Y-76454000D02*
X74930000Y-75692000D01*
X74930000Y-75692000D02*
X74930000Y-72390000D01*
X74930000Y-76454000D02*
X76454000Y-77978000D01*
X76454000Y-77978000D02*
X80010000Y-77978000D01*
X80010000Y-77978000D02*
X80752000Y-77236000D01*
X80752000Y-76454000D02*
X80752000Y-77236000D01*
X80772000Y-76454000D02*
X80752000Y-76454000D01*
X90170000Y-59182000D02*
X89662000Y-58674000D01*
X86868000Y-58674000D02*
X89408000Y-56134000D01*
X89662000Y-58674000D02*
X86868000Y-58674000D01*
X110490000Y-74676000D02*
X115824000Y-74676000D01*
X96266000Y-56134000D02*
X113792000Y-56134000D01*
X113792000Y-56134000D02*
X117094000Y-56134000D01*
X96266000Y-56134000D02*
X89408000Y-56134000D01*
X89408000Y-56134000D02*
X83566000Y-56134000D01*
X57150000Y-74676000D02*
X57150000Y-66040000D01*
X58674000Y-60198000D02*
X60198000Y-60198000D01*
X57150000Y-61722000D02*
X58674000Y-60198000D01*
X68072000Y-62738000D02*
X68072000Y-67310000D01*
X65532000Y-60198000D02*
X66802000Y-61468000D01*
X66802000Y-61468000D02*
X68072000Y-62738000D01*
X60198000Y-60198000D02*
X65532000Y-60198000D01*
D24*
X62230000Y-84582000D02*
X62230000Y-87122000D01*
X62230000Y-87122000D02*
X62230000Y-89662000D01*
X62230000Y-89662000D02*
X62230000Y-92202000D01*
D25*
X116332000Y-59944000D02*
X115062000Y-61214000D01*
X115062000Y-61468000D02*
X115062000Y-61214000D01*
X115062000Y-61468000D02*
X114300000Y-62230000D01*
X86862000Y-57398000D02*
X70866000Y-57404000D01*
X86868000Y-57404000D02*
X86862000Y-57398000D01*
X69088000Y-71120000D02*
X85090000Y-71120000D01*
X98552000Y-69088000D02*
X102870000Y-69088000D01*
X98044000Y-68580000D02*
X98552000Y-69088000D01*
D24*
X67310000Y-92202000D02*
X67310000Y-89662000D01*
X67310000Y-89662000D02*
X67310000Y-87122000D01*
X67310000Y-87122000D02*
X67310000Y-84582000D01*
D25*
X98552000Y-60960000D02*
X106680000Y-60960000D01*
X106680000Y-60960000D02*
X109220000Y-63500000D01*
X98806000Y-71882000D02*
X95504000Y-68580000D01*
X111050000Y-80300000D02*
X102632000Y-71882000D01*
X102632000Y-71882000D02*
X98806000Y-71882000D01*
X93726000Y-68580000D02*
X95504000Y-68580000D01*
X117348000Y-80098000D02*
X117550000Y-80300000D01*
X79502000Y-74676000D02*
X79502000Y-76454000D01*
X80772000Y-73406000D02*
X79502000Y-74676000D01*
X112268000Y-56896000D02*
X114300000Y-58928000D01*
X112268000Y-56896000D02*
X94742000Y-56896000D01*
X89408000Y-62230000D02*
X94742000Y-56896000D01*
X114300000Y-68834000D02*
X113284000Y-69850000D01*
X113284000Y-69850000D02*
X98298000Y-69850000D01*
X98298000Y-69850000D02*
X93472000Y-65024000D01*
X93472000Y-65024000D02*
X92710000Y-65024000D01*
X86498582Y-62992000D02*
X77165202Y-62992000D01*
X77165202Y-62992000D02*
X76434000Y-62260798D01*
X76434000Y-61214000D02*
X76434000Y-62260798D01*
X87514582Y-64008000D02*
X92710000Y-64008000D01*
X86498582Y-62992000D02*
X87514582Y-64008000D01*
X87376000Y-62992000D02*
X92202000Y-62992000D01*
X86868000Y-62484000D02*
X87376000Y-62992000D01*
X78232000Y-62484000D02*
X86868000Y-62484000D01*
X77938000Y-62190000D02*
X78232000Y-62484000D01*
X77938000Y-62190000D02*
X77938000Y-61214000D01*
X97028000Y-58928000D02*
X109728000Y-58928000D01*
X109728000Y-58928000D02*
X111760000Y-60960000D01*
X111760000Y-63500000D02*
X110490000Y-64770000D01*
X97028000Y-61468000D02*
X95758000Y-61468000D01*
X100330000Y-64770000D02*
X97028000Y-61468000D01*
X110490000Y-64770000D02*
X100330000Y-64770000D01*
X113284000Y-64516000D02*
X111760000Y-66040000D01*
X113284000Y-60452000D02*
X113284000Y-64516000D01*
X110998000Y-58166000D02*
X113284000Y-60452000D01*
X96520000Y-58166000D02*
X110998000Y-58166000D01*
X96266000Y-58420000D02*
X96520000Y-58166000D01*
X99060000Y-68326000D02*
X96012000Y-65278000D01*
X103632000Y-68580000D02*
X109220000Y-68580000D01*
X103378000Y-68326000D02*
X99060000Y-68326000D01*
X103632000Y-68580000D02*
X103378000Y-68326000D01*
X101346000Y-67310000D02*
X110490000Y-67310000D01*
X111760000Y-68580000D02*
X110490000Y-67310000D01*
X101346000Y-67310000D02*
X96266000Y-62230000D01*
X94996000Y-67564000D02*
X95250000Y-67564000D01*
X98806000Y-71120000D02*
X109220000Y-71120000D01*
X95250000Y-67564000D02*
X98806000Y-71120000D01*
X94488000Y-75184000D02*
X104648000Y-75184000D01*
X83566000Y-64262000D02*
X74168000Y-64262000D01*
X86360000Y-67056000D02*
X83566000Y-64262000D01*
X86360000Y-63500000D02*
X74676000Y-63500000D01*
X89154000Y-66294000D02*
X86360000Y-63500000D01*
X94996000Y-63246000D02*
X94996000Y-57658000D01*
X97028000Y-65278000D02*
X94996000Y-63246000D01*
X96012000Y-74168000D02*
X95504000Y-73660000D01*
X96012000Y-74168000D02*
X102616000Y-74168000D01*
X102616000Y-74168000D02*
X103124000Y-73660000D01*
X94996000Y-74472798D02*
X95250000Y-74726798D01*
X103581202Y-74726798D02*
X103886000Y-74422000D01*
X95250000Y-74726798D02*
X103581202Y-74726798D01*
X92456000Y-69596000D02*
X69342000Y-69596000D01*
X93472000Y-70612000D02*
X92456000Y-69596000D01*
X69342000Y-69596000D02*
X68326000Y-70612000D01*
X94286000Y-87412000D02*
X84364000Y-87412000D01*
X84328000Y-87376000D02*
X84364000Y-87412000D01*
X84582000Y-85852000D02*
X101854000Y-85852000D01*
X103414000Y-87412000D02*
X101854000Y-85852000D01*
X103430000Y-87412000D02*
X103414000Y-87412000D01*
G36*
X113874062Y-48397866D02*
X113343605Y-49675348D01*
X113342398Y-51058584D01*
X113870624Y-52336989D01*
X114847866Y-53315938D01*
X116125348Y-53846395D01*
X117508584Y-53847602D01*
X118786989Y-53319376D01*
X119364000Y-52743371D01*
X119364000Y-89496927D01*
X118792134Y-88924062D01*
X117514652Y-88393605D01*
X116131416Y-88392398D01*
X114853011Y-88920624D01*
X113874062Y-89897866D01*
X113343605Y-91175348D01*
X113342398Y-92558584D01*
X113870624Y-93836989D01*
X114446629Y-94414000D01*
X53193073Y-94414000D01*
X53765938Y-93842134D01*
X54296395Y-92564652D01*
X54297602Y-91181416D01*
X53769376Y-89903011D01*
X52792134Y-88924062D01*
X51514652Y-88393605D01*
X50131416Y-88392398D01*
X48853011Y-88920624D01*
X48276000Y-89496629D01*
X48276000Y-84988400D01*
X49547936Y-84988400D01*
X49547936Y-86715600D01*
X49574503Y-86856790D01*
X49657946Y-86986465D01*
X49785266Y-87073459D01*
X49936400Y-87104064D01*
X51663600Y-87104064D01*
X51804790Y-87077497D01*
X51934465Y-86994054D01*
X52021459Y-86866734D01*
X52052064Y-86715600D01*
X52052064Y-86614276D01*
X52057312Y-86626947D01*
X52451510Y-87058821D01*
X52980973Y-87306968D01*
X53213000Y-87186469D01*
X53213000Y-85979000D01*
X53467000Y-85979000D01*
X53467000Y-87186469D01*
X53699027Y-87306968D01*
X54093687Y-87122000D01*
X55881017Y-87122000D01*
X55975757Y-87598288D01*
X56245552Y-88002065D01*
X56515000Y-88182104D01*
X56515000Y-88601896D01*
X56245552Y-88781935D01*
X55975757Y-89185712D01*
X55881017Y-89662000D01*
X55975757Y-90138288D01*
X56245552Y-90542065D01*
X56515000Y-90722104D01*
X56515000Y-91141896D01*
X56245552Y-91321935D01*
X55975757Y-91725712D01*
X55881017Y-92202000D01*
X55975757Y-92678288D01*
X56245552Y-93082065D01*
X56649329Y-93351860D01*
X57125617Y-93446600D01*
X57174383Y-93446600D01*
X57650671Y-93351860D01*
X58054448Y-93082065D01*
X58299159Y-92715828D01*
X58407312Y-92976947D01*
X58801510Y-93408821D01*
X59330973Y-93656968D01*
X59563000Y-93536469D01*
X59563000Y-92329000D01*
X59543000Y-92329000D01*
X59543000Y-92075000D01*
X59563000Y-92075000D01*
X59563000Y-89789000D01*
X59543000Y-89789000D01*
X59543000Y-89535000D01*
X59563000Y-89535000D01*
X59563000Y-87249000D01*
X59543000Y-87249000D01*
X59543000Y-86995000D01*
X59563000Y-86995000D01*
X59563000Y-84709000D01*
X59543000Y-84709000D01*
X59543000Y-84455000D01*
X59563000Y-84455000D01*
X59563000Y-83247531D01*
X59817000Y-83247531D01*
X59817000Y-84455000D01*
X59837000Y-84455000D01*
X59837000Y-84709000D01*
X59817000Y-84709000D01*
X59817000Y-86995000D01*
X59837000Y-86995000D01*
X59837000Y-87249000D01*
X59817000Y-87249000D01*
X59817000Y-89535000D01*
X59837000Y-89535000D01*
X59837000Y-89789000D01*
X59817000Y-89789000D01*
X59817000Y-92075000D01*
X59837000Y-92075000D01*
X59837000Y-92329000D01*
X59817000Y-92329000D01*
X59817000Y-93536469D01*
X60049027Y-93656968D01*
X60578490Y-93408821D01*
X60972688Y-92976947D01*
X61010906Y-92884675D01*
X61214803Y-93189828D01*
X61668022Y-93492660D01*
X62202631Y-93599000D01*
X62257369Y-93599000D01*
X62791978Y-93492660D01*
X63245197Y-93189828D01*
X63449094Y-92884675D01*
X63487312Y-92976947D01*
X63881510Y-93408821D01*
X64410973Y-93656968D01*
X64643000Y-93536469D01*
X64643000Y-92329000D01*
X64623000Y-92329000D01*
X64623000Y-92075000D01*
X64643000Y-92075000D01*
X64643000Y-89789000D01*
X64623000Y-89789000D01*
X64623000Y-89535000D01*
X64643000Y-89535000D01*
X64643000Y-87249000D01*
X64623000Y-87249000D01*
X64623000Y-86995000D01*
X64643000Y-86995000D01*
X64643000Y-84709000D01*
X64623000Y-84709000D01*
X64623000Y-84455000D01*
X64643000Y-84455000D01*
X64643000Y-83247531D01*
X64897000Y-83247531D01*
X64897000Y-84455000D01*
X64917000Y-84455000D01*
X64917000Y-84709000D01*
X64897000Y-84709000D01*
X64897000Y-86995000D01*
X64917000Y-86995000D01*
X64917000Y-87249000D01*
X64897000Y-87249000D01*
X64897000Y-89535000D01*
X64917000Y-89535000D01*
X64917000Y-89789000D01*
X64897000Y-89789000D01*
X64897000Y-92075000D01*
X64917000Y-92075000D01*
X64917000Y-92329000D01*
X64897000Y-92329000D01*
X64897000Y-93536469D01*
X65129027Y-93656968D01*
X65658490Y-93408821D01*
X66052688Y-92976947D01*
X66160841Y-92715828D01*
X66405552Y-93082065D01*
X66809329Y-93351860D01*
X67285617Y-93446600D01*
X67334383Y-93446600D01*
X67810671Y-93351860D01*
X68214448Y-93082065D01*
X68459159Y-92715828D01*
X68567312Y-92976947D01*
X68961510Y-93408821D01*
X69490973Y-93656968D01*
X69723000Y-93536469D01*
X69723000Y-92329000D01*
X69703000Y-92329000D01*
X69703000Y-92075000D01*
X69723000Y-92075000D01*
X69723000Y-89789000D01*
X69977000Y-89789000D01*
X69977000Y-92075000D01*
X69997000Y-92075000D01*
X69997000Y-92329000D01*
X69977000Y-92329000D01*
X69977000Y-93536469D01*
X70209027Y-93656968D01*
X70738490Y-93408821D01*
X70788379Y-93354163D01*
X71925443Y-93354163D01*
X72024042Y-93620965D01*
X72633582Y-93847401D01*
X73283377Y-93823341D01*
X73771958Y-93620965D01*
X73870557Y-93354163D01*
X72898000Y-92381605D01*
X71925443Y-93354163D01*
X70788379Y-93354163D01*
X71132688Y-92976947D01*
X71285352Y-92608363D01*
X71479035Y-93075958D01*
X71745837Y-93174557D01*
X72718395Y-92202000D01*
X73077605Y-92202000D01*
X74050163Y-93174557D01*
X74316965Y-93075958D01*
X74348095Y-92992159D01*
X93385446Y-92992159D01*
X93471852Y-93248643D01*
X94045336Y-93458458D01*
X94655460Y-93432839D01*
X95100148Y-93248643D01*
X95186554Y-92992159D01*
X99885446Y-92992159D01*
X99971852Y-93248643D01*
X100545336Y-93458458D01*
X101155460Y-93432839D01*
X101600148Y-93248643D01*
X101686554Y-92992159D01*
X102529446Y-92992159D01*
X102615852Y-93248643D01*
X103189336Y-93458458D01*
X103799460Y-93432839D01*
X104244148Y-93248643D01*
X104330554Y-92992159D01*
X109029446Y-92992159D01*
X109115852Y-93248643D01*
X109689336Y-93458458D01*
X110299460Y-93432839D01*
X110744148Y-93248643D01*
X110830554Y-92992159D01*
X109930000Y-92091605D01*
X109029446Y-92992159D01*
X104330554Y-92992159D01*
X103430000Y-92091605D01*
X102529446Y-92992159D01*
X101686554Y-92992159D01*
X100786000Y-92091605D01*
X99885446Y-92992159D01*
X95186554Y-92992159D01*
X94286000Y-92091605D01*
X93385446Y-92992159D01*
X74348095Y-92992159D01*
X74543401Y-92466418D01*
X74519341Y-91816623D01*
X74459162Y-91671336D01*
X92739542Y-91671336D01*
X92765161Y-92281460D01*
X92949357Y-92726148D01*
X93205841Y-92812554D01*
X94106395Y-91912000D01*
X94465605Y-91912000D01*
X95366159Y-92812554D01*
X95622643Y-92726148D01*
X95832458Y-92152664D01*
X95812248Y-91671336D01*
X99239542Y-91671336D01*
X99265161Y-92281460D01*
X99449357Y-92726148D01*
X99705841Y-92812554D01*
X100606395Y-91912000D01*
X100965605Y-91912000D01*
X101866159Y-92812554D01*
X102108000Y-92731081D01*
X102349841Y-92812554D01*
X103250395Y-91912000D01*
X103609605Y-91912000D01*
X104510159Y-92812554D01*
X104766643Y-92726148D01*
X104976458Y-92152664D01*
X104956248Y-91671336D01*
X108383542Y-91671336D01*
X108409161Y-92281460D01*
X108593357Y-92726148D01*
X108849841Y-92812554D01*
X109750395Y-91912000D01*
X110109605Y-91912000D01*
X111010159Y-92812554D01*
X111266643Y-92726148D01*
X111476458Y-92152664D01*
X111450839Y-91542540D01*
X111266643Y-91097852D01*
X111010159Y-91011446D01*
X110109605Y-91912000D01*
X109750395Y-91912000D01*
X108849841Y-91011446D01*
X108593357Y-91097852D01*
X108383542Y-91671336D01*
X104956248Y-91671336D01*
X104950839Y-91542540D01*
X104766643Y-91097852D01*
X104510159Y-91011446D01*
X103609605Y-91912000D01*
X103250395Y-91912000D01*
X102349841Y-91011446D01*
X102108000Y-91092919D01*
X101866159Y-91011446D01*
X100965605Y-91912000D01*
X100606395Y-91912000D01*
X99705841Y-91011446D01*
X99449357Y-91097852D01*
X99239542Y-91671336D01*
X95812248Y-91671336D01*
X95806839Y-91542540D01*
X95622643Y-91097852D01*
X95366159Y-91011446D01*
X94465605Y-91912000D01*
X94106395Y-91912000D01*
X93205841Y-91011446D01*
X92949357Y-91097852D01*
X92739542Y-91671336D01*
X74459162Y-91671336D01*
X74316965Y-91328042D01*
X74050163Y-91229443D01*
X73077605Y-92202000D01*
X72718395Y-92202000D01*
X71745837Y-91229443D01*
X71479035Y-91328042D01*
X71295884Y-91821065D01*
X71132688Y-91427053D01*
X70788380Y-91049837D01*
X71925443Y-91049837D01*
X72898000Y-92022395D01*
X73870557Y-91049837D01*
X73771958Y-90783035D01*
X73162418Y-90556599D01*
X72512623Y-90580659D01*
X72024042Y-90783035D01*
X71925443Y-91049837D01*
X70788380Y-91049837D01*
X70738490Y-90995179D01*
X70603687Y-90932000D01*
X70738490Y-90868821D01*
X71132688Y-90436947D01*
X71153641Y-90386359D01*
X78866802Y-90386359D01*
X79040446Y-90806612D01*
X79361697Y-91128423D01*
X79781646Y-91302801D01*
X80236359Y-91303198D01*
X80656612Y-91129554D01*
X80954843Y-90831841D01*
X93385446Y-90831841D01*
X94286000Y-91732395D01*
X95186554Y-90831841D01*
X99885446Y-90831841D01*
X100786000Y-91732395D01*
X101686554Y-90831841D01*
X102529446Y-90831841D01*
X103430000Y-91732395D01*
X104330554Y-90831841D01*
X109029446Y-90831841D01*
X109930000Y-91732395D01*
X110830554Y-90831841D01*
X110744148Y-90575357D01*
X110170664Y-90365542D01*
X109560540Y-90391161D01*
X109115852Y-90575357D01*
X109029446Y-90831841D01*
X104330554Y-90831841D01*
X104244148Y-90575357D01*
X103670664Y-90365542D01*
X103060540Y-90391161D01*
X102615852Y-90575357D01*
X102529446Y-90831841D01*
X101686554Y-90831841D01*
X101600148Y-90575357D01*
X101026664Y-90365542D01*
X100416540Y-90391161D01*
X99971852Y-90575357D01*
X99885446Y-90831841D01*
X95186554Y-90831841D01*
X95100148Y-90575357D01*
X94526664Y-90365542D01*
X93916540Y-90391161D01*
X93471852Y-90575357D01*
X93385446Y-90831841D01*
X80954843Y-90831841D01*
X80978423Y-90808303D01*
X81152801Y-90388354D01*
X81153198Y-89933641D01*
X80979554Y-89513388D01*
X80658303Y-89191577D01*
X80238354Y-89017199D01*
X79783641Y-89016802D01*
X79363388Y-89190446D01*
X79041577Y-89511697D01*
X78867199Y-89931646D01*
X78866802Y-90386359D01*
X71153641Y-90386359D01*
X71304958Y-90021026D01*
X71183817Y-89789000D01*
X69977000Y-89789000D01*
X69723000Y-89789000D01*
X69703000Y-89789000D01*
X69703000Y-89535000D01*
X69723000Y-89535000D01*
X69723000Y-87249000D01*
X69977000Y-87249000D01*
X69977000Y-89535000D01*
X71183817Y-89535000D01*
X71304958Y-89302974D01*
X71132688Y-88887053D01*
X70738490Y-88455179D01*
X70603687Y-88392000D01*
X70738490Y-88328821D01*
X71132688Y-87896947D01*
X71292205Y-87511816D01*
X83642081Y-87511816D01*
X83746268Y-87763967D01*
X83939018Y-87957054D01*
X84190987Y-88061681D01*
X84463816Y-88061919D01*
X84715967Y-87957732D01*
X84753765Y-87920000D01*
X93109857Y-87920000D01*
X93199388Y-88136680D01*
X93559425Y-88497345D01*
X94030076Y-88692777D01*
X94539689Y-88693222D01*
X95010680Y-88498612D01*
X95371345Y-88138575D01*
X95566777Y-87667924D01*
X95567222Y-87158311D01*
X95372612Y-86687320D01*
X95045862Y-86360000D01*
X100026648Y-86360000D01*
X99700655Y-86685425D01*
X99505223Y-87156076D01*
X99504778Y-87665689D01*
X99699388Y-88136680D01*
X100059425Y-88497345D01*
X100530076Y-88692777D01*
X101039689Y-88693222D01*
X101461337Y-88519000D01*
X102755576Y-88519000D01*
X103174076Y-88692777D01*
X103683689Y-88693222D01*
X104154680Y-88498612D01*
X104515345Y-88138575D01*
X104710777Y-87667924D01*
X104710778Y-87665689D01*
X108648778Y-87665689D01*
X108843388Y-88136680D01*
X109203425Y-88497345D01*
X109674076Y-88692777D01*
X110183689Y-88693222D01*
X110654680Y-88498612D01*
X111015345Y-88138575D01*
X111210777Y-87667924D01*
X111211222Y-87158311D01*
X111016612Y-86687320D01*
X110656575Y-86326655D01*
X110185924Y-86131223D01*
X109676311Y-86130778D01*
X109205320Y-86325388D01*
X108844655Y-86685425D01*
X108649223Y-87156076D01*
X108648778Y-87665689D01*
X104710778Y-87665689D01*
X104711222Y-87158311D01*
X104516612Y-86687320D01*
X104156575Y-86326655D01*
X103685924Y-86131223D01*
X103176311Y-86130778D01*
X102946255Y-86225835D01*
X102600579Y-85880159D01*
X110149446Y-85880159D01*
X110235852Y-86136643D01*
X110809336Y-86346458D01*
X111419460Y-86320839D01*
X111864148Y-86136643D01*
X111950554Y-85880159D01*
X116649446Y-85880159D01*
X116735852Y-86136643D01*
X117309336Y-86346458D01*
X117919460Y-86320839D01*
X118364148Y-86136643D01*
X118450554Y-85880159D01*
X117550000Y-84979605D01*
X116649446Y-85880159D01*
X111950554Y-85880159D01*
X111050000Y-84979605D01*
X110149446Y-85880159D01*
X102600579Y-85880159D01*
X102213210Y-85492790D01*
X102048403Y-85382669D01*
X101854000Y-85344000D01*
X85043908Y-85344000D01*
X84970982Y-85270946D01*
X84719013Y-85166319D01*
X84446184Y-85166081D01*
X84194033Y-85270268D01*
X84000946Y-85463018D01*
X83896319Y-85714987D01*
X83896081Y-85987816D01*
X84000268Y-86239967D01*
X84193018Y-86433054D01*
X84201000Y-86436368D01*
X84201000Y-86690089D01*
X84192184Y-86690081D01*
X83940033Y-86794268D01*
X83746946Y-86987018D01*
X83642319Y-87238987D01*
X83642081Y-87511816D01*
X71292205Y-87511816D01*
X71304958Y-87481026D01*
X71183817Y-87249000D01*
X69977000Y-87249000D01*
X69723000Y-87249000D01*
X69703000Y-87249000D01*
X69703000Y-86995000D01*
X69723000Y-86995000D01*
X69723000Y-84709000D01*
X69977000Y-84709000D01*
X69977000Y-86995000D01*
X71183817Y-86995000D01*
X71304958Y-86762974D01*
X71132688Y-86347053D01*
X70738490Y-85915179D01*
X70603687Y-85852000D01*
X70738490Y-85788821D01*
X71132688Y-85356947D01*
X71304958Y-84941026D01*
X71183817Y-84709000D01*
X69977000Y-84709000D01*
X69723000Y-84709000D01*
X69703000Y-84709000D01*
X69703000Y-84559336D01*
X109503542Y-84559336D01*
X109529161Y-85169460D01*
X109713357Y-85614148D01*
X109969841Y-85700554D01*
X110870395Y-84800000D01*
X111229605Y-84800000D01*
X112130159Y-85700554D01*
X112386643Y-85614148D01*
X112596458Y-85040664D01*
X112576248Y-84559336D01*
X116003542Y-84559336D01*
X116029161Y-85169460D01*
X116213357Y-85614148D01*
X116469841Y-85700554D01*
X117370395Y-84800000D01*
X117729605Y-84800000D01*
X118630159Y-85700554D01*
X118886643Y-85614148D01*
X119096458Y-85040664D01*
X119070839Y-84430540D01*
X118886643Y-83985852D01*
X118630159Y-83899446D01*
X117729605Y-84800000D01*
X117370395Y-84800000D01*
X116469841Y-83899446D01*
X116213357Y-83985852D01*
X116003542Y-84559336D01*
X112576248Y-84559336D01*
X112570839Y-84430540D01*
X112386643Y-83985852D01*
X112130159Y-83899446D01*
X111229605Y-84800000D01*
X110870395Y-84800000D01*
X109969841Y-83899446D01*
X109713357Y-83985852D01*
X109503542Y-84559336D01*
X69703000Y-84559336D01*
X69703000Y-84455000D01*
X69723000Y-84455000D01*
X69723000Y-83247531D01*
X69977000Y-83247531D01*
X69977000Y-84455000D01*
X71183817Y-84455000D01*
X71304958Y-84222974D01*
X71132688Y-83807053D01*
X71053085Y-83719841D01*
X110149446Y-83719841D01*
X111050000Y-84620395D01*
X111950554Y-83719841D01*
X116649446Y-83719841D01*
X117550000Y-84620395D01*
X118450554Y-83719841D01*
X118364148Y-83463357D01*
X117790664Y-83253542D01*
X117180540Y-83279161D01*
X116735852Y-83463357D01*
X116649446Y-83719841D01*
X111950554Y-83719841D01*
X111864148Y-83463357D01*
X111290664Y-83253542D01*
X110680540Y-83279161D01*
X110235852Y-83463357D01*
X110149446Y-83719841D01*
X71053085Y-83719841D01*
X70738490Y-83375179D01*
X70209027Y-83127032D01*
X69977000Y-83247531D01*
X69723000Y-83247531D01*
X69490973Y-83127032D01*
X68961510Y-83375179D01*
X68567312Y-83807053D01*
X68562064Y-83819724D01*
X68562064Y-83718400D01*
X68535497Y-83577210D01*
X68452054Y-83447535D01*
X68324734Y-83360541D01*
X68173600Y-83329936D01*
X66446400Y-83329936D01*
X66305210Y-83356503D01*
X66175535Y-83439946D01*
X66088541Y-83567266D01*
X66057936Y-83718400D01*
X66057936Y-83819724D01*
X66052688Y-83807053D01*
X65658490Y-83375179D01*
X65129027Y-83127032D01*
X64897000Y-83247531D01*
X64643000Y-83247531D01*
X64410973Y-83127032D01*
X63881510Y-83375179D01*
X63625619Y-83655527D01*
X63600256Y-83520734D01*
X63483435Y-83339190D01*
X63305188Y-83217399D01*
X63093600Y-83174551D01*
X61366400Y-83174551D01*
X61168734Y-83211744D01*
X60987190Y-83328565D01*
X60865399Y-83506812D01*
X60835119Y-83656336D01*
X60578490Y-83375179D01*
X60049027Y-83127032D01*
X59817000Y-83247531D01*
X59563000Y-83247531D01*
X59330973Y-83127032D01*
X58801510Y-83375179D01*
X58407312Y-83807053D01*
X58402064Y-83819724D01*
X58402064Y-83718400D01*
X58375497Y-83577210D01*
X58292054Y-83447535D01*
X58164734Y-83360541D01*
X58013600Y-83329936D01*
X56286400Y-83329936D01*
X56145210Y-83356503D01*
X56015535Y-83439946D01*
X55928541Y-83567266D01*
X55897936Y-83718400D01*
X55897936Y-85445600D01*
X55924503Y-85586790D01*
X56007946Y-85716465D01*
X56135266Y-85803459D01*
X56286400Y-85834064D01*
X56515000Y-85834064D01*
X56515000Y-86061896D01*
X56245552Y-86241935D01*
X55975757Y-86645712D01*
X55881017Y-87122000D01*
X54093687Y-87122000D01*
X54228490Y-87058821D01*
X54622688Y-86626947D01*
X54794958Y-86211026D01*
X54673817Y-85979000D01*
X53467000Y-85979000D01*
X53213000Y-85979000D01*
X53193000Y-85979000D01*
X53193000Y-85725000D01*
X53213000Y-85725000D01*
X53213000Y-84517531D01*
X53467000Y-84517531D01*
X53467000Y-85725000D01*
X54673817Y-85725000D01*
X54794958Y-85492974D01*
X54622688Y-85077053D01*
X54228490Y-84645179D01*
X53699027Y-84397032D01*
X53467000Y-84517531D01*
X53213000Y-84517531D01*
X52980973Y-84397032D01*
X52451510Y-84645179D01*
X52057312Y-85077053D01*
X52052064Y-85089724D01*
X52052064Y-84988400D01*
X52025497Y-84847210D01*
X51942054Y-84717535D01*
X51814734Y-84630541D01*
X51663600Y-84599936D01*
X49936400Y-84599936D01*
X49795210Y-84626503D01*
X49665535Y-84709946D01*
X49578541Y-84837266D01*
X49547936Y-84988400D01*
X48276000Y-84988400D01*
X48276000Y-82786359D01*
X78866802Y-82786359D01*
X79040446Y-83206612D01*
X79361697Y-83528423D01*
X79781646Y-83702801D01*
X80236359Y-83703198D01*
X80656612Y-83529554D01*
X80978423Y-83208303D01*
X81152801Y-82788354D01*
X81153198Y-82333641D01*
X80979554Y-81913388D01*
X80658303Y-81591577D01*
X80238354Y-81417199D01*
X79783641Y-81416802D01*
X79363388Y-81590446D01*
X79041577Y-81911697D01*
X78867199Y-82331646D01*
X78866802Y-82786359D01*
X48276000Y-82786359D01*
X48276000Y-75380178D01*
X49301228Y-75380178D01*
X49451721Y-75744397D01*
X49730138Y-76023300D01*
X50094093Y-76174428D01*
X50096987Y-76174431D01*
X51468514Y-77937823D01*
X51504642Y-77969090D01*
X51531185Y-78008815D01*
X51616102Y-78065555D01*
X51693328Y-78132391D01*
X51738669Y-78147452D01*
X51778395Y-78173996D01*
X51878562Y-78193920D01*
X51975486Y-78226116D01*
X52023141Y-78222679D01*
X52070000Y-78232000D01*
X52297152Y-78232000D01*
X51853320Y-78415388D01*
X51492655Y-78775425D01*
X51297223Y-79246076D01*
X51296778Y-79755689D01*
X51491388Y-80226680D01*
X51851425Y-80587345D01*
X52322076Y-80782777D01*
X52831689Y-80783222D01*
X53302680Y-80588612D01*
X53663345Y-80228575D01*
X53848213Y-79783364D01*
X54031388Y-80226680D01*
X54391425Y-80587345D01*
X54862076Y-80782777D01*
X55371689Y-80783222D01*
X55842680Y-80588612D01*
X56203345Y-80228575D01*
X56398777Y-79757924D01*
X56399222Y-79248311D01*
X56204612Y-78777320D01*
X55883948Y-78456096D01*
X86724294Y-78456096D01*
X86896202Y-78872146D01*
X87214240Y-79190739D01*
X87629989Y-79363373D01*
X88080156Y-79363766D01*
X88496206Y-79191858D01*
X88814799Y-78873820D01*
X88987433Y-78458071D01*
X88987434Y-78456096D01*
X91606174Y-78456096D01*
X91778082Y-78872146D01*
X92096120Y-79190739D01*
X92511869Y-79363373D01*
X92962036Y-79363766D01*
X93378086Y-79191858D01*
X93696679Y-78873820D01*
X93869313Y-78458071D01*
X93869706Y-78007904D01*
X93697798Y-77591854D01*
X93379760Y-77273261D01*
X92964011Y-77100627D01*
X92513844Y-77100234D01*
X92097794Y-77272142D01*
X91779201Y-77590180D01*
X91606567Y-78005929D01*
X91606174Y-78456096D01*
X88987434Y-78456096D01*
X88987826Y-78007904D01*
X88815918Y-77591854D01*
X88497880Y-77273261D01*
X88082131Y-77100627D01*
X87631964Y-77100234D01*
X87215914Y-77272142D01*
X86897321Y-77590180D01*
X86724687Y-78005929D01*
X86724294Y-78456096D01*
X55883948Y-78456096D01*
X55844575Y-78416655D01*
X55399878Y-78232000D01*
X61976000Y-78232000D01*
X62267605Y-78173996D01*
X62514815Y-78008815D01*
X63840954Y-76682677D01*
X63950178Y-76682772D01*
X64314397Y-76532279D01*
X64593300Y-76253862D01*
X64676290Y-76054000D01*
X78713536Y-76054000D01*
X78713536Y-76854000D01*
X78740103Y-76995190D01*
X78823546Y-77124865D01*
X78950866Y-77211859D01*
X79102000Y-77242464D01*
X79902000Y-77242464D01*
X80043190Y-77215897D01*
X80058486Y-77206054D01*
X80107008Y-77263468D01*
X80465875Y-77448679D01*
X80625000Y-77322443D01*
X80625000Y-76581000D01*
X80879000Y-76581000D01*
X80879000Y-77322443D01*
X81038125Y-77448679D01*
X81396992Y-77263468D01*
X81657665Y-76955023D01*
X81746666Y-76740123D01*
X81618998Y-76581000D01*
X80879000Y-76581000D01*
X80625000Y-76581000D01*
X80605000Y-76581000D01*
X80605000Y-76327000D01*
X80625000Y-76327000D01*
X80625000Y-75585557D01*
X80879000Y-75585557D01*
X80879000Y-76327000D01*
X81618998Y-76327000D01*
X81746666Y-76167877D01*
X81657665Y-75952977D01*
X81396992Y-75644532D01*
X81038125Y-75459321D01*
X80879000Y-75585557D01*
X80625000Y-75585557D01*
X80465875Y-75459321D01*
X80107008Y-75644532D01*
X80059637Y-75700584D01*
X80053134Y-75696141D01*
X80010000Y-75687406D01*
X80010000Y-74886420D01*
X80804591Y-74091829D01*
X80907816Y-74091919D01*
X81159967Y-73987732D01*
X81353054Y-73794982D01*
X81457681Y-73543013D01*
X81457919Y-73270184D01*
X81353732Y-73018033D01*
X81160982Y-72824946D01*
X80909013Y-72720319D01*
X80636184Y-72720081D01*
X80384033Y-72824268D01*
X80190946Y-73017018D01*
X80086319Y-73268987D01*
X80086228Y-73373352D01*
X79142790Y-74316790D01*
X79032669Y-74481597D01*
X78994000Y-74676000D01*
X78994000Y-75685858D01*
X78960810Y-75692103D01*
X78831135Y-75775546D01*
X78744141Y-75902866D01*
X78713536Y-76054000D01*
X64676290Y-76054000D01*
X64744428Y-75889907D01*
X64744772Y-75495822D01*
X64594279Y-75131603D01*
X64315862Y-74852700D01*
X63951907Y-74701572D01*
X63557822Y-74701228D01*
X63193603Y-74851721D01*
X62914700Y-75130138D01*
X62763572Y-75494093D01*
X62763475Y-75604894D01*
X61660370Y-76708000D01*
X52442682Y-76708000D01*
X51282572Y-75216431D01*
X51282772Y-74987822D01*
X51132279Y-74623603D01*
X50853862Y-74344700D01*
X50489907Y-74193572D01*
X50095822Y-74193228D01*
X49731603Y-74343721D01*
X49452700Y-74622138D01*
X49301572Y-74986093D01*
X49301228Y-75380178D01*
X48276000Y-75380178D01*
X48276000Y-70747816D01*
X67640081Y-70747816D01*
X67744268Y-70999967D01*
X67937018Y-71193054D01*
X68188987Y-71297681D01*
X68419462Y-71297882D01*
X68506268Y-71507967D01*
X68699018Y-71701054D01*
X68950987Y-71805681D01*
X69223816Y-71805919D01*
X69475967Y-71701732D01*
X69549828Y-71628000D01*
X84628092Y-71628000D01*
X84701018Y-71701054D01*
X84952987Y-71805681D01*
X85225816Y-71805919D01*
X85477967Y-71701732D01*
X85671054Y-71508982D01*
X85775681Y-71257013D01*
X85775919Y-70984184D01*
X85725000Y-70860951D01*
X85725000Y-70104000D01*
X92245580Y-70104000D01*
X92786171Y-70644591D01*
X92786081Y-70747816D01*
X92890268Y-70999967D01*
X93083018Y-71193054D01*
X93334987Y-71297681D01*
X93607816Y-71297919D01*
X93859967Y-71193732D01*
X94053054Y-71000982D01*
X94157681Y-70749013D01*
X94157919Y-70476184D01*
X94053732Y-70224033D01*
X93860982Y-70030946D01*
X93609013Y-69926319D01*
X93504648Y-69926228D01*
X92815210Y-69236790D01*
X92650403Y-69126669D01*
X92456000Y-69088000D01*
X69342000Y-69088000D01*
X69147597Y-69126669D01*
X68982790Y-69236790D01*
X68293409Y-69926171D01*
X68190184Y-69926081D01*
X67938033Y-70030268D01*
X67744946Y-70223018D01*
X67640319Y-70474987D01*
X67640081Y-70747816D01*
X48276000Y-70747816D01*
X48276000Y-64397816D01*
X73482081Y-64397816D01*
X73586268Y-64649967D01*
X73779018Y-64843054D01*
X74030987Y-64947681D01*
X74303816Y-64947919D01*
X74555967Y-64843732D01*
X74629828Y-64770000D01*
X83355580Y-64770000D01*
X85674171Y-67088591D01*
X85674081Y-67191816D01*
X85778268Y-67443967D01*
X85971018Y-67637054D01*
X86222987Y-67741681D01*
X86495816Y-67741919D01*
X86747967Y-67637732D01*
X86941054Y-67444982D01*
X87045681Y-67193013D01*
X87045714Y-67154902D01*
X87072590Y-67172994D01*
X87122000Y-67183000D01*
X89154000Y-67183000D01*
X89198520Y-67174941D01*
X89241287Y-67148249D01*
X89270300Y-67107022D01*
X89280988Y-67057754D01*
X89271666Y-67008211D01*
X89252882Y-66979887D01*
X89289816Y-66979919D01*
X89541967Y-66875732D01*
X89735054Y-66682982D01*
X89839681Y-66431013D01*
X89839919Y-66158184D01*
X89735732Y-65906033D01*
X89542982Y-65712946D01*
X89291013Y-65608319D01*
X89186648Y-65608228D01*
X88094420Y-64516000D01*
X92248092Y-64516000D01*
X92248132Y-64516040D01*
X92128946Y-64635018D01*
X92024319Y-64886987D01*
X92024081Y-65159816D01*
X92128268Y-65411967D01*
X92321018Y-65605054D01*
X92572987Y-65709681D01*
X92845816Y-65709919D01*
X93097967Y-65605732D01*
X93171828Y-65532000D01*
X93261580Y-65532000D01*
X94681494Y-66951914D01*
X94608033Y-66982268D01*
X94414946Y-67175018D01*
X94310319Y-67426987D01*
X94310081Y-67699816D01*
X94414268Y-67951967D01*
X94534092Y-68072000D01*
X94187908Y-68072000D01*
X94114982Y-67998946D01*
X93863013Y-67894319D01*
X93590184Y-67894081D01*
X93338033Y-67998268D01*
X93144946Y-68191018D01*
X93040319Y-68442987D01*
X93040081Y-68715816D01*
X93144268Y-68967967D01*
X93337018Y-69161054D01*
X93588987Y-69265681D01*
X93861816Y-69265919D01*
X94113967Y-69161732D01*
X94187828Y-69088000D01*
X95293580Y-69088000D01*
X95694454Y-69488874D01*
X95669447Y-69504965D01*
X95641006Y-69546590D01*
X95631000Y-69596000D01*
X95631000Y-72974310D01*
X95368184Y-72974081D01*
X95116033Y-73078268D01*
X94922946Y-73271018D01*
X94818319Y-73522987D01*
X94818118Y-73753462D01*
X94608033Y-73840268D01*
X94414946Y-74033018D01*
X94310319Y-74284987D01*
X94310118Y-74515462D01*
X94100033Y-74602268D01*
X93906946Y-74795018D01*
X93802319Y-75046987D01*
X93802081Y-75319816D01*
X93906268Y-75571967D01*
X94099018Y-75765054D01*
X94350987Y-75869681D01*
X94623816Y-75869919D01*
X94875967Y-75765732D01*
X94949828Y-75692000D01*
X104186092Y-75692000D01*
X104259018Y-75765054D01*
X104510987Y-75869681D01*
X104783816Y-75869919D01*
X105035967Y-75765732D01*
X105229054Y-75572982D01*
X105333681Y-75321013D01*
X105333697Y-75302117D01*
X109859132Y-79827552D01*
X109769223Y-80044076D01*
X109768778Y-80553689D01*
X109963388Y-81024680D01*
X110323425Y-81385345D01*
X110794076Y-81580777D01*
X111303689Y-81581222D01*
X111774680Y-81386612D01*
X112135345Y-81026575D01*
X112330777Y-80555924D01*
X112330778Y-80553689D01*
X116268778Y-80553689D01*
X116463388Y-81024680D01*
X116823425Y-81385345D01*
X117294076Y-81580777D01*
X117803689Y-81581222D01*
X118274680Y-81386612D01*
X118635345Y-81026575D01*
X118830777Y-80555924D01*
X118831222Y-80046311D01*
X118636612Y-79575320D01*
X118276575Y-79214655D01*
X117805924Y-79019223D01*
X117296311Y-79018778D01*
X116825320Y-79213388D01*
X116464655Y-79573425D01*
X116269223Y-80044076D01*
X116268778Y-80553689D01*
X112330778Y-80553689D01*
X112331222Y-80046311D01*
X112136612Y-79575320D01*
X111776575Y-79214655D01*
X111305924Y-79019223D01*
X110796311Y-79018778D01*
X110577577Y-79109157D01*
X109093000Y-77624580D01*
X109093000Y-72344188D01*
X109195617Y-72364600D01*
X109244383Y-72364600D01*
X109720671Y-72269860D01*
X109730938Y-72263000D01*
X111249062Y-72263000D01*
X111259329Y-72269860D01*
X111735617Y-72364600D01*
X111784383Y-72364600D01*
X112260671Y-72269860D01*
X112664448Y-72000065D01*
X112934243Y-71596288D01*
X113028983Y-71120000D01*
X112934243Y-70643712D01*
X112743336Y-70358000D01*
X113284000Y-70358000D01*
X113478403Y-70319331D01*
X113643210Y-70209210D01*
X114332591Y-69519829D01*
X114435816Y-69519919D01*
X114687967Y-69415732D01*
X114881054Y-69222982D01*
X114985681Y-68971013D01*
X114985919Y-68698184D01*
X114881732Y-68446033D01*
X114688982Y-68252946D01*
X114592658Y-68212948D01*
X114643803Y-68161803D01*
X114669584Y-68124623D01*
X114680952Y-68075509D01*
X114672315Y-68025841D01*
X114645035Y-67983447D01*
X114603410Y-67955006D01*
X114554000Y-67945000D01*
X112828195Y-67945000D01*
X112664448Y-67699935D01*
X112649000Y-67689613D01*
X112649000Y-66930387D01*
X112664448Y-66920065D01*
X112934243Y-66516288D01*
X113028983Y-66040000D01*
X112937638Y-65580782D01*
X113113421Y-65405000D01*
X115493602Y-65405000D01*
X115351171Y-65748011D01*
X115350830Y-66138277D01*
X115499864Y-66498966D01*
X115775583Y-66775166D01*
X116136011Y-66924829D01*
X116526277Y-66925170D01*
X116886966Y-66776136D01*
X117163166Y-66500417D01*
X117312829Y-66139989D01*
X117313170Y-65749723D01*
X117164136Y-65389034D01*
X116969344Y-65193902D01*
X117163166Y-65000417D01*
X117312829Y-64639989D01*
X117313170Y-64249723D01*
X117164136Y-63889034D01*
X116888417Y-63612834D01*
X116773519Y-63565124D01*
X116459000Y-63250605D01*
X116459000Y-62944000D01*
X116511605Y-62944000D01*
X117194735Y-63627130D01*
X117420164Y-63577617D01*
X117579807Y-63112964D01*
X117549482Y-62622587D01*
X117420164Y-62310383D01*
X117194735Y-62260870D01*
X116511605Y-62944000D01*
X116459000Y-62944000D01*
X116459000Y-62637395D01*
X116773288Y-62323107D01*
X116886966Y-62276136D01*
X117163166Y-62000417D01*
X117312829Y-61639989D01*
X117313170Y-61249723D01*
X117164136Y-60889034D01*
X116969344Y-60693902D01*
X117163166Y-60500417D01*
X117312829Y-60139989D01*
X117313170Y-59749723D01*
X117164136Y-59389034D01*
X116888417Y-59112834D01*
X116527989Y-58963171D01*
X116137723Y-58962830D01*
X115879827Y-59069391D01*
X115873410Y-59065006D01*
X115824000Y-59055000D01*
X114985690Y-59055000D01*
X114985919Y-58792184D01*
X114881732Y-58540033D01*
X114688982Y-58346946D01*
X114437013Y-58242319D01*
X114332648Y-58242228D01*
X112627210Y-56536790D01*
X112462403Y-56426669D01*
X112268000Y-56388000D01*
X94742000Y-56388000D01*
X94547596Y-56426669D01*
X94382790Y-56536790D01*
X89375409Y-61544171D01*
X89272184Y-61544081D01*
X89020033Y-61648268D01*
X88826946Y-61841018D01*
X88722319Y-62092987D01*
X88722081Y-62365816D01*
X88770914Y-62484000D01*
X87586421Y-62484000D01*
X87227210Y-62124790D01*
X87062403Y-62014669D01*
X86868000Y-61976000D01*
X78446000Y-61976000D01*
X78446000Y-61808236D01*
X78484966Y-61792136D01*
X78761166Y-61516417D01*
X78910829Y-61155989D01*
X78911170Y-60765723D01*
X78762136Y-60405034D01*
X78486417Y-60128834D01*
X78125989Y-59979171D01*
X77735723Y-59978830D01*
X77375034Y-60127864D01*
X77179902Y-60322656D01*
X76986417Y-60128834D01*
X76625989Y-59979171D01*
X76235723Y-59978830D01*
X75875034Y-60127864D01*
X75598834Y-60403583D01*
X75551124Y-60518481D01*
X75109605Y-60960000D01*
X75123748Y-60974143D01*
X74944143Y-61153748D01*
X74930000Y-61139605D01*
X74246870Y-61822735D01*
X74296383Y-62048164D01*
X74761036Y-62207807D01*
X75057000Y-62189505D01*
X75057000Y-62915632D01*
X74813013Y-62814319D01*
X74540184Y-62814081D01*
X74288033Y-62918268D01*
X74094946Y-63111018D01*
X73990319Y-63362987D01*
X73990118Y-63593462D01*
X73780033Y-63680268D01*
X73586946Y-63873018D01*
X73482319Y-64124987D01*
X73482081Y-64397816D01*
X48276000Y-64397816D01*
X48276000Y-60791036D01*
X73682193Y-60791036D01*
X73712518Y-61281413D01*
X73841836Y-61593617D01*
X74067265Y-61643130D01*
X74750395Y-60960000D01*
X74067265Y-60276870D01*
X73841836Y-60326383D01*
X73682193Y-60791036D01*
X48276000Y-60791036D01*
X48276000Y-60097265D01*
X74246870Y-60097265D01*
X74930000Y-60780395D01*
X75613130Y-60097265D01*
X75563617Y-59871836D01*
X75098964Y-59712193D01*
X74608587Y-59742518D01*
X74296383Y-59871836D01*
X74246870Y-60097265D01*
X48276000Y-60097265D01*
X48276000Y-57539816D01*
X70180081Y-57539816D01*
X70284268Y-57791967D01*
X70477018Y-57985054D01*
X70728987Y-58089681D01*
X71001816Y-58089919D01*
X71253967Y-57985732D01*
X71328001Y-57911827D01*
X86400275Y-57906173D01*
X86479018Y-57985054D01*
X86730987Y-58089681D01*
X87003816Y-58089919D01*
X87255967Y-57985732D01*
X87449054Y-57792982D01*
X87553681Y-57541013D01*
X87553919Y-57268184D01*
X87449732Y-57016033D01*
X87256982Y-56822946D01*
X87005013Y-56718319D01*
X86732184Y-56718081D01*
X86480033Y-56822268D01*
X86412014Y-56890169D01*
X71327736Y-56895827D01*
X71254982Y-56822946D01*
X71003013Y-56718319D01*
X70730184Y-56718081D01*
X70478033Y-56822268D01*
X70284946Y-57015018D01*
X70180319Y-57266987D01*
X70180081Y-57539816D01*
X48276000Y-57539816D01*
X48276000Y-52743073D01*
X48847866Y-53315938D01*
X50125348Y-53846395D01*
X51508584Y-53847602D01*
X52786989Y-53319376D01*
X53631437Y-52476400D01*
X69867936Y-52476400D01*
X69867936Y-54203600D01*
X69894503Y-54344790D01*
X69977946Y-54474465D01*
X70105266Y-54561459D01*
X70256400Y-54592064D01*
X71983600Y-54592064D01*
X72124790Y-54565497D01*
X72254465Y-54482054D01*
X72341459Y-54354734D01*
X72372064Y-54203600D01*
X72372064Y-53315617D01*
X72415400Y-53315617D01*
X72415400Y-53364383D01*
X72510140Y-53840671D01*
X72779935Y-54244448D01*
X73183712Y-54514243D01*
X73660000Y-54608983D01*
X74136288Y-54514243D01*
X74540065Y-54244448D01*
X74809860Y-53840671D01*
X74904600Y-53364383D01*
X74904600Y-53315617D01*
X74955400Y-53315617D01*
X74955400Y-53364383D01*
X75050140Y-53840671D01*
X75319935Y-54244448D01*
X75723712Y-54514243D01*
X76200000Y-54608983D01*
X76676288Y-54514243D01*
X77080065Y-54244448D01*
X77349860Y-53840671D01*
X77444600Y-53364383D01*
X77444600Y-53315617D01*
X77495400Y-53315617D01*
X77495400Y-53364383D01*
X77590140Y-53840671D01*
X77859935Y-54244448D01*
X78263712Y-54514243D01*
X78740000Y-54608983D01*
X79216288Y-54514243D01*
X79620065Y-54244448D01*
X79889860Y-53840671D01*
X79984600Y-53364383D01*
X79984600Y-53315617D01*
X80035400Y-53315617D01*
X80035400Y-53364383D01*
X80130140Y-53840671D01*
X80399935Y-54244448D01*
X80803712Y-54514243D01*
X81280000Y-54608983D01*
X81756288Y-54514243D01*
X82160065Y-54244448D01*
X82429860Y-53840671D01*
X82524600Y-53364383D01*
X82524600Y-53315617D01*
X82575400Y-53315617D01*
X82575400Y-53364383D01*
X82670140Y-53840671D01*
X82939935Y-54244448D01*
X83343712Y-54514243D01*
X83820000Y-54608983D01*
X84296288Y-54514243D01*
X84700065Y-54244448D01*
X84969860Y-53840671D01*
X85064600Y-53364383D01*
X85064600Y-53315617D01*
X85115400Y-53315617D01*
X85115400Y-53364383D01*
X85210140Y-53840671D01*
X85479935Y-54244448D01*
X85883712Y-54514243D01*
X86360000Y-54608983D01*
X86836288Y-54514243D01*
X87240065Y-54244448D01*
X87509860Y-53840671D01*
X87604600Y-53364383D01*
X87604600Y-53315617D01*
X87655400Y-53315617D01*
X87655400Y-53364383D01*
X87750140Y-53840671D01*
X88019935Y-54244448D01*
X88423712Y-54514243D01*
X88900000Y-54608983D01*
X89376288Y-54514243D01*
X89780065Y-54244448D01*
X90049860Y-53840671D01*
X90144600Y-53364383D01*
X90144600Y-53315617D01*
X90195400Y-53315617D01*
X90195400Y-53364383D01*
X90290140Y-53840671D01*
X90559935Y-54244448D01*
X90963712Y-54514243D01*
X91440000Y-54608983D01*
X91916288Y-54514243D01*
X92320065Y-54244448D01*
X92589860Y-53840671D01*
X92684600Y-53364383D01*
X92684600Y-53315617D01*
X92589860Y-52839329D01*
X92347359Y-52476400D01*
X94505936Y-52476400D01*
X94505936Y-54203600D01*
X94532503Y-54344790D01*
X94615946Y-54474465D01*
X94743266Y-54561459D01*
X94894400Y-54592064D01*
X96621600Y-54592064D01*
X96762790Y-54565497D01*
X96892465Y-54482054D01*
X96979459Y-54354734D01*
X97010064Y-54203600D01*
X97010064Y-53315617D01*
X97053400Y-53315617D01*
X97053400Y-53364383D01*
X97148140Y-53840671D01*
X97417935Y-54244448D01*
X97821712Y-54514243D01*
X98298000Y-54608983D01*
X98774288Y-54514243D01*
X99178065Y-54244448D01*
X99447860Y-53840671D01*
X99542600Y-53364383D01*
X99542600Y-53315617D01*
X99593400Y-53315617D01*
X99593400Y-53364383D01*
X99688140Y-53840671D01*
X99957935Y-54244448D01*
X100361712Y-54514243D01*
X100838000Y-54608983D01*
X101314288Y-54514243D01*
X101718065Y-54244448D01*
X101987860Y-53840671D01*
X102082600Y-53364383D01*
X102082600Y-53315617D01*
X102133400Y-53315617D01*
X102133400Y-53364383D01*
X102228140Y-53840671D01*
X102497935Y-54244448D01*
X102901712Y-54514243D01*
X103378000Y-54608983D01*
X103854288Y-54514243D01*
X104258065Y-54244448D01*
X104527860Y-53840671D01*
X104622600Y-53364383D01*
X104622600Y-53315617D01*
X104673400Y-53315617D01*
X104673400Y-53364383D01*
X104768140Y-53840671D01*
X105037935Y-54244448D01*
X105441712Y-54514243D01*
X105918000Y-54608983D01*
X106394288Y-54514243D01*
X106798065Y-54244448D01*
X107067860Y-53840671D01*
X107162600Y-53364383D01*
X107162600Y-53315617D01*
X107213400Y-53315617D01*
X107213400Y-53364383D01*
X107308140Y-53840671D01*
X107577935Y-54244448D01*
X107981712Y-54514243D01*
X108458000Y-54608983D01*
X108934288Y-54514243D01*
X109338065Y-54244448D01*
X109607860Y-53840671D01*
X109702600Y-53364383D01*
X109702600Y-53315617D01*
X109753400Y-53315617D01*
X109753400Y-53364383D01*
X109848140Y-53840671D01*
X110117935Y-54244448D01*
X110521712Y-54514243D01*
X110998000Y-54608983D01*
X111474288Y-54514243D01*
X111878065Y-54244448D01*
X112147860Y-53840671D01*
X112242600Y-53364383D01*
X112242600Y-53315617D01*
X112147860Y-52839329D01*
X111878065Y-52435552D01*
X111474288Y-52165757D01*
X110998000Y-52071017D01*
X110521712Y-52165757D01*
X110117935Y-52435552D01*
X109848140Y-52839329D01*
X109753400Y-53315617D01*
X109702600Y-53315617D01*
X109607860Y-52839329D01*
X109338065Y-52435552D01*
X108934288Y-52165757D01*
X108458000Y-52071017D01*
X107981712Y-52165757D01*
X107577935Y-52435552D01*
X107308140Y-52839329D01*
X107213400Y-53315617D01*
X107162600Y-53315617D01*
X107067860Y-52839329D01*
X106798065Y-52435552D01*
X106394288Y-52165757D01*
X105918000Y-52071017D01*
X105441712Y-52165757D01*
X105037935Y-52435552D01*
X104768140Y-52839329D01*
X104673400Y-53315617D01*
X104622600Y-53315617D01*
X104527860Y-52839329D01*
X104258065Y-52435552D01*
X103854288Y-52165757D01*
X103378000Y-52071017D01*
X102901712Y-52165757D01*
X102497935Y-52435552D01*
X102228140Y-52839329D01*
X102133400Y-53315617D01*
X102082600Y-53315617D01*
X101987860Y-52839329D01*
X101718065Y-52435552D01*
X101314288Y-52165757D01*
X100838000Y-52071017D01*
X100361712Y-52165757D01*
X99957935Y-52435552D01*
X99688140Y-52839329D01*
X99593400Y-53315617D01*
X99542600Y-53315617D01*
X99447860Y-52839329D01*
X99178065Y-52435552D01*
X98774288Y-52165757D01*
X98298000Y-52071017D01*
X97821712Y-52165757D01*
X97417935Y-52435552D01*
X97148140Y-52839329D01*
X97053400Y-53315617D01*
X97010064Y-53315617D01*
X97010064Y-52476400D01*
X96983497Y-52335210D01*
X96900054Y-52205535D01*
X96772734Y-52118541D01*
X96621600Y-52087936D01*
X94894400Y-52087936D01*
X94753210Y-52114503D01*
X94623535Y-52197946D01*
X94536541Y-52325266D01*
X94505936Y-52476400D01*
X92347359Y-52476400D01*
X92320065Y-52435552D01*
X91916288Y-52165757D01*
X91440000Y-52071017D01*
X90963712Y-52165757D01*
X90559935Y-52435552D01*
X90290140Y-52839329D01*
X90195400Y-53315617D01*
X90144600Y-53315617D01*
X90049860Y-52839329D01*
X89780065Y-52435552D01*
X89376288Y-52165757D01*
X88900000Y-52071017D01*
X88423712Y-52165757D01*
X88019935Y-52435552D01*
X87750140Y-52839329D01*
X87655400Y-53315617D01*
X87604600Y-53315617D01*
X87509860Y-52839329D01*
X87240065Y-52435552D01*
X86836288Y-52165757D01*
X86360000Y-52071017D01*
X85883712Y-52165757D01*
X85479935Y-52435552D01*
X85210140Y-52839329D01*
X85115400Y-53315617D01*
X85064600Y-53315617D01*
X84969860Y-52839329D01*
X84700065Y-52435552D01*
X84296288Y-52165757D01*
X83820000Y-52071017D01*
X83343712Y-52165757D01*
X82939935Y-52435552D01*
X82670140Y-52839329D01*
X82575400Y-53315617D01*
X82524600Y-53315617D01*
X82429860Y-52839329D01*
X82160065Y-52435552D01*
X81756288Y-52165757D01*
X81280000Y-52071017D01*
X80803712Y-52165757D01*
X80399935Y-52435552D01*
X80130140Y-52839329D01*
X80035400Y-53315617D01*
X79984600Y-53315617D01*
X79889860Y-52839329D01*
X79620065Y-52435552D01*
X79216288Y-52165757D01*
X78740000Y-52071017D01*
X78263712Y-52165757D01*
X77859935Y-52435552D01*
X77590140Y-52839329D01*
X77495400Y-53315617D01*
X77444600Y-53315617D01*
X77349860Y-52839329D01*
X77080065Y-52435552D01*
X76676288Y-52165757D01*
X76200000Y-52071017D01*
X75723712Y-52165757D01*
X75319935Y-52435552D01*
X75050140Y-52839329D01*
X74955400Y-53315617D01*
X74904600Y-53315617D01*
X74809860Y-52839329D01*
X74540065Y-52435552D01*
X74136288Y-52165757D01*
X73660000Y-52071017D01*
X73183712Y-52165757D01*
X72779935Y-52435552D01*
X72510140Y-52839329D01*
X72415400Y-53315617D01*
X72372064Y-53315617D01*
X72372064Y-52476400D01*
X72345497Y-52335210D01*
X72262054Y-52205535D01*
X72134734Y-52118541D01*
X71983600Y-52087936D01*
X70256400Y-52087936D01*
X70115210Y-52114503D01*
X69985535Y-52197946D01*
X69898541Y-52325266D01*
X69867936Y-52476400D01*
X53631437Y-52476400D01*
X53765938Y-52342134D01*
X54296395Y-51064652D01*
X54296647Y-50775617D01*
X69875400Y-50775617D01*
X69875400Y-50824383D01*
X69970140Y-51300671D01*
X70239935Y-51704448D01*
X70643712Y-51974243D01*
X71120000Y-52068983D01*
X71596288Y-51974243D01*
X72000065Y-51704448D01*
X72269860Y-51300671D01*
X72364600Y-50824383D01*
X72364600Y-50775617D01*
X72415400Y-50775617D01*
X72415400Y-50824383D01*
X72510140Y-51300671D01*
X72779935Y-51704448D01*
X73183712Y-51974243D01*
X73660000Y-52068983D01*
X74136288Y-51974243D01*
X74540065Y-51704448D01*
X74809860Y-51300671D01*
X74904600Y-50824383D01*
X74904600Y-50775617D01*
X74955400Y-50775617D01*
X74955400Y-50824383D01*
X75050140Y-51300671D01*
X75319935Y-51704448D01*
X75723712Y-51974243D01*
X76200000Y-52068983D01*
X76676288Y-51974243D01*
X77080065Y-51704448D01*
X77349860Y-51300671D01*
X77444600Y-50824383D01*
X77444600Y-50775617D01*
X77495400Y-50775617D01*
X77495400Y-50824383D01*
X77590140Y-51300671D01*
X77859935Y-51704448D01*
X78263712Y-51974243D01*
X78740000Y-52068983D01*
X79216288Y-51974243D01*
X79620065Y-51704448D01*
X79889860Y-51300671D01*
X79984600Y-50824383D01*
X79984600Y-50775617D01*
X80035400Y-50775617D01*
X80035400Y-50824383D01*
X80130140Y-51300671D01*
X80399935Y-51704448D01*
X80803712Y-51974243D01*
X81280000Y-52068983D01*
X81756288Y-51974243D01*
X82160065Y-51704448D01*
X82429860Y-51300671D01*
X82524600Y-50824383D01*
X82524600Y-50775617D01*
X82575400Y-50775617D01*
X82575400Y-50824383D01*
X82670140Y-51300671D01*
X82939935Y-51704448D01*
X83343712Y-51974243D01*
X83820000Y-52068983D01*
X84296288Y-51974243D01*
X84700065Y-51704448D01*
X84969860Y-51300671D01*
X85064600Y-50824383D01*
X85064600Y-50775617D01*
X85115400Y-50775617D01*
X85115400Y-50824383D01*
X85210140Y-51300671D01*
X85479935Y-51704448D01*
X85883712Y-51974243D01*
X86360000Y-52068983D01*
X86836288Y-51974243D01*
X87240065Y-51704448D01*
X87509860Y-51300671D01*
X87604600Y-50824383D01*
X87604600Y-50775617D01*
X87655400Y-50775617D01*
X87655400Y-50824383D01*
X87750140Y-51300671D01*
X88019935Y-51704448D01*
X88423712Y-51974243D01*
X88900000Y-52068983D01*
X89376288Y-51974243D01*
X89780065Y-51704448D01*
X90049860Y-51300671D01*
X90144600Y-50824383D01*
X90144600Y-50775617D01*
X90195400Y-50775617D01*
X90195400Y-50824383D01*
X90290140Y-51300671D01*
X90559935Y-51704448D01*
X90963712Y-51974243D01*
X91440000Y-52068983D01*
X91916288Y-51974243D01*
X92320065Y-51704448D01*
X92589860Y-51300671D01*
X92684600Y-50824383D01*
X92684600Y-50775617D01*
X94513400Y-50775617D01*
X94513400Y-50824383D01*
X94608140Y-51300671D01*
X94877935Y-51704448D01*
X95281712Y-51974243D01*
X95758000Y-52068983D01*
X96234288Y-51974243D01*
X96638065Y-51704448D01*
X96907860Y-51300671D01*
X97002600Y-50824383D01*
X97002600Y-50775617D01*
X97053400Y-50775617D01*
X97053400Y-50824383D01*
X97148140Y-51300671D01*
X97417935Y-51704448D01*
X97821712Y-51974243D01*
X98298000Y-52068983D01*
X98774288Y-51974243D01*
X99178065Y-51704448D01*
X99447860Y-51300671D01*
X99542600Y-50824383D01*
X99542600Y-50775617D01*
X99593400Y-50775617D01*
X99593400Y-50824383D01*
X99688140Y-51300671D01*
X99957935Y-51704448D01*
X100361712Y-51974243D01*
X100838000Y-52068983D01*
X101314288Y-51974243D01*
X101718065Y-51704448D01*
X101987860Y-51300671D01*
X102082600Y-50824383D01*
X102082600Y-50775617D01*
X102133400Y-50775617D01*
X102133400Y-50824383D01*
X102228140Y-51300671D01*
X102497935Y-51704448D01*
X102901712Y-51974243D01*
X103378000Y-52068983D01*
X103854288Y-51974243D01*
X104258065Y-51704448D01*
X104527860Y-51300671D01*
X104622600Y-50824383D01*
X104622600Y-50775617D01*
X104673400Y-50775617D01*
X104673400Y-50824383D01*
X104768140Y-51300671D01*
X105037935Y-51704448D01*
X105441712Y-51974243D01*
X105918000Y-52068983D01*
X106394288Y-51974243D01*
X106798065Y-51704448D01*
X107067860Y-51300671D01*
X107162600Y-50824383D01*
X107162600Y-50775617D01*
X107213400Y-50775617D01*
X107213400Y-50824383D01*
X107308140Y-51300671D01*
X107577935Y-51704448D01*
X107981712Y-51974243D01*
X108458000Y-52068983D01*
X108934288Y-51974243D01*
X109338065Y-51704448D01*
X109607860Y-51300671D01*
X109702600Y-50824383D01*
X109702600Y-50775617D01*
X109753400Y-50775617D01*
X109753400Y-50824383D01*
X109848140Y-51300671D01*
X110117935Y-51704448D01*
X110521712Y-51974243D01*
X110998000Y-52068983D01*
X111474288Y-51974243D01*
X111878065Y-51704448D01*
X112147860Y-51300671D01*
X112242600Y-50824383D01*
X112242600Y-50775617D01*
X112147860Y-50299329D01*
X111878065Y-49895552D01*
X111474288Y-49625757D01*
X110998000Y-49531017D01*
X110521712Y-49625757D01*
X110117935Y-49895552D01*
X109848140Y-50299329D01*
X109753400Y-50775617D01*
X109702600Y-50775617D01*
X109607860Y-50299329D01*
X109338065Y-49895552D01*
X108934288Y-49625757D01*
X108458000Y-49531017D01*
X107981712Y-49625757D01*
X107577935Y-49895552D01*
X107308140Y-50299329D01*
X107213400Y-50775617D01*
X107162600Y-50775617D01*
X107067860Y-50299329D01*
X106798065Y-49895552D01*
X106394288Y-49625757D01*
X105918000Y-49531017D01*
X105441712Y-49625757D01*
X105037935Y-49895552D01*
X104768140Y-50299329D01*
X104673400Y-50775617D01*
X104622600Y-50775617D01*
X104527860Y-50299329D01*
X104258065Y-49895552D01*
X103854288Y-49625757D01*
X103378000Y-49531017D01*
X102901712Y-49625757D01*
X102497935Y-49895552D01*
X102228140Y-50299329D01*
X102133400Y-50775617D01*
X102082600Y-50775617D01*
X101987860Y-50299329D01*
X101718065Y-49895552D01*
X101314288Y-49625757D01*
X100838000Y-49531017D01*
X100361712Y-49625757D01*
X99957935Y-49895552D01*
X99688140Y-50299329D01*
X99593400Y-50775617D01*
X99542600Y-50775617D01*
X99447860Y-50299329D01*
X99178065Y-49895552D01*
X98774288Y-49625757D01*
X98298000Y-49531017D01*
X97821712Y-49625757D01*
X97417935Y-49895552D01*
X97148140Y-50299329D01*
X97053400Y-50775617D01*
X97002600Y-50775617D01*
X96907860Y-50299329D01*
X96638065Y-49895552D01*
X96234288Y-49625757D01*
X95758000Y-49531017D01*
X95281712Y-49625757D01*
X94877935Y-49895552D01*
X94608140Y-50299329D01*
X94513400Y-50775617D01*
X92684600Y-50775617D01*
X92589860Y-50299329D01*
X92320065Y-49895552D01*
X91916288Y-49625757D01*
X91440000Y-49531017D01*
X90963712Y-49625757D01*
X90559935Y-49895552D01*
X90290140Y-50299329D01*
X90195400Y-50775617D01*
X90144600Y-50775617D01*
X90049860Y-50299329D01*
X89780065Y-49895552D01*
X89376288Y-49625757D01*
X88900000Y-49531017D01*
X88423712Y-49625757D01*
X88019935Y-49895552D01*
X87750140Y-50299329D01*
X87655400Y-50775617D01*
X87604600Y-50775617D01*
X87509860Y-50299329D01*
X87240065Y-49895552D01*
X86836288Y-49625757D01*
X86360000Y-49531017D01*
X85883712Y-49625757D01*
X85479935Y-49895552D01*
X85210140Y-50299329D01*
X85115400Y-50775617D01*
X85064600Y-50775617D01*
X84969860Y-50299329D01*
X84700065Y-49895552D01*
X84296288Y-49625757D01*
X83820000Y-49531017D01*
X83343712Y-49625757D01*
X82939935Y-49895552D01*
X82670140Y-50299329D01*
X82575400Y-50775617D01*
X82524600Y-50775617D01*
X82429860Y-50299329D01*
X82160065Y-49895552D01*
X81756288Y-49625757D01*
X81280000Y-49531017D01*
X80803712Y-49625757D01*
X80399935Y-49895552D01*
X80130140Y-50299329D01*
X80035400Y-50775617D01*
X79984600Y-50775617D01*
X79889860Y-50299329D01*
X79620065Y-49895552D01*
X79216288Y-49625757D01*
X78740000Y-49531017D01*
X78263712Y-49625757D01*
X77859935Y-49895552D01*
X77590140Y-50299329D01*
X77495400Y-50775617D01*
X77444600Y-50775617D01*
X77349860Y-50299329D01*
X77080065Y-49895552D01*
X76676288Y-49625757D01*
X76200000Y-49531017D01*
X75723712Y-49625757D01*
X75319935Y-49895552D01*
X75050140Y-50299329D01*
X74955400Y-50775617D01*
X74904600Y-50775617D01*
X74809860Y-50299329D01*
X74540065Y-49895552D01*
X74136288Y-49625757D01*
X73660000Y-49531017D01*
X73183712Y-49625757D01*
X72779935Y-49895552D01*
X72510140Y-50299329D01*
X72415400Y-50775617D01*
X72364600Y-50775617D01*
X72269860Y-50299329D01*
X72000065Y-49895552D01*
X71596288Y-49625757D01*
X71120000Y-49531017D01*
X70643712Y-49625757D01*
X70239935Y-49895552D01*
X69970140Y-50299329D01*
X69875400Y-50775617D01*
X54296647Y-50775617D01*
X54297602Y-49681416D01*
X53769376Y-48403011D01*
X53193371Y-47826000D01*
X114446927Y-47826000D01*
X113874062Y-48397866D01*
X113874062Y-48397866D01*
G37*
X113874062Y-48397866D02*
X113343605Y-49675348D01*
X113342398Y-51058584D01*
X113870624Y-52336989D01*
X114847866Y-53315938D01*
X116125348Y-53846395D01*
X117508584Y-53847602D01*
X118786989Y-53319376D01*
X119364000Y-52743371D01*
X119364000Y-89496927D01*
X118792134Y-88924062D01*
X117514652Y-88393605D01*
X116131416Y-88392398D01*
X114853011Y-88920624D01*
X113874062Y-89897866D01*
X113343605Y-91175348D01*
X113342398Y-92558584D01*
X113870624Y-93836989D01*
X114446629Y-94414000D01*
X53193073Y-94414000D01*
X53765938Y-93842134D01*
X54296395Y-92564652D01*
X54297602Y-91181416D01*
X53769376Y-89903011D01*
X52792134Y-88924062D01*
X51514652Y-88393605D01*
X50131416Y-88392398D01*
X48853011Y-88920624D01*
X48276000Y-89496629D01*
X48276000Y-84988400D01*
X49547936Y-84988400D01*
X49547936Y-86715600D01*
X49574503Y-86856790D01*
X49657946Y-86986465D01*
X49785266Y-87073459D01*
X49936400Y-87104064D01*
X51663600Y-87104064D01*
X51804790Y-87077497D01*
X51934465Y-86994054D01*
X52021459Y-86866734D01*
X52052064Y-86715600D01*
X52052064Y-86614276D01*
X52057312Y-86626947D01*
X52451510Y-87058821D01*
X52980973Y-87306968D01*
X53213000Y-87186469D01*
X53213000Y-85979000D01*
X53467000Y-85979000D01*
X53467000Y-87186469D01*
X53699027Y-87306968D01*
X54093687Y-87122000D01*
X55881017Y-87122000D01*
X55975757Y-87598288D01*
X56245552Y-88002065D01*
X56515000Y-88182104D01*
X56515000Y-88601896D01*
X56245552Y-88781935D01*
X55975757Y-89185712D01*
X55881017Y-89662000D01*
X55975757Y-90138288D01*
X56245552Y-90542065D01*
X56515000Y-90722104D01*
X56515000Y-91141896D01*
X56245552Y-91321935D01*
X55975757Y-91725712D01*
X55881017Y-92202000D01*
X55975757Y-92678288D01*
X56245552Y-93082065D01*
X56649329Y-93351860D01*
X57125617Y-93446600D01*
X57174383Y-93446600D01*
X57650671Y-93351860D01*
X58054448Y-93082065D01*
X58299159Y-92715828D01*
X58407312Y-92976947D01*
X58801510Y-93408821D01*
X59330973Y-93656968D01*
X59563000Y-93536469D01*
X59563000Y-92329000D01*
X59543000Y-92329000D01*
X59543000Y-92075000D01*
X59563000Y-92075000D01*
X59563000Y-89789000D01*
X59543000Y-89789000D01*
X59543000Y-89535000D01*
X59563000Y-89535000D01*
X59563000Y-87249000D01*
X59543000Y-87249000D01*
X59543000Y-86995000D01*
X59563000Y-86995000D01*
X59563000Y-84709000D01*
X59543000Y-84709000D01*
X59543000Y-84455000D01*
X59563000Y-84455000D01*
X59563000Y-83247531D01*
X59817000Y-83247531D01*
X59817000Y-84455000D01*
X59837000Y-84455000D01*
X59837000Y-84709000D01*
X59817000Y-84709000D01*
X59817000Y-86995000D01*
X59837000Y-86995000D01*
X59837000Y-87249000D01*
X59817000Y-87249000D01*
X59817000Y-89535000D01*
X59837000Y-89535000D01*
X59837000Y-89789000D01*
X59817000Y-89789000D01*
X59817000Y-92075000D01*
X59837000Y-92075000D01*
X59837000Y-92329000D01*
X59817000Y-92329000D01*
X59817000Y-93536469D01*
X60049027Y-93656968D01*
X60578490Y-93408821D01*
X60972688Y-92976947D01*
X61010906Y-92884675D01*
X61214803Y-93189828D01*
X61668022Y-93492660D01*
X62202631Y-93599000D01*
X62257369Y-93599000D01*
X62791978Y-93492660D01*
X63245197Y-93189828D01*
X63449094Y-92884675D01*
X63487312Y-92976947D01*
X63881510Y-93408821D01*
X64410973Y-93656968D01*
X64643000Y-93536469D01*
X64643000Y-92329000D01*
X64623000Y-92329000D01*
X64623000Y-92075000D01*
X64643000Y-92075000D01*
X64643000Y-89789000D01*
X64623000Y-89789000D01*
X64623000Y-89535000D01*
X64643000Y-89535000D01*
X64643000Y-87249000D01*
X64623000Y-87249000D01*
X64623000Y-86995000D01*
X64643000Y-86995000D01*
X64643000Y-84709000D01*
X64623000Y-84709000D01*
X64623000Y-84455000D01*
X64643000Y-84455000D01*
X64643000Y-83247531D01*
X64897000Y-83247531D01*
X64897000Y-84455000D01*
X64917000Y-84455000D01*
X64917000Y-84709000D01*
X64897000Y-84709000D01*
X64897000Y-86995000D01*
X64917000Y-86995000D01*
X64917000Y-87249000D01*
X64897000Y-87249000D01*
X64897000Y-89535000D01*
X64917000Y-89535000D01*
X64917000Y-89789000D01*
X64897000Y-89789000D01*
X64897000Y-92075000D01*
X64917000Y-92075000D01*
X64917000Y-92329000D01*
X64897000Y-92329000D01*
X64897000Y-93536469D01*
X65129027Y-93656968D01*
X65658490Y-93408821D01*
X66052688Y-92976947D01*
X66160841Y-92715828D01*
X66405552Y-93082065D01*
X66809329Y-93351860D01*
X67285617Y-93446600D01*
X67334383Y-93446600D01*
X67810671Y-93351860D01*
X68214448Y-93082065D01*
X68459159Y-92715828D01*
X68567312Y-92976947D01*
X68961510Y-93408821D01*
X69490973Y-93656968D01*
X69723000Y-93536469D01*
X69723000Y-92329000D01*
X69703000Y-92329000D01*
X69703000Y-92075000D01*
X69723000Y-92075000D01*
X69723000Y-89789000D01*
X69977000Y-89789000D01*
X69977000Y-92075000D01*
X69997000Y-92075000D01*
X69997000Y-92329000D01*
X69977000Y-92329000D01*
X69977000Y-93536469D01*
X70209027Y-93656968D01*
X70738490Y-93408821D01*
X70788379Y-93354163D01*
X71925443Y-93354163D01*
X72024042Y-93620965D01*
X72633582Y-93847401D01*
X73283377Y-93823341D01*
X73771958Y-93620965D01*
X73870557Y-93354163D01*
X72898000Y-92381605D01*
X71925443Y-93354163D01*
X70788379Y-93354163D01*
X71132688Y-92976947D01*
X71285352Y-92608363D01*
X71479035Y-93075958D01*
X71745837Y-93174557D01*
X72718395Y-92202000D01*
X73077605Y-92202000D01*
X74050163Y-93174557D01*
X74316965Y-93075958D01*
X74348095Y-92992159D01*
X93385446Y-92992159D01*
X93471852Y-93248643D01*
X94045336Y-93458458D01*
X94655460Y-93432839D01*
X95100148Y-93248643D01*
X95186554Y-92992159D01*
X99885446Y-92992159D01*
X99971852Y-93248643D01*
X100545336Y-93458458D01*
X101155460Y-93432839D01*
X101600148Y-93248643D01*
X101686554Y-92992159D01*
X102529446Y-92992159D01*
X102615852Y-93248643D01*
X103189336Y-93458458D01*
X103799460Y-93432839D01*
X104244148Y-93248643D01*
X104330554Y-92992159D01*
X109029446Y-92992159D01*
X109115852Y-93248643D01*
X109689336Y-93458458D01*
X110299460Y-93432839D01*
X110744148Y-93248643D01*
X110830554Y-92992159D01*
X109930000Y-92091605D01*
X109029446Y-92992159D01*
X104330554Y-92992159D01*
X103430000Y-92091605D01*
X102529446Y-92992159D01*
X101686554Y-92992159D01*
X100786000Y-92091605D01*
X99885446Y-92992159D01*
X95186554Y-92992159D01*
X94286000Y-92091605D01*
X93385446Y-92992159D01*
X74348095Y-92992159D01*
X74543401Y-92466418D01*
X74519341Y-91816623D01*
X74459162Y-91671336D01*
X92739542Y-91671336D01*
X92765161Y-92281460D01*
X92949357Y-92726148D01*
X93205841Y-92812554D01*
X94106395Y-91912000D01*
X94465605Y-91912000D01*
X95366159Y-92812554D01*
X95622643Y-92726148D01*
X95832458Y-92152664D01*
X95812248Y-91671336D01*
X99239542Y-91671336D01*
X99265161Y-92281460D01*
X99449357Y-92726148D01*
X99705841Y-92812554D01*
X100606395Y-91912000D01*
X100965605Y-91912000D01*
X101866159Y-92812554D01*
X102108000Y-92731081D01*
X102349841Y-92812554D01*
X103250395Y-91912000D01*
X103609605Y-91912000D01*
X104510159Y-92812554D01*
X104766643Y-92726148D01*
X104976458Y-92152664D01*
X104956248Y-91671336D01*
X108383542Y-91671336D01*
X108409161Y-92281460D01*
X108593357Y-92726148D01*
X108849841Y-92812554D01*
X109750395Y-91912000D01*
X110109605Y-91912000D01*
X111010159Y-92812554D01*
X111266643Y-92726148D01*
X111476458Y-92152664D01*
X111450839Y-91542540D01*
X111266643Y-91097852D01*
X111010159Y-91011446D01*
X110109605Y-91912000D01*
X109750395Y-91912000D01*
X108849841Y-91011446D01*
X108593357Y-91097852D01*
X108383542Y-91671336D01*
X104956248Y-91671336D01*
X104950839Y-91542540D01*
X104766643Y-91097852D01*
X104510159Y-91011446D01*
X103609605Y-91912000D01*
X103250395Y-91912000D01*
X102349841Y-91011446D01*
X102108000Y-91092919D01*
X101866159Y-91011446D01*
X100965605Y-91912000D01*
X100606395Y-91912000D01*
X99705841Y-91011446D01*
X99449357Y-91097852D01*
X99239542Y-91671336D01*
X95812248Y-91671336D01*
X95806839Y-91542540D01*
X95622643Y-91097852D01*
X95366159Y-91011446D01*
X94465605Y-91912000D01*
X94106395Y-91912000D01*
X93205841Y-91011446D01*
X92949357Y-91097852D01*
X92739542Y-91671336D01*
X74459162Y-91671336D01*
X74316965Y-91328042D01*
X74050163Y-91229443D01*
X73077605Y-92202000D01*
X72718395Y-92202000D01*
X71745837Y-91229443D01*
X71479035Y-91328042D01*
X71295884Y-91821065D01*
X71132688Y-91427053D01*
X70788380Y-91049837D01*
X71925443Y-91049837D01*
X72898000Y-92022395D01*
X73870557Y-91049837D01*
X73771958Y-90783035D01*
X73162418Y-90556599D01*
X72512623Y-90580659D01*
X72024042Y-90783035D01*
X71925443Y-91049837D01*
X70788380Y-91049837D01*
X70738490Y-90995179D01*
X70603687Y-90932000D01*
X70738490Y-90868821D01*
X71132688Y-90436947D01*
X71153641Y-90386359D01*
X78866802Y-90386359D01*
X79040446Y-90806612D01*
X79361697Y-91128423D01*
X79781646Y-91302801D01*
X80236359Y-91303198D01*
X80656612Y-91129554D01*
X80954843Y-90831841D01*
X93385446Y-90831841D01*
X94286000Y-91732395D01*
X95186554Y-90831841D01*
X99885446Y-90831841D01*
X100786000Y-91732395D01*
X101686554Y-90831841D01*
X102529446Y-90831841D01*
X103430000Y-91732395D01*
X104330554Y-90831841D01*
X109029446Y-90831841D01*
X109930000Y-91732395D01*
X110830554Y-90831841D01*
X110744148Y-90575357D01*
X110170664Y-90365542D01*
X109560540Y-90391161D01*
X109115852Y-90575357D01*
X109029446Y-90831841D01*
X104330554Y-90831841D01*
X104244148Y-90575357D01*
X103670664Y-90365542D01*
X103060540Y-90391161D01*
X102615852Y-90575357D01*
X102529446Y-90831841D01*
X101686554Y-90831841D01*
X101600148Y-90575357D01*
X101026664Y-90365542D01*
X100416540Y-90391161D01*
X99971852Y-90575357D01*
X99885446Y-90831841D01*
X95186554Y-90831841D01*
X95100148Y-90575357D01*
X94526664Y-90365542D01*
X93916540Y-90391161D01*
X93471852Y-90575357D01*
X93385446Y-90831841D01*
X80954843Y-90831841D01*
X80978423Y-90808303D01*
X81152801Y-90388354D01*
X81153198Y-89933641D01*
X80979554Y-89513388D01*
X80658303Y-89191577D01*
X80238354Y-89017199D01*
X79783641Y-89016802D01*
X79363388Y-89190446D01*
X79041577Y-89511697D01*
X78867199Y-89931646D01*
X78866802Y-90386359D01*
X71153641Y-90386359D01*
X71304958Y-90021026D01*
X71183817Y-89789000D01*
X69977000Y-89789000D01*
X69723000Y-89789000D01*
X69703000Y-89789000D01*
X69703000Y-89535000D01*
X69723000Y-89535000D01*
X69723000Y-87249000D01*
X69977000Y-87249000D01*
X69977000Y-89535000D01*
X71183817Y-89535000D01*
X71304958Y-89302974D01*
X71132688Y-88887053D01*
X70738490Y-88455179D01*
X70603687Y-88392000D01*
X70738490Y-88328821D01*
X71132688Y-87896947D01*
X71292205Y-87511816D01*
X83642081Y-87511816D01*
X83746268Y-87763967D01*
X83939018Y-87957054D01*
X84190987Y-88061681D01*
X84463816Y-88061919D01*
X84715967Y-87957732D01*
X84753765Y-87920000D01*
X93109857Y-87920000D01*
X93199388Y-88136680D01*
X93559425Y-88497345D01*
X94030076Y-88692777D01*
X94539689Y-88693222D01*
X95010680Y-88498612D01*
X95371345Y-88138575D01*
X95566777Y-87667924D01*
X95567222Y-87158311D01*
X95372612Y-86687320D01*
X95045862Y-86360000D01*
X100026648Y-86360000D01*
X99700655Y-86685425D01*
X99505223Y-87156076D01*
X99504778Y-87665689D01*
X99699388Y-88136680D01*
X100059425Y-88497345D01*
X100530076Y-88692777D01*
X101039689Y-88693222D01*
X101461337Y-88519000D01*
X102755576Y-88519000D01*
X103174076Y-88692777D01*
X103683689Y-88693222D01*
X104154680Y-88498612D01*
X104515345Y-88138575D01*
X104710777Y-87667924D01*
X104710778Y-87665689D01*
X108648778Y-87665689D01*
X108843388Y-88136680D01*
X109203425Y-88497345D01*
X109674076Y-88692777D01*
X110183689Y-88693222D01*
X110654680Y-88498612D01*
X111015345Y-88138575D01*
X111210777Y-87667924D01*
X111211222Y-87158311D01*
X111016612Y-86687320D01*
X110656575Y-86326655D01*
X110185924Y-86131223D01*
X109676311Y-86130778D01*
X109205320Y-86325388D01*
X108844655Y-86685425D01*
X108649223Y-87156076D01*
X108648778Y-87665689D01*
X104710778Y-87665689D01*
X104711222Y-87158311D01*
X104516612Y-86687320D01*
X104156575Y-86326655D01*
X103685924Y-86131223D01*
X103176311Y-86130778D01*
X102946255Y-86225835D01*
X102600579Y-85880159D01*
X110149446Y-85880159D01*
X110235852Y-86136643D01*
X110809336Y-86346458D01*
X111419460Y-86320839D01*
X111864148Y-86136643D01*
X111950554Y-85880159D01*
X116649446Y-85880159D01*
X116735852Y-86136643D01*
X117309336Y-86346458D01*
X117919460Y-86320839D01*
X118364148Y-86136643D01*
X118450554Y-85880159D01*
X117550000Y-84979605D01*
X116649446Y-85880159D01*
X111950554Y-85880159D01*
X111050000Y-84979605D01*
X110149446Y-85880159D01*
X102600579Y-85880159D01*
X102213210Y-85492790D01*
X102048403Y-85382669D01*
X101854000Y-85344000D01*
X85043908Y-85344000D01*
X84970982Y-85270946D01*
X84719013Y-85166319D01*
X84446184Y-85166081D01*
X84194033Y-85270268D01*
X84000946Y-85463018D01*
X83896319Y-85714987D01*
X83896081Y-85987816D01*
X84000268Y-86239967D01*
X84193018Y-86433054D01*
X84201000Y-86436368D01*
X84201000Y-86690089D01*
X84192184Y-86690081D01*
X83940033Y-86794268D01*
X83746946Y-86987018D01*
X83642319Y-87238987D01*
X83642081Y-87511816D01*
X71292205Y-87511816D01*
X71304958Y-87481026D01*
X71183817Y-87249000D01*
X69977000Y-87249000D01*
X69723000Y-87249000D01*
X69703000Y-87249000D01*
X69703000Y-86995000D01*
X69723000Y-86995000D01*
X69723000Y-84709000D01*
X69977000Y-84709000D01*
X69977000Y-86995000D01*
X71183817Y-86995000D01*
X71304958Y-86762974D01*
X71132688Y-86347053D01*
X70738490Y-85915179D01*
X70603687Y-85852000D01*
X70738490Y-85788821D01*
X71132688Y-85356947D01*
X71304958Y-84941026D01*
X71183817Y-84709000D01*
X69977000Y-84709000D01*
X69723000Y-84709000D01*
X69703000Y-84709000D01*
X69703000Y-84559336D01*
X109503542Y-84559336D01*
X109529161Y-85169460D01*
X109713357Y-85614148D01*
X109969841Y-85700554D01*
X110870395Y-84800000D01*
X111229605Y-84800000D01*
X112130159Y-85700554D01*
X112386643Y-85614148D01*
X112596458Y-85040664D01*
X112576248Y-84559336D01*
X116003542Y-84559336D01*
X116029161Y-85169460D01*
X116213357Y-85614148D01*
X116469841Y-85700554D01*
X117370395Y-84800000D01*
X117729605Y-84800000D01*
X118630159Y-85700554D01*
X118886643Y-85614148D01*
X119096458Y-85040664D01*
X119070839Y-84430540D01*
X118886643Y-83985852D01*
X118630159Y-83899446D01*
X117729605Y-84800000D01*
X117370395Y-84800000D01*
X116469841Y-83899446D01*
X116213357Y-83985852D01*
X116003542Y-84559336D01*
X112576248Y-84559336D01*
X112570839Y-84430540D01*
X112386643Y-83985852D01*
X112130159Y-83899446D01*
X111229605Y-84800000D01*
X110870395Y-84800000D01*
X109969841Y-83899446D01*
X109713357Y-83985852D01*
X109503542Y-84559336D01*
X69703000Y-84559336D01*
X69703000Y-84455000D01*
X69723000Y-84455000D01*
X69723000Y-83247531D01*
X69977000Y-83247531D01*
X69977000Y-84455000D01*
X71183817Y-84455000D01*
X71304958Y-84222974D01*
X71132688Y-83807053D01*
X71053085Y-83719841D01*
X110149446Y-83719841D01*
X111050000Y-84620395D01*
X111950554Y-83719841D01*
X116649446Y-83719841D01*
X117550000Y-84620395D01*
X118450554Y-83719841D01*
X118364148Y-83463357D01*
X117790664Y-83253542D01*
X117180540Y-83279161D01*
X116735852Y-83463357D01*
X116649446Y-83719841D01*
X111950554Y-83719841D01*
X111864148Y-83463357D01*
X111290664Y-83253542D01*
X110680540Y-83279161D01*
X110235852Y-83463357D01*
X110149446Y-83719841D01*
X71053085Y-83719841D01*
X70738490Y-83375179D01*
X70209027Y-83127032D01*
X69977000Y-83247531D01*
X69723000Y-83247531D01*
X69490973Y-83127032D01*
X68961510Y-83375179D01*
X68567312Y-83807053D01*
X68562064Y-83819724D01*
X68562064Y-83718400D01*
X68535497Y-83577210D01*
X68452054Y-83447535D01*
X68324734Y-83360541D01*
X68173600Y-83329936D01*
X66446400Y-83329936D01*
X66305210Y-83356503D01*
X66175535Y-83439946D01*
X66088541Y-83567266D01*
X66057936Y-83718400D01*
X66057936Y-83819724D01*
X66052688Y-83807053D01*
X65658490Y-83375179D01*
X65129027Y-83127032D01*
X64897000Y-83247531D01*
X64643000Y-83247531D01*
X64410973Y-83127032D01*
X63881510Y-83375179D01*
X63625619Y-83655527D01*
X63600256Y-83520734D01*
X63483435Y-83339190D01*
X63305188Y-83217399D01*
X63093600Y-83174551D01*
X61366400Y-83174551D01*
X61168734Y-83211744D01*
X60987190Y-83328565D01*
X60865399Y-83506812D01*
X60835119Y-83656336D01*
X60578490Y-83375179D01*
X60049027Y-83127032D01*
X59817000Y-83247531D01*
X59563000Y-83247531D01*
X59330973Y-83127032D01*
X58801510Y-83375179D01*
X58407312Y-83807053D01*
X58402064Y-83819724D01*
X58402064Y-83718400D01*
X58375497Y-83577210D01*
X58292054Y-83447535D01*
X58164734Y-83360541D01*
X58013600Y-83329936D01*
X56286400Y-83329936D01*
X56145210Y-83356503D01*
X56015535Y-83439946D01*
X55928541Y-83567266D01*
X55897936Y-83718400D01*
X55897936Y-85445600D01*
X55924503Y-85586790D01*
X56007946Y-85716465D01*
X56135266Y-85803459D01*
X56286400Y-85834064D01*
X56515000Y-85834064D01*
X56515000Y-86061896D01*
X56245552Y-86241935D01*
X55975757Y-86645712D01*
X55881017Y-87122000D01*
X54093687Y-87122000D01*
X54228490Y-87058821D01*
X54622688Y-86626947D01*
X54794958Y-86211026D01*
X54673817Y-85979000D01*
X53467000Y-85979000D01*
X53213000Y-85979000D01*
X53193000Y-85979000D01*
X53193000Y-85725000D01*
X53213000Y-85725000D01*
X53213000Y-84517531D01*
X53467000Y-84517531D01*
X53467000Y-85725000D01*
X54673817Y-85725000D01*
X54794958Y-85492974D01*
X54622688Y-85077053D01*
X54228490Y-84645179D01*
X53699027Y-84397032D01*
X53467000Y-84517531D01*
X53213000Y-84517531D01*
X52980973Y-84397032D01*
X52451510Y-84645179D01*
X52057312Y-85077053D01*
X52052064Y-85089724D01*
X52052064Y-84988400D01*
X52025497Y-84847210D01*
X51942054Y-84717535D01*
X51814734Y-84630541D01*
X51663600Y-84599936D01*
X49936400Y-84599936D01*
X49795210Y-84626503D01*
X49665535Y-84709946D01*
X49578541Y-84837266D01*
X49547936Y-84988400D01*
X48276000Y-84988400D01*
X48276000Y-82786359D01*
X78866802Y-82786359D01*
X79040446Y-83206612D01*
X79361697Y-83528423D01*
X79781646Y-83702801D01*
X80236359Y-83703198D01*
X80656612Y-83529554D01*
X80978423Y-83208303D01*
X81152801Y-82788354D01*
X81153198Y-82333641D01*
X80979554Y-81913388D01*
X80658303Y-81591577D01*
X80238354Y-81417199D01*
X79783641Y-81416802D01*
X79363388Y-81590446D01*
X79041577Y-81911697D01*
X78867199Y-82331646D01*
X78866802Y-82786359D01*
X48276000Y-82786359D01*
X48276000Y-75380178D01*
X49301228Y-75380178D01*
X49451721Y-75744397D01*
X49730138Y-76023300D01*
X50094093Y-76174428D01*
X50096987Y-76174431D01*
X51468514Y-77937823D01*
X51504642Y-77969090D01*
X51531185Y-78008815D01*
X51616102Y-78065555D01*
X51693328Y-78132391D01*
X51738669Y-78147452D01*
X51778395Y-78173996D01*
X51878562Y-78193920D01*
X51975486Y-78226116D01*
X52023141Y-78222679D01*
X52070000Y-78232000D01*
X52297152Y-78232000D01*
X51853320Y-78415388D01*
X51492655Y-78775425D01*
X51297223Y-79246076D01*
X51296778Y-79755689D01*
X51491388Y-80226680D01*
X51851425Y-80587345D01*
X52322076Y-80782777D01*
X52831689Y-80783222D01*
X53302680Y-80588612D01*
X53663345Y-80228575D01*
X53848213Y-79783364D01*
X54031388Y-80226680D01*
X54391425Y-80587345D01*
X54862076Y-80782777D01*
X55371689Y-80783222D01*
X55842680Y-80588612D01*
X56203345Y-80228575D01*
X56398777Y-79757924D01*
X56399222Y-79248311D01*
X56204612Y-78777320D01*
X55883948Y-78456096D01*
X86724294Y-78456096D01*
X86896202Y-78872146D01*
X87214240Y-79190739D01*
X87629989Y-79363373D01*
X88080156Y-79363766D01*
X88496206Y-79191858D01*
X88814799Y-78873820D01*
X88987433Y-78458071D01*
X88987434Y-78456096D01*
X91606174Y-78456096D01*
X91778082Y-78872146D01*
X92096120Y-79190739D01*
X92511869Y-79363373D01*
X92962036Y-79363766D01*
X93378086Y-79191858D01*
X93696679Y-78873820D01*
X93869313Y-78458071D01*
X93869706Y-78007904D01*
X93697798Y-77591854D01*
X93379760Y-77273261D01*
X92964011Y-77100627D01*
X92513844Y-77100234D01*
X92097794Y-77272142D01*
X91779201Y-77590180D01*
X91606567Y-78005929D01*
X91606174Y-78456096D01*
X88987434Y-78456096D01*
X88987826Y-78007904D01*
X88815918Y-77591854D01*
X88497880Y-77273261D01*
X88082131Y-77100627D01*
X87631964Y-77100234D01*
X87215914Y-77272142D01*
X86897321Y-77590180D01*
X86724687Y-78005929D01*
X86724294Y-78456096D01*
X55883948Y-78456096D01*
X55844575Y-78416655D01*
X55399878Y-78232000D01*
X61976000Y-78232000D01*
X62267605Y-78173996D01*
X62514815Y-78008815D01*
X63840954Y-76682677D01*
X63950178Y-76682772D01*
X64314397Y-76532279D01*
X64593300Y-76253862D01*
X64676290Y-76054000D01*
X78713536Y-76054000D01*
X78713536Y-76854000D01*
X78740103Y-76995190D01*
X78823546Y-77124865D01*
X78950866Y-77211859D01*
X79102000Y-77242464D01*
X79902000Y-77242464D01*
X80043190Y-77215897D01*
X80058486Y-77206054D01*
X80107008Y-77263468D01*
X80465875Y-77448679D01*
X80625000Y-77322443D01*
X80625000Y-76581000D01*
X80879000Y-76581000D01*
X80879000Y-77322443D01*
X81038125Y-77448679D01*
X81396992Y-77263468D01*
X81657665Y-76955023D01*
X81746666Y-76740123D01*
X81618998Y-76581000D01*
X80879000Y-76581000D01*
X80625000Y-76581000D01*
X80605000Y-76581000D01*
X80605000Y-76327000D01*
X80625000Y-76327000D01*
X80625000Y-75585557D01*
X80879000Y-75585557D01*
X80879000Y-76327000D01*
X81618998Y-76327000D01*
X81746666Y-76167877D01*
X81657665Y-75952977D01*
X81396992Y-75644532D01*
X81038125Y-75459321D01*
X80879000Y-75585557D01*
X80625000Y-75585557D01*
X80465875Y-75459321D01*
X80107008Y-75644532D01*
X80059637Y-75700584D01*
X80053134Y-75696141D01*
X80010000Y-75687406D01*
X80010000Y-74886420D01*
X80804591Y-74091829D01*
X80907816Y-74091919D01*
X81159967Y-73987732D01*
X81353054Y-73794982D01*
X81457681Y-73543013D01*
X81457919Y-73270184D01*
X81353732Y-73018033D01*
X81160982Y-72824946D01*
X80909013Y-72720319D01*
X80636184Y-72720081D01*
X80384033Y-72824268D01*
X80190946Y-73017018D01*
X80086319Y-73268987D01*
X80086228Y-73373352D01*
X79142790Y-74316790D01*
X79032669Y-74481597D01*
X78994000Y-74676000D01*
X78994000Y-75685858D01*
X78960810Y-75692103D01*
X78831135Y-75775546D01*
X78744141Y-75902866D01*
X78713536Y-76054000D01*
X64676290Y-76054000D01*
X64744428Y-75889907D01*
X64744772Y-75495822D01*
X64594279Y-75131603D01*
X64315862Y-74852700D01*
X63951907Y-74701572D01*
X63557822Y-74701228D01*
X63193603Y-74851721D01*
X62914700Y-75130138D01*
X62763572Y-75494093D01*
X62763475Y-75604894D01*
X61660370Y-76708000D01*
X52442682Y-76708000D01*
X51282572Y-75216431D01*
X51282772Y-74987822D01*
X51132279Y-74623603D01*
X50853862Y-74344700D01*
X50489907Y-74193572D01*
X50095822Y-74193228D01*
X49731603Y-74343721D01*
X49452700Y-74622138D01*
X49301572Y-74986093D01*
X49301228Y-75380178D01*
X48276000Y-75380178D01*
X48276000Y-70747816D01*
X67640081Y-70747816D01*
X67744268Y-70999967D01*
X67937018Y-71193054D01*
X68188987Y-71297681D01*
X68419462Y-71297882D01*
X68506268Y-71507967D01*
X68699018Y-71701054D01*
X68950987Y-71805681D01*
X69223816Y-71805919D01*
X69475967Y-71701732D01*
X69549828Y-71628000D01*
X84628092Y-71628000D01*
X84701018Y-71701054D01*
X84952987Y-71805681D01*
X85225816Y-71805919D01*
X85477967Y-71701732D01*
X85671054Y-71508982D01*
X85775681Y-71257013D01*
X85775919Y-70984184D01*
X85725000Y-70860951D01*
X85725000Y-70104000D01*
X92245580Y-70104000D01*
X92786171Y-70644591D01*
X92786081Y-70747816D01*
X92890268Y-70999967D01*
X93083018Y-71193054D01*
X93334987Y-71297681D01*
X93607816Y-71297919D01*
X93859967Y-71193732D01*
X94053054Y-71000982D01*
X94157681Y-70749013D01*
X94157919Y-70476184D01*
X94053732Y-70224033D01*
X93860982Y-70030946D01*
X93609013Y-69926319D01*
X93504648Y-69926228D01*
X92815210Y-69236790D01*
X92650403Y-69126669D01*
X92456000Y-69088000D01*
X69342000Y-69088000D01*
X69147597Y-69126669D01*
X68982790Y-69236790D01*
X68293409Y-69926171D01*
X68190184Y-69926081D01*
X67938033Y-70030268D01*
X67744946Y-70223018D01*
X67640319Y-70474987D01*
X67640081Y-70747816D01*
X48276000Y-70747816D01*
X48276000Y-64397816D01*
X73482081Y-64397816D01*
X73586268Y-64649967D01*
X73779018Y-64843054D01*
X74030987Y-64947681D01*
X74303816Y-64947919D01*
X74555967Y-64843732D01*
X74629828Y-64770000D01*
X83355580Y-64770000D01*
X85674171Y-67088591D01*
X85674081Y-67191816D01*
X85778268Y-67443967D01*
X85971018Y-67637054D01*
X86222987Y-67741681D01*
X86495816Y-67741919D01*
X86747967Y-67637732D01*
X86941054Y-67444982D01*
X87045681Y-67193013D01*
X87045714Y-67154902D01*
X87072590Y-67172994D01*
X87122000Y-67183000D01*
X89154000Y-67183000D01*
X89198520Y-67174941D01*
X89241287Y-67148249D01*
X89270300Y-67107022D01*
X89280988Y-67057754D01*
X89271666Y-67008211D01*
X89252882Y-66979887D01*
X89289816Y-66979919D01*
X89541967Y-66875732D01*
X89735054Y-66682982D01*
X89839681Y-66431013D01*
X89839919Y-66158184D01*
X89735732Y-65906033D01*
X89542982Y-65712946D01*
X89291013Y-65608319D01*
X89186648Y-65608228D01*
X88094420Y-64516000D01*
X92248092Y-64516000D01*
X92248132Y-64516040D01*
X92128946Y-64635018D01*
X92024319Y-64886987D01*
X92024081Y-65159816D01*
X92128268Y-65411967D01*
X92321018Y-65605054D01*
X92572987Y-65709681D01*
X92845816Y-65709919D01*
X93097967Y-65605732D01*
X93171828Y-65532000D01*
X93261580Y-65532000D01*
X94681494Y-66951914D01*
X94608033Y-66982268D01*
X94414946Y-67175018D01*
X94310319Y-67426987D01*
X94310081Y-67699816D01*
X94414268Y-67951967D01*
X94534092Y-68072000D01*
X94187908Y-68072000D01*
X94114982Y-67998946D01*
X93863013Y-67894319D01*
X93590184Y-67894081D01*
X93338033Y-67998268D01*
X93144946Y-68191018D01*
X93040319Y-68442987D01*
X93040081Y-68715816D01*
X93144268Y-68967967D01*
X93337018Y-69161054D01*
X93588987Y-69265681D01*
X93861816Y-69265919D01*
X94113967Y-69161732D01*
X94187828Y-69088000D01*
X95293580Y-69088000D01*
X95694454Y-69488874D01*
X95669447Y-69504965D01*
X95641006Y-69546590D01*
X95631000Y-69596000D01*
X95631000Y-72974310D01*
X95368184Y-72974081D01*
X95116033Y-73078268D01*
X94922946Y-73271018D01*
X94818319Y-73522987D01*
X94818118Y-73753462D01*
X94608033Y-73840268D01*
X94414946Y-74033018D01*
X94310319Y-74284987D01*
X94310118Y-74515462D01*
X94100033Y-74602268D01*
X93906946Y-74795018D01*
X93802319Y-75046987D01*
X93802081Y-75319816D01*
X93906268Y-75571967D01*
X94099018Y-75765054D01*
X94350987Y-75869681D01*
X94623816Y-75869919D01*
X94875967Y-75765732D01*
X94949828Y-75692000D01*
X104186092Y-75692000D01*
X104259018Y-75765054D01*
X104510987Y-75869681D01*
X104783816Y-75869919D01*
X105035967Y-75765732D01*
X105229054Y-75572982D01*
X105333681Y-75321013D01*
X105333697Y-75302117D01*
X109859132Y-79827552D01*
X109769223Y-80044076D01*
X109768778Y-80553689D01*
X109963388Y-81024680D01*
X110323425Y-81385345D01*
X110794076Y-81580777D01*
X111303689Y-81581222D01*
X111774680Y-81386612D01*
X112135345Y-81026575D01*
X112330777Y-80555924D01*
X112330778Y-80553689D01*
X116268778Y-80553689D01*
X116463388Y-81024680D01*
X116823425Y-81385345D01*
X117294076Y-81580777D01*
X117803689Y-81581222D01*
X118274680Y-81386612D01*
X118635345Y-81026575D01*
X118830777Y-80555924D01*
X118831222Y-80046311D01*
X118636612Y-79575320D01*
X118276575Y-79214655D01*
X117805924Y-79019223D01*
X117296311Y-79018778D01*
X116825320Y-79213388D01*
X116464655Y-79573425D01*
X116269223Y-80044076D01*
X116268778Y-80553689D01*
X112330778Y-80553689D01*
X112331222Y-80046311D01*
X112136612Y-79575320D01*
X111776575Y-79214655D01*
X111305924Y-79019223D01*
X110796311Y-79018778D01*
X110577577Y-79109157D01*
X109093000Y-77624580D01*
X109093000Y-72344188D01*
X109195617Y-72364600D01*
X109244383Y-72364600D01*
X109720671Y-72269860D01*
X109730938Y-72263000D01*
X111249062Y-72263000D01*
X111259329Y-72269860D01*
X111735617Y-72364600D01*
X111784383Y-72364600D01*
X112260671Y-72269860D01*
X112664448Y-72000065D01*
X112934243Y-71596288D01*
X113028983Y-71120000D01*
X112934243Y-70643712D01*
X112743336Y-70358000D01*
X113284000Y-70358000D01*
X113478403Y-70319331D01*
X113643210Y-70209210D01*
X114332591Y-69519829D01*
X114435816Y-69519919D01*
X114687967Y-69415732D01*
X114881054Y-69222982D01*
X114985681Y-68971013D01*
X114985919Y-68698184D01*
X114881732Y-68446033D01*
X114688982Y-68252946D01*
X114592658Y-68212948D01*
X114643803Y-68161803D01*
X114669584Y-68124623D01*
X114680952Y-68075509D01*
X114672315Y-68025841D01*
X114645035Y-67983447D01*
X114603410Y-67955006D01*
X114554000Y-67945000D01*
X112828195Y-67945000D01*
X112664448Y-67699935D01*
X112649000Y-67689613D01*
X112649000Y-66930387D01*
X112664448Y-66920065D01*
X112934243Y-66516288D01*
X113028983Y-66040000D01*
X112937638Y-65580782D01*
X113113421Y-65405000D01*
X115493602Y-65405000D01*
X115351171Y-65748011D01*
X115350830Y-66138277D01*
X115499864Y-66498966D01*
X115775583Y-66775166D01*
X116136011Y-66924829D01*
X116526277Y-66925170D01*
X116886966Y-66776136D01*
X117163166Y-66500417D01*
X117312829Y-66139989D01*
X117313170Y-65749723D01*
X117164136Y-65389034D01*
X116969344Y-65193902D01*
X117163166Y-65000417D01*
X117312829Y-64639989D01*
X117313170Y-64249723D01*
X117164136Y-63889034D01*
X116888417Y-63612834D01*
X116773519Y-63565124D01*
X116459000Y-63250605D01*
X116459000Y-62944000D01*
X116511605Y-62944000D01*
X117194735Y-63627130D01*
X117420164Y-63577617D01*
X117579807Y-63112964D01*
X117549482Y-62622587D01*
X117420164Y-62310383D01*
X117194735Y-62260870D01*
X116511605Y-62944000D01*
X116459000Y-62944000D01*
X116459000Y-62637395D01*
X116773288Y-62323107D01*
X116886966Y-62276136D01*
X117163166Y-62000417D01*
X117312829Y-61639989D01*
X117313170Y-61249723D01*
X117164136Y-60889034D01*
X116969344Y-60693902D01*
X117163166Y-60500417D01*
X117312829Y-60139989D01*
X117313170Y-59749723D01*
X117164136Y-59389034D01*
X116888417Y-59112834D01*
X116527989Y-58963171D01*
X116137723Y-58962830D01*
X115879827Y-59069391D01*
X115873410Y-59065006D01*
X115824000Y-59055000D01*
X114985690Y-59055000D01*
X114985919Y-58792184D01*
X114881732Y-58540033D01*
X114688982Y-58346946D01*
X114437013Y-58242319D01*
X114332648Y-58242228D01*
X112627210Y-56536790D01*
X112462403Y-56426669D01*
X112268000Y-56388000D01*
X94742000Y-56388000D01*
X94547596Y-56426669D01*
X94382790Y-56536790D01*
X89375409Y-61544171D01*
X89272184Y-61544081D01*
X89020033Y-61648268D01*
X88826946Y-61841018D01*
X88722319Y-62092987D01*
X88722081Y-62365816D01*
X88770914Y-62484000D01*
X87586421Y-62484000D01*
X87227210Y-62124790D01*
X87062403Y-62014669D01*
X86868000Y-61976000D01*
X78446000Y-61976000D01*
X78446000Y-61808236D01*
X78484966Y-61792136D01*
X78761166Y-61516417D01*
X78910829Y-61155989D01*
X78911170Y-60765723D01*
X78762136Y-60405034D01*
X78486417Y-60128834D01*
X78125989Y-59979171D01*
X77735723Y-59978830D01*
X77375034Y-60127864D01*
X77179902Y-60322656D01*
X76986417Y-60128834D01*
X76625989Y-59979171D01*
X76235723Y-59978830D01*
X75875034Y-60127864D01*
X75598834Y-60403583D01*
X75551124Y-60518481D01*
X75109605Y-60960000D01*
X75123748Y-60974143D01*
X74944143Y-61153748D01*
X74930000Y-61139605D01*
X74246870Y-61822735D01*
X74296383Y-62048164D01*
X74761036Y-62207807D01*
X75057000Y-62189505D01*
X75057000Y-62915632D01*
X74813013Y-62814319D01*
X74540184Y-62814081D01*
X74288033Y-62918268D01*
X74094946Y-63111018D01*
X73990319Y-63362987D01*
X73990118Y-63593462D01*
X73780033Y-63680268D01*
X73586946Y-63873018D01*
X73482319Y-64124987D01*
X73482081Y-64397816D01*
X48276000Y-64397816D01*
X48276000Y-60791036D01*
X73682193Y-60791036D01*
X73712518Y-61281413D01*
X73841836Y-61593617D01*
X74067265Y-61643130D01*
X74750395Y-60960000D01*
X74067265Y-60276870D01*
X73841836Y-60326383D01*
X73682193Y-60791036D01*
X48276000Y-60791036D01*
X48276000Y-60097265D01*
X74246870Y-60097265D01*
X74930000Y-60780395D01*
X75613130Y-60097265D01*
X75563617Y-59871836D01*
X75098964Y-59712193D01*
X74608587Y-59742518D01*
X74296383Y-59871836D01*
X74246870Y-60097265D01*
X48276000Y-60097265D01*
X48276000Y-57539816D01*
X70180081Y-57539816D01*
X70284268Y-57791967D01*
X70477018Y-57985054D01*
X70728987Y-58089681D01*
X71001816Y-58089919D01*
X71253967Y-57985732D01*
X71328001Y-57911827D01*
X86400275Y-57906173D01*
X86479018Y-57985054D01*
X86730987Y-58089681D01*
X87003816Y-58089919D01*
X87255967Y-57985732D01*
X87449054Y-57792982D01*
X87553681Y-57541013D01*
X87553919Y-57268184D01*
X87449732Y-57016033D01*
X87256982Y-56822946D01*
X87005013Y-56718319D01*
X86732184Y-56718081D01*
X86480033Y-56822268D01*
X86412014Y-56890169D01*
X71327736Y-56895827D01*
X71254982Y-56822946D01*
X71003013Y-56718319D01*
X70730184Y-56718081D01*
X70478033Y-56822268D01*
X70284946Y-57015018D01*
X70180319Y-57266987D01*
X70180081Y-57539816D01*
X48276000Y-57539816D01*
X48276000Y-52743073D01*
X48847866Y-53315938D01*
X50125348Y-53846395D01*
X51508584Y-53847602D01*
X52786989Y-53319376D01*
X53631437Y-52476400D01*
X69867936Y-52476400D01*
X69867936Y-54203600D01*
X69894503Y-54344790D01*
X69977946Y-54474465D01*
X70105266Y-54561459D01*
X70256400Y-54592064D01*
X71983600Y-54592064D01*
X72124790Y-54565497D01*
X72254465Y-54482054D01*
X72341459Y-54354734D01*
X72372064Y-54203600D01*
X72372064Y-53315617D01*
X72415400Y-53315617D01*
X72415400Y-53364383D01*
X72510140Y-53840671D01*
X72779935Y-54244448D01*
X73183712Y-54514243D01*
X73660000Y-54608983D01*
X74136288Y-54514243D01*
X74540065Y-54244448D01*
X74809860Y-53840671D01*
X74904600Y-53364383D01*
X74904600Y-53315617D01*
X74955400Y-53315617D01*
X74955400Y-53364383D01*
X75050140Y-53840671D01*
X75319935Y-54244448D01*
X75723712Y-54514243D01*
X76200000Y-54608983D01*
X76676288Y-54514243D01*
X77080065Y-54244448D01*
X77349860Y-53840671D01*
X77444600Y-53364383D01*
X77444600Y-53315617D01*
X77495400Y-53315617D01*
X77495400Y-53364383D01*
X77590140Y-53840671D01*
X77859935Y-54244448D01*
X78263712Y-54514243D01*
X78740000Y-54608983D01*
X79216288Y-54514243D01*
X79620065Y-54244448D01*
X79889860Y-53840671D01*
X79984600Y-53364383D01*
X79984600Y-53315617D01*
X80035400Y-53315617D01*
X80035400Y-53364383D01*
X80130140Y-53840671D01*
X80399935Y-54244448D01*
X80803712Y-54514243D01*
X81280000Y-54608983D01*
X81756288Y-54514243D01*
X82160065Y-54244448D01*
X82429860Y-53840671D01*
X82524600Y-53364383D01*
X82524600Y-53315617D01*
X82575400Y-53315617D01*
X82575400Y-53364383D01*
X82670140Y-53840671D01*
X82939935Y-54244448D01*
X83343712Y-54514243D01*
X83820000Y-54608983D01*
X84296288Y-54514243D01*
X84700065Y-54244448D01*
X84969860Y-53840671D01*
X85064600Y-53364383D01*
X85064600Y-53315617D01*
X85115400Y-53315617D01*
X85115400Y-53364383D01*
X85210140Y-53840671D01*
X85479935Y-54244448D01*
X85883712Y-54514243D01*
X86360000Y-54608983D01*
X86836288Y-54514243D01*
X87240065Y-54244448D01*
X87509860Y-53840671D01*
X87604600Y-53364383D01*
X87604600Y-53315617D01*
X87655400Y-53315617D01*
X87655400Y-53364383D01*
X87750140Y-53840671D01*
X88019935Y-54244448D01*
X88423712Y-54514243D01*
X88900000Y-54608983D01*
X89376288Y-54514243D01*
X89780065Y-54244448D01*
X90049860Y-53840671D01*
X90144600Y-53364383D01*
X90144600Y-53315617D01*
X90195400Y-53315617D01*
X90195400Y-53364383D01*
X90290140Y-53840671D01*
X90559935Y-54244448D01*
X90963712Y-54514243D01*
X91440000Y-54608983D01*
X91916288Y-54514243D01*
X92320065Y-54244448D01*
X92589860Y-53840671D01*
X92684600Y-53364383D01*
X92684600Y-53315617D01*
X92589860Y-52839329D01*
X92347359Y-52476400D01*
X94505936Y-52476400D01*
X94505936Y-54203600D01*
X94532503Y-54344790D01*
X94615946Y-54474465D01*
X94743266Y-54561459D01*
X94894400Y-54592064D01*
X96621600Y-54592064D01*
X96762790Y-54565497D01*
X96892465Y-54482054D01*
X96979459Y-54354734D01*
X97010064Y-54203600D01*
X97010064Y-53315617D01*
X97053400Y-53315617D01*
X97053400Y-53364383D01*
X97148140Y-53840671D01*
X97417935Y-54244448D01*
X97821712Y-54514243D01*
X98298000Y-54608983D01*
X98774288Y-54514243D01*
X99178065Y-54244448D01*
X99447860Y-53840671D01*
X99542600Y-53364383D01*
X99542600Y-53315617D01*
X99593400Y-53315617D01*
X99593400Y-53364383D01*
X99688140Y-53840671D01*
X99957935Y-54244448D01*
X100361712Y-54514243D01*
X100838000Y-54608983D01*
X101314288Y-54514243D01*
X101718065Y-54244448D01*
X101987860Y-53840671D01*
X102082600Y-53364383D01*
X102082600Y-53315617D01*
X102133400Y-53315617D01*
X102133400Y-53364383D01*
X102228140Y-53840671D01*
X102497935Y-54244448D01*
X102901712Y-54514243D01*
X103378000Y-54608983D01*
X103854288Y-54514243D01*
X104258065Y-54244448D01*
X104527860Y-53840671D01*
X104622600Y-53364383D01*
X104622600Y-53315617D01*
X104673400Y-53315617D01*
X104673400Y-53364383D01*
X104768140Y-53840671D01*
X105037935Y-54244448D01*
X105441712Y-54514243D01*
X105918000Y-54608983D01*
X106394288Y-54514243D01*
X106798065Y-54244448D01*
X107067860Y-53840671D01*
X107162600Y-53364383D01*
X107162600Y-53315617D01*
X107213400Y-53315617D01*
X107213400Y-53364383D01*
X107308140Y-53840671D01*
X107577935Y-54244448D01*
X107981712Y-54514243D01*
X108458000Y-54608983D01*
X108934288Y-54514243D01*
X109338065Y-54244448D01*
X109607860Y-53840671D01*
X109702600Y-53364383D01*
X109702600Y-53315617D01*
X109753400Y-53315617D01*
X109753400Y-53364383D01*
X109848140Y-53840671D01*
X110117935Y-54244448D01*
X110521712Y-54514243D01*
X110998000Y-54608983D01*
X111474288Y-54514243D01*
X111878065Y-54244448D01*
X112147860Y-53840671D01*
X112242600Y-53364383D01*
X112242600Y-53315617D01*
X112147860Y-52839329D01*
X111878065Y-52435552D01*
X111474288Y-52165757D01*
X110998000Y-52071017D01*
X110521712Y-52165757D01*
X110117935Y-52435552D01*
X109848140Y-52839329D01*
X109753400Y-53315617D01*
X109702600Y-53315617D01*
X109607860Y-52839329D01*
X109338065Y-52435552D01*
X108934288Y-52165757D01*
X108458000Y-52071017D01*
X107981712Y-52165757D01*
X107577935Y-52435552D01*
X107308140Y-52839329D01*
X107213400Y-53315617D01*
X107162600Y-53315617D01*
X107067860Y-52839329D01*
X106798065Y-52435552D01*
X106394288Y-52165757D01*
X105918000Y-52071017D01*
X105441712Y-52165757D01*
X105037935Y-52435552D01*
X104768140Y-52839329D01*
X104673400Y-53315617D01*
X104622600Y-53315617D01*
X104527860Y-52839329D01*
X104258065Y-52435552D01*
X103854288Y-52165757D01*
X103378000Y-52071017D01*
X102901712Y-52165757D01*
X102497935Y-52435552D01*
X102228140Y-52839329D01*
X102133400Y-53315617D01*
X102082600Y-53315617D01*
X101987860Y-52839329D01*
X101718065Y-52435552D01*
X101314288Y-52165757D01*
X100838000Y-52071017D01*
X100361712Y-52165757D01*
X99957935Y-52435552D01*
X99688140Y-52839329D01*
X99593400Y-53315617D01*
X99542600Y-53315617D01*
X99447860Y-52839329D01*
X99178065Y-52435552D01*
X98774288Y-52165757D01*
X98298000Y-52071017D01*
X97821712Y-52165757D01*
X97417935Y-52435552D01*
X97148140Y-52839329D01*
X97053400Y-53315617D01*
X97010064Y-53315617D01*
X97010064Y-52476400D01*
X96983497Y-52335210D01*
X96900054Y-52205535D01*
X96772734Y-52118541D01*
X96621600Y-52087936D01*
X94894400Y-52087936D01*
X94753210Y-52114503D01*
X94623535Y-52197946D01*
X94536541Y-52325266D01*
X94505936Y-52476400D01*
X92347359Y-52476400D01*
X92320065Y-52435552D01*
X91916288Y-52165757D01*
X91440000Y-52071017D01*
X90963712Y-52165757D01*
X90559935Y-52435552D01*
X90290140Y-52839329D01*
X90195400Y-53315617D01*
X90144600Y-53315617D01*
X90049860Y-52839329D01*
X89780065Y-52435552D01*
X89376288Y-52165757D01*
X88900000Y-52071017D01*
X88423712Y-52165757D01*
X88019935Y-52435552D01*
X87750140Y-52839329D01*
X87655400Y-53315617D01*
X87604600Y-53315617D01*
X87509860Y-52839329D01*
X87240065Y-52435552D01*
X86836288Y-52165757D01*
X86360000Y-52071017D01*
X85883712Y-52165757D01*
X85479935Y-52435552D01*
X85210140Y-52839329D01*
X85115400Y-53315617D01*
X85064600Y-53315617D01*
X84969860Y-52839329D01*
X84700065Y-52435552D01*
X84296288Y-52165757D01*
X83820000Y-52071017D01*
X83343712Y-52165757D01*
X82939935Y-52435552D01*
X82670140Y-52839329D01*
X82575400Y-53315617D01*
X82524600Y-53315617D01*
X82429860Y-52839329D01*
X82160065Y-52435552D01*
X81756288Y-52165757D01*
X81280000Y-52071017D01*
X80803712Y-52165757D01*
X80399935Y-52435552D01*
X80130140Y-52839329D01*
X80035400Y-53315617D01*
X79984600Y-53315617D01*
X79889860Y-52839329D01*
X79620065Y-52435552D01*
X79216288Y-52165757D01*
X78740000Y-52071017D01*
X78263712Y-52165757D01*
X77859935Y-52435552D01*
X77590140Y-52839329D01*
X77495400Y-53315617D01*
X77444600Y-53315617D01*
X77349860Y-52839329D01*
X77080065Y-52435552D01*
X76676288Y-52165757D01*
X76200000Y-52071017D01*
X75723712Y-52165757D01*
X75319935Y-52435552D01*
X75050140Y-52839329D01*
X74955400Y-53315617D01*
X74904600Y-53315617D01*
X74809860Y-52839329D01*
X74540065Y-52435552D01*
X74136288Y-52165757D01*
X73660000Y-52071017D01*
X73183712Y-52165757D01*
X72779935Y-52435552D01*
X72510140Y-52839329D01*
X72415400Y-53315617D01*
X72372064Y-53315617D01*
X72372064Y-52476400D01*
X72345497Y-52335210D01*
X72262054Y-52205535D01*
X72134734Y-52118541D01*
X71983600Y-52087936D01*
X70256400Y-52087936D01*
X70115210Y-52114503D01*
X69985535Y-52197946D01*
X69898541Y-52325266D01*
X69867936Y-52476400D01*
X53631437Y-52476400D01*
X53765938Y-52342134D01*
X54296395Y-51064652D01*
X54296647Y-50775617D01*
X69875400Y-50775617D01*
X69875400Y-50824383D01*
X69970140Y-51300671D01*
X70239935Y-51704448D01*
X70643712Y-51974243D01*
X71120000Y-52068983D01*
X71596288Y-51974243D01*
X72000065Y-51704448D01*
X72269860Y-51300671D01*
X72364600Y-50824383D01*
X72364600Y-50775617D01*
X72415400Y-50775617D01*
X72415400Y-50824383D01*
X72510140Y-51300671D01*
X72779935Y-51704448D01*
X73183712Y-51974243D01*
X73660000Y-52068983D01*
X74136288Y-51974243D01*
X74540065Y-51704448D01*
X74809860Y-51300671D01*
X74904600Y-50824383D01*
X74904600Y-50775617D01*
X74955400Y-50775617D01*
X74955400Y-50824383D01*
X75050140Y-51300671D01*
X75319935Y-51704448D01*
X75723712Y-51974243D01*
X76200000Y-52068983D01*
X76676288Y-51974243D01*
X77080065Y-51704448D01*
X77349860Y-51300671D01*
X77444600Y-50824383D01*
X77444600Y-50775617D01*
X77495400Y-50775617D01*
X77495400Y-50824383D01*
X77590140Y-51300671D01*
X77859935Y-51704448D01*
X78263712Y-51974243D01*
X78740000Y-52068983D01*
X79216288Y-51974243D01*
X79620065Y-51704448D01*
X79889860Y-51300671D01*
X79984600Y-50824383D01*
X79984600Y-50775617D01*
X80035400Y-50775617D01*
X80035400Y-50824383D01*
X80130140Y-51300671D01*
X80399935Y-51704448D01*
X80803712Y-51974243D01*
X81280000Y-52068983D01*
X81756288Y-51974243D01*
X82160065Y-51704448D01*
X82429860Y-51300671D01*
X82524600Y-50824383D01*
X82524600Y-50775617D01*
X82575400Y-50775617D01*
X82575400Y-50824383D01*
X82670140Y-51300671D01*
X82939935Y-51704448D01*
X83343712Y-51974243D01*
X83820000Y-52068983D01*
X84296288Y-51974243D01*
X84700065Y-51704448D01*
X84969860Y-51300671D01*
X85064600Y-50824383D01*
X85064600Y-50775617D01*
X85115400Y-50775617D01*
X85115400Y-50824383D01*
X85210140Y-51300671D01*
X85479935Y-51704448D01*
X85883712Y-51974243D01*
X86360000Y-52068983D01*
X86836288Y-51974243D01*
X87240065Y-51704448D01*
X87509860Y-51300671D01*
X87604600Y-50824383D01*
X87604600Y-50775617D01*
X87655400Y-50775617D01*
X87655400Y-50824383D01*
X87750140Y-51300671D01*
X88019935Y-51704448D01*
X88423712Y-51974243D01*
X88900000Y-52068983D01*
X89376288Y-51974243D01*
X89780065Y-51704448D01*
X90049860Y-51300671D01*
X90144600Y-50824383D01*
X90144600Y-50775617D01*
X90195400Y-50775617D01*
X90195400Y-50824383D01*
X90290140Y-51300671D01*
X90559935Y-51704448D01*
X90963712Y-51974243D01*
X91440000Y-52068983D01*
X91916288Y-51974243D01*
X92320065Y-51704448D01*
X92589860Y-51300671D01*
X92684600Y-50824383D01*
X92684600Y-50775617D01*
X94513400Y-50775617D01*
X94513400Y-50824383D01*
X94608140Y-51300671D01*
X94877935Y-51704448D01*
X95281712Y-51974243D01*
X95758000Y-52068983D01*
X96234288Y-51974243D01*
X96638065Y-51704448D01*
X96907860Y-51300671D01*
X97002600Y-50824383D01*
X97002600Y-50775617D01*
X97053400Y-50775617D01*
X97053400Y-50824383D01*
X97148140Y-51300671D01*
X97417935Y-51704448D01*
X97821712Y-51974243D01*
X98298000Y-52068983D01*
X98774288Y-51974243D01*
X99178065Y-51704448D01*
X99447860Y-51300671D01*
X99542600Y-50824383D01*
X99542600Y-50775617D01*
X99593400Y-50775617D01*
X99593400Y-50824383D01*
X99688140Y-51300671D01*
X99957935Y-51704448D01*
X100361712Y-51974243D01*
X100838000Y-52068983D01*
X101314288Y-51974243D01*
X101718065Y-51704448D01*
X101987860Y-51300671D01*
X102082600Y-50824383D01*
X102082600Y-50775617D01*
X102133400Y-50775617D01*
X102133400Y-50824383D01*
X102228140Y-51300671D01*
X102497935Y-51704448D01*
X102901712Y-51974243D01*
X103378000Y-52068983D01*
X103854288Y-51974243D01*
X104258065Y-51704448D01*
X104527860Y-51300671D01*
X104622600Y-50824383D01*
X104622600Y-50775617D01*
X104673400Y-50775617D01*
X104673400Y-50824383D01*
X104768140Y-51300671D01*
X105037935Y-51704448D01*
X105441712Y-51974243D01*
X105918000Y-52068983D01*
X106394288Y-51974243D01*
X106798065Y-51704448D01*
X107067860Y-51300671D01*
X107162600Y-50824383D01*
X107162600Y-50775617D01*
X107213400Y-50775617D01*
X107213400Y-50824383D01*
X107308140Y-51300671D01*
X107577935Y-51704448D01*
X107981712Y-51974243D01*
X108458000Y-52068983D01*
X108934288Y-51974243D01*
X109338065Y-51704448D01*
X109607860Y-51300671D01*
X109702600Y-50824383D01*
X109702600Y-50775617D01*
X109753400Y-50775617D01*
X109753400Y-50824383D01*
X109848140Y-51300671D01*
X110117935Y-51704448D01*
X110521712Y-51974243D01*
X110998000Y-52068983D01*
X111474288Y-51974243D01*
X111878065Y-51704448D01*
X112147860Y-51300671D01*
X112242600Y-50824383D01*
X112242600Y-50775617D01*
X112147860Y-50299329D01*
X111878065Y-49895552D01*
X111474288Y-49625757D01*
X110998000Y-49531017D01*
X110521712Y-49625757D01*
X110117935Y-49895552D01*
X109848140Y-50299329D01*
X109753400Y-50775617D01*
X109702600Y-50775617D01*
X109607860Y-50299329D01*
X109338065Y-49895552D01*
X108934288Y-49625757D01*
X108458000Y-49531017D01*
X107981712Y-49625757D01*
X107577935Y-49895552D01*
X107308140Y-50299329D01*
X107213400Y-50775617D01*
X107162600Y-50775617D01*
X107067860Y-50299329D01*
X106798065Y-49895552D01*
X106394288Y-49625757D01*
X105918000Y-49531017D01*
X105441712Y-49625757D01*
X105037935Y-49895552D01*
X104768140Y-50299329D01*
X104673400Y-50775617D01*
X104622600Y-50775617D01*
X104527860Y-50299329D01*
X104258065Y-49895552D01*
X103854288Y-49625757D01*
X103378000Y-49531017D01*
X102901712Y-49625757D01*
X102497935Y-49895552D01*
X102228140Y-50299329D01*
X102133400Y-50775617D01*
X102082600Y-50775617D01*
X101987860Y-50299329D01*
X101718065Y-49895552D01*
X101314288Y-49625757D01*
X100838000Y-49531017D01*
X100361712Y-49625757D01*
X99957935Y-49895552D01*
X99688140Y-50299329D01*
X99593400Y-50775617D01*
X99542600Y-50775617D01*
X99447860Y-50299329D01*
X99178065Y-49895552D01*
X98774288Y-49625757D01*
X98298000Y-49531017D01*
X97821712Y-49625757D01*
X97417935Y-49895552D01*
X97148140Y-50299329D01*
X97053400Y-50775617D01*
X97002600Y-50775617D01*
X96907860Y-50299329D01*
X96638065Y-49895552D01*
X96234288Y-49625757D01*
X95758000Y-49531017D01*
X95281712Y-49625757D01*
X94877935Y-49895552D01*
X94608140Y-50299329D01*
X94513400Y-50775617D01*
X92684600Y-50775617D01*
X92589860Y-50299329D01*
X92320065Y-49895552D01*
X91916288Y-49625757D01*
X91440000Y-49531017D01*
X90963712Y-49625757D01*
X90559935Y-49895552D01*
X90290140Y-50299329D01*
X90195400Y-50775617D01*
X90144600Y-50775617D01*
X90049860Y-50299329D01*
X89780065Y-49895552D01*
X89376288Y-49625757D01*
X88900000Y-49531017D01*
X88423712Y-49625757D01*
X88019935Y-49895552D01*
X87750140Y-50299329D01*
X87655400Y-50775617D01*
X87604600Y-50775617D01*
X87509860Y-50299329D01*
X87240065Y-49895552D01*
X86836288Y-49625757D01*
X86360000Y-49531017D01*
X85883712Y-49625757D01*
X85479935Y-49895552D01*
X85210140Y-50299329D01*
X85115400Y-50775617D01*
X85064600Y-50775617D01*
X84969860Y-50299329D01*
X84700065Y-49895552D01*
X84296288Y-49625757D01*
X83820000Y-49531017D01*
X83343712Y-49625757D01*
X82939935Y-49895552D01*
X82670140Y-50299329D01*
X82575400Y-50775617D01*
X82524600Y-50775617D01*
X82429860Y-50299329D01*
X82160065Y-49895552D01*
X81756288Y-49625757D01*
X81280000Y-49531017D01*
X80803712Y-49625757D01*
X80399935Y-49895552D01*
X80130140Y-50299329D01*
X80035400Y-50775617D01*
X79984600Y-50775617D01*
X79889860Y-50299329D01*
X79620065Y-49895552D01*
X79216288Y-49625757D01*
X78740000Y-49531017D01*
X78263712Y-49625757D01*
X77859935Y-49895552D01*
X77590140Y-50299329D01*
X77495400Y-50775617D01*
X77444600Y-50775617D01*
X77349860Y-50299329D01*
X77080065Y-49895552D01*
X76676288Y-49625757D01*
X76200000Y-49531017D01*
X75723712Y-49625757D01*
X75319935Y-49895552D01*
X75050140Y-50299329D01*
X74955400Y-50775617D01*
X74904600Y-50775617D01*
X74809860Y-50299329D01*
X74540065Y-49895552D01*
X74136288Y-49625757D01*
X73660000Y-49531017D01*
X73183712Y-49625757D01*
X72779935Y-49895552D01*
X72510140Y-50299329D01*
X72415400Y-50775617D01*
X72364600Y-50775617D01*
X72269860Y-50299329D01*
X72000065Y-49895552D01*
X71596288Y-49625757D01*
X71120000Y-49531017D01*
X70643712Y-49625757D01*
X70239935Y-49895552D01*
X69970140Y-50299329D01*
X69875400Y-50775617D01*
X54296647Y-50775617D01*
X54297602Y-49681416D01*
X53769376Y-48403011D01*
X53193371Y-47826000D01*
X114446927Y-47826000D01*
X113874062Y-48397866D01*
G36*
X109347000Y-65913000D02*
X109367000Y-65913000D01*
X109367000Y-66167000D01*
X109347000Y-66167000D01*
X109347000Y-66187000D01*
X109093000Y-66187000D01*
X109093000Y-66167000D01*
X109073000Y-66167000D01*
X109073000Y-65913000D01*
X109093000Y-65913000D01*
X109093000Y-65893000D01*
X109347000Y-65893000D01*
X109347000Y-65913000D01*
X109347000Y-65913000D01*
G37*
X109347000Y-65913000D02*
X109367000Y-65913000D01*
X109367000Y-66167000D01*
X109347000Y-66167000D01*
X109347000Y-66187000D01*
X109093000Y-66187000D01*
X109093000Y-66167000D01*
X109073000Y-66167000D01*
X109073000Y-65913000D01*
X109093000Y-65913000D01*
X109093000Y-65893000D01*
X109347000Y-65893000D01*
X109347000Y-65913000D01*
M02*
