M48
;DRILL file {KiCad 4.0.2-4+6225~38~ubuntu14.04.1-stable} date 2016年05月02日 21時32分04秒
;FORMAT={3:3/ absolute / metric / suppress leading zeros}
FMAT,2
METRIC,TZ
T1C0.381
T2C0.500
T3C0.700
T4C0.762
T5C0.800
T6C1.000
T7C1.016
T8C3.200
%
G90
G05
M71
T1
X50800Y-55880
X52070Y-66040
X53340Y-55626
X53340Y-60452
X54356Y-83820
X54864Y-49784
X55372Y-88392
X58420Y-54610
X60198Y-60198
X60706Y-50292
X64516Y-50038
X64770Y-82804
X66802Y-61468
X67310Y-75692
X68072Y-67310
X68326Y-70612
X69088Y-50038
X69088Y-54610
X69088Y-57277
X69088Y-71120
X70104Y-66040
X70358Y-73660
X70866Y-57404
X70866Y-78486
X71374Y-67310
X72390Y-75692
X74168Y-64262
X74676Y-63500
X74930Y-72390
X74930Y-76454
X75438Y-84582
X75946Y-66294
X80010Y-67310
X80772Y-73406
X81788Y-88392
X82042Y-72390
X83820Y-56642
X84328Y-77216
X84328Y-80010
X84328Y-87376
X84582Y-85852
X85090Y-71120
X85090Y-82550
X85598Y-92202
X86360Y-67056
X86868Y-57404
X86868Y-58674
X89154Y-66294
X89408Y-62230
X89662Y-64770
X89916Y-88138
X90170Y-59182
X90424Y-83312
X90678Y-68326
X90678Y-70358
X92202Y-62992
X92710Y-64008
X92710Y-65024
X92710Y-67564
X93472Y-70612
X93726Y-68580
X93726Y-85090
X94488Y-75184
X94742Y-81788
X94996Y-57658
X94996Y-67564
X94996Y-74422
X95222Y-70104
X95504Y-73660
X95758Y-61468
X96012Y-65278
X96266Y-56134
X96266Y-58420
X96266Y-62230
X97028Y-58928
X97028Y-65278
X98044Y-68580
X98298Y-77470
X98552Y-60960
X99314Y-80772
X102743Y-77978
X102743Y-82296
X102870Y-69088
X103124Y-73660
X103886Y-74422
X104648Y-75184
X106680Y-80518
X109982Y-77470
X110490Y-74676
X113030Y-67310
X113792Y-56896
X114300Y-58928
X114300Y-62230
X114300Y-68834
X115316Y-54356
X115824Y-69850
X115824Y-74676
X118618Y-57658
X118618Y-69342
X118618Y-74676
T2
X79502Y-76454
X80752Y-76454
T3
X74930Y-60960
X76430Y-60960
X77930Y-60960
X116332Y-59944
X116332Y-61444
X116332Y-62944
X116332Y-64444
X116332Y-65944
T4
X50292Y-75184
X56134Y-75692
X63754Y-75692
X80010Y-82560
X80010Y-90160
T5
X72898Y-92202
X87856Y-78232
X92738Y-78232
T6
X52578Y-79502
X55118Y-79502
X94286Y-87412
X94286Y-91912
X100786Y-87412
X100786Y-91912
X103430Y-87412
X103430Y-91912
X109930Y-87412
X109930Y-91912
X111050Y-80300
X111050Y-84800
X117550Y-80300
X117550Y-84800
T7
X50800Y-85852
X53340Y-85852
X57150Y-84582
X57150Y-87122
X57150Y-89662
X57150Y-92202
X59690Y-84582
X59690Y-87122
X59690Y-89662
X59690Y-92202
X62230Y-84582
X62230Y-87122
X62230Y-89662
X62230Y-92202
X64770Y-84582
X64770Y-87122
X64770Y-89662
X64770Y-92202
X67310Y-84582
X67310Y-87122
X67310Y-89662
X67310Y-92202
X69850Y-84582
X69850Y-87122
X69850Y-89662
X69850Y-92202
X71120Y-50800
X71120Y-53340
X73660Y-50800
X73660Y-53340
X76200Y-50800
X76200Y-53340
X78740Y-50800
X78740Y-53340
X81280Y-50800
X81280Y-53340
X83820Y-50800
X83820Y-53340
X86360Y-50800
X86360Y-53340
X88900Y-50800
X88900Y-53340
X91440Y-50800
X91440Y-53340
X95758Y-50800
X95758Y-53340
X98298Y-50800
X98298Y-53340
X100838Y-50800
X100838Y-53340
X103378Y-50800
X103378Y-53340
X105918Y-50800
X105918Y-53340
X108458Y-50800
X108458Y-53340
X109220Y-60960
X109220Y-63500
X109220Y-66040
X109220Y-68580
X109220Y-71120
X110998Y-50800
X110998Y-53340
X111760Y-60960
X111760Y-63500
X111760Y-66040
X111760Y-68580
X111760Y-71120
T8
X50820Y-50370
X50820Y-91870
X116820Y-50370
X116820Y-91870
T0
M30
