G04 #@! TF.FileFunction,Legend,Top*
%FSLAX46Y46*%
G04 Gerber Fmt 4.6, Leading zero omitted, Abs format (unit mm)*
G04 Created by KiCad (PCBNEW 4.0.2-4+6225~38~ubuntu14.04.1-stable) date 2016年05月02日 21時32分02秒*
%MOMM*%
G01*
G04 APERTURE LIST*
%ADD10C,0.101600*%
%ADD11C,0.152400*%
%ADD12C,0.150000*%
%ADD13R,1.000000X0.950000*%
%ADD14R,0.950000X1.000000*%
%ADD15R,0.800000X0.900000*%
%ADD16R,0.900000X0.800000*%
%ADD17R,0.997560X0.997560*%
%ADD18R,1.000100X1.000100*%
%ADD19R,1.100000X0.700000*%
%ADD20R,0.700000X1.100000*%
%ADD21C,1.701140*%
%ADD22R,3.248000X1.851000*%
%ADD23R,6.296000X6.296000*%
%ADD24R,1.000000X1.000000*%
%ADD25O,1.000000X1.000000*%
%ADD26R,1.724000X1.724000*%
%ADD27C,1.724000*%
%ADD28C,2.000000*%
%ADD29C,2.198980*%
%ADD30R,1.927200X1.927200*%
%ADD31O,1.927200X1.927200*%
%ADD32R,0.450000X1.200000*%
%ADD33R,1.200000X0.450000*%
%ADD34R,3.200000X1.400000*%
%ADD35R,1.830000X1.400000*%
%ADD36R,4.270000X1.970000*%
%ADD37R,1.400000X1.830000*%
%ADD38R,1.970000X4.270000*%
%ADD39R,1.700000X1.400000*%
%ADD40R,1.200000X1.200000*%
%ADD41R,1.400000X3.200000*%
%ADD42C,5.900000*%
%ADD43C,1.400000*%
%ADD44R,0.835000X0.835000*%
G04 APERTURE END LIST*
D10*
D11*
X78352667Y-58273905D02*
X78086000Y-57892952D01*
X77895524Y-58273905D02*
X77895524Y-57473905D01*
X78200286Y-57473905D01*
X78276477Y-57512000D01*
X78314572Y-57550095D01*
X78352667Y-57626286D01*
X78352667Y-57740571D01*
X78314572Y-57816762D01*
X78276477Y-57854857D01*
X78200286Y-57892952D01*
X77895524Y-57892952D01*
X78619334Y-57473905D02*
X79152667Y-58273905D01*
X79152667Y-57473905D02*
X78619334Y-58273905D01*
X75844476Y-57473905D02*
X76301619Y-57473905D01*
X76073048Y-58273905D02*
X76073048Y-57473905D01*
X76492096Y-57473905D02*
X77025429Y-58273905D01*
X77025429Y-57473905D02*
X76492096Y-58273905D01*
X73558477Y-57512000D02*
X73482286Y-57473905D01*
X73368001Y-57473905D01*
X73253715Y-57512000D01*
X73177524Y-57588190D01*
X73139429Y-57664381D01*
X73101334Y-57816762D01*
X73101334Y-57931048D01*
X73139429Y-58083429D01*
X73177524Y-58159619D01*
X73253715Y-58235810D01*
X73368001Y-58273905D01*
X73444191Y-58273905D01*
X73558477Y-58235810D01*
X73596572Y-58197714D01*
X73596572Y-57931048D01*
X73444191Y-57931048D01*
X73939429Y-58273905D02*
X73939429Y-57473905D01*
X74396572Y-58273905D01*
X74396572Y-57473905D01*
X74777524Y-58273905D02*
X74777524Y-57473905D01*
X74968000Y-57473905D01*
X75082286Y-57512000D01*
X75158477Y-57588190D01*
X75196572Y-57664381D01*
X75234667Y-57816762D01*
X75234667Y-57931048D01*
X75196572Y-58083429D01*
X75158477Y-58159619D01*
X75082286Y-58235810D01*
X74968000Y-58273905D01*
X74777524Y-58273905D01*
D12*
X61564000Y-77181000D02*
X60864000Y-77181000D01*
X60864000Y-75981000D02*
X61564000Y-75981000D01*
X54264000Y-51912000D02*
X54264000Y-51212000D01*
X55464000Y-51212000D02*
X55464000Y-51912000D01*
X54452000Y-57496000D02*
X53752000Y-57496000D01*
X53752000Y-56296000D02*
X54452000Y-56296000D01*
X98964000Y-59344000D02*
X99664000Y-59344000D01*
X99664000Y-60544000D02*
X98964000Y-60544000D01*
X87980000Y-60544000D02*
X87280000Y-60544000D01*
X87280000Y-59344000D02*
X87980000Y-59344000D01*
X85694000Y-70704000D02*
X84994000Y-70704000D01*
X84994000Y-69504000D02*
X85694000Y-69504000D01*
X101692000Y-69500000D02*
X101692000Y-70200000D01*
X100492000Y-70200000D02*
X100492000Y-69500000D01*
X99914000Y-74834000D02*
X99914000Y-75534000D01*
X98714000Y-75534000D02*
X98714000Y-74834000D01*
X97882000Y-74834000D02*
X97882000Y-75534000D01*
X96682000Y-75534000D02*
X96682000Y-74834000D01*
X117506000Y-77124000D02*
X118206000Y-77124000D01*
X118206000Y-78324000D02*
X117506000Y-78324000D01*
X91979000Y-81188000D02*
X92679000Y-81188000D01*
X92679000Y-82388000D02*
X91979000Y-82388000D01*
X88615000Y-82388000D02*
X87915000Y-82388000D01*
X87915000Y-81188000D02*
X88615000Y-81188000D01*
X52178000Y-76038000D02*
X53728000Y-76038000D01*
X52178000Y-74838000D02*
X53728000Y-74838000D01*
X55464000Y-55010000D02*
X55464000Y-53460000D01*
X54264000Y-55010000D02*
X54264000Y-53460000D01*
X71162000Y-64854000D02*
X71162000Y-62954000D01*
X70062000Y-64854000D02*
X70062000Y-62954000D01*
X70612000Y-63954000D02*
X70612000Y-63504000D01*
X70362000Y-64004000D02*
X70862000Y-64004000D01*
X70612000Y-64004000D02*
X70362000Y-63754000D01*
X70362000Y-63754000D02*
X70862000Y-63754000D01*
X70862000Y-63754000D02*
X70612000Y-64004000D01*
X72940000Y-71204000D02*
X72940000Y-69304000D01*
X71840000Y-71204000D02*
X71840000Y-69304000D01*
X72390000Y-70304000D02*
X72390000Y-69854000D01*
X72140000Y-70354000D02*
X72640000Y-70354000D01*
X72390000Y-70354000D02*
X72140000Y-70104000D01*
X72140000Y-70104000D02*
X72640000Y-70104000D01*
X72640000Y-70104000D02*
X72390000Y-70354000D01*
X78020000Y-71204000D02*
X78020000Y-69304000D01*
X76920000Y-71204000D02*
X76920000Y-69304000D01*
X77470000Y-70304000D02*
X77470000Y-69854000D01*
X77220000Y-70354000D02*
X77720000Y-70354000D01*
X77470000Y-70354000D02*
X77220000Y-70104000D01*
X77220000Y-70104000D02*
X77720000Y-70104000D01*
X77720000Y-70104000D02*
X77470000Y-70354000D01*
X74252000Y-80476000D02*
X72352000Y-80476000D01*
X74252000Y-81576000D02*
X72352000Y-81576000D01*
X73352000Y-81026000D02*
X72902000Y-81026000D01*
X73402000Y-81276000D02*
X73402000Y-80776000D01*
X73402000Y-81026000D02*
X73152000Y-81276000D01*
X73152000Y-81276000D02*
X73152000Y-80776000D01*
X73152000Y-80776000D02*
X73402000Y-81026000D01*
X95800000Y-85428000D02*
X95800000Y-83528000D01*
X94700000Y-85428000D02*
X94700000Y-83528000D01*
X95250000Y-84528000D02*
X95250000Y-84078000D01*
X95000000Y-84578000D02*
X95500000Y-84578000D01*
X95250000Y-84578000D02*
X95000000Y-84328000D01*
X95000000Y-84328000D02*
X95500000Y-84328000D01*
X95500000Y-84328000D02*
X95250000Y-84578000D01*
X104436000Y-85428000D02*
X104436000Y-83528000D01*
X103336000Y-85428000D02*
X103336000Y-83528000D01*
X103886000Y-84528000D02*
X103886000Y-84078000D01*
X103636000Y-84578000D02*
X104136000Y-84578000D01*
X103886000Y-84578000D02*
X103636000Y-84328000D01*
X103636000Y-84328000D02*
X104136000Y-84328000D01*
X104136000Y-84328000D02*
X103886000Y-84578000D01*
X62118240Y-81309160D02*
X62118240Y-81260900D01*
X61417200Y-78510180D02*
X62118240Y-78510180D01*
X62118240Y-78510180D02*
X62118240Y-78759100D01*
X62118240Y-81309160D02*
X62118240Y-81509820D01*
X62118240Y-81509820D02*
X61417200Y-81509820D01*
X73548240Y-79785160D02*
X73548240Y-79736900D01*
X72847200Y-76986180D02*
X73548240Y-76986180D01*
X73548240Y-76986180D02*
X73548240Y-77235100D01*
X73548240Y-79785160D02*
X73548240Y-79985820D01*
X73548240Y-79985820D02*
X72847200Y-79985820D01*
X57999000Y-80510000D02*
X57999000Y-79510000D01*
X59349000Y-79510000D02*
X59349000Y-80510000D01*
X57999000Y-77970000D02*
X57999000Y-76970000D01*
X59349000Y-76970000D02*
X59349000Y-77970000D01*
X66032000Y-76367000D02*
X65032000Y-76367000D01*
X65032000Y-75017000D02*
X66032000Y-75017000D01*
X50300000Y-61555000D02*
X51300000Y-61555000D01*
X51300000Y-62905000D02*
X50300000Y-62905000D01*
X51300000Y-60365000D02*
X50300000Y-60365000D01*
X50300000Y-59015000D02*
X51300000Y-59015000D01*
X50300000Y-56475000D02*
X51300000Y-56475000D01*
X51300000Y-57825000D02*
X50300000Y-57825000D01*
X64762000Y-78145000D02*
X63762000Y-78145000D01*
X63762000Y-76795000D02*
X64762000Y-76795000D01*
X64349000Y-81272000D02*
X64349000Y-80272000D01*
X65699000Y-80272000D02*
X65699000Y-81272000D01*
X70350000Y-61635000D02*
X69350000Y-61635000D01*
X69350000Y-60285000D02*
X70350000Y-60285000D01*
X84828000Y-67985000D02*
X83828000Y-67985000D01*
X83828000Y-66635000D02*
X84828000Y-66635000D01*
X114975000Y-60206000D02*
X114975000Y-61206000D01*
X113625000Y-61206000D02*
X113625000Y-60206000D01*
X113625000Y-64254000D02*
X113625000Y-63254000D01*
X114975000Y-63254000D02*
X114975000Y-64254000D01*
X73652000Y-73065000D02*
X72652000Y-73065000D01*
X72652000Y-71715000D02*
X73652000Y-71715000D01*
X76208000Y-71715000D02*
X77208000Y-71715000D01*
X77208000Y-73065000D02*
X76208000Y-73065000D01*
X70604000Y-81701000D02*
X69604000Y-81701000D01*
X69604000Y-80351000D02*
X70604000Y-80351000D01*
X69175000Y-78986000D02*
X69175000Y-77986000D01*
X70525000Y-77986000D02*
X70525000Y-78986000D01*
X98290000Y-85765000D02*
X97290000Y-85765000D01*
X97290000Y-84415000D02*
X98290000Y-84415000D01*
X107180000Y-85765000D02*
X106180000Y-85765000D01*
X106180000Y-84415000D02*
X107180000Y-84415000D01*
X114800000Y-78399000D02*
X113800000Y-78399000D01*
X113800000Y-77049000D02*
X114800000Y-77049000D01*
X94996000Y-77231240D02*
X95196660Y-77632560D01*
X95196660Y-77632560D02*
X95298260Y-78232000D01*
X95298260Y-78232000D02*
X95196660Y-78732380D01*
X95196660Y-78732380D02*
X94797880Y-79430880D01*
X94797880Y-79430880D02*
X94195900Y-79832200D01*
X94195900Y-79832200D02*
X93596460Y-80032860D01*
X93596460Y-80032860D02*
X86997540Y-80032860D01*
X86997540Y-80032860D02*
X86296500Y-79832200D01*
X86296500Y-79832200D02*
X85897720Y-79532480D01*
X85897720Y-79532480D02*
X85496400Y-79032100D01*
X85496400Y-79032100D02*
X85295740Y-78432660D01*
X85295740Y-78432660D02*
X85295740Y-77932280D01*
X85295740Y-77932280D02*
X85496400Y-77431900D01*
X85496400Y-77431900D02*
X85996780Y-76832460D01*
X85996780Y-76832460D02*
X86497160Y-76532740D01*
X86497160Y-76532740D02*
X86997540Y-76431140D01*
X87096600Y-76431140D02*
X93698060Y-76431140D01*
X93698060Y-76431140D02*
X94096840Y-76532740D01*
X94096840Y-76532740D02*
X94597220Y-76832460D01*
X94597220Y-76832460D02*
X95097600Y-77332840D01*
X87106760Y-75902820D02*
X86647020Y-75951080D01*
X86647020Y-75951080D02*
X86248240Y-76062840D01*
X86248240Y-76062840D02*
X85816440Y-76281280D01*
X85816440Y-76281280D02*
X85526880Y-76512420D01*
X85526880Y-76512420D02*
X85196680Y-76862940D01*
X85196680Y-76862940D02*
X84907120Y-77401420D01*
X84907120Y-77401420D02*
X84777580Y-78000860D01*
X84777580Y-78000860D02*
X84777580Y-78511400D01*
X84777580Y-78511400D02*
X84947760Y-79212440D01*
X84947760Y-79212440D02*
X85346540Y-79801720D01*
X85346540Y-79801720D02*
X85806280Y-80172560D01*
X85806280Y-80172560D02*
X86227920Y-80380840D01*
X86227920Y-80380840D02*
X86677500Y-80540860D01*
X86677500Y-80540860D02*
X87116920Y-80571340D01*
X94457520Y-80352900D02*
X94835980Y-80131920D01*
X94835980Y-80131920D02*
X95156020Y-79852520D01*
X95156020Y-79852520D02*
X95407480Y-79522320D01*
X95407480Y-79522320D02*
X95707200Y-78971140D01*
X95707200Y-78971140D02*
X95816420Y-78501240D01*
X95816420Y-78501240D02*
X95836740Y-78041500D01*
X95836740Y-78041500D02*
X95747840Y-77581760D01*
X95747840Y-77581760D02*
X95557340Y-77132180D01*
X95557340Y-77132180D02*
X95196660Y-76662280D01*
X95196660Y-76662280D02*
X94846140Y-76342240D01*
X94846140Y-76342240D02*
X94457520Y-76111100D01*
X94457520Y-76111100D02*
X94028260Y-75971400D01*
X94028260Y-75971400D02*
X93586300Y-75902820D01*
X87096600Y-80561180D02*
X93548200Y-80561180D01*
X93548200Y-80561180D02*
X93967300Y-80523080D01*
X93967300Y-80523080D02*
X94457520Y-80352900D01*
X87096600Y-75902820D02*
X93548200Y-75902820D01*
X59944000Y-56007000D02*
X56769000Y-56007000D01*
X56769000Y-56007000D02*
X56769000Y-57785000D01*
X56769000Y-57785000D02*
X59944000Y-57785000D01*
X59944000Y-51435000D02*
X56769000Y-51435000D01*
X56769000Y-51435000D02*
X56769000Y-53213000D01*
X56769000Y-53213000D02*
X59944000Y-53213000D01*
X66040000Y-58039000D02*
X59944000Y-58039000D01*
X59944000Y-58039000D02*
X59944000Y-51181000D01*
X59944000Y-51181000D02*
X67818000Y-51181000D01*
X67945000Y-51181000D02*
X67945000Y-58039000D01*
X67818000Y-58039000D02*
X66040000Y-58039000D01*
X78002000Y-76334000D02*
X78002000Y-74404000D01*
X78002000Y-74404000D02*
X82252000Y-74404000D01*
X82252000Y-74404000D02*
X82252000Y-77604000D01*
X82252000Y-77604000D02*
X79272000Y-77604000D01*
X79502000Y-78104000D02*
X80002000Y-78604000D01*
X80002000Y-78604000D02*
X79002000Y-78604000D01*
X79002000Y-78604000D02*
X79502000Y-78104000D01*
X51470000Y-68168000D02*
X51470000Y-67468000D01*
X52670000Y-67468000D02*
X52670000Y-68168000D01*
X54452000Y-59782000D02*
X53752000Y-59782000D01*
X53752000Y-58582000D02*
X54452000Y-58582000D01*
D11*
X87010000Y-86360000D02*
G75*
G03X87010000Y-86360000I-7000000J0D01*
G01*
X48078000Y-82502000D02*
X48078000Y-76502000D01*
X57078000Y-82502000D02*
X48078000Y-82502000D01*
X57078000Y-76502000D02*
X57078000Y-82502000D01*
X48078000Y-76502000D02*
X57078000Y-76502000D01*
X93036000Y-86162000D02*
X93036000Y-93162000D01*
X102036000Y-86162000D02*
X93036000Y-86162000D01*
X102036000Y-93162000D02*
X102036000Y-86162000D01*
X93036000Y-93162000D02*
X102036000Y-93162000D01*
X102180000Y-86162000D02*
X102180000Y-93162000D01*
X111180000Y-86162000D02*
X102180000Y-86162000D01*
X111180000Y-93162000D02*
X111180000Y-86162000D01*
X102180000Y-93162000D02*
X111180000Y-93162000D01*
X109800000Y-79050000D02*
X109800000Y-86050000D01*
X118800000Y-79050000D02*
X109800000Y-79050000D01*
X118800000Y-86050000D02*
X118800000Y-79050000D01*
X109800000Y-86050000D02*
X118800000Y-86050000D01*
D12*
X112056000Y-78062000D02*
X112056000Y-76162000D01*
X110956000Y-78062000D02*
X110956000Y-76162000D01*
X111506000Y-77162000D02*
X111506000Y-76712000D01*
X111256000Y-77212000D02*
X111756000Y-77212000D01*
X111506000Y-77212000D02*
X111256000Y-76962000D01*
X111256000Y-76962000D02*
X111756000Y-76962000D01*
X111756000Y-76962000D02*
X111506000Y-77212000D01*
X84436000Y-74006000D02*
X85986000Y-74006000D01*
X84436000Y-72806000D02*
X85986000Y-72806000D01*
D11*
X110490000Y-62230000D02*
X110490000Y-72390000D01*
X107950000Y-67310000D02*
X110490000Y-67310000D01*
X110490000Y-69850000D02*
X113030000Y-69850000D01*
D12*
X113030000Y-59690000D02*
X113030000Y-72390000D01*
X113030000Y-72390000D02*
X107950000Y-72390000D01*
X107950000Y-72390000D02*
X107950000Y-62230000D01*
X113030000Y-59690000D02*
X110490000Y-59690000D01*
X109220000Y-59410000D02*
X107670000Y-59410000D01*
X110490000Y-59690000D02*
X110490000Y-62230000D01*
X110490000Y-62230000D02*
X107950000Y-62230000D01*
X107670000Y-59410000D02*
X107670000Y-60960000D01*
D11*
X89513210Y-70358000D02*
G75*
G03X89513210Y-70358000I-359210J0D01*
G01*
D12*
X88297000Y-71215000D02*
X89372000Y-71215000D01*
X88297000Y-60865000D02*
X89372000Y-60865000D01*
X98647000Y-60865000D02*
X97572000Y-60865000D01*
X98647000Y-71215000D02*
X97572000Y-71215000D01*
X88297000Y-71215000D02*
X88297000Y-70140000D01*
X98647000Y-71215000D02*
X98647000Y-70140000D01*
X98647000Y-60865000D02*
X98647000Y-61940000D01*
X88297000Y-60865000D02*
X88297000Y-61940000D01*
X89372000Y-71215000D02*
X89372000Y-72240000D01*
D11*
X55880000Y-85852000D02*
X55880000Y-83312000D01*
X55880000Y-83312000D02*
X58420000Y-83312000D01*
D12*
X55880000Y-85852000D02*
X55880000Y-93472000D01*
X55880000Y-93472000D02*
X60960000Y-93472000D01*
X60960000Y-93472000D02*
X60960000Y-83312000D01*
X60960000Y-83312000D02*
X58420000Y-83312000D01*
X58420000Y-83312000D02*
X58420000Y-85852000D01*
X58420000Y-85852000D02*
X55880000Y-85852000D01*
D11*
X60960000Y-85852000D02*
X60960000Y-83312000D01*
X60960000Y-83312000D02*
X63500000Y-83312000D01*
D12*
X60960000Y-85852000D02*
X60960000Y-93472000D01*
X60960000Y-93472000D02*
X66040000Y-93472000D01*
X66040000Y-93472000D02*
X66040000Y-83312000D01*
X66040000Y-83312000D02*
X63500000Y-83312000D01*
X63500000Y-83312000D02*
X63500000Y-85852000D01*
X63500000Y-85852000D02*
X60960000Y-85852000D01*
D11*
X66040000Y-85852000D02*
X66040000Y-83312000D01*
X66040000Y-83312000D02*
X68580000Y-83312000D01*
D12*
X66040000Y-85852000D02*
X66040000Y-93472000D01*
X66040000Y-93472000D02*
X71120000Y-93472000D01*
X71120000Y-93472000D02*
X71120000Y-83312000D01*
X71120000Y-83312000D02*
X68580000Y-83312000D01*
X68580000Y-83312000D02*
X68580000Y-85852000D01*
X68580000Y-85852000D02*
X66040000Y-85852000D01*
X92710000Y-49530000D02*
X69850000Y-49530000D01*
X72390000Y-54610000D02*
X92710000Y-54610000D01*
X92710000Y-49530000D02*
X92710000Y-54610000D01*
X69850000Y-49530000D02*
X69850000Y-52070000D01*
X69570000Y-53340000D02*
X69570000Y-54890000D01*
X69850000Y-52070000D02*
X72390000Y-52070000D01*
X72390000Y-52070000D02*
X72390000Y-54610000D01*
X69570000Y-54890000D02*
X71120000Y-54890000D01*
X112268000Y-49530000D02*
X94488000Y-49530000D01*
X97028000Y-54610000D02*
X112268000Y-54610000D01*
X112268000Y-49530000D02*
X112268000Y-54610000D01*
X94488000Y-49530000D02*
X94488000Y-52070000D01*
X94208000Y-53340000D02*
X94208000Y-54890000D01*
X94488000Y-52070000D02*
X97028000Y-52070000D01*
X97028000Y-52070000D02*
X97028000Y-54610000D01*
X94208000Y-54890000D02*
X95758000Y-54890000D01*
X49250000Y-85852000D02*
X49250000Y-84302000D01*
X50800000Y-84302000D02*
X49250000Y-84302000D01*
X49530000Y-87122000D02*
X52070000Y-87122000D01*
X54610000Y-84582000D02*
X52070000Y-84582000D01*
X52070000Y-84582000D02*
X52070000Y-87122000D01*
X52070000Y-87122000D02*
X54610000Y-87122000D01*
X54610000Y-87122000D02*
X54610000Y-84582000D01*
X66298000Y-62480000D02*
X66298000Y-74680000D01*
X66298000Y-74680000D02*
X54098000Y-74680000D01*
D11*
X54098000Y-74680000D02*
X54098000Y-62480000D01*
X54098000Y-62480000D02*
X66298000Y-62480000D01*
X118632000Y-58344000D02*
X114932000Y-58344000D01*
X114932000Y-58344000D02*
X114932000Y-67544000D01*
X118632000Y-67544000D02*
X114932000Y-67544000D01*
X118632000Y-58344000D02*
X118632000Y-67544000D01*
X73330000Y-58660000D02*
X73330000Y-62360000D01*
X73330000Y-62360000D02*
X79530000Y-62360000D01*
X79530000Y-58660000D02*
X79530000Y-62360000D01*
X73330000Y-58660000D02*
X79530000Y-58660000D01*
X60223401Y-77941714D02*
X60194372Y-77970743D01*
X60107286Y-77999771D01*
X60049229Y-77999771D01*
X59962144Y-77970743D01*
X59904086Y-77912686D01*
X59875058Y-77854629D01*
X59846029Y-77738514D01*
X59846029Y-77651429D01*
X59875058Y-77535314D01*
X59904086Y-77477257D01*
X59962144Y-77419200D01*
X60049229Y-77390171D01*
X60107286Y-77390171D01*
X60194372Y-77419200D01*
X60223401Y-77448229D01*
X60803972Y-77999771D02*
X60455629Y-77999771D01*
X60629801Y-77999771D02*
X60629801Y-77390171D01*
X60571744Y-77477257D01*
X60513686Y-77535314D01*
X60455629Y-77564343D01*
X61362772Y-77448229D02*
X61391801Y-77419200D01*
X61449858Y-77390171D01*
X61595001Y-77390171D01*
X61653058Y-77419200D01*
X61682087Y-77448229D01*
X61711115Y-77506286D01*
X61711115Y-77564343D01*
X61682087Y-77651429D01*
X61333744Y-77999771D01*
X61711115Y-77999771D01*
X61943343Y-77448229D02*
X61972372Y-77419200D01*
X62030429Y-77390171D01*
X62175572Y-77390171D01*
X62233629Y-77419200D01*
X62262658Y-77448229D01*
X62291686Y-77506286D01*
X62291686Y-77564343D01*
X62262658Y-77651429D01*
X61914315Y-77999771D01*
X62291686Y-77999771D01*
X62814200Y-77593371D02*
X62814200Y-77999771D01*
X62552943Y-77593371D02*
X62552943Y-77912686D01*
X62581971Y-77970743D01*
X62640029Y-77999771D01*
X62727114Y-77999771D01*
X62785171Y-77970743D01*
X62814200Y-77941714D01*
X55998534Y-49566286D02*
X55959829Y-49604990D01*
X55843715Y-49643695D01*
X55766305Y-49643695D01*
X55650191Y-49604990D01*
X55572782Y-49527581D01*
X55534077Y-49450171D01*
X55495372Y-49295352D01*
X55495372Y-49179238D01*
X55534077Y-49024419D01*
X55572782Y-48947010D01*
X55650191Y-48869600D01*
X55766305Y-48830895D01*
X55843715Y-48830895D01*
X55959829Y-48869600D01*
X55998534Y-48908305D01*
X56269467Y-48830895D02*
X56772629Y-48830895D01*
X56501696Y-49140533D01*
X56617810Y-49140533D01*
X56695220Y-49179238D01*
X56733924Y-49217943D01*
X56772629Y-49295352D01*
X56772629Y-49488876D01*
X56733924Y-49566286D01*
X56695220Y-49604990D01*
X56617810Y-49643695D01*
X56385582Y-49643695D01*
X56308172Y-49604990D01*
X56269467Y-49566286D01*
X55909029Y-50100895D02*
X55986438Y-50100895D01*
X56063848Y-50139600D01*
X56102553Y-50178305D01*
X56141257Y-50255714D01*
X56179962Y-50410533D01*
X56179962Y-50604057D01*
X56141257Y-50758876D01*
X56102553Y-50836286D01*
X56063848Y-50874990D01*
X55986438Y-50913695D01*
X55909029Y-50913695D01*
X55831619Y-50874990D01*
X55792915Y-50836286D01*
X55754210Y-50758876D01*
X55715505Y-50604057D01*
X55715505Y-50410533D01*
X55754210Y-50255714D01*
X55792915Y-50178305D01*
X55831619Y-50139600D01*
X55909029Y-50100895D01*
X56528305Y-50836286D02*
X56567010Y-50874990D01*
X56528305Y-50913695D01*
X56489600Y-50874990D01*
X56528305Y-50836286D01*
X56528305Y-50913695D01*
X57341105Y-50913695D02*
X56876648Y-50913695D01*
X57108877Y-50913695D02*
X57108877Y-50100895D01*
X57031467Y-50217010D01*
X56954058Y-50294419D01*
X56876648Y-50333124D01*
X58037791Y-50371829D02*
X58037791Y-50913695D01*
X57689448Y-50371829D02*
X57689448Y-50797581D01*
X57728153Y-50874990D01*
X57805562Y-50913695D01*
X57921676Y-50913695D01*
X57999086Y-50874990D01*
X58037791Y-50836286D01*
X52730401Y-58129714D02*
X52701372Y-58158743D01*
X52614286Y-58187771D01*
X52556229Y-58187771D01*
X52469144Y-58158743D01*
X52411086Y-58100686D01*
X52382058Y-58042629D01*
X52353029Y-57926514D01*
X52353029Y-57839429D01*
X52382058Y-57723314D01*
X52411086Y-57665257D01*
X52469144Y-57607200D01*
X52556229Y-57578171D01*
X52614286Y-57578171D01*
X52701372Y-57607200D01*
X52730401Y-57636229D01*
X53281944Y-57578171D02*
X52991658Y-57578171D01*
X52962629Y-57868457D01*
X52991658Y-57839429D01*
X53049715Y-57810400D01*
X53194858Y-57810400D01*
X53252915Y-57839429D01*
X53281944Y-57868457D01*
X53310972Y-57926514D01*
X53310972Y-58071657D01*
X53281944Y-58129714D01*
X53252915Y-58158743D01*
X53194858Y-58187771D01*
X53049715Y-58187771D01*
X52991658Y-58158743D01*
X52962629Y-58129714D01*
X54885772Y-57578171D02*
X54943829Y-57578171D01*
X55001886Y-57607200D01*
X55030915Y-57636229D01*
X55059944Y-57694286D01*
X55088972Y-57810400D01*
X55088972Y-57955543D01*
X55059944Y-58071657D01*
X55030915Y-58129714D01*
X55001886Y-58158743D01*
X54943829Y-58187771D01*
X54885772Y-58187771D01*
X54827715Y-58158743D01*
X54798686Y-58129714D01*
X54769658Y-58071657D01*
X54740629Y-57955543D01*
X54740629Y-57810400D01*
X54769658Y-57694286D01*
X54798686Y-57636229D01*
X54827715Y-57607200D01*
X54885772Y-57578171D01*
X55350229Y-58129714D02*
X55379257Y-58158743D01*
X55350229Y-58187771D01*
X55321200Y-58158743D01*
X55350229Y-58129714D01*
X55350229Y-58187771D01*
X55959829Y-58187771D02*
X55611486Y-58187771D01*
X55785658Y-58187771D02*
X55785658Y-57578171D01*
X55727601Y-57665257D01*
X55669543Y-57723314D01*
X55611486Y-57752343D01*
X56482343Y-57781371D02*
X56482343Y-58187771D01*
X56221086Y-57781371D02*
X56221086Y-58100686D01*
X56250114Y-58158743D01*
X56308172Y-58187771D01*
X56395257Y-58187771D01*
X56453314Y-58158743D01*
X56482343Y-58129714D01*
X101718534Y-59980286D02*
X101679829Y-60018990D01*
X101563715Y-60057695D01*
X101486305Y-60057695D01*
X101370191Y-60018990D01*
X101292782Y-59941581D01*
X101254077Y-59864171D01*
X101215372Y-59709352D01*
X101215372Y-59593238D01*
X101254077Y-59438419D01*
X101292782Y-59361010D01*
X101370191Y-59283600D01*
X101486305Y-59244895D01*
X101563715Y-59244895D01*
X101679829Y-59283600D01*
X101718534Y-59322305D01*
X102415220Y-59244895D02*
X102260401Y-59244895D01*
X102182991Y-59283600D01*
X102144286Y-59322305D01*
X102066877Y-59438419D01*
X102028172Y-59593238D01*
X102028172Y-59902876D01*
X102066877Y-59980286D01*
X102105582Y-60018990D01*
X102182991Y-60057695D01*
X102337810Y-60057695D01*
X102415220Y-60018990D01*
X102453924Y-59980286D01*
X102492629Y-59902876D01*
X102492629Y-59709352D01*
X102453924Y-59631943D01*
X102415220Y-59593238D01*
X102337810Y-59554533D01*
X102182991Y-59554533D01*
X102105582Y-59593238D01*
X102066877Y-59631943D01*
X102028172Y-59709352D01*
X101121029Y-60260895D02*
X101198438Y-60260895D01*
X101275848Y-60299600D01*
X101314553Y-60338305D01*
X101353257Y-60415714D01*
X101391962Y-60570533D01*
X101391962Y-60764057D01*
X101353257Y-60918876D01*
X101314553Y-60996286D01*
X101275848Y-61034990D01*
X101198438Y-61073695D01*
X101121029Y-61073695D01*
X101043619Y-61034990D01*
X101004915Y-60996286D01*
X100966210Y-60918876D01*
X100927505Y-60764057D01*
X100927505Y-60570533D01*
X100966210Y-60415714D01*
X101004915Y-60338305D01*
X101043619Y-60299600D01*
X101121029Y-60260895D01*
X101740305Y-60996286D02*
X101779010Y-61034990D01*
X101740305Y-61073695D01*
X101701600Y-61034990D01*
X101740305Y-60996286D01*
X101740305Y-61073695D01*
X102553105Y-61073695D02*
X102088648Y-61073695D01*
X102320877Y-61073695D02*
X102320877Y-60260895D01*
X102243467Y-60377010D01*
X102166058Y-60454419D01*
X102088648Y-60493124D01*
X103249791Y-60531829D02*
X103249791Y-61073695D01*
X102901448Y-60531829D02*
X102901448Y-60957581D01*
X102940153Y-61034990D01*
X103017562Y-61073695D01*
X103133676Y-61073695D01*
X103211086Y-61034990D01*
X103249791Y-60996286D01*
X85208534Y-59726286D02*
X85169829Y-59764990D01*
X85053715Y-59803695D01*
X84976305Y-59803695D01*
X84860191Y-59764990D01*
X84782782Y-59687581D01*
X84744077Y-59610171D01*
X84705372Y-59455352D01*
X84705372Y-59339238D01*
X84744077Y-59184419D01*
X84782782Y-59107010D01*
X84860191Y-59029600D01*
X84976305Y-58990895D01*
X85053715Y-58990895D01*
X85169829Y-59029600D01*
X85208534Y-59068305D01*
X85479467Y-58990895D02*
X86021334Y-58990895D01*
X85672991Y-59803695D01*
X85881029Y-60768895D02*
X85958438Y-60768895D01*
X86035848Y-60807600D01*
X86074553Y-60846305D01*
X86113257Y-60923714D01*
X86151962Y-61078533D01*
X86151962Y-61272057D01*
X86113257Y-61426876D01*
X86074553Y-61504286D01*
X86035848Y-61542990D01*
X85958438Y-61581695D01*
X85881029Y-61581695D01*
X85803619Y-61542990D01*
X85764915Y-61504286D01*
X85726210Y-61426876D01*
X85687505Y-61272057D01*
X85687505Y-61078533D01*
X85726210Y-60923714D01*
X85764915Y-60846305D01*
X85803619Y-60807600D01*
X85881029Y-60768895D01*
X86500305Y-61504286D02*
X86539010Y-61542990D01*
X86500305Y-61581695D01*
X86461600Y-61542990D01*
X86500305Y-61504286D01*
X86500305Y-61581695D01*
X87313105Y-61581695D02*
X86848648Y-61581695D01*
X87080877Y-61581695D02*
X87080877Y-60768895D01*
X87003467Y-60885010D01*
X86926058Y-60962419D01*
X86848648Y-61001124D01*
X88009791Y-61039829D02*
X88009791Y-61581695D01*
X87661448Y-61039829D02*
X87661448Y-61465581D01*
X87700153Y-61542990D01*
X87777562Y-61581695D01*
X87893676Y-61581695D01*
X87971086Y-61542990D01*
X88009791Y-61504286D01*
X82414534Y-69378286D02*
X82375829Y-69416990D01*
X82259715Y-69455695D01*
X82182305Y-69455695D01*
X82066191Y-69416990D01*
X81988782Y-69339581D01*
X81950077Y-69262171D01*
X81911372Y-69107352D01*
X81911372Y-68991238D01*
X81950077Y-68836419D01*
X81988782Y-68759010D01*
X82066191Y-68681600D01*
X82182305Y-68642895D01*
X82259715Y-68642895D01*
X82375829Y-68681600D01*
X82414534Y-68720305D01*
X82878991Y-68991238D02*
X82801582Y-68952533D01*
X82762877Y-68913829D01*
X82724172Y-68836419D01*
X82724172Y-68797714D01*
X82762877Y-68720305D01*
X82801582Y-68681600D01*
X82878991Y-68642895D01*
X83033810Y-68642895D01*
X83111220Y-68681600D01*
X83149924Y-68720305D01*
X83188629Y-68797714D01*
X83188629Y-68836419D01*
X83149924Y-68913829D01*
X83111220Y-68952533D01*
X83033810Y-68991238D01*
X82878991Y-68991238D01*
X82801582Y-69029943D01*
X82762877Y-69068648D01*
X82724172Y-69146057D01*
X82724172Y-69300876D01*
X82762877Y-69378286D01*
X82801582Y-69416990D01*
X82878991Y-69455695D01*
X83033810Y-69455695D01*
X83111220Y-69416990D01*
X83149924Y-69378286D01*
X83188629Y-69300876D01*
X83188629Y-69146057D01*
X83149924Y-69068648D01*
X83111220Y-69029943D01*
X83033810Y-68991238D01*
X81563029Y-69658895D02*
X81640438Y-69658895D01*
X81717848Y-69697600D01*
X81756553Y-69736305D01*
X81795257Y-69813714D01*
X81833962Y-69968533D01*
X81833962Y-70162057D01*
X81795257Y-70316876D01*
X81756553Y-70394286D01*
X81717848Y-70432990D01*
X81640438Y-70471695D01*
X81563029Y-70471695D01*
X81485619Y-70432990D01*
X81446915Y-70394286D01*
X81408210Y-70316876D01*
X81369505Y-70162057D01*
X81369505Y-69968533D01*
X81408210Y-69813714D01*
X81446915Y-69736305D01*
X81485619Y-69697600D01*
X81563029Y-69658895D01*
X82182305Y-70394286D02*
X82221010Y-70432990D01*
X82182305Y-70471695D01*
X82143600Y-70432990D01*
X82182305Y-70394286D01*
X82182305Y-70471695D01*
X82995105Y-70471695D02*
X82530648Y-70471695D01*
X82762877Y-70471695D02*
X82762877Y-69658895D01*
X82685467Y-69775010D01*
X82608058Y-69852419D01*
X82530648Y-69891124D01*
X83691791Y-69929829D02*
X83691791Y-70471695D01*
X83343448Y-69929829D02*
X83343448Y-70355581D01*
X83382153Y-70432990D01*
X83459562Y-70471695D01*
X83575676Y-70471695D01*
X83653086Y-70432990D01*
X83691791Y-70394286D01*
X103496534Y-69378286D02*
X103457829Y-69416990D01*
X103341715Y-69455695D01*
X103264305Y-69455695D01*
X103148191Y-69416990D01*
X103070782Y-69339581D01*
X103032077Y-69262171D01*
X102993372Y-69107352D01*
X102993372Y-68991238D01*
X103032077Y-68836419D01*
X103070782Y-68759010D01*
X103148191Y-68681600D01*
X103264305Y-68642895D01*
X103341715Y-68642895D01*
X103457829Y-68681600D01*
X103496534Y-68720305D01*
X103883582Y-69455695D02*
X104038401Y-69455695D01*
X104115810Y-69416990D01*
X104154515Y-69378286D01*
X104231924Y-69262171D01*
X104270629Y-69107352D01*
X104270629Y-68797714D01*
X104231924Y-68720305D01*
X104193220Y-68681600D01*
X104115810Y-68642895D01*
X103960991Y-68642895D01*
X103883582Y-68681600D01*
X103844877Y-68720305D01*
X103806172Y-68797714D01*
X103806172Y-68991238D01*
X103844877Y-69068648D01*
X103883582Y-69107352D01*
X103960991Y-69146057D01*
X104115810Y-69146057D01*
X104193220Y-69107352D01*
X104231924Y-69068648D01*
X104270629Y-68991238D01*
X102391029Y-69912895D02*
X102468438Y-69912895D01*
X102545848Y-69951600D01*
X102584553Y-69990305D01*
X102623257Y-70067714D01*
X102661962Y-70222533D01*
X102661962Y-70416057D01*
X102623257Y-70570876D01*
X102584553Y-70648286D01*
X102545848Y-70686990D01*
X102468438Y-70725695D01*
X102391029Y-70725695D01*
X102313619Y-70686990D01*
X102274915Y-70648286D01*
X102236210Y-70570876D01*
X102197505Y-70416057D01*
X102197505Y-70222533D01*
X102236210Y-70067714D01*
X102274915Y-69990305D01*
X102313619Y-69951600D01*
X102391029Y-69912895D01*
X103010305Y-70648286D02*
X103049010Y-70686990D01*
X103010305Y-70725695D01*
X102971600Y-70686990D01*
X103010305Y-70648286D01*
X103010305Y-70725695D01*
X103823105Y-70725695D02*
X103358648Y-70725695D01*
X103590877Y-70725695D02*
X103590877Y-69912895D01*
X103513467Y-70029010D01*
X103436058Y-70106419D01*
X103358648Y-70145124D01*
X104519791Y-70183829D02*
X104519791Y-70725695D01*
X104171448Y-70183829D02*
X104171448Y-70609581D01*
X104210153Y-70686990D01*
X104287562Y-70725695D01*
X104403676Y-70725695D01*
X104481086Y-70686990D01*
X104519791Y-70648286D01*
X101128286Y-75706514D02*
X101166990Y-75745219D01*
X101205695Y-75861333D01*
X101205695Y-75938743D01*
X101166990Y-76054857D01*
X101089581Y-76132266D01*
X101012171Y-76170971D01*
X100857352Y-76209676D01*
X100741238Y-76209676D01*
X100586419Y-76170971D01*
X100509010Y-76132266D01*
X100431600Y-76054857D01*
X100392895Y-75938743D01*
X100392895Y-75861333D01*
X100431600Y-75745219D01*
X100470305Y-75706514D01*
X101205695Y-74932419D02*
X101205695Y-75396876D01*
X101205695Y-75164647D02*
X100392895Y-75164647D01*
X100509010Y-75242057D01*
X100586419Y-75319466D01*
X100625124Y-75396876D01*
X100392895Y-74429257D02*
X100392895Y-74351848D01*
X100431600Y-74274438D01*
X100470305Y-74235733D01*
X100547714Y-74197029D01*
X100702533Y-74158324D01*
X100896057Y-74158324D01*
X101050876Y-74197029D01*
X101128286Y-74235733D01*
X101166990Y-74274438D01*
X101205695Y-74351848D01*
X101205695Y-74429257D01*
X101166990Y-74506667D01*
X101128286Y-74545371D01*
X101050876Y-74584076D01*
X100896057Y-74622781D01*
X100702533Y-74622781D01*
X100547714Y-74584076D01*
X100470305Y-74545371D01*
X100431600Y-74506667D01*
X100392895Y-74429257D01*
X102221695Y-75319466D02*
X102221695Y-75783923D01*
X102221695Y-75551694D02*
X101408895Y-75551694D01*
X101525010Y-75629104D01*
X101602419Y-75706513D01*
X101641124Y-75783923D01*
X101679829Y-74622780D02*
X102221695Y-74622780D01*
X101679829Y-74971123D02*
X102105581Y-74971123D01*
X102182990Y-74932418D01*
X102221695Y-74855009D01*
X102221695Y-74738895D01*
X102182990Y-74661485D01*
X102144286Y-74622780D01*
X96810286Y-78246514D02*
X96848990Y-78285219D01*
X96887695Y-78401333D01*
X96887695Y-78478743D01*
X96848990Y-78594857D01*
X96771581Y-78672266D01*
X96694171Y-78710971D01*
X96539352Y-78749676D01*
X96423238Y-78749676D01*
X96268419Y-78710971D01*
X96191010Y-78672266D01*
X96113600Y-78594857D01*
X96074895Y-78478743D01*
X96074895Y-78401333D01*
X96113600Y-78285219D01*
X96152305Y-78246514D01*
X96887695Y-77472419D02*
X96887695Y-77936876D01*
X96887695Y-77704647D02*
X96074895Y-77704647D01*
X96191010Y-77782057D01*
X96268419Y-77859466D01*
X96307124Y-77936876D01*
X96887695Y-76698324D02*
X96887695Y-77162781D01*
X96887695Y-76930552D02*
X96074895Y-76930552D01*
X96191010Y-77007962D01*
X96268419Y-77085371D01*
X96307124Y-77162781D01*
X97090895Y-78964971D02*
X97090895Y-78887562D01*
X97129600Y-78810152D01*
X97168305Y-78771447D01*
X97245714Y-78732743D01*
X97400533Y-78694038D01*
X97594057Y-78694038D01*
X97748876Y-78732743D01*
X97826286Y-78771447D01*
X97864990Y-78810152D01*
X97903695Y-78887562D01*
X97903695Y-78964971D01*
X97864990Y-79042381D01*
X97826286Y-79081085D01*
X97748876Y-79119790D01*
X97594057Y-79158495D01*
X97400533Y-79158495D01*
X97245714Y-79119790D01*
X97168305Y-79081085D01*
X97129600Y-79042381D01*
X97090895Y-78964971D01*
X97826286Y-78345695D02*
X97864990Y-78306990D01*
X97903695Y-78345695D01*
X97864990Y-78384400D01*
X97826286Y-78345695D01*
X97903695Y-78345695D01*
X97903695Y-77532895D02*
X97903695Y-77997352D01*
X97903695Y-77765123D02*
X97090895Y-77765123D01*
X97207010Y-77842533D01*
X97284419Y-77919942D01*
X97323124Y-77997352D01*
X97361829Y-76836209D02*
X97903695Y-76836209D01*
X97361829Y-77184552D02*
X97787581Y-77184552D01*
X97864990Y-77145847D01*
X97903695Y-77068438D01*
X97903695Y-76952324D01*
X97864990Y-76874914D01*
X97826286Y-76836209D01*
X116571486Y-75474286D02*
X116532781Y-75512990D01*
X116416667Y-75551695D01*
X116339257Y-75551695D01*
X116223143Y-75512990D01*
X116145734Y-75435581D01*
X116107029Y-75358171D01*
X116068324Y-75203352D01*
X116068324Y-75087238D01*
X116107029Y-74932419D01*
X116145734Y-74855010D01*
X116223143Y-74777600D01*
X116339257Y-74738895D01*
X116416667Y-74738895D01*
X116532781Y-74777600D01*
X116571486Y-74816305D01*
X117345581Y-75551695D02*
X116881124Y-75551695D01*
X117113353Y-75551695D02*
X117113353Y-74738895D01*
X117035943Y-74855010D01*
X116958534Y-74932419D01*
X116881124Y-74971124D01*
X117655219Y-74816305D02*
X117693924Y-74777600D01*
X117771333Y-74738895D01*
X117964857Y-74738895D01*
X118042267Y-74777600D01*
X118080971Y-74816305D01*
X118119676Y-74893714D01*
X118119676Y-74971124D01*
X118080971Y-75087238D01*
X117616514Y-75551695D01*
X118119676Y-75551695D01*
X116361029Y-75754895D02*
X116438438Y-75754895D01*
X116515848Y-75793600D01*
X116554553Y-75832305D01*
X116593257Y-75909714D01*
X116631962Y-76064533D01*
X116631962Y-76258057D01*
X116593257Y-76412876D01*
X116554553Y-76490286D01*
X116515848Y-76528990D01*
X116438438Y-76567695D01*
X116361029Y-76567695D01*
X116283619Y-76528990D01*
X116244915Y-76490286D01*
X116206210Y-76412876D01*
X116167505Y-76258057D01*
X116167505Y-76064533D01*
X116206210Y-75909714D01*
X116244915Y-75832305D01*
X116283619Y-75793600D01*
X116361029Y-75754895D01*
X116980305Y-76490286D02*
X117019010Y-76528990D01*
X116980305Y-76567695D01*
X116941600Y-76528990D01*
X116980305Y-76490286D01*
X116980305Y-76567695D01*
X117793105Y-76567695D02*
X117328648Y-76567695D01*
X117560877Y-76567695D02*
X117560877Y-75754895D01*
X117483467Y-75871010D01*
X117406058Y-75948419D01*
X117328648Y-75987124D01*
X118489791Y-76025829D02*
X118489791Y-76567695D01*
X118141448Y-76025829D02*
X118141448Y-76451581D01*
X118180153Y-76528990D01*
X118257562Y-76567695D01*
X118373676Y-76567695D01*
X118451086Y-76528990D01*
X118489791Y-76490286D01*
X91679486Y-83602286D02*
X91640781Y-83640990D01*
X91524667Y-83679695D01*
X91447257Y-83679695D01*
X91331143Y-83640990D01*
X91253734Y-83563581D01*
X91215029Y-83486171D01*
X91176324Y-83331352D01*
X91176324Y-83215238D01*
X91215029Y-83060419D01*
X91253734Y-82983010D01*
X91331143Y-82905600D01*
X91447257Y-82866895D01*
X91524667Y-82866895D01*
X91640781Y-82905600D01*
X91679486Y-82944305D01*
X92453581Y-83679695D02*
X91989124Y-83679695D01*
X92221353Y-83679695D02*
X92221353Y-82866895D01*
X92143943Y-82983010D01*
X92066534Y-83060419D01*
X91989124Y-83099124D01*
X92724514Y-82866895D02*
X93227676Y-82866895D01*
X92956743Y-83176533D01*
X93072857Y-83176533D01*
X93150267Y-83215238D01*
X93188971Y-83253943D01*
X93227676Y-83331352D01*
X93227676Y-83524876D01*
X93188971Y-83602286D01*
X93150267Y-83640990D01*
X93072857Y-83679695D01*
X92840629Y-83679695D01*
X92763219Y-83640990D01*
X92724514Y-83602286D01*
X90961029Y-83960305D02*
X90999734Y-83921600D01*
X91077143Y-83882895D01*
X91270667Y-83882895D01*
X91348077Y-83921600D01*
X91386781Y-83960305D01*
X91425486Y-84037714D01*
X91425486Y-84115124D01*
X91386781Y-84231238D01*
X90922324Y-84695695D01*
X91425486Y-84695695D01*
X91735124Y-83960305D02*
X91773829Y-83921600D01*
X91851238Y-83882895D01*
X92044762Y-83882895D01*
X92122172Y-83921600D01*
X92160876Y-83960305D01*
X92199581Y-84037714D01*
X92199581Y-84115124D01*
X92160876Y-84231238D01*
X91696419Y-84695695D01*
X92199581Y-84695695D01*
X92547924Y-84153829D02*
X92547924Y-84966629D01*
X92547924Y-84192533D02*
X92625333Y-84153829D01*
X92780152Y-84153829D01*
X92857562Y-84192533D01*
X92896267Y-84231238D01*
X92934971Y-84308648D01*
X92934971Y-84540876D01*
X92896267Y-84618286D01*
X92857562Y-84656990D01*
X92780152Y-84695695D01*
X92625333Y-84695695D01*
X92547924Y-84656990D01*
X87615486Y-83602286D02*
X87576781Y-83640990D01*
X87460667Y-83679695D01*
X87383257Y-83679695D01*
X87267143Y-83640990D01*
X87189734Y-83563581D01*
X87151029Y-83486171D01*
X87112324Y-83331352D01*
X87112324Y-83215238D01*
X87151029Y-83060419D01*
X87189734Y-82983010D01*
X87267143Y-82905600D01*
X87383257Y-82866895D01*
X87460667Y-82866895D01*
X87576781Y-82905600D01*
X87615486Y-82944305D01*
X88389581Y-83679695D02*
X87925124Y-83679695D01*
X88157353Y-83679695D02*
X88157353Y-82866895D01*
X88079943Y-82983010D01*
X88002534Y-83060419D01*
X87925124Y-83099124D01*
X89086267Y-83137829D02*
X89086267Y-83679695D01*
X88892743Y-82828190D02*
X88699219Y-83408762D01*
X89202381Y-83408762D01*
X87405029Y-83960305D02*
X87443734Y-83921600D01*
X87521143Y-83882895D01*
X87714667Y-83882895D01*
X87792077Y-83921600D01*
X87830781Y-83960305D01*
X87869486Y-84037714D01*
X87869486Y-84115124D01*
X87830781Y-84231238D01*
X87366324Y-84695695D01*
X87869486Y-84695695D01*
X88179124Y-83960305D02*
X88217829Y-83921600D01*
X88295238Y-83882895D01*
X88488762Y-83882895D01*
X88566172Y-83921600D01*
X88604876Y-83960305D01*
X88643581Y-84037714D01*
X88643581Y-84115124D01*
X88604876Y-84231238D01*
X88140419Y-84695695D01*
X88643581Y-84695695D01*
X88991924Y-84153829D02*
X88991924Y-84966629D01*
X88991924Y-84192533D02*
X89069333Y-84153829D01*
X89224152Y-84153829D01*
X89301562Y-84192533D01*
X89340267Y-84231238D01*
X89378971Y-84308648D01*
X89378971Y-84540876D01*
X89340267Y-84618286D01*
X89301562Y-84656990D01*
X89224152Y-84695695D01*
X89069333Y-84695695D01*
X88991924Y-84656990D01*
X54010077Y-76059695D02*
X54010077Y-75246895D01*
X54203601Y-75246895D01*
X54319715Y-75285600D01*
X54397124Y-75363010D01*
X54435829Y-75440419D01*
X54474534Y-75595238D01*
X54474534Y-75711352D01*
X54435829Y-75866171D01*
X54397124Y-75943581D01*
X54319715Y-76020990D01*
X54203601Y-76059695D01*
X54010077Y-76059695D01*
X55248629Y-76059695D02*
X54784172Y-76059695D01*
X55016401Y-76059695D02*
X55016401Y-75246895D01*
X54938991Y-75363010D01*
X54861582Y-75440419D01*
X54784172Y-75479124D01*
X49522744Y-74189771D02*
X49319544Y-73899486D01*
X49174401Y-74189771D02*
X49174401Y-73580171D01*
X49406629Y-73580171D01*
X49464687Y-73609200D01*
X49493715Y-73638229D01*
X49522744Y-73696286D01*
X49522744Y-73783371D01*
X49493715Y-73841429D01*
X49464687Y-73870457D01*
X49406629Y-73899486D01*
X49174401Y-73899486D01*
X49987201Y-73870457D02*
X50074287Y-73899486D01*
X50103315Y-73928514D01*
X50132344Y-73986571D01*
X50132344Y-74073657D01*
X50103315Y-74131714D01*
X50074287Y-74160743D01*
X50016229Y-74189771D01*
X49784001Y-74189771D01*
X49784001Y-73580171D01*
X49987201Y-73580171D01*
X50045258Y-73609200D01*
X50074287Y-73638229D01*
X50103315Y-73696286D01*
X50103315Y-73754343D01*
X50074287Y-73812400D01*
X50045258Y-73841429D01*
X49987201Y-73870457D01*
X49784001Y-73870457D01*
X50683887Y-73580171D02*
X50393601Y-73580171D01*
X50364572Y-73870457D01*
X50393601Y-73841429D01*
X50451658Y-73812400D01*
X50596801Y-73812400D01*
X50654858Y-73841429D01*
X50683887Y-73870457D01*
X50712915Y-73928514D01*
X50712915Y-74073657D01*
X50683887Y-74131714D01*
X50654858Y-74160743D01*
X50596801Y-74189771D01*
X50451658Y-74189771D01*
X50393601Y-74160743D01*
X50364572Y-74131714D01*
X50945143Y-73638229D02*
X50974172Y-73609200D01*
X51032229Y-73580171D01*
X51177372Y-73580171D01*
X51235429Y-73609200D01*
X51264458Y-73638229D01*
X51293486Y-73696286D01*
X51293486Y-73754343D01*
X51264458Y-73841429D01*
X50916115Y-74189771D01*
X51293486Y-74189771D01*
X51670857Y-73580171D02*
X51728914Y-73580171D01*
X51786971Y-73609200D01*
X51816000Y-73638229D01*
X51845029Y-73696286D01*
X51874057Y-73812400D01*
X51874057Y-73957543D01*
X51845029Y-74073657D01*
X51816000Y-74131714D01*
X51786971Y-74160743D01*
X51728914Y-74189771D01*
X51670857Y-74189771D01*
X51612800Y-74160743D01*
X51583771Y-74131714D01*
X51554743Y-74073657D01*
X51525714Y-73957543D01*
X51525714Y-73812400D01*
X51554743Y-73696286D01*
X51583771Y-73638229D01*
X51612800Y-73609200D01*
X51670857Y-73580171D01*
X52106285Y-74160743D02*
X52193371Y-74189771D01*
X52338514Y-74189771D01*
X52396571Y-74160743D01*
X52425600Y-74131714D01*
X52454628Y-74073657D01*
X52454628Y-74015600D01*
X52425600Y-73957543D01*
X52396571Y-73928514D01*
X52338514Y-73899486D01*
X52222400Y-73870457D01*
X52164342Y-73841429D01*
X52135314Y-73812400D01*
X52106285Y-73754343D01*
X52106285Y-73696286D01*
X52135314Y-73638229D01*
X52164342Y-73609200D01*
X52222400Y-73580171D01*
X52367542Y-73580171D01*
X52454628Y-73609200D01*
X53961695Y-54193923D02*
X53148895Y-54193923D01*
X53148895Y-54000399D01*
X53187600Y-53884285D01*
X53265010Y-53806876D01*
X53342419Y-53768171D01*
X53497238Y-53729466D01*
X53613352Y-53729466D01*
X53768171Y-53768171D01*
X53845581Y-53806876D01*
X53922990Y-53884285D01*
X53961695Y-54000399D01*
X53961695Y-54193923D01*
X53226305Y-53419828D02*
X53187600Y-53381123D01*
X53148895Y-53303714D01*
X53148895Y-53110190D01*
X53187600Y-53032780D01*
X53226305Y-52994076D01*
X53303714Y-52955371D01*
X53381124Y-52955371D01*
X53497238Y-52994076D01*
X53961695Y-53458533D01*
X53961695Y-52955371D01*
X56409771Y-55887256D02*
X56119486Y-56090456D01*
X56409771Y-56235599D02*
X55800171Y-56235599D01*
X55800171Y-56003371D01*
X55829200Y-55945313D01*
X55858229Y-55916285D01*
X55916286Y-55887256D01*
X56003371Y-55887256D01*
X56061429Y-55916285D01*
X56090457Y-55945313D01*
X56119486Y-56003371D01*
X56119486Y-56235599D01*
X56090457Y-55422799D02*
X56119486Y-55335713D01*
X56148514Y-55306685D01*
X56206571Y-55277656D01*
X56293657Y-55277656D01*
X56351714Y-55306685D01*
X56380743Y-55335713D01*
X56409771Y-55393771D01*
X56409771Y-55625999D01*
X55800171Y-55625999D01*
X55800171Y-55422799D01*
X55829200Y-55364742D01*
X55858229Y-55335713D01*
X55916286Y-55306685D01*
X55974343Y-55306685D01*
X56032400Y-55335713D01*
X56061429Y-55364742D01*
X56090457Y-55422799D01*
X56090457Y-55625999D01*
X55800171Y-54726113D02*
X55800171Y-55016399D01*
X56090457Y-55045428D01*
X56061429Y-55016399D01*
X56032400Y-54958342D01*
X56032400Y-54813199D01*
X56061429Y-54755142D01*
X56090457Y-54726113D01*
X56148514Y-54697085D01*
X56293657Y-54697085D01*
X56351714Y-54726113D01*
X56380743Y-54755142D01*
X56409771Y-54813199D01*
X56409771Y-54958342D01*
X56380743Y-55016399D01*
X56351714Y-55045428D01*
X55858229Y-54464857D02*
X55829200Y-54435828D01*
X55800171Y-54377771D01*
X55800171Y-54232628D01*
X55829200Y-54174571D01*
X55858229Y-54145542D01*
X55916286Y-54116514D01*
X55974343Y-54116514D01*
X56061429Y-54145542D01*
X56409771Y-54493885D01*
X56409771Y-54116514D01*
X55800171Y-53739143D02*
X55800171Y-53681086D01*
X55829200Y-53623029D01*
X55858229Y-53594000D01*
X55916286Y-53564971D01*
X56032400Y-53535943D01*
X56177543Y-53535943D01*
X56293657Y-53564971D01*
X56351714Y-53594000D01*
X56380743Y-53623029D01*
X56409771Y-53681086D01*
X56409771Y-53739143D01*
X56380743Y-53797200D01*
X56351714Y-53826229D01*
X56293657Y-53855257D01*
X56177543Y-53884286D01*
X56032400Y-53884286D01*
X55916286Y-53855257D01*
X55858229Y-53826229D01*
X55829200Y-53797200D01*
X55800171Y-53739143D01*
X56380743Y-53303715D02*
X56409771Y-53216629D01*
X56409771Y-53071486D01*
X56380743Y-53013429D01*
X56351714Y-52984400D01*
X56293657Y-52955372D01*
X56235600Y-52955372D01*
X56177543Y-52984400D01*
X56148514Y-53013429D01*
X56119486Y-53071486D01*
X56090457Y-53187600D01*
X56061429Y-53245658D01*
X56032400Y-53274686D01*
X55974343Y-53303715D01*
X55916286Y-53303715D01*
X55858229Y-53274686D01*
X55829200Y-53245658D01*
X55800171Y-53187600D01*
X55800171Y-53042458D01*
X55829200Y-52955372D01*
X69479695Y-64353923D02*
X68666895Y-64353923D01*
X68666895Y-64160399D01*
X68705600Y-64044285D01*
X68783010Y-63966876D01*
X68860419Y-63928171D01*
X69015238Y-63889466D01*
X69131352Y-63889466D01*
X69286171Y-63928171D01*
X69363581Y-63966876D01*
X69440990Y-64044285D01*
X69479695Y-64160399D01*
X69479695Y-64353923D01*
X68937829Y-63192780D02*
X69479695Y-63192780D01*
X68628190Y-63386304D02*
X69208762Y-63579828D01*
X69208762Y-63076666D01*
X72479695Y-64276514D02*
X72479695Y-64663561D01*
X71666895Y-64663561D01*
X72053943Y-64005580D02*
X72053943Y-63734647D01*
X72479695Y-63618533D02*
X72479695Y-64005580D01*
X71666895Y-64005580D01*
X71666895Y-63618533D01*
X72479695Y-63270190D02*
X71666895Y-63270190D01*
X71666895Y-63076666D01*
X71705600Y-62960552D01*
X71783010Y-62883143D01*
X71860419Y-62844438D01*
X72015238Y-62805733D01*
X72131352Y-62805733D01*
X72286171Y-62844438D01*
X72363581Y-62883143D01*
X72440990Y-62960552D01*
X72479695Y-63076666D01*
X72479695Y-63270190D01*
X71257695Y-70703923D02*
X70444895Y-70703923D01*
X70444895Y-70510399D01*
X70483600Y-70394285D01*
X70561010Y-70316876D01*
X70638419Y-70278171D01*
X70793238Y-70239466D01*
X70909352Y-70239466D01*
X71064171Y-70278171D01*
X71141581Y-70316876D01*
X71218990Y-70394285D01*
X71257695Y-70510399D01*
X71257695Y-70703923D01*
X70444895Y-69504076D02*
X70444895Y-69891123D01*
X70831943Y-69929828D01*
X70793238Y-69891123D01*
X70754533Y-69813714D01*
X70754533Y-69620190D01*
X70793238Y-69542780D01*
X70831943Y-69504076D01*
X70909352Y-69465371D01*
X71102876Y-69465371D01*
X71180286Y-69504076D01*
X71218990Y-69542780D01*
X71257695Y-69620190D01*
X71257695Y-69813714D01*
X71218990Y-69891123D01*
X71180286Y-69929828D01*
X74257695Y-70626514D02*
X74257695Y-71013561D01*
X73444895Y-71013561D01*
X73831943Y-70355580D02*
X73831943Y-70084647D01*
X74257695Y-69968533D02*
X74257695Y-70355580D01*
X73444895Y-70355580D01*
X73444895Y-69968533D01*
X74257695Y-69620190D02*
X73444895Y-69620190D01*
X73444895Y-69426666D01*
X73483600Y-69310552D01*
X73561010Y-69233143D01*
X73638419Y-69194438D01*
X73793238Y-69155733D01*
X73909352Y-69155733D01*
X74064171Y-69194438D01*
X74141581Y-69233143D01*
X74218990Y-69310552D01*
X74257695Y-69426666D01*
X74257695Y-69620190D01*
X76337695Y-70703923D02*
X75524895Y-70703923D01*
X75524895Y-70510399D01*
X75563600Y-70394285D01*
X75641010Y-70316876D01*
X75718419Y-70278171D01*
X75873238Y-70239466D01*
X75989352Y-70239466D01*
X76144171Y-70278171D01*
X76221581Y-70316876D01*
X76298990Y-70394285D01*
X76337695Y-70510399D01*
X76337695Y-70703923D01*
X75524895Y-69542780D02*
X75524895Y-69697599D01*
X75563600Y-69775009D01*
X75602305Y-69813714D01*
X75718419Y-69891123D01*
X75873238Y-69929828D01*
X76182876Y-69929828D01*
X76260286Y-69891123D01*
X76298990Y-69852418D01*
X76337695Y-69775009D01*
X76337695Y-69620190D01*
X76298990Y-69542780D01*
X76260286Y-69504076D01*
X76182876Y-69465371D01*
X75989352Y-69465371D01*
X75911943Y-69504076D01*
X75873238Y-69542780D01*
X75834533Y-69620190D01*
X75834533Y-69775009D01*
X75873238Y-69852418D01*
X75911943Y-69891123D01*
X75989352Y-69929828D01*
X79337695Y-70626514D02*
X79337695Y-71013561D01*
X78524895Y-71013561D01*
X78911943Y-70355580D02*
X78911943Y-70084647D01*
X79337695Y-69968533D02*
X79337695Y-70355580D01*
X78524895Y-70355580D01*
X78524895Y-69968533D01*
X79337695Y-69620190D02*
X78524895Y-69620190D01*
X78524895Y-69426666D01*
X78563600Y-69310552D01*
X78641010Y-69233143D01*
X78718419Y-69194438D01*
X78873238Y-69155733D01*
X78989352Y-69155733D01*
X79144171Y-69194438D01*
X79221581Y-69233143D01*
X79298990Y-69310552D01*
X79337695Y-69426666D01*
X79337695Y-69620190D01*
X74838077Y-80377695D02*
X74838077Y-79564895D01*
X75031601Y-79564895D01*
X75147715Y-79603600D01*
X75225124Y-79681010D01*
X75263829Y-79758419D01*
X75302534Y-79913238D01*
X75302534Y-80029352D01*
X75263829Y-80184171D01*
X75225124Y-80261581D01*
X75147715Y-80338990D01*
X75031601Y-80377695D01*
X74838077Y-80377695D01*
X75573467Y-79564895D02*
X76115334Y-79564895D01*
X75766991Y-80377695D01*
X72121486Y-82917695D02*
X71734439Y-82917695D01*
X71734439Y-82104895D01*
X72392420Y-82491943D02*
X72663353Y-82491943D01*
X72779467Y-82917695D02*
X72392420Y-82917695D01*
X72392420Y-82104895D01*
X72779467Y-82104895D01*
X73127810Y-82917695D02*
X73127810Y-82104895D01*
X73321334Y-82104895D01*
X73437448Y-82143600D01*
X73514857Y-82221010D01*
X73553562Y-82298419D01*
X73592267Y-82453238D01*
X73592267Y-82569352D01*
X73553562Y-82724171D01*
X73514857Y-82801581D01*
X73437448Y-82878990D01*
X73321334Y-82917695D01*
X73127810Y-82917695D01*
X94650077Y-81647695D02*
X94650077Y-80834895D01*
X94843601Y-80834895D01*
X94959715Y-80873600D01*
X95037124Y-80951010D01*
X95075829Y-81028419D01*
X95114534Y-81183238D01*
X95114534Y-81299352D01*
X95075829Y-81454171D01*
X95037124Y-81531581D01*
X94959715Y-81608990D01*
X94843601Y-81647695D01*
X94650077Y-81647695D01*
X95578991Y-81183238D02*
X95501582Y-81144533D01*
X95462877Y-81105829D01*
X95424172Y-81028419D01*
X95424172Y-80989714D01*
X95462877Y-80912305D01*
X95501582Y-80873600D01*
X95578991Y-80834895D01*
X95733810Y-80834895D01*
X95811220Y-80873600D01*
X95849924Y-80912305D01*
X95888629Y-80989714D01*
X95888629Y-81028419D01*
X95849924Y-81105829D01*
X95811220Y-81144533D01*
X95733810Y-81183238D01*
X95578991Y-81183238D01*
X95501582Y-81221943D01*
X95462877Y-81260648D01*
X95424172Y-81338057D01*
X95424172Y-81492876D01*
X95462877Y-81570286D01*
X95501582Y-81608990D01*
X95578991Y-81647695D01*
X95733810Y-81647695D01*
X95811220Y-81608990D01*
X95849924Y-81570286D01*
X95888629Y-81492876D01*
X95888629Y-81338057D01*
X95849924Y-81260648D01*
X95811220Y-81221943D01*
X95733810Y-81183238D01*
X94727486Y-82663695D02*
X94340439Y-82663695D01*
X94340439Y-81850895D01*
X94998420Y-82237943D02*
X95269353Y-82237943D01*
X95385467Y-82663695D02*
X94998420Y-82663695D01*
X94998420Y-81850895D01*
X95385467Y-81850895D01*
X95733810Y-82663695D02*
X95733810Y-81850895D01*
X95927334Y-81850895D01*
X96043448Y-81889600D01*
X96120857Y-81967010D01*
X96159562Y-82044419D01*
X96198267Y-82199238D01*
X96198267Y-82315352D01*
X96159562Y-82470171D01*
X96120857Y-82547581D01*
X96043448Y-82624990D01*
X95927334Y-82663695D01*
X95733810Y-82663695D01*
X103286077Y-81647695D02*
X103286077Y-80834895D01*
X103479601Y-80834895D01*
X103595715Y-80873600D01*
X103673124Y-80951010D01*
X103711829Y-81028419D01*
X103750534Y-81183238D01*
X103750534Y-81299352D01*
X103711829Y-81454171D01*
X103673124Y-81531581D01*
X103595715Y-81608990D01*
X103479601Y-81647695D01*
X103286077Y-81647695D01*
X104137582Y-81647695D02*
X104292401Y-81647695D01*
X104369810Y-81608990D01*
X104408515Y-81570286D01*
X104485924Y-81454171D01*
X104524629Y-81299352D01*
X104524629Y-80989714D01*
X104485924Y-80912305D01*
X104447220Y-80873600D01*
X104369810Y-80834895D01*
X104214991Y-80834895D01*
X104137582Y-80873600D01*
X104098877Y-80912305D01*
X104060172Y-80989714D01*
X104060172Y-81183238D01*
X104098877Y-81260648D01*
X104137582Y-81299352D01*
X104214991Y-81338057D01*
X104369810Y-81338057D01*
X104447220Y-81299352D01*
X104485924Y-81260648D01*
X104524629Y-81183238D01*
X103363486Y-82663695D02*
X102976439Y-82663695D01*
X102976439Y-81850895D01*
X103634420Y-82237943D02*
X103905353Y-82237943D01*
X104021467Y-82663695D02*
X103634420Y-82663695D01*
X103634420Y-81850895D01*
X104021467Y-81850895D01*
X104369810Y-82663695D02*
X104369810Y-81850895D01*
X104563334Y-81850895D01*
X104679448Y-81889600D01*
X104756857Y-81967010D01*
X104795562Y-82044419D01*
X104834267Y-82199238D01*
X104834267Y-82315352D01*
X104795562Y-82470171D01*
X104756857Y-82547581D01*
X104679448Y-82624990D01*
X104563334Y-82663695D01*
X104369810Y-82663695D01*
X64163105Y-80087410D02*
X64124400Y-80164819D01*
X64046990Y-80242229D01*
X63930876Y-80358343D01*
X63892171Y-80435752D01*
X63892171Y-80513162D01*
X64085695Y-80474457D02*
X64046990Y-80551867D01*
X63969581Y-80629276D01*
X63814762Y-80667981D01*
X63543829Y-80667981D01*
X63389010Y-80629276D01*
X63311600Y-80551867D01*
X63272895Y-80474457D01*
X63272895Y-80319638D01*
X63311600Y-80242229D01*
X63389010Y-80164819D01*
X63543829Y-80126114D01*
X63814762Y-80126114D01*
X63969581Y-80164819D01*
X64046990Y-80242229D01*
X64085695Y-80319638D01*
X64085695Y-80474457D01*
X64085695Y-79352019D02*
X64085695Y-79816476D01*
X64085695Y-79584247D02*
X63272895Y-79584247D01*
X63389010Y-79661657D01*
X63466419Y-79739066D01*
X63505124Y-79816476D01*
X59544858Y-82571771D02*
X59544858Y-81962171D01*
X59777086Y-81962171D01*
X59835144Y-81991200D01*
X59864172Y-82020229D01*
X59893201Y-82078286D01*
X59893201Y-82165371D01*
X59864172Y-82223429D01*
X59835144Y-82252457D01*
X59777086Y-82281486D01*
X59544858Y-82281486D01*
X60009315Y-82629829D02*
X60473772Y-82629829D01*
X60822115Y-82252457D02*
X60618915Y-82252457D01*
X60618915Y-82571771D02*
X60618915Y-81962171D01*
X60909201Y-81962171D01*
X61141429Y-82252457D02*
X61344629Y-82252457D01*
X61431715Y-82571771D02*
X61141429Y-82571771D01*
X61141429Y-81962171D01*
X61431715Y-81962171D01*
X61605886Y-81962171D02*
X61954229Y-81962171D01*
X61780058Y-82571771D02*
X61780058Y-81962171D01*
X75360590Y-77915105D02*
X75283181Y-77876400D01*
X75205771Y-77798990D01*
X75089657Y-77682876D01*
X75012248Y-77644171D01*
X74934838Y-77644171D01*
X74973543Y-77837695D02*
X74896133Y-77798990D01*
X74818724Y-77721581D01*
X74780019Y-77566762D01*
X74780019Y-77295829D01*
X74818724Y-77141010D01*
X74896133Y-77063600D01*
X74973543Y-77024895D01*
X75128362Y-77024895D01*
X75205771Y-77063600D01*
X75283181Y-77141010D01*
X75321886Y-77295829D01*
X75321886Y-77566762D01*
X75283181Y-77721581D01*
X75205771Y-77798990D01*
X75128362Y-77837695D01*
X74973543Y-77837695D01*
X75631524Y-77102305D02*
X75670229Y-77063600D01*
X75747638Y-77024895D01*
X75941162Y-77024895D01*
X76018572Y-77063600D01*
X76057276Y-77102305D01*
X76095981Y-77179714D01*
X76095981Y-77257124D01*
X76057276Y-77373238D01*
X75592819Y-77837695D01*
X76095981Y-77837695D01*
X74690515Y-79107695D02*
X74690515Y-78294895D01*
X75154972Y-79107695D01*
X75154972Y-78294895D01*
X75542020Y-79107695D02*
X75542020Y-78294895D01*
X75812953Y-78875467D01*
X76083886Y-78294895D01*
X76083886Y-79107695D01*
X76625753Y-78294895D02*
X76780572Y-78294895D01*
X76857981Y-78333600D01*
X76935391Y-78411010D01*
X76974096Y-78565829D01*
X76974096Y-78836762D01*
X76935391Y-78991581D01*
X76857981Y-79068990D01*
X76780572Y-79107695D01*
X76625753Y-79107695D01*
X76548343Y-79068990D01*
X76470934Y-78991581D01*
X76432229Y-78836762D01*
X76432229Y-78565829D01*
X76470934Y-78411010D01*
X76548343Y-78333600D01*
X76625753Y-78294895D01*
X77283734Y-79068990D02*
X77399848Y-79107695D01*
X77593372Y-79107695D01*
X77670782Y-79068990D01*
X77709486Y-79030286D01*
X77748191Y-78952876D01*
X77748191Y-78875467D01*
X77709486Y-78798057D01*
X77670782Y-78759352D01*
X77593372Y-78720648D01*
X77438553Y-78681943D01*
X77361144Y-78643238D01*
X77322439Y-78604533D01*
X77283734Y-78527124D01*
X77283734Y-78449714D01*
X77322439Y-78372305D01*
X77361144Y-78333600D01*
X77438553Y-78294895D01*
X77632077Y-78294895D01*
X77748191Y-78333600D01*
X58064401Y-81809771D02*
X57861201Y-81519486D01*
X57716058Y-81809771D02*
X57716058Y-81200171D01*
X57948286Y-81200171D01*
X58006344Y-81229200D01*
X58035372Y-81258229D01*
X58064401Y-81316286D01*
X58064401Y-81403371D01*
X58035372Y-81461429D01*
X58006344Y-81490457D01*
X57948286Y-81519486D01*
X57716058Y-81519486D01*
X58644972Y-81809771D02*
X58296629Y-81809771D01*
X58470801Y-81809771D02*
X58470801Y-81200171D01*
X58412744Y-81287257D01*
X58354686Y-81345314D01*
X58296629Y-81374343D01*
X57679772Y-82216171D02*
X58057143Y-82216171D01*
X57853943Y-82448400D01*
X57941029Y-82448400D01*
X57999086Y-82477429D01*
X58028115Y-82506457D01*
X58057143Y-82564514D01*
X58057143Y-82709657D01*
X58028115Y-82767714D01*
X57999086Y-82796743D01*
X57941029Y-82825771D01*
X57766857Y-82825771D01*
X57708800Y-82796743D01*
X57679772Y-82767714D01*
X58260343Y-82216171D02*
X58637714Y-82216171D01*
X58434514Y-82448400D01*
X58521600Y-82448400D01*
X58579657Y-82477429D01*
X58608686Y-82506457D01*
X58637714Y-82564514D01*
X58637714Y-82709657D01*
X58608686Y-82767714D01*
X58579657Y-82796743D01*
X58521600Y-82825771D01*
X58347428Y-82825771D01*
X58289371Y-82796743D01*
X58260343Y-82767714D01*
X58898971Y-82825771D02*
X58898971Y-82216171D01*
X58957028Y-82593543D02*
X59131199Y-82825771D01*
X59131199Y-82419371D02*
X58898971Y-82651600D01*
X57933771Y-78841599D02*
X57643486Y-79044799D01*
X57933771Y-79189942D02*
X57324171Y-79189942D01*
X57324171Y-78957714D01*
X57353200Y-78899656D01*
X57382229Y-78870628D01*
X57440286Y-78841599D01*
X57527371Y-78841599D01*
X57585429Y-78870628D01*
X57614457Y-78899656D01*
X57643486Y-78957714D01*
X57643486Y-79189942D01*
X57382229Y-78609371D02*
X57353200Y-78580342D01*
X57324171Y-78522285D01*
X57324171Y-78377142D01*
X57353200Y-78319085D01*
X57382229Y-78290056D01*
X57440286Y-78261028D01*
X57498343Y-78261028D01*
X57585429Y-78290056D01*
X57933771Y-78638399D01*
X57933771Y-78261028D01*
X57933771Y-77615142D02*
X57933771Y-77963485D01*
X57933771Y-77789313D02*
X57324171Y-77789313D01*
X57411257Y-77847370D01*
X57469314Y-77905428D01*
X57498343Y-77963485D01*
X57324171Y-77237771D02*
X57324171Y-77179714D01*
X57353200Y-77121657D01*
X57382229Y-77092628D01*
X57440286Y-77063599D01*
X57556400Y-77034571D01*
X57701543Y-77034571D01*
X57817657Y-77063599D01*
X57875714Y-77092628D01*
X57904743Y-77121657D01*
X57933771Y-77179714D01*
X57933771Y-77237771D01*
X57904743Y-77295828D01*
X57875714Y-77324857D01*
X57817657Y-77353885D01*
X57701543Y-77382914D01*
X57556400Y-77382914D01*
X57440286Y-77353885D01*
X57382229Y-77324857D01*
X57353200Y-77295828D01*
X57324171Y-77237771D01*
X57324171Y-76657200D02*
X57324171Y-76599143D01*
X57353200Y-76541086D01*
X57382229Y-76512057D01*
X57440286Y-76483028D01*
X57556400Y-76454000D01*
X57701543Y-76454000D01*
X57817657Y-76483028D01*
X57875714Y-76512057D01*
X57904743Y-76541086D01*
X57933771Y-76599143D01*
X57933771Y-76657200D01*
X57904743Y-76715257D01*
X57875714Y-76744286D01*
X57817657Y-76773314D01*
X57701543Y-76802343D01*
X57556400Y-76802343D01*
X57440286Y-76773314D01*
X57382229Y-76744286D01*
X57353200Y-76715257D01*
X57324171Y-76657200D01*
X57933771Y-76192743D02*
X57324171Y-76192743D01*
X57701543Y-76134686D02*
X57933771Y-75960515D01*
X57527371Y-75960515D02*
X57759600Y-76192743D01*
X67428534Y-75043695D02*
X67157601Y-74656648D01*
X66964077Y-75043695D02*
X66964077Y-74230895D01*
X67273715Y-74230895D01*
X67351124Y-74269600D01*
X67389829Y-74308305D01*
X67428534Y-74385714D01*
X67428534Y-74501829D01*
X67389829Y-74579238D01*
X67351124Y-74617943D01*
X67273715Y-74656648D01*
X66964077Y-74656648D01*
X67699467Y-74230895D02*
X68202629Y-74230895D01*
X67931696Y-74540533D01*
X68047810Y-74540533D01*
X68125220Y-74579238D01*
X68163924Y-74617943D01*
X68202629Y-74695352D01*
X68202629Y-74888876D01*
X68163924Y-74966286D01*
X68125220Y-75004990D01*
X68047810Y-75043695D01*
X67815582Y-75043695D01*
X67738172Y-75004990D01*
X67699467Y-74966286D01*
X66869734Y-76340305D02*
X66908439Y-76301600D01*
X66985848Y-76262895D01*
X67179372Y-76262895D01*
X67256782Y-76301600D01*
X67295486Y-76340305D01*
X67334191Y-76417714D01*
X67334191Y-76495124D01*
X67295486Y-76611238D01*
X66831029Y-77075695D01*
X67334191Y-77075695D01*
X67837353Y-76262895D02*
X67914762Y-76262895D01*
X67992172Y-76301600D01*
X68030877Y-76340305D01*
X68069581Y-76417714D01*
X68108286Y-76572533D01*
X68108286Y-76766057D01*
X68069581Y-76920876D01*
X68030877Y-76998286D01*
X67992172Y-77036990D01*
X67914762Y-77075695D01*
X67837353Y-77075695D01*
X67759943Y-77036990D01*
X67721239Y-76998286D01*
X67682534Y-76920876D01*
X67643829Y-76766057D01*
X67643829Y-76572533D01*
X67682534Y-76417714D01*
X67721239Y-76340305D01*
X67759943Y-76301600D01*
X67837353Y-76262895D01*
X68456629Y-77075695D02*
X68456629Y-76262895D01*
X68534038Y-76766057D02*
X68766267Y-77075695D01*
X68766267Y-76533829D02*
X68456629Y-76843467D01*
X49140534Y-64121695D02*
X48869601Y-63734648D01*
X48676077Y-64121695D02*
X48676077Y-63308895D01*
X48985715Y-63308895D01*
X49063124Y-63347600D01*
X49101829Y-63386305D01*
X49140534Y-63463714D01*
X49140534Y-63579829D01*
X49101829Y-63657238D01*
X49063124Y-63695943D01*
X48985715Y-63734648D01*
X48676077Y-63734648D01*
X49837220Y-63579829D02*
X49837220Y-64121695D01*
X49643696Y-63270190D02*
X49450172Y-63850762D01*
X49953334Y-63850762D01*
X48671238Y-60819695D02*
X48206781Y-60819695D01*
X48439010Y-60819695D02*
X48439010Y-60006895D01*
X48361600Y-60123010D01*
X48284191Y-60200419D01*
X48206781Y-60239124D01*
X49019581Y-60819695D02*
X49019581Y-60006895D01*
X49096990Y-60510057D02*
X49329219Y-60819695D01*
X49329219Y-60277829D02*
X49019581Y-60587467D01*
X49394534Y-56247695D02*
X49123601Y-55860648D01*
X48930077Y-56247695D02*
X48930077Y-55434895D01*
X49239715Y-55434895D01*
X49317124Y-55473600D01*
X49355829Y-55512305D01*
X49394534Y-55589714D01*
X49394534Y-55705829D01*
X49355829Y-55783238D01*
X49317124Y-55821943D01*
X49239715Y-55860648D01*
X48930077Y-55860648D01*
X50129924Y-55434895D02*
X49742877Y-55434895D01*
X49704172Y-55821943D01*
X49742877Y-55783238D01*
X49820286Y-55744533D01*
X50013810Y-55744533D01*
X50091220Y-55783238D01*
X50129924Y-55821943D01*
X50168629Y-55899352D01*
X50168629Y-56092876D01*
X50129924Y-56170286D01*
X50091220Y-56208990D01*
X50013810Y-56247695D01*
X49820286Y-56247695D01*
X49742877Y-56208990D01*
X49704172Y-56170286D01*
X50516972Y-63308895D02*
X51020134Y-63308895D01*
X50749201Y-63618533D01*
X50865315Y-63618533D01*
X50942725Y-63657238D01*
X50981429Y-63695943D01*
X51020134Y-63773352D01*
X51020134Y-63966876D01*
X50981429Y-64044286D01*
X50942725Y-64082990D01*
X50865315Y-64121695D01*
X50633087Y-64121695D01*
X50555677Y-64082990D01*
X50516972Y-64044286D01*
X51291067Y-63308895D02*
X51794229Y-63308895D01*
X51523296Y-63618533D01*
X51639410Y-63618533D01*
X51716820Y-63657238D01*
X51755524Y-63695943D01*
X51794229Y-63773352D01*
X51794229Y-63966876D01*
X51755524Y-64044286D01*
X51716820Y-64082990D01*
X51639410Y-64121695D01*
X51407182Y-64121695D01*
X51329772Y-64082990D01*
X51291067Y-64044286D01*
X52297391Y-63308895D02*
X52374800Y-63308895D01*
X52452210Y-63347600D01*
X52490915Y-63386305D01*
X52529619Y-63463714D01*
X52568324Y-63618533D01*
X52568324Y-63812057D01*
X52529619Y-63966876D01*
X52490915Y-64044286D01*
X52452210Y-64082990D01*
X52374800Y-64121695D01*
X52297391Y-64121695D01*
X52219981Y-64082990D01*
X52181277Y-64044286D01*
X52142572Y-63966876D01*
X52103867Y-63812057D01*
X52103867Y-63618533D01*
X52142572Y-63463714D01*
X52181277Y-63386305D01*
X52219981Y-63347600D01*
X52297391Y-63308895D01*
X48632534Y-59803695D02*
X48361601Y-59416648D01*
X48168077Y-59803695D02*
X48168077Y-58990895D01*
X48477715Y-58990895D01*
X48555124Y-59029600D01*
X48593829Y-59068305D01*
X48632534Y-59145714D01*
X48632534Y-59261829D01*
X48593829Y-59339238D01*
X48555124Y-59377943D01*
X48477715Y-59416648D01*
X48168077Y-59416648D01*
X49329220Y-58990895D02*
X49174401Y-58990895D01*
X49096991Y-59029600D01*
X49058286Y-59068305D01*
X48980877Y-59184419D01*
X48942172Y-59339238D01*
X48942172Y-59648876D01*
X48980877Y-59726286D01*
X49019582Y-59764990D01*
X49096991Y-59803695D01*
X49251810Y-59803695D01*
X49329220Y-59764990D01*
X49367924Y-59726286D01*
X49406629Y-59648876D01*
X49406629Y-59455352D01*
X49367924Y-59377943D01*
X49329220Y-59339238D01*
X49251810Y-59300533D01*
X49096991Y-59300533D01*
X49019582Y-59339238D01*
X48980877Y-59377943D01*
X48942172Y-59455352D01*
X51661181Y-56247695D02*
X51196724Y-56247695D01*
X51428953Y-56247695D02*
X51428953Y-55434895D01*
X51351543Y-55551010D01*
X51274134Y-55628419D01*
X51196724Y-55667124D01*
X52164343Y-55434895D02*
X52241752Y-55434895D01*
X52319162Y-55473600D01*
X52357867Y-55512305D01*
X52396571Y-55589714D01*
X52435276Y-55744533D01*
X52435276Y-55938057D01*
X52396571Y-56092876D01*
X52357867Y-56170286D01*
X52319162Y-56208990D01*
X52241752Y-56247695D01*
X52164343Y-56247695D01*
X52086933Y-56208990D01*
X52048229Y-56170286D01*
X52009524Y-56092876D01*
X51970819Y-55938057D01*
X51970819Y-55744533D01*
X52009524Y-55589714D01*
X52048229Y-55512305D01*
X52086933Y-55473600D01*
X52164343Y-55434895D01*
X66158534Y-78345695D02*
X65887601Y-77958648D01*
X65694077Y-78345695D02*
X65694077Y-77532895D01*
X66003715Y-77532895D01*
X66081124Y-77571600D01*
X66119829Y-77610305D01*
X66158534Y-77687714D01*
X66158534Y-77803829D01*
X66119829Y-77881238D01*
X66081124Y-77919943D01*
X66003715Y-77958648D01*
X65694077Y-77958648D01*
X66429467Y-77532895D02*
X66971334Y-77532895D01*
X66622991Y-78345695D01*
X63391143Y-79107695D02*
X62926686Y-79107695D01*
X63158915Y-79107695D02*
X63158915Y-78294895D01*
X63081505Y-78411010D01*
X63004096Y-78488419D01*
X62926686Y-78527124D01*
X63894305Y-78294895D02*
X63971714Y-78294895D01*
X64049124Y-78333600D01*
X64087829Y-78372305D01*
X64126533Y-78449714D01*
X64165238Y-78604533D01*
X64165238Y-78798057D01*
X64126533Y-78952876D01*
X64087829Y-79030286D01*
X64049124Y-79068990D01*
X63971714Y-79107695D01*
X63894305Y-79107695D01*
X63816895Y-79068990D01*
X63778191Y-79030286D01*
X63739486Y-78952876D01*
X63700781Y-78798057D01*
X63700781Y-78604533D01*
X63739486Y-78449714D01*
X63778191Y-78372305D01*
X63816895Y-78333600D01*
X63894305Y-78294895D01*
X64668400Y-78294895D02*
X64745809Y-78294895D01*
X64823219Y-78333600D01*
X64861924Y-78372305D01*
X64900628Y-78449714D01*
X64939333Y-78604533D01*
X64939333Y-78798057D01*
X64900628Y-78952876D01*
X64861924Y-79030286D01*
X64823219Y-79068990D01*
X64745809Y-79107695D01*
X64668400Y-79107695D01*
X64590990Y-79068990D01*
X64552286Y-79030286D01*
X64513581Y-78952876D01*
X64474876Y-78798057D01*
X64474876Y-78604533D01*
X64513581Y-78449714D01*
X64552286Y-78372305D01*
X64590990Y-78333600D01*
X64668400Y-78294895D01*
X65287676Y-79107695D02*
X65287676Y-78294895D01*
X65365085Y-78798057D02*
X65597314Y-79107695D01*
X65597314Y-78565829D02*
X65287676Y-78875467D01*
X66412534Y-79869695D02*
X66141601Y-79482648D01*
X65948077Y-79869695D02*
X65948077Y-79056895D01*
X66257715Y-79056895D01*
X66335124Y-79095600D01*
X66373829Y-79134305D01*
X66412534Y-79211714D01*
X66412534Y-79327829D01*
X66373829Y-79405238D01*
X66335124Y-79443943D01*
X66257715Y-79482648D01*
X65948077Y-79482648D01*
X66876991Y-79405238D02*
X66799582Y-79366533D01*
X66760877Y-79327829D01*
X66722172Y-79250419D01*
X66722172Y-79211714D01*
X66760877Y-79134305D01*
X66799582Y-79095600D01*
X66876991Y-79056895D01*
X67031810Y-79056895D01*
X67109220Y-79095600D01*
X67147924Y-79134305D01*
X67186629Y-79211714D01*
X67186629Y-79250419D01*
X67147924Y-79327829D01*
X67109220Y-79366533D01*
X67031810Y-79405238D01*
X66876991Y-79405238D01*
X66799582Y-79443943D01*
X66760877Y-79482648D01*
X66722172Y-79560057D01*
X66722172Y-79714876D01*
X66760877Y-79792286D01*
X66799582Y-79830990D01*
X66876991Y-79869695D01*
X67031810Y-79869695D01*
X67109220Y-79830990D01*
X67147924Y-79792286D01*
X67186629Y-79714876D01*
X67186629Y-79560057D01*
X67147924Y-79482648D01*
X67109220Y-79443943D01*
X67031810Y-79405238D01*
X66318191Y-80885695D02*
X65853734Y-80885695D01*
X66085963Y-80885695D02*
X66085963Y-80072895D01*
X66008553Y-80189010D01*
X65931144Y-80266419D01*
X65853734Y-80305124D01*
X66821353Y-80072895D02*
X66898762Y-80072895D01*
X66976172Y-80111600D01*
X67014877Y-80150305D01*
X67053581Y-80227714D01*
X67092286Y-80382533D01*
X67092286Y-80576057D01*
X67053581Y-80730876D01*
X67014877Y-80808286D01*
X66976172Y-80846990D01*
X66898762Y-80885695D01*
X66821353Y-80885695D01*
X66743943Y-80846990D01*
X66705239Y-80808286D01*
X66666534Y-80730876D01*
X66627829Y-80576057D01*
X66627829Y-80382533D01*
X66666534Y-80227714D01*
X66705239Y-80150305D01*
X66743943Y-80111600D01*
X66821353Y-80072895D01*
X67440629Y-80885695D02*
X67440629Y-80072895D01*
X67518038Y-80576057D02*
X67750267Y-80885695D01*
X67750267Y-80343829D02*
X67440629Y-80653467D01*
X69714534Y-58787695D02*
X69443601Y-58400648D01*
X69250077Y-58787695D02*
X69250077Y-57974895D01*
X69559715Y-57974895D01*
X69637124Y-58013600D01*
X69675829Y-58052305D01*
X69714534Y-58129714D01*
X69714534Y-58245829D01*
X69675829Y-58323238D01*
X69637124Y-58361943D01*
X69559715Y-58400648D01*
X69250077Y-58400648D01*
X70101582Y-58787695D02*
X70256401Y-58787695D01*
X70333810Y-58748990D01*
X70372515Y-58710286D01*
X70449924Y-58594171D01*
X70488629Y-58439352D01*
X70488629Y-58129714D01*
X70449924Y-58052305D01*
X70411220Y-58013600D01*
X70333810Y-57974895D01*
X70178991Y-57974895D01*
X70101582Y-58013600D01*
X70062877Y-58052305D01*
X70024172Y-58129714D01*
X70024172Y-58323238D01*
X70062877Y-58400648D01*
X70101582Y-58439352D01*
X70178991Y-58478057D01*
X70333810Y-58478057D01*
X70411220Y-58439352D01*
X70449924Y-58400648D01*
X70488629Y-58323238D01*
X69753238Y-59803695D02*
X69288781Y-59803695D01*
X69521010Y-59803695D02*
X69521010Y-58990895D01*
X69443600Y-59107010D01*
X69366191Y-59184419D01*
X69288781Y-59223124D01*
X70101581Y-59803695D02*
X70101581Y-58990895D01*
X70178990Y-59494057D02*
X70411219Y-59803695D01*
X70411219Y-59261829D02*
X70101581Y-59571467D01*
X83805486Y-64883695D02*
X83534553Y-64496648D01*
X83341029Y-64883695D02*
X83341029Y-64070895D01*
X83650667Y-64070895D01*
X83728076Y-64109600D01*
X83766781Y-64148305D01*
X83805486Y-64225714D01*
X83805486Y-64341829D01*
X83766781Y-64419238D01*
X83728076Y-64457943D01*
X83650667Y-64496648D01*
X83341029Y-64496648D01*
X84579581Y-64883695D02*
X84115124Y-64883695D01*
X84347353Y-64883695D02*
X84347353Y-64070895D01*
X84269943Y-64187010D01*
X84192534Y-64264419D01*
X84115124Y-64303124D01*
X85082743Y-64070895D02*
X85160152Y-64070895D01*
X85237562Y-64109600D01*
X85276267Y-64148305D01*
X85314971Y-64225714D01*
X85353676Y-64380533D01*
X85353676Y-64574057D01*
X85314971Y-64728876D01*
X85276267Y-64806286D01*
X85237562Y-64844990D01*
X85160152Y-64883695D01*
X85082743Y-64883695D01*
X85005333Y-64844990D01*
X84966629Y-64806286D01*
X84927924Y-64728876D01*
X84889219Y-64574057D01*
X84889219Y-64380533D01*
X84927924Y-64225714D01*
X84966629Y-64148305D01*
X85005333Y-64109600D01*
X85082743Y-64070895D01*
X83844191Y-66153695D02*
X83379734Y-66153695D01*
X83611963Y-66153695D02*
X83611963Y-65340895D01*
X83534553Y-65457010D01*
X83457144Y-65534419D01*
X83379734Y-65573124D01*
X84347353Y-65340895D02*
X84424762Y-65340895D01*
X84502172Y-65379600D01*
X84540877Y-65418305D01*
X84579581Y-65495714D01*
X84618286Y-65650533D01*
X84618286Y-65844057D01*
X84579581Y-65998876D01*
X84540877Y-66076286D01*
X84502172Y-66114990D01*
X84424762Y-66153695D01*
X84347353Y-66153695D01*
X84269943Y-66114990D01*
X84231239Y-66076286D01*
X84192534Y-65998876D01*
X84153829Y-65844057D01*
X84153829Y-65650533D01*
X84192534Y-65495714D01*
X84231239Y-65418305D01*
X84269943Y-65379600D01*
X84347353Y-65340895D01*
X84966629Y-66153695D02*
X84966629Y-65340895D01*
X85044038Y-65844057D02*
X85276267Y-66153695D01*
X85276267Y-65611829D02*
X84966629Y-65921467D01*
X114067771Y-58557885D02*
X113777486Y-58761085D01*
X114067771Y-58906228D02*
X113458171Y-58906228D01*
X113458171Y-58674000D01*
X113487200Y-58615942D01*
X113516229Y-58586914D01*
X113574286Y-58557885D01*
X113661371Y-58557885D01*
X113719429Y-58586914D01*
X113748457Y-58615942D01*
X113777486Y-58674000D01*
X113777486Y-58906228D01*
X114067771Y-57977314D02*
X114067771Y-58325657D01*
X114067771Y-58151485D02*
X113458171Y-58151485D01*
X113545257Y-58209542D01*
X113603314Y-58267600D01*
X113632343Y-58325657D01*
X114067771Y-57396743D02*
X114067771Y-57745086D01*
X114067771Y-57570914D02*
X113458171Y-57570914D01*
X113545257Y-57628971D01*
X113603314Y-57687029D01*
X113632343Y-57745086D01*
X114829771Y-58020857D02*
X114829771Y-58369200D01*
X114829771Y-58195028D02*
X114220171Y-58195028D01*
X114307257Y-58253085D01*
X114365314Y-58311143D01*
X114394343Y-58369200D01*
X114220171Y-57643486D02*
X114220171Y-57585429D01*
X114249200Y-57527372D01*
X114278229Y-57498343D01*
X114336286Y-57469314D01*
X114452400Y-57440286D01*
X114597543Y-57440286D01*
X114713657Y-57469314D01*
X114771714Y-57498343D01*
X114800743Y-57527372D01*
X114829771Y-57585429D01*
X114829771Y-57643486D01*
X114800743Y-57701543D01*
X114771714Y-57730572D01*
X114713657Y-57759600D01*
X114597543Y-57788629D01*
X114452400Y-57788629D01*
X114336286Y-57759600D01*
X114278229Y-57730572D01*
X114249200Y-57701543D01*
X114220171Y-57643486D01*
X114829771Y-57179029D02*
X114220171Y-57179029D01*
X114597543Y-57120972D02*
X114829771Y-56946801D01*
X114423371Y-56946801D02*
X114655600Y-57179029D01*
X113813771Y-66431885D02*
X113523486Y-66635085D01*
X113813771Y-66780228D02*
X113204171Y-66780228D01*
X113204171Y-66548000D01*
X113233200Y-66489942D01*
X113262229Y-66460914D01*
X113320286Y-66431885D01*
X113407371Y-66431885D01*
X113465429Y-66460914D01*
X113494457Y-66489942D01*
X113523486Y-66548000D01*
X113523486Y-66780228D01*
X113813771Y-65851314D02*
X113813771Y-66199657D01*
X113813771Y-66025485D02*
X113204171Y-66025485D01*
X113291257Y-66083542D01*
X113349314Y-66141600D01*
X113378343Y-66199657D01*
X113262229Y-65619086D02*
X113233200Y-65590057D01*
X113204171Y-65532000D01*
X113204171Y-65386857D01*
X113233200Y-65328800D01*
X113262229Y-65299771D01*
X113320286Y-65270743D01*
X113378343Y-65270743D01*
X113465429Y-65299771D01*
X113813771Y-65648114D01*
X113813771Y-65270743D01*
X114829771Y-66402857D02*
X114829771Y-66751200D01*
X114829771Y-66577028D02*
X114220171Y-66577028D01*
X114307257Y-66635085D01*
X114365314Y-66693143D01*
X114394343Y-66751200D01*
X114220171Y-66025486D02*
X114220171Y-65967429D01*
X114249200Y-65909372D01*
X114278229Y-65880343D01*
X114336286Y-65851314D01*
X114452400Y-65822286D01*
X114597543Y-65822286D01*
X114713657Y-65851314D01*
X114771714Y-65880343D01*
X114800743Y-65909372D01*
X114829771Y-65967429D01*
X114829771Y-66025486D01*
X114800743Y-66083543D01*
X114771714Y-66112572D01*
X114713657Y-66141600D01*
X114597543Y-66170629D01*
X114452400Y-66170629D01*
X114336286Y-66141600D01*
X114278229Y-66112572D01*
X114249200Y-66083543D01*
X114220171Y-66025486D01*
X114829771Y-65561029D02*
X114220171Y-65561029D01*
X114597543Y-65502972D02*
X114829771Y-65328801D01*
X114423371Y-65328801D02*
X114655600Y-65561029D01*
X70089486Y-72757695D02*
X69818553Y-72370648D01*
X69625029Y-72757695D02*
X69625029Y-71944895D01*
X69934667Y-71944895D01*
X70012076Y-71983600D01*
X70050781Y-72022305D01*
X70089486Y-72099714D01*
X70089486Y-72215829D01*
X70050781Y-72293238D01*
X70012076Y-72331943D01*
X69934667Y-72370648D01*
X69625029Y-72370648D01*
X70863581Y-72757695D02*
X70399124Y-72757695D01*
X70631353Y-72757695D02*
X70631353Y-71944895D01*
X70553943Y-72061010D01*
X70476534Y-72138419D01*
X70399124Y-72177124D01*
X71134514Y-71944895D02*
X71637676Y-71944895D01*
X71366743Y-72254533D01*
X71482857Y-72254533D01*
X71560267Y-72293238D01*
X71598971Y-72331943D01*
X71637676Y-72409352D01*
X71637676Y-72602876D01*
X71598971Y-72680286D01*
X71560267Y-72718990D01*
X71482857Y-72757695D01*
X71250629Y-72757695D01*
X71173219Y-72718990D01*
X71134514Y-72680286D01*
X72532725Y-73739829D02*
X72532725Y-74281695D01*
X72339201Y-73430190D02*
X72145677Y-74010762D01*
X72648839Y-74010762D01*
X72881067Y-73468895D02*
X73422934Y-73468895D01*
X73074591Y-74281695D01*
X73887391Y-73468895D02*
X73964800Y-73468895D01*
X74042210Y-73507600D01*
X74080915Y-73546305D01*
X74119619Y-73623714D01*
X74158324Y-73778533D01*
X74158324Y-73972057D01*
X74119619Y-74126876D01*
X74080915Y-74204286D01*
X74042210Y-74242990D01*
X73964800Y-74281695D01*
X73887391Y-74281695D01*
X73809981Y-74242990D01*
X73771277Y-74204286D01*
X73732572Y-74126876D01*
X73693867Y-73972057D01*
X73693867Y-73778533D01*
X73732572Y-73623714D01*
X73771277Y-73546305D01*
X73809981Y-73507600D01*
X73887391Y-73468895D01*
X78725486Y-72757695D02*
X78454553Y-72370648D01*
X78261029Y-72757695D02*
X78261029Y-71944895D01*
X78570667Y-71944895D01*
X78648076Y-71983600D01*
X78686781Y-72022305D01*
X78725486Y-72099714D01*
X78725486Y-72215829D01*
X78686781Y-72293238D01*
X78648076Y-72331943D01*
X78570667Y-72370648D01*
X78261029Y-72370648D01*
X79499581Y-72757695D02*
X79035124Y-72757695D01*
X79267353Y-72757695D02*
X79267353Y-71944895D01*
X79189943Y-72061010D01*
X79112534Y-72138419D01*
X79035124Y-72177124D01*
X80196267Y-72215829D02*
X80196267Y-72757695D01*
X80002743Y-71906190D02*
X79809219Y-72486762D01*
X80312381Y-72486762D01*
X76088725Y-73739829D02*
X76088725Y-74281695D01*
X75895201Y-73430190D02*
X75701677Y-74010762D01*
X76204839Y-74010762D01*
X76437067Y-73468895D02*
X76978934Y-73468895D01*
X76630591Y-74281695D01*
X77443391Y-73468895D02*
X77520800Y-73468895D01*
X77598210Y-73507600D01*
X77636915Y-73546305D01*
X77675619Y-73623714D01*
X77714324Y-73778533D01*
X77714324Y-73972057D01*
X77675619Y-74126876D01*
X77636915Y-74204286D01*
X77598210Y-74242990D01*
X77520800Y-74281695D01*
X77443391Y-74281695D01*
X77365981Y-74242990D01*
X77327277Y-74204286D01*
X77288572Y-74126876D01*
X77249867Y-73972057D01*
X77249867Y-73778533D01*
X77288572Y-73623714D01*
X77327277Y-73546305D01*
X77365981Y-73507600D01*
X77443391Y-73468895D01*
X67168486Y-82028695D02*
X66897553Y-81641648D01*
X66704029Y-82028695D02*
X66704029Y-81215895D01*
X67013667Y-81215895D01*
X67091076Y-81254600D01*
X67129781Y-81293305D01*
X67168486Y-81370714D01*
X67168486Y-81486829D01*
X67129781Y-81564238D01*
X67091076Y-81602943D01*
X67013667Y-81641648D01*
X66704029Y-81641648D01*
X67942581Y-82028695D02*
X67478124Y-82028695D01*
X67710353Y-82028695D02*
X67710353Y-81215895D01*
X67632943Y-81332010D01*
X67555534Y-81409419D01*
X67478124Y-81448124D01*
X68677971Y-81215895D02*
X68290924Y-81215895D01*
X68252219Y-81602943D01*
X68290924Y-81564238D01*
X68368333Y-81525533D01*
X68561857Y-81525533D01*
X68639267Y-81564238D01*
X68677971Y-81602943D01*
X68716676Y-81680352D01*
X68716676Y-81873876D01*
X68677971Y-81951286D01*
X68639267Y-81989990D01*
X68561857Y-82028695D01*
X68368333Y-82028695D01*
X68290924Y-81989990D01*
X68252219Y-81951286D01*
X69484725Y-82121829D02*
X69484725Y-82663695D01*
X69291201Y-81812190D02*
X69097677Y-82392762D01*
X69600839Y-82392762D01*
X69833067Y-81850895D02*
X70374934Y-81850895D01*
X70026591Y-82663695D01*
X70839391Y-81850895D02*
X70916800Y-81850895D01*
X70994210Y-81889600D01*
X71032915Y-81928305D01*
X71071619Y-82005714D01*
X71110324Y-82160533D01*
X71110324Y-82354057D01*
X71071619Y-82508876D01*
X71032915Y-82586286D01*
X70994210Y-82624990D01*
X70916800Y-82663695D01*
X70839391Y-82663695D01*
X70761981Y-82624990D01*
X70723277Y-82586286D01*
X70684572Y-82508876D01*
X70645867Y-82354057D01*
X70645867Y-82160533D01*
X70684572Y-82005714D01*
X70723277Y-81928305D01*
X70761981Y-81889600D01*
X70839391Y-81850895D01*
X69581486Y-76059695D02*
X69310553Y-75672648D01*
X69117029Y-76059695D02*
X69117029Y-75246895D01*
X69426667Y-75246895D01*
X69504076Y-75285600D01*
X69542781Y-75324305D01*
X69581486Y-75401714D01*
X69581486Y-75517829D01*
X69542781Y-75595238D01*
X69504076Y-75633943D01*
X69426667Y-75672648D01*
X69117029Y-75672648D01*
X70355581Y-76059695D02*
X69891124Y-76059695D01*
X70123353Y-76059695D02*
X70123353Y-75246895D01*
X70045943Y-75363010D01*
X69968534Y-75440419D01*
X69891124Y-75479124D01*
X71052267Y-75246895D02*
X70897448Y-75246895D01*
X70820038Y-75285600D01*
X70781333Y-75324305D01*
X70703924Y-75440419D01*
X70665219Y-75595238D01*
X70665219Y-75904876D01*
X70703924Y-75982286D01*
X70742629Y-76020990D01*
X70820038Y-76059695D01*
X70974857Y-76059695D01*
X71052267Y-76020990D01*
X71090971Y-75982286D01*
X71129676Y-75904876D01*
X71129676Y-75711352D01*
X71090971Y-75633943D01*
X71052267Y-75595238D01*
X70974857Y-75556533D01*
X70820038Y-75556533D01*
X70742629Y-75595238D01*
X70703924Y-75633943D01*
X70665219Y-75711352D01*
X69620191Y-77075695D02*
X69155734Y-77075695D01*
X69387963Y-77075695D02*
X69387963Y-76262895D01*
X69310553Y-76379010D01*
X69233144Y-76456419D01*
X69155734Y-76495124D01*
X70123353Y-76262895D02*
X70200762Y-76262895D01*
X70278172Y-76301600D01*
X70316877Y-76340305D01*
X70355581Y-76417714D01*
X70394286Y-76572533D01*
X70394286Y-76766057D01*
X70355581Y-76920876D01*
X70316877Y-76998286D01*
X70278172Y-77036990D01*
X70200762Y-77075695D01*
X70123353Y-77075695D01*
X70045943Y-77036990D01*
X70007239Y-76998286D01*
X69968534Y-76920876D01*
X69929829Y-76766057D01*
X69929829Y-76572533D01*
X69968534Y-76417714D01*
X70007239Y-76340305D01*
X70045943Y-76301600D01*
X70123353Y-76262895D01*
X70742629Y-77075695D02*
X70742629Y-76262895D01*
X70820038Y-76766057D02*
X71052267Y-77075695D01*
X71052267Y-76533829D02*
X70742629Y-76843467D01*
X97267486Y-82663695D02*
X96996553Y-82276648D01*
X96803029Y-82663695D02*
X96803029Y-81850895D01*
X97112667Y-81850895D01*
X97190076Y-81889600D01*
X97228781Y-81928305D01*
X97267486Y-82005714D01*
X97267486Y-82121829D01*
X97228781Y-82199238D01*
X97190076Y-82237943D01*
X97112667Y-82276648D01*
X96803029Y-82276648D01*
X98041581Y-82663695D02*
X97577124Y-82663695D01*
X97809353Y-82663695D02*
X97809353Y-81850895D01*
X97731943Y-81967010D01*
X97654534Y-82044419D01*
X97577124Y-82083124D01*
X98312514Y-81850895D02*
X98854381Y-81850895D01*
X98506038Y-82663695D01*
X97170725Y-83391829D02*
X97170725Y-83933695D01*
X96977201Y-83082190D02*
X96783677Y-83662762D01*
X97286839Y-83662762D01*
X97519067Y-83120895D02*
X98060934Y-83120895D01*
X97712591Y-83933695D01*
X98525391Y-83120895D02*
X98602800Y-83120895D01*
X98680210Y-83159600D01*
X98718915Y-83198305D01*
X98757619Y-83275714D01*
X98796324Y-83430533D01*
X98796324Y-83624057D01*
X98757619Y-83778876D01*
X98718915Y-83856286D01*
X98680210Y-83894990D01*
X98602800Y-83933695D01*
X98525391Y-83933695D01*
X98447981Y-83894990D01*
X98409277Y-83856286D01*
X98370572Y-83778876D01*
X98331867Y-83624057D01*
X98331867Y-83430533D01*
X98370572Y-83275714D01*
X98409277Y-83198305D01*
X98447981Y-83159600D01*
X98525391Y-83120895D01*
X106157486Y-82409695D02*
X105886553Y-82022648D01*
X105693029Y-82409695D02*
X105693029Y-81596895D01*
X106002667Y-81596895D01*
X106080076Y-81635600D01*
X106118781Y-81674305D01*
X106157486Y-81751714D01*
X106157486Y-81867829D01*
X106118781Y-81945238D01*
X106080076Y-81983943D01*
X106002667Y-82022648D01*
X105693029Y-82022648D01*
X106931581Y-82409695D02*
X106467124Y-82409695D01*
X106699353Y-82409695D02*
X106699353Y-81596895D01*
X106621943Y-81713010D01*
X106544534Y-81790419D01*
X106467124Y-81829124D01*
X107396038Y-81945238D02*
X107318629Y-81906533D01*
X107279924Y-81867829D01*
X107241219Y-81790419D01*
X107241219Y-81751714D01*
X107279924Y-81674305D01*
X107318629Y-81635600D01*
X107396038Y-81596895D01*
X107550857Y-81596895D01*
X107628267Y-81635600D01*
X107666971Y-81674305D01*
X107705676Y-81751714D01*
X107705676Y-81790419D01*
X107666971Y-81867829D01*
X107628267Y-81906533D01*
X107550857Y-81945238D01*
X107396038Y-81945238D01*
X107318629Y-81983943D01*
X107279924Y-82022648D01*
X107241219Y-82100057D01*
X107241219Y-82254876D01*
X107279924Y-82332286D01*
X107318629Y-82370990D01*
X107396038Y-82409695D01*
X107550857Y-82409695D01*
X107628267Y-82370990D01*
X107666971Y-82332286D01*
X107705676Y-82254876D01*
X107705676Y-82100057D01*
X107666971Y-82022648D01*
X107628267Y-81983943D01*
X107550857Y-81945238D01*
X106060725Y-83391829D02*
X106060725Y-83933695D01*
X105867201Y-83082190D02*
X105673677Y-83662762D01*
X106176839Y-83662762D01*
X106409067Y-83120895D02*
X106950934Y-83120895D01*
X106602591Y-83933695D01*
X107415391Y-83120895D02*
X107492800Y-83120895D01*
X107570210Y-83159600D01*
X107608915Y-83198305D01*
X107647619Y-83275714D01*
X107686324Y-83430533D01*
X107686324Y-83624057D01*
X107647619Y-83778876D01*
X107608915Y-83856286D01*
X107570210Y-83894990D01*
X107492800Y-83933695D01*
X107415391Y-83933695D01*
X107337981Y-83894990D01*
X107299277Y-83856286D01*
X107260572Y-83778876D01*
X107221867Y-83624057D01*
X107221867Y-83430533D01*
X107260572Y-83275714D01*
X107299277Y-83198305D01*
X107337981Y-83159600D01*
X107415391Y-83120895D01*
X113777486Y-75551695D02*
X113506553Y-75164648D01*
X113313029Y-75551695D02*
X113313029Y-74738895D01*
X113622667Y-74738895D01*
X113700076Y-74777600D01*
X113738781Y-74816305D01*
X113777486Y-74893714D01*
X113777486Y-75009829D01*
X113738781Y-75087238D01*
X113700076Y-75125943D01*
X113622667Y-75164648D01*
X113313029Y-75164648D01*
X114551581Y-75551695D02*
X114087124Y-75551695D01*
X114319353Y-75551695D02*
X114319353Y-74738895D01*
X114241943Y-74855010D01*
X114164534Y-74932419D01*
X114087124Y-74971124D01*
X114938629Y-75551695D02*
X115093448Y-75551695D01*
X115170857Y-75512990D01*
X115209562Y-75474286D01*
X115286971Y-75358171D01*
X115325676Y-75203352D01*
X115325676Y-74893714D01*
X115286971Y-74816305D01*
X115248267Y-74777600D01*
X115170857Y-74738895D01*
X115016038Y-74738895D01*
X114938629Y-74777600D01*
X114899924Y-74816305D01*
X114861219Y-74893714D01*
X114861219Y-75087238D01*
X114899924Y-75164648D01*
X114938629Y-75203352D01*
X115016038Y-75242057D01*
X115170857Y-75242057D01*
X115248267Y-75203352D01*
X115286971Y-75164648D01*
X115325676Y-75087238D01*
X113680725Y-76025829D02*
X113680725Y-76567695D01*
X113487201Y-75716190D02*
X113293677Y-76296762D01*
X113796839Y-76296762D01*
X114029067Y-75754895D02*
X114570934Y-75754895D01*
X114222591Y-76567695D01*
X115035391Y-75754895D02*
X115112800Y-75754895D01*
X115190210Y-75793600D01*
X115228915Y-75832305D01*
X115267619Y-75909714D01*
X115306324Y-76064533D01*
X115306324Y-76258057D01*
X115267619Y-76412876D01*
X115228915Y-76490286D01*
X115190210Y-76528990D01*
X115112800Y-76567695D01*
X115035391Y-76567695D01*
X114957981Y-76528990D01*
X114919277Y-76490286D01*
X114880572Y-76412876D01*
X114841867Y-76258057D01*
X114841867Y-76064533D01*
X114880572Y-75909714D01*
X114919277Y-75832305D01*
X114957981Y-75793600D01*
X115035391Y-75754895D01*
X88242019Y-74738895D02*
X88783886Y-75551695D01*
X88783886Y-74738895D02*
X88242019Y-75551695D01*
X89519276Y-75551695D02*
X89054819Y-75551695D01*
X89287048Y-75551695D02*
X89287048Y-74738895D01*
X89209638Y-74855010D01*
X89132229Y-74932419D01*
X89054819Y-74971124D01*
X90905391Y-75087238D02*
X90827982Y-75048533D01*
X90789277Y-75009829D01*
X90750572Y-74932419D01*
X90750572Y-74893714D01*
X90789277Y-74816305D01*
X90827982Y-74777600D01*
X90905391Y-74738895D01*
X91060210Y-74738895D01*
X91137620Y-74777600D01*
X91176324Y-74816305D01*
X91215029Y-74893714D01*
X91215029Y-74932419D01*
X91176324Y-75009829D01*
X91137620Y-75048533D01*
X91060210Y-75087238D01*
X90905391Y-75087238D01*
X90827982Y-75125943D01*
X90789277Y-75164648D01*
X90750572Y-75242057D01*
X90750572Y-75396876D01*
X90789277Y-75474286D01*
X90827982Y-75512990D01*
X90905391Y-75551695D01*
X91060210Y-75551695D01*
X91137620Y-75512990D01*
X91176324Y-75474286D01*
X91215029Y-75396876D01*
X91215029Y-75242057D01*
X91176324Y-75164648D01*
X91137620Y-75125943D01*
X91060210Y-75087238D01*
X91563372Y-75551695D02*
X91563372Y-74738895D01*
X91834305Y-75319467D01*
X92105238Y-74738895D01*
X92105238Y-75551695D01*
X92492286Y-75551695D02*
X92492286Y-74738895D01*
X92492286Y-75125943D02*
X92956743Y-75125943D01*
X92956743Y-75551695D02*
X92956743Y-74738895D01*
X93266381Y-75009829D02*
X93692134Y-75009829D01*
X93266381Y-75551695D01*
X93692134Y-75551695D01*
X62372724Y-50100895D02*
X62372724Y-50758876D01*
X62411429Y-50836286D01*
X62450133Y-50874990D01*
X62527543Y-50913695D01*
X62682362Y-50913695D01*
X62759771Y-50874990D01*
X62798476Y-50836286D01*
X62837181Y-50758876D01*
X62837181Y-50100895D01*
X63146819Y-50100895D02*
X63649981Y-50100895D01*
X63379048Y-50410533D01*
X63495162Y-50410533D01*
X63572572Y-50449238D01*
X63611276Y-50487943D01*
X63649981Y-50565352D01*
X63649981Y-50758876D01*
X63611276Y-50836286D01*
X63572572Y-50874990D01*
X63495162Y-50913695D01*
X63262934Y-50913695D01*
X63185524Y-50874990D01*
X63146819Y-50836286D01*
X61591372Y-59295695D02*
X61320439Y-58908648D01*
X61126915Y-59295695D02*
X61126915Y-58482895D01*
X61436553Y-58482895D01*
X61513962Y-58521600D01*
X61552667Y-58560305D01*
X61591372Y-58637714D01*
X61591372Y-58753829D01*
X61552667Y-58831238D01*
X61513962Y-58869943D01*
X61436553Y-58908648D01*
X61126915Y-58908648D01*
X62249353Y-59256990D02*
X62171943Y-59295695D01*
X62017124Y-59295695D01*
X61939715Y-59256990D01*
X61901010Y-59179581D01*
X61901010Y-58869943D01*
X61939715Y-58792533D01*
X62017124Y-58753829D01*
X62171943Y-58753829D01*
X62249353Y-58792533D01*
X62288058Y-58869943D01*
X62288058Y-58947352D01*
X61901010Y-59024762D01*
X62984744Y-58753829D02*
X62984744Y-59411810D01*
X62946039Y-59489219D01*
X62907334Y-59527924D01*
X62829925Y-59566629D01*
X62713810Y-59566629D01*
X62636401Y-59527924D01*
X62984744Y-59256990D02*
X62907334Y-59295695D01*
X62752515Y-59295695D01*
X62675106Y-59256990D01*
X62636401Y-59218286D01*
X62597696Y-59140876D01*
X62597696Y-58908648D01*
X62636401Y-58831238D01*
X62675106Y-58792533D01*
X62752515Y-58753829D01*
X62907334Y-58753829D01*
X62984744Y-58792533D01*
X63720134Y-58753829D02*
X63720134Y-59295695D01*
X63371791Y-58753829D02*
X63371791Y-59179581D01*
X63410496Y-59256990D01*
X63487905Y-59295695D01*
X63604019Y-59295695D01*
X63681429Y-59256990D01*
X63720134Y-59218286D01*
X64223295Y-59295695D02*
X64145886Y-59256990D01*
X64107181Y-59179581D01*
X64107181Y-58482895D01*
X64339409Y-59373105D02*
X64958685Y-59373105D01*
X65074799Y-58482895D02*
X65577961Y-58482895D01*
X65307028Y-58792533D01*
X65423142Y-58792533D01*
X65500552Y-58831238D01*
X65539256Y-58869943D01*
X65577961Y-58947352D01*
X65577961Y-59140876D01*
X65539256Y-59218286D01*
X65500552Y-59256990D01*
X65423142Y-59295695D01*
X65190914Y-59295695D01*
X65113504Y-59256990D01*
X65074799Y-59218286D01*
X65926304Y-59218286D02*
X65965009Y-59256990D01*
X65926304Y-59295695D01*
X65887599Y-59256990D01*
X65926304Y-59218286D01*
X65926304Y-59295695D01*
X66235942Y-58482895D02*
X66739104Y-58482895D01*
X66468171Y-58792533D01*
X66584285Y-58792533D01*
X66661695Y-58831238D01*
X66700399Y-58869943D01*
X66739104Y-58947352D01*
X66739104Y-59140876D01*
X66700399Y-59218286D01*
X66661695Y-59256990D01*
X66584285Y-59295695D01*
X66352057Y-59295695D01*
X66274647Y-59256990D01*
X66235942Y-59218286D01*
X66971333Y-58482895D02*
X67242266Y-59295695D01*
X67513199Y-58482895D01*
X80680077Y-78853695D02*
X80680077Y-78040895D01*
X80989715Y-78040895D01*
X81067124Y-78079600D01*
X81105829Y-78118305D01*
X81144534Y-78195714D01*
X81144534Y-78311829D01*
X81105829Y-78389238D01*
X81067124Y-78427943D01*
X80989715Y-78466648D01*
X80680077Y-78466648D01*
X81454172Y-78118305D02*
X81492877Y-78079600D01*
X81570286Y-78040895D01*
X81763810Y-78040895D01*
X81841220Y-78079600D01*
X81879924Y-78118305D01*
X81918629Y-78195714D01*
X81918629Y-78273124D01*
X81879924Y-78389238D01*
X81415467Y-78853695D01*
X81918629Y-78853695D01*
X75118686Y-75246895D02*
X75389619Y-76059695D01*
X75660552Y-75246895D01*
X76202419Y-75633943D02*
X76318533Y-75672648D01*
X76357238Y-75711352D01*
X76395943Y-75788762D01*
X76395943Y-75904876D01*
X76357238Y-75982286D01*
X76318533Y-76020990D01*
X76241124Y-76059695D01*
X75931486Y-76059695D01*
X75931486Y-75246895D01*
X76202419Y-75246895D01*
X76279829Y-75285600D01*
X76318533Y-75324305D01*
X76357238Y-75401714D01*
X76357238Y-75479124D01*
X76318533Y-75556533D01*
X76279829Y-75595238D01*
X76202419Y-75633943D01*
X75931486Y-75633943D01*
X76705581Y-75827467D02*
X77092629Y-75827467D01*
X76628172Y-76059695D02*
X76899105Y-75246895D01*
X77170038Y-76059695D01*
X77324858Y-75246895D02*
X77789315Y-75246895D01*
X77557086Y-76059695D02*
X77557086Y-75246895D01*
X52188534Y-70140286D02*
X52149829Y-70178990D01*
X52033715Y-70217695D01*
X51956305Y-70217695D01*
X51840191Y-70178990D01*
X51762782Y-70101581D01*
X51724077Y-70024171D01*
X51685372Y-69869352D01*
X51685372Y-69753238D01*
X51724077Y-69598419D01*
X51762782Y-69521010D01*
X51840191Y-69443600D01*
X51956305Y-69404895D01*
X52033715Y-69404895D01*
X52149829Y-69443600D01*
X52188534Y-69482305D01*
X52498172Y-69482305D02*
X52536877Y-69443600D01*
X52614286Y-69404895D01*
X52807810Y-69404895D01*
X52885220Y-69443600D01*
X52923924Y-69482305D01*
X52962629Y-69559714D01*
X52962629Y-69637124D01*
X52923924Y-69753238D01*
X52459467Y-70217695D01*
X52962629Y-70217695D01*
X52055486Y-71233695D02*
X51591029Y-71233695D01*
X51823258Y-71233695D02*
X51823258Y-70420895D01*
X51745848Y-70537010D01*
X51668439Y-70614419D01*
X51591029Y-70653124D01*
X52558648Y-70420895D02*
X52636057Y-70420895D01*
X52713467Y-70459600D01*
X52752172Y-70498305D01*
X52790876Y-70575714D01*
X52829581Y-70730533D01*
X52829581Y-70924057D01*
X52790876Y-71078876D01*
X52752172Y-71156286D01*
X52713467Y-71194990D01*
X52636057Y-71233695D01*
X52558648Y-71233695D01*
X52481238Y-71194990D01*
X52442534Y-71156286D01*
X52403829Y-71078876D01*
X52365124Y-70924057D01*
X52365124Y-70730533D01*
X52403829Y-70575714D01*
X52442534Y-70498305D01*
X52481238Y-70459600D01*
X52558648Y-70420895D01*
X53526267Y-70691829D02*
X53526267Y-71233695D01*
X53177924Y-70691829D02*
X53177924Y-71117581D01*
X53216629Y-71194990D01*
X53294038Y-71233695D01*
X53410152Y-71233695D01*
X53487562Y-71194990D01*
X53526267Y-71156286D01*
X54254401Y-60669714D02*
X54225372Y-60698743D01*
X54138286Y-60727771D01*
X54080229Y-60727771D01*
X53993144Y-60698743D01*
X53935086Y-60640686D01*
X53906058Y-60582629D01*
X53877029Y-60466514D01*
X53877029Y-60379429D01*
X53906058Y-60263314D01*
X53935086Y-60205257D01*
X53993144Y-60147200D01*
X54080229Y-60118171D01*
X54138286Y-60118171D01*
X54225372Y-60147200D01*
X54254401Y-60176229D01*
X54776915Y-60321371D02*
X54776915Y-60727771D01*
X54631772Y-60089143D02*
X54486629Y-60524571D01*
X54864001Y-60524571D01*
X55742115Y-60727771D02*
X55393772Y-60727771D01*
X55567944Y-60727771D02*
X55567944Y-60118171D01*
X55509887Y-60205257D01*
X55451829Y-60263314D01*
X55393772Y-60292343D01*
X56119486Y-60118171D02*
X56177543Y-60118171D01*
X56235600Y-60147200D01*
X56264629Y-60176229D01*
X56293658Y-60234286D01*
X56322686Y-60350400D01*
X56322686Y-60495543D01*
X56293658Y-60611657D01*
X56264629Y-60669714D01*
X56235600Y-60698743D01*
X56177543Y-60727771D01*
X56119486Y-60727771D01*
X56061429Y-60698743D01*
X56032400Y-60669714D01*
X56003372Y-60611657D01*
X55974343Y-60495543D01*
X55974343Y-60350400D01*
X56003372Y-60234286D01*
X56032400Y-60176229D01*
X56061429Y-60147200D01*
X56119486Y-60118171D01*
X56845200Y-60321371D02*
X56845200Y-60727771D01*
X56583943Y-60321371D02*
X56583943Y-60640686D01*
X56612971Y-60698743D01*
X56671029Y-60727771D01*
X56758114Y-60727771D01*
X56816171Y-60698743D01*
X56845200Y-60669714D01*
X50122667Y-71690895D02*
X50122667Y-72271467D01*
X50083963Y-72387581D01*
X50006553Y-72464990D01*
X49890439Y-72503695D01*
X49813029Y-72503695D01*
X50509715Y-72503695D02*
X50509715Y-71690895D01*
X50819353Y-71690895D01*
X50896762Y-71729600D01*
X50935467Y-71768305D01*
X50974172Y-71845714D01*
X50974172Y-71961829D01*
X50935467Y-72039238D01*
X50896762Y-72077943D01*
X50819353Y-72116648D01*
X50509715Y-72116648D01*
X51748267Y-72503695D02*
X51283810Y-72503695D01*
X51516039Y-72503695D02*
X51516039Y-71690895D01*
X51438629Y-71807010D01*
X51361220Y-71884419D01*
X51283810Y-71923124D01*
X78984324Y-85926990D02*
X79100438Y-85965695D01*
X79293962Y-85965695D01*
X79371372Y-85926990D01*
X79410076Y-85888286D01*
X79448781Y-85810876D01*
X79448781Y-85733467D01*
X79410076Y-85656057D01*
X79371372Y-85617352D01*
X79293962Y-85578648D01*
X79139143Y-85539943D01*
X79061734Y-85501238D01*
X79023029Y-85462533D01*
X78984324Y-85385124D01*
X78984324Y-85307714D01*
X79023029Y-85230305D01*
X79061734Y-85191600D01*
X79139143Y-85152895D01*
X79332667Y-85152895D01*
X79448781Y-85191600D01*
X79797124Y-85965695D02*
X79797124Y-85152895D01*
X80106762Y-85152895D01*
X80184171Y-85191600D01*
X80222876Y-85230305D01*
X80261581Y-85307714D01*
X80261581Y-85423829D01*
X80222876Y-85501238D01*
X80184171Y-85539943D01*
X80106762Y-85578648D01*
X79797124Y-85578648D01*
X81035676Y-85965695D02*
X80571219Y-85965695D01*
X80803448Y-85965695D02*
X80803448Y-85152895D01*
X80726038Y-85269010D01*
X80648629Y-85346419D01*
X80571219Y-85385124D01*
X78094115Y-86801943D02*
X78210229Y-86840648D01*
X78248934Y-86879352D01*
X78287639Y-86956762D01*
X78287639Y-87072876D01*
X78248934Y-87150286D01*
X78210229Y-87188990D01*
X78132820Y-87227695D01*
X77823182Y-87227695D01*
X77823182Y-86414895D01*
X78094115Y-86414895D01*
X78171525Y-86453600D01*
X78210229Y-86492305D01*
X78248934Y-86569714D01*
X78248934Y-86647124D01*
X78210229Y-86724533D01*
X78171525Y-86763238D01*
X78094115Y-86801943D01*
X77823182Y-86801943D01*
X78635982Y-86414895D02*
X78635982Y-87072876D01*
X78674687Y-87150286D01*
X78713391Y-87188990D01*
X78790801Y-87227695D01*
X78945620Y-87227695D01*
X79023029Y-87188990D01*
X79061734Y-87150286D01*
X79100439Y-87072876D01*
X79100439Y-86414895D01*
X79410077Y-86414895D02*
X79951944Y-86414895D01*
X79410077Y-87227695D01*
X79951944Y-87227695D01*
X80184172Y-86414895D02*
X80726039Y-86414895D01*
X80184172Y-87227695D01*
X80726039Y-87227695D01*
X81035677Y-86801943D02*
X81306610Y-86801943D01*
X81422724Y-87227695D02*
X81035677Y-87227695D01*
X81035677Y-86414895D01*
X81422724Y-86414895D01*
X82235524Y-87227695D02*
X81964591Y-86840648D01*
X81771067Y-87227695D02*
X81771067Y-86414895D01*
X82080705Y-86414895D01*
X82158114Y-86453600D01*
X82196819Y-86492305D01*
X82235524Y-86569714D01*
X82235524Y-86685829D01*
X82196819Y-86763238D01*
X82158114Y-86801943D01*
X82080705Y-86840648D01*
X81771067Y-86840648D01*
X82240362Y-90228057D02*
X82859638Y-90228057D01*
X82550000Y-90537695D02*
X82550000Y-89918419D01*
X51494267Y-81862990D02*
X51610381Y-81901695D01*
X51803905Y-81901695D01*
X51881315Y-81862990D01*
X51920019Y-81824286D01*
X51958724Y-81746876D01*
X51958724Y-81669467D01*
X51920019Y-81592057D01*
X51881315Y-81553352D01*
X51803905Y-81514648D01*
X51649086Y-81475943D01*
X51571677Y-81437238D01*
X51532972Y-81398533D01*
X51494267Y-81321124D01*
X51494267Y-81243714D01*
X51532972Y-81166305D01*
X51571677Y-81127600D01*
X51649086Y-81088895D01*
X51842610Y-81088895D01*
X51958724Y-81127600D01*
X52229657Y-81088895D02*
X52423181Y-81901695D01*
X52578000Y-81321124D01*
X52732819Y-81901695D01*
X52926343Y-81088895D01*
X53661733Y-81901695D02*
X53197276Y-81901695D01*
X53429505Y-81901695D02*
X53429505Y-81088895D01*
X53352095Y-81205010D01*
X53274686Y-81282419D01*
X53197276Y-81321124D01*
X49938820Y-83679695D02*
X49938820Y-82866895D01*
X50248458Y-82866895D01*
X50325867Y-82905600D01*
X50364572Y-82944305D01*
X50403277Y-83021714D01*
X50403277Y-83137829D01*
X50364572Y-83215238D01*
X50325867Y-83253943D01*
X50248458Y-83292648D01*
X49938820Y-83292648D01*
X50906439Y-82866895D02*
X51061258Y-82866895D01*
X51138667Y-82905600D01*
X51216077Y-82983010D01*
X51254782Y-83137829D01*
X51254782Y-83408762D01*
X51216077Y-83563581D01*
X51138667Y-83640990D01*
X51061258Y-83679695D01*
X50906439Y-83679695D01*
X50829029Y-83640990D01*
X50751620Y-83563581D01*
X50712915Y-83408762D01*
X50712915Y-83137829D01*
X50751620Y-82983010D01*
X50829029Y-82905600D01*
X50906439Y-82866895D01*
X51525715Y-82866895D02*
X51719239Y-83679695D01*
X51874058Y-83099124D01*
X52028877Y-83679695D01*
X52222401Y-82866895D01*
X52532039Y-83253943D02*
X52802972Y-83253943D01*
X52919086Y-83679695D02*
X52532039Y-83679695D01*
X52532039Y-82866895D01*
X52919086Y-82866895D01*
X53731886Y-83679695D02*
X53460953Y-83292648D01*
X53267429Y-83679695D02*
X53267429Y-82866895D01*
X53577067Y-82866895D01*
X53654476Y-82905600D01*
X53693181Y-82944305D01*
X53731886Y-83021714D01*
X53731886Y-83137829D01*
X53693181Y-83215238D01*
X53654476Y-83253943D01*
X53577067Y-83292648D01*
X53267429Y-83292648D01*
X96452267Y-91006990D02*
X96568381Y-91045695D01*
X96761905Y-91045695D01*
X96839315Y-91006990D01*
X96878019Y-90968286D01*
X96916724Y-90890876D01*
X96916724Y-90813467D01*
X96878019Y-90736057D01*
X96839315Y-90697352D01*
X96761905Y-90658648D01*
X96607086Y-90619943D01*
X96529677Y-90581238D01*
X96490972Y-90542533D01*
X96452267Y-90465124D01*
X96452267Y-90387714D01*
X96490972Y-90310305D01*
X96529677Y-90271600D01*
X96607086Y-90232895D01*
X96800610Y-90232895D01*
X96916724Y-90271600D01*
X97187657Y-90232895D02*
X97381181Y-91045695D01*
X97536000Y-90465124D01*
X97690819Y-91045695D01*
X97884343Y-90232895D01*
X98155276Y-90310305D02*
X98193981Y-90271600D01*
X98271390Y-90232895D01*
X98464914Y-90232895D01*
X98542324Y-90271600D01*
X98581028Y-90310305D01*
X98619733Y-90387714D01*
X98619733Y-90465124D01*
X98581028Y-90581238D01*
X98116571Y-91045695D01*
X98619733Y-91045695D01*
X95932172Y-93921943D02*
X96048286Y-93960648D01*
X96086991Y-93999352D01*
X96125696Y-94076762D01*
X96125696Y-94192876D01*
X96086991Y-94270286D01*
X96048286Y-94308990D01*
X95970877Y-94347695D01*
X95661239Y-94347695D01*
X95661239Y-93534895D01*
X95932172Y-93534895D01*
X96009582Y-93573600D01*
X96048286Y-93612305D01*
X96086991Y-93689714D01*
X96086991Y-93767124D01*
X96048286Y-93844533D01*
X96009582Y-93883238D01*
X95932172Y-93921943D01*
X95661239Y-93921943D01*
X96822382Y-93805829D02*
X96822382Y-94347695D01*
X96474039Y-93805829D02*
X96474039Y-94231581D01*
X96512744Y-94308990D01*
X96590153Y-94347695D01*
X96706267Y-94347695D01*
X96783677Y-94308990D01*
X96822382Y-94270286D01*
X97093315Y-93805829D02*
X97402953Y-93805829D01*
X97209429Y-93534895D02*
X97209429Y-94231581D01*
X97248134Y-94308990D01*
X97325543Y-94347695D01*
X97402953Y-94347695D01*
X97557772Y-93805829D02*
X97867410Y-93805829D01*
X97673886Y-93534895D02*
X97673886Y-94231581D01*
X97712591Y-94308990D01*
X97790000Y-94347695D01*
X97867410Y-94347695D01*
X98254457Y-94347695D02*
X98177048Y-94308990D01*
X98138343Y-94270286D01*
X98099638Y-94192876D01*
X98099638Y-93960648D01*
X98138343Y-93883238D01*
X98177048Y-93844533D01*
X98254457Y-93805829D01*
X98370571Y-93805829D01*
X98447981Y-93844533D01*
X98486686Y-93883238D01*
X98525390Y-93960648D01*
X98525390Y-94192876D01*
X98486686Y-94270286D01*
X98447981Y-94308990D01*
X98370571Y-94347695D01*
X98254457Y-94347695D01*
X98873733Y-93805829D02*
X98873733Y-94347695D01*
X98873733Y-93883238D02*
X98912438Y-93844533D01*
X98989847Y-93805829D01*
X99105961Y-93805829D01*
X99183371Y-93844533D01*
X99222076Y-93921943D01*
X99222076Y-94347695D01*
X99570418Y-94115467D02*
X99957466Y-94115467D01*
X99493009Y-94347695D02*
X99763942Y-93534895D01*
X100034875Y-94347695D01*
X105596267Y-91006990D02*
X105712381Y-91045695D01*
X105905905Y-91045695D01*
X105983315Y-91006990D01*
X106022019Y-90968286D01*
X106060724Y-90890876D01*
X106060724Y-90813467D01*
X106022019Y-90736057D01*
X105983315Y-90697352D01*
X105905905Y-90658648D01*
X105751086Y-90619943D01*
X105673677Y-90581238D01*
X105634972Y-90542533D01*
X105596267Y-90465124D01*
X105596267Y-90387714D01*
X105634972Y-90310305D01*
X105673677Y-90271600D01*
X105751086Y-90232895D01*
X105944610Y-90232895D01*
X106060724Y-90271600D01*
X106331657Y-90232895D02*
X106525181Y-91045695D01*
X106680000Y-90465124D01*
X106834819Y-91045695D01*
X107028343Y-90232895D01*
X107260571Y-90232895D02*
X107763733Y-90232895D01*
X107492800Y-90542533D01*
X107608914Y-90542533D01*
X107686324Y-90581238D01*
X107725028Y-90619943D01*
X107763733Y-90697352D01*
X107763733Y-90890876D01*
X107725028Y-90968286D01*
X107686324Y-91006990D01*
X107608914Y-91045695D01*
X107376686Y-91045695D01*
X107299276Y-91006990D01*
X107260571Y-90968286D01*
X104764115Y-93921943D02*
X104880229Y-93960648D01*
X104918934Y-93999352D01*
X104957639Y-94076762D01*
X104957639Y-94192876D01*
X104918934Y-94270286D01*
X104880229Y-94308990D01*
X104802820Y-94347695D01*
X104493182Y-94347695D01*
X104493182Y-93534895D01*
X104764115Y-93534895D01*
X104841525Y-93573600D01*
X104880229Y-93612305D01*
X104918934Y-93689714D01*
X104918934Y-93767124D01*
X104880229Y-93844533D01*
X104841525Y-93883238D01*
X104764115Y-93921943D01*
X104493182Y-93921943D01*
X105654325Y-93805829D02*
X105654325Y-94347695D01*
X105305982Y-93805829D02*
X105305982Y-94231581D01*
X105344687Y-94308990D01*
X105422096Y-94347695D01*
X105538210Y-94347695D01*
X105615620Y-94308990D01*
X105654325Y-94270286D01*
X105925258Y-93805829D02*
X106234896Y-93805829D01*
X106041372Y-93534895D02*
X106041372Y-94231581D01*
X106080077Y-94308990D01*
X106157486Y-94347695D01*
X106234896Y-94347695D01*
X106389715Y-93805829D02*
X106699353Y-93805829D01*
X106505829Y-93534895D02*
X106505829Y-94231581D01*
X106544534Y-94308990D01*
X106621943Y-94347695D01*
X106699353Y-94347695D01*
X107086400Y-94347695D02*
X107008991Y-94308990D01*
X106970286Y-94270286D01*
X106931581Y-94192876D01*
X106931581Y-93960648D01*
X106970286Y-93883238D01*
X107008991Y-93844533D01*
X107086400Y-93805829D01*
X107202514Y-93805829D01*
X107279924Y-93844533D01*
X107318629Y-93883238D01*
X107357333Y-93960648D01*
X107357333Y-94192876D01*
X107318629Y-94270286D01*
X107279924Y-94308990D01*
X107202514Y-94347695D01*
X107086400Y-94347695D01*
X107705676Y-93805829D02*
X107705676Y-94347695D01*
X107705676Y-93883238D02*
X107744381Y-93844533D01*
X107821790Y-93805829D01*
X107937904Y-93805829D01*
X108015314Y-93844533D01*
X108054019Y-93921943D01*
X108054019Y-94347695D01*
X108711999Y-93921943D02*
X108828113Y-93960648D01*
X108866818Y-93999352D01*
X108905523Y-94076762D01*
X108905523Y-94192876D01*
X108866818Y-94270286D01*
X108828113Y-94308990D01*
X108750704Y-94347695D01*
X108441066Y-94347695D01*
X108441066Y-93534895D01*
X108711999Y-93534895D01*
X108789409Y-93573600D01*
X108828113Y-93612305D01*
X108866818Y-93689714D01*
X108866818Y-93767124D01*
X108828113Y-93844533D01*
X108789409Y-93883238D01*
X108711999Y-93921943D01*
X108441066Y-93921943D01*
X113216267Y-83894990D02*
X113332381Y-83933695D01*
X113525905Y-83933695D01*
X113603315Y-83894990D01*
X113642019Y-83856286D01*
X113680724Y-83778876D01*
X113680724Y-83701467D01*
X113642019Y-83624057D01*
X113603315Y-83585352D01*
X113525905Y-83546648D01*
X113371086Y-83507943D01*
X113293677Y-83469238D01*
X113254972Y-83430533D01*
X113216267Y-83353124D01*
X113216267Y-83275714D01*
X113254972Y-83198305D01*
X113293677Y-83159600D01*
X113371086Y-83120895D01*
X113564610Y-83120895D01*
X113680724Y-83159600D01*
X113951657Y-83120895D02*
X114145181Y-83933695D01*
X114300000Y-83353124D01*
X114454819Y-83933695D01*
X114648343Y-83120895D01*
X115306324Y-83391829D02*
X115306324Y-83933695D01*
X115112800Y-83082190D02*
X114919276Y-83662762D01*
X115422438Y-83662762D01*
X113119506Y-87235695D02*
X112848573Y-86848648D01*
X112655049Y-87235695D02*
X112655049Y-86422895D01*
X112964687Y-86422895D01*
X113042096Y-86461600D01*
X113080801Y-86500305D01*
X113119506Y-86577714D01*
X113119506Y-86693829D01*
X113080801Y-86771238D01*
X113042096Y-86809943D01*
X112964687Y-86848648D01*
X112655049Y-86848648D01*
X113467849Y-86809943D02*
X113738782Y-86809943D01*
X113854896Y-87235695D02*
X113467849Y-87235695D01*
X113467849Y-86422895D01*
X113854896Y-86422895D01*
X114164534Y-87196990D02*
X114280648Y-87235695D01*
X114474172Y-87235695D01*
X114551582Y-87196990D01*
X114590286Y-87158286D01*
X114628991Y-87080876D01*
X114628991Y-87003467D01*
X114590286Y-86926057D01*
X114551582Y-86887352D01*
X114474172Y-86848648D01*
X114319353Y-86809943D01*
X114241944Y-86771238D01*
X114203239Y-86732533D01*
X114164534Y-86655124D01*
X114164534Y-86577714D01*
X114203239Y-86500305D01*
X114241944Y-86461600D01*
X114319353Y-86422895D01*
X114512877Y-86422895D01*
X114628991Y-86461600D01*
X114977334Y-86809943D02*
X115248267Y-86809943D01*
X115364381Y-87235695D02*
X114977334Y-87235695D01*
X114977334Y-86422895D01*
X115364381Y-86422895D01*
X115596610Y-86422895D02*
X116061067Y-86422895D01*
X115828838Y-87235695D02*
X115828838Y-86422895D01*
X108487029Y-76821695D02*
X108487029Y-76008895D01*
X108680553Y-76008895D01*
X108796667Y-76047600D01*
X108874076Y-76125010D01*
X108912781Y-76202419D01*
X108951486Y-76357238D01*
X108951486Y-76473352D01*
X108912781Y-76628171D01*
X108874076Y-76705581D01*
X108796667Y-76782990D01*
X108680553Y-76821695D01*
X108487029Y-76821695D01*
X109725581Y-76821695D02*
X109261124Y-76821695D01*
X109493353Y-76821695D02*
X109493353Y-76008895D01*
X109415943Y-76125010D01*
X109338534Y-76202419D01*
X109261124Y-76241124D01*
X110228743Y-76008895D02*
X110306152Y-76008895D01*
X110383562Y-76047600D01*
X110422267Y-76086305D01*
X110460971Y-76163714D01*
X110499676Y-76318533D01*
X110499676Y-76512057D01*
X110460971Y-76666876D01*
X110422267Y-76744286D01*
X110383562Y-76782990D01*
X110306152Y-76821695D01*
X110228743Y-76821695D01*
X110151333Y-76782990D01*
X110112629Y-76744286D01*
X110073924Y-76666876D01*
X110035219Y-76512057D01*
X110035219Y-76318533D01*
X110073924Y-76163714D01*
X110112629Y-76086305D01*
X110151333Y-76047600D01*
X110228743Y-76008895D01*
X109205486Y-78853695D02*
X108818439Y-78853695D01*
X108818439Y-78040895D01*
X109476420Y-78427943D02*
X109747353Y-78427943D01*
X109863467Y-78853695D02*
X109476420Y-78853695D01*
X109476420Y-78040895D01*
X109863467Y-78040895D01*
X110211810Y-78853695D02*
X110211810Y-78040895D01*
X110405334Y-78040895D01*
X110521448Y-78079600D01*
X110598857Y-78157010D01*
X110637562Y-78234419D01*
X110676267Y-78389238D01*
X110676267Y-78505352D01*
X110637562Y-78660171D01*
X110598857Y-78737581D01*
X110521448Y-78814990D01*
X110405334Y-78853695D01*
X110211810Y-78853695D01*
X86522077Y-74027695D02*
X86522077Y-73214895D01*
X86715601Y-73214895D01*
X86831715Y-73253600D01*
X86909124Y-73331010D01*
X86947829Y-73408419D01*
X86986534Y-73563238D01*
X86986534Y-73679352D01*
X86947829Y-73834171D01*
X86909124Y-73911581D01*
X86831715Y-73988990D01*
X86715601Y-74027695D01*
X86522077Y-74027695D01*
X87257467Y-73214895D02*
X87760629Y-73214895D01*
X87489696Y-73524533D01*
X87605810Y-73524533D01*
X87683220Y-73563238D01*
X87721924Y-73601943D01*
X87760629Y-73679352D01*
X87760629Y-73872876D01*
X87721924Y-73950286D01*
X87683220Y-73988990D01*
X87605810Y-74027695D01*
X87373582Y-74027695D01*
X87296172Y-73988990D01*
X87257467Y-73950286D01*
X83132991Y-75043695D02*
X82862058Y-74656648D01*
X82668534Y-75043695D02*
X82668534Y-74230895D01*
X82978172Y-74230895D01*
X83055581Y-74269600D01*
X83094286Y-74308305D01*
X83132991Y-74385714D01*
X83132991Y-74501829D01*
X83094286Y-74579238D01*
X83055581Y-74617943D01*
X82978172Y-74656648D01*
X82668534Y-74656648D01*
X83752267Y-74617943D02*
X83868381Y-74656648D01*
X83907086Y-74695352D01*
X83945791Y-74772762D01*
X83945791Y-74888876D01*
X83907086Y-74966286D01*
X83868381Y-75004990D01*
X83790972Y-75043695D01*
X83481334Y-75043695D01*
X83481334Y-74230895D01*
X83752267Y-74230895D01*
X83829677Y-74269600D01*
X83868381Y-74308305D01*
X83907086Y-74385714D01*
X83907086Y-74463124D01*
X83868381Y-74540533D01*
X83829677Y-74579238D01*
X83752267Y-74617943D01*
X83481334Y-74617943D01*
X84681181Y-74230895D02*
X84294134Y-74230895D01*
X84255429Y-74617943D01*
X84294134Y-74579238D01*
X84371543Y-74540533D01*
X84565067Y-74540533D01*
X84642477Y-74579238D01*
X84681181Y-74617943D01*
X84719886Y-74695352D01*
X84719886Y-74888876D01*
X84681181Y-74966286D01*
X84642477Y-75004990D01*
X84565067Y-75043695D01*
X84371543Y-75043695D01*
X84294134Y-75004990D01*
X84255429Y-74966286D01*
X85029524Y-74308305D02*
X85068229Y-74269600D01*
X85145638Y-74230895D01*
X85339162Y-74230895D01*
X85416572Y-74269600D01*
X85455276Y-74308305D01*
X85493981Y-74385714D01*
X85493981Y-74463124D01*
X85455276Y-74579238D01*
X84990819Y-75043695D01*
X85493981Y-75043695D01*
X85997143Y-74230895D02*
X86074552Y-74230895D01*
X86151962Y-74269600D01*
X86190667Y-74308305D01*
X86229371Y-74385714D01*
X86268076Y-74540533D01*
X86268076Y-74734057D01*
X86229371Y-74888876D01*
X86190667Y-74966286D01*
X86151962Y-75004990D01*
X86074552Y-75043695D01*
X85997143Y-75043695D01*
X85919733Y-75004990D01*
X85881029Y-74966286D01*
X85842324Y-74888876D01*
X85803619Y-74734057D01*
X85803619Y-74540533D01*
X85842324Y-74385714D01*
X85881029Y-74308305D01*
X85919733Y-74269600D01*
X85997143Y-74230895D01*
X86577714Y-75004990D02*
X86693828Y-75043695D01*
X86887352Y-75043695D01*
X86964762Y-75004990D01*
X87003466Y-74966286D01*
X87042171Y-74888876D01*
X87042171Y-74811467D01*
X87003466Y-74734057D01*
X86964762Y-74695352D01*
X86887352Y-74656648D01*
X86732533Y-74617943D01*
X86655124Y-74579238D01*
X86616419Y-74540533D01*
X86577714Y-74463124D01*
X86577714Y-74385714D01*
X86616419Y-74308305D01*
X86655124Y-74269600D01*
X86732533Y-74230895D01*
X86926057Y-74230895D01*
X87042171Y-74269600D01*
X71908610Y-89470895D02*
X72102134Y-90283695D01*
X72256953Y-89703124D01*
X72411772Y-90283695D01*
X72605296Y-89470895D01*
X73340686Y-90283695D02*
X72876229Y-90283695D01*
X73108458Y-90283695D02*
X73108458Y-89470895D01*
X73031048Y-89587010D01*
X72953639Y-89664419D01*
X72876229Y-89703124D01*
X107604077Y-58533695D02*
X107604077Y-57720895D01*
X107913715Y-57720895D01*
X107991124Y-57759600D01*
X108029829Y-57798305D01*
X108068534Y-57875714D01*
X108068534Y-57991829D01*
X108029829Y-58069238D01*
X107991124Y-58107943D01*
X107913715Y-58146648D01*
X107604077Y-58146648D01*
X108532991Y-58069238D02*
X108455582Y-58030533D01*
X108416877Y-57991829D01*
X108378172Y-57914419D01*
X108378172Y-57875714D01*
X108416877Y-57798305D01*
X108455582Y-57759600D01*
X108532991Y-57720895D01*
X108687810Y-57720895D01*
X108765220Y-57759600D01*
X108803924Y-57798305D01*
X108842629Y-57875714D01*
X108842629Y-57914419D01*
X108803924Y-57991829D01*
X108765220Y-58030533D01*
X108687810Y-58069238D01*
X108532991Y-58069238D01*
X108455582Y-58107943D01*
X108416877Y-58146648D01*
X108378172Y-58224057D01*
X108378172Y-58378876D01*
X108416877Y-58456286D01*
X108455582Y-58494990D01*
X108532991Y-58533695D01*
X108687810Y-58533695D01*
X108765220Y-58494990D01*
X108803924Y-58456286D01*
X108842629Y-58378876D01*
X108842629Y-58224057D01*
X108803924Y-58146648D01*
X108765220Y-58107943D01*
X108687810Y-58069238D01*
X105552724Y-65633600D02*
X105475315Y-65594895D01*
X105359200Y-65594895D01*
X105243086Y-65633600D01*
X105165677Y-65711010D01*
X105126972Y-65788419D01*
X105088267Y-65943238D01*
X105088267Y-66059352D01*
X105126972Y-66214171D01*
X105165677Y-66291581D01*
X105243086Y-66368990D01*
X105359200Y-66407695D01*
X105436610Y-66407695D01*
X105552724Y-66368990D01*
X105591429Y-66330286D01*
X105591429Y-66059352D01*
X105436610Y-66059352D01*
X105939772Y-66407695D02*
X105939772Y-65594895D01*
X106404229Y-66407695D01*
X106404229Y-65594895D01*
X106791277Y-66407695D02*
X106791277Y-65594895D01*
X106984801Y-65594895D01*
X107100915Y-65633600D01*
X107178324Y-65711010D01*
X107217029Y-65788419D01*
X107255734Y-65943238D01*
X107255734Y-66059352D01*
X107217029Y-66214171D01*
X107178324Y-66291581D01*
X107100915Y-66368990D01*
X106984801Y-66407695D01*
X106791277Y-66407695D01*
X105419676Y-63054895D02*
X105922838Y-63054895D01*
X105651905Y-63364533D01*
X105768019Y-63364533D01*
X105845429Y-63403238D01*
X105884133Y-63441943D01*
X105922838Y-63519352D01*
X105922838Y-63712876D01*
X105884133Y-63790286D01*
X105845429Y-63828990D01*
X105768019Y-63867695D01*
X105535791Y-63867695D01*
X105458381Y-63828990D01*
X105419676Y-63790286D01*
X106155067Y-63054895D02*
X106426000Y-63867695D01*
X106696933Y-63054895D01*
X106890457Y-63054895D02*
X107393619Y-63054895D01*
X107122686Y-63364533D01*
X107238800Y-63364533D01*
X107316210Y-63403238D01*
X107354914Y-63441943D01*
X107393619Y-63519352D01*
X107393619Y-63712876D01*
X107354914Y-63790286D01*
X107316210Y-63828990D01*
X107238800Y-63867695D01*
X107006572Y-63867695D01*
X106929162Y-63828990D01*
X106890457Y-63790286D01*
X106290534Y-71487695D02*
X106019601Y-71100648D01*
X105826077Y-71487695D02*
X105826077Y-70674895D01*
X106135715Y-70674895D01*
X106213124Y-70713600D01*
X106251829Y-70752305D01*
X106290534Y-70829714D01*
X106290534Y-70945829D01*
X106251829Y-71023238D01*
X106213124Y-71061943D01*
X106135715Y-71100648D01*
X105826077Y-71100648D01*
X106561467Y-70674895D02*
X107103334Y-71487695D01*
X107103334Y-70674895D02*
X106561467Y-71487695D01*
X105806725Y-68134895D02*
X106271182Y-68134895D01*
X106038953Y-68947695D02*
X106038953Y-68134895D01*
X106464705Y-68134895D02*
X107006572Y-68947695D01*
X107006572Y-68134895D02*
X106464705Y-68947695D01*
X110673848Y-59002990D02*
X110789962Y-59041695D01*
X110983486Y-59041695D01*
X111060896Y-59002990D01*
X111099600Y-58964286D01*
X111138305Y-58886876D01*
X111138305Y-58809467D01*
X111099600Y-58732057D01*
X111060896Y-58693352D01*
X110983486Y-58654648D01*
X110828667Y-58615943D01*
X110751258Y-58577238D01*
X110712553Y-58538533D01*
X110673848Y-58461124D01*
X110673848Y-58383714D01*
X110712553Y-58306305D01*
X110751258Y-58267600D01*
X110828667Y-58228895D01*
X111022191Y-58228895D01*
X111138305Y-58267600D01*
X111486648Y-59041695D02*
X111486648Y-58228895D01*
X111796286Y-58228895D01*
X111873695Y-58267600D01*
X111912400Y-58306305D01*
X111951105Y-58383714D01*
X111951105Y-58499829D01*
X111912400Y-58577238D01*
X111873695Y-58615943D01*
X111796286Y-58654648D01*
X111486648Y-58654648D01*
X112299448Y-59041695D02*
X112299448Y-58228895D01*
X114164534Y-71664286D02*
X114125829Y-71702990D01*
X114009715Y-71741695D01*
X113932305Y-71741695D01*
X113816191Y-71702990D01*
X113738782Y-71625581D01*
X113700077Y-71548171D01*
X113661372Y-71393352D01*
X113661372Y-71277238D01*
X113700077Y-71122419D01*
X113738782Y-71045010D01*
X113816191Y-70967600D01*
X113932305Y-70928895D01*
X114009715Y-70928895D01*
X114125829Y-70967600D01*
X114164534Y-71006305D01*
X114938629Y-71741695D02*
X114474172Y-71741695D01*
X114706401Y-71741695D02*
X114706401Y-70928895D01*
X114628991Y-71045010D01*
X114551582Y-71122419D01*
X114474172Y-71161124D01*
X106017181Y-60514895D02*
X105630134Y-60514895D01*
X105591429Y-60901943D01*
X105630134Y-60863238D01*
X105707543Y-60824533D01*
X105901067Y-60824533D01*
X105978477Y-60863238D01*
X106017181Y-60901943D01*
X106055886Y-60979352D01*
X106055886Y-61172876D01*
X106017181Y-61250286D01*
X105978477Y-61288990D01*
X105901067Y-61327695D01*
X105707543Y-61327695D01*
X105630134Y-61288990D01*
X105591429Y-61250286D01*
X106288115Y-60514895D02*
X106559048Y-61327695D01*
X106829981Y-60514895D01*
X93614724Y-64578895D02*
X93614724Y-65236876D01*
X93653429Y-65314286D01*
X93692133Y-65352990D01*
X93769543Y-65391695D01*
X93924362Y-65391695D01*
X94001771Y-65352990D01*
X94040476Y-65314286D01*
X94079181Y-65236876D01*
X94079181Y-64578895D01*
X94891981Y-65391695D02*
X94427524Y-65391695D01*
X94659753Y-65391695D02*
X94659753Y-64578895D01*
X94582343Y-64695010D01*
X94504934Y-64772419D01*
X94427524Y-64811124D01*
X89369296Y-66876990D02*
X89485410Y-66915695D01*
X89678934Y-66915695D01*
X89756344Y-66876990D01*
X89795048Y-66838286D01*
X89833753Y-66760876D01*
X89833753Y-66683467D01*
X89795048Y-66606057D01*
X89756344Y-66567352D01*
X89678934Y-66528648D01*
X89524115Y-66489943D01*
X89446706Y-66451238D01*
X89408001Y-66412533D01*
X89369296Y-66335124D01*
X89369296Y-66257714D01*
X89408001Y-66180305D01*
X89446706Y-66141600D01*
X89524115Y-66102895D01*
X89717639Y-66102895D01*
X89833753Y-66141600D01*
X90065982Y-66102895D02*
X90530439Y-66102895D01*
X90298210Y-66915695D02*
X90298210Y-66102895D01*
X90801372Y-66915695D02*
X90801372Y-66102895D01*
X91072305Y-66683467D01*
X91343238Y-66102895D01*
X91343238Y-66915695D01*
X91652876Y-66102895D02*
X92156038Y-66102895D01*
X91885105Y-66412533D01*
X92001219Y-66412533D01*
X92078629Y-66451238D01*
X92117333Y-66489943D01*
X92156038Y-66567352D01*
X92156038Y-66760876D01*
X92117333Y-66838286D01*
X92078629Y-66876990D01*
X92001219Y-66915695D01*
X91768991Y-66915695D01*
X91691581Y-66876990D01*
X91652876Y-66838286D01*
X92465676Y-66180305D02*
X92504381Y-66141600D01*
X92581790Y-66102895D01*
X92775314Y-66102895D01*
X92852724Y-66141600D01*
X92891428Y-66180305D01*
X92930133Y-66257714D01*
X92930133Y-66335124D01*
X92891428Y-66451238D01*
X92426971Y-66915695D01*
X92930133Y-66915695D01*
X93549409Y-66489943D02*
X93278476Y-66489943D01*
X93278476Y-66915695D02*
X93278476Y-66102895D01*
X93665523Y-66102895D01*
X94400914Y-66915695D02*
X93936457Y-66915695D01*
X94168686Y-66915695D02*
X94168686Y-66102895D01*
X94091276Y-66219010D01*
X94013867Y-66296419D01*
X93936457Y-66335124D01*
X94904076Y-66102895D02*
X94981485Y-66102895D01*
X95058895Y-66141600D01*
X95097600Y-66180305D01*
X95136304Y-66257714D01*
X95175009Y-66412533D01*
X95175009Y-66606057D01*
X95136304Y-66760876D01*
X95097600Y-66838286D01*
X95058895Y-66876990D01*
X94981485Y-66915695D01*
X94904076Y-66915695D01*
X94826666Y-66876990D01*
X94787962Y-66838286D01*
X94749257Y-66760876D01*
X94710552Y-66606057D01*
X94710552Y-66412533D01*
X94749257Y-66257714D01*
X94787962Y-66180305D01*
X94826666Y-66141600D01*
X94904076Y-66102895D01*
X95445942Y-66102895D02*
X95949104Y-66102895D01*
X95678171Y-66412533D01*
X95794285Y-66412533D01*
X95871695Y-66451238D01*
X95910399Y-66489943D01*
X95949104Y-66567352D01*
X95949104Y-66760876D01*
X95910399Y-66838286D01*
X95871695Y-66876990D01*
X95794285Y-66915695D01*
X95562057Y-66915695D01*
X95484647Y-66876990D01*
X95445942Y-66838286D01*
X96761904Y-66915695D02*
X96490971Y-66528648D01*
X96297447Y-66915695D02*
X96297447Y-66102895D01*
X96607085Y-66102895D01*
X96684494Y-66141600D01*
X96723199Y-66180305D01*
X96761904Y-66257714D01*
X96761904Y-66373829D01*
X96723199Y-66451238D01*
X96684494Y-66489943D01*
X96607085Y-66528648D01*
X96297447Y-66528648D01*
X97574704Y-66838286D02*
X97535999Y-66876990D01*
X97419885Y-66915695D01*
X97342475Y-66915695D01*
X97226361Y-66876990D01*
X97148952Y-66799581D01*
X97110247Y-66722171D01*
X97071542Y-66567352D01*
X97071542Y-66451238D01*
X97110247Y-66296419D01*
X97148952Y-66219010D01*
X97226361Y-66141600D01*
X97342475Y-66102895D01*
X97419885Y-66102895D01*
X97535999Y-66141600D01*
X97574704Y-66180305D01*
X59090077Y-94601695D02*
X59090077Y-93788895D01*
X59399715Y-93788895D01*
X59477124Y-93827600D01*
X59515829Y-93866305D01*
X59554534Y-93943714D01*
X59554534Y-94059829D01*
X59515829Y-94137238D01*
X59477124Y-94175943D01*
X59399715Y-94214648D01*
X59090077Y-94214648D01*
X59825467Y-93788895D02*
X60328629Y-93788895D01*
X60057696Y-94098533D01*
X60173810Y-94098533D01*
X60251220Y-94137238D01*
X60289924Y-94175943D01*
X60328629Y-94253352D01*
X60328629Y-94446876D01*
X60289924Y-94524286D01*
X60251220Y-94562990D01*
X60173810Y-94601695D01*
X59941582Y-94601695D01*
X59864172Y-94562990D01*
X59825467Y-94524286D01*
X55560686Y-93788895D02*
X55831619Y-94601695D01*
X56102552Y-93788895D01*
X56644419Y-94175943D02*
X56760533Y-94214648D01*
X56799238Y-94253352D01*
X56837943Y-94330762D01*
X56837943Y-94446876D01*
X56799238Y-94524286D01*
X56760533Y-94562990D01*
X56683124Y-94601695D01*
X56373486Y-94601695D01*
X56373486Y-93788895D01*
X56644419Y-93788895D01*
X56721829Y-93827600D01*
X56760533Y-93866305D01*
X56799238Y-93943714D01*
X56799238Y-94021124D01*
X56760533Y-94098533D01*
X56721829Y-94137238D01*
X56644419Y-94175943D01*
X56373486Y-94175943D01*
X57147581Y-94369467D02*
X57534629Y-94369467D01*
X57070172Y-94601695D02*
X57341105Y-93788895D01*
X57612038Y-94601695D01*
X57766858Y-93788895D02*
X58231315Y-93788895D01*
X57999086Y-94601695D02*
X57999086Y-93788895D01*
X56840362Y-82862057D02*
X57459638Y-82862057D01*
X57150000Y-83171695D02*
X57150000Y-82552419D01*
X64170077Y-94601695D02*
X64170077Y-93788895D01*
X64479715Y-93788895D01*
X64557124Y-93827600D01*
X64595829Y-93866305D01*
X64634534Y-93943714D01*
X64634534Y-94059829D01*
X64595829Y-94137238D01*
X64557124Y-94175943D01*
X64479715Y-94214648D01*
X64170077Y-94214648D01*
X65331220Y-94059829D02*
X65331220Y-94601695D01*
X65137696Y-93750190D02*
X64944172Y-94330762D01*
X65447334Y-94330762D01*
X62075181Y-93788895D02*
X61688134Y-93788895D01*
X61649429Y-94175943D01*
X61688134Y-94137238D01*
X61765543Y-94098533D01*
X61959067Y-94098533D01*
X62036477Y-94137238D01*
X62075181Y-94175943D01*
X62113886Y-94253352D01*
X62113886Y-94446876D01*
X62075181Y-94524286D01*
X62036477Y-94562990D01*
X61959067Y-94601695D01*
X61765543Y-94601695D01*
X61688134Y-94562990D01*
X61649429Y-94524286D01*
X62346115Y-93788895D02*
X62617048Y-94601695D01*
X62887981Y-93788895D01*
X61920362Y-82608057D02*
X62539638Y-82608057D01*
X62230000Y-82917695D02*
X62230000Y-82298419D01*
X69250077Y-94601695D02*
X69250077Y-93788895D01*
X69559715Y-93788895D01*
X69637124Y-93827600D01*
X69675829Y-93866305D01*
X69714534Y-93943714D01*
X69714534Y-94059829D01*
X69675829Y-94137238D01*
X69637124Y-94175943D01*
X69559715Y-94214648D01*
X69250077Y-94214648D01*
X70449924Y-93788895D02*
X70062877Y-93788895D01*
X70024172Y-94175943D01*
X70062877Y-94137238D01*
X70140286Y-94098533D01*
X70333810Y-94098533D01*
X70411220Y-94137238D01*
X70449924Y-94175943D01*
X70488629Y-94253352D01*
X70488629Y-94446876D01*
X70449924Y-94524286D01*
X70411220Y-94562990D01*
X70333810Y-94601695D01*
X70140286Y-94601695D01*
X70062877Y-94562990D01*
X70024172Y-94524286D01*
X66303676Y-93788895D02*
X66806838Y-93788895D01*
X66535905Y-94098533D01*
X66652019Y-94098533D01*
X66729429Y-94137238D01*
X66768133Y-94175943D01*
X66806838Y-94253352D01*
X66806838Y-94446876D01*
X66768133Y-94524286D01*
X66729429Y-94562990D01*
X66652019Y-94601695D01*
X66419791Y-94601695D01*
X66342381Y-94562990D01*
X66303676Y-94524286D01*
X67039067Y-93788895D02*
X67310000Y-94601695D01*
X67580933Y-93788895D01*
X67774457Y-93788895D02*
X68277619Y-93788895D01*
X68006686Y-94098533D01*
X68122800Y-94098533D01*
X68200210Y-94137238D01*
X68238914Y-94175943D01*
X68277619Y-94253352D01*
X68277619Y-94446876D01*
X68238914Y-94524286D01*
X68200210Y-94562990D01*
X68122800Y-94601695D01*
X67890572Y-94601695D01*
X67813162Y-94562990D01*
X67774457Y-94524286D01*
X67000362Y-82608057D02*
X67619638Y-82608057D01*
X67310000Y-82917695D02*
X67310000Y-82298419D01*
X68234077Y-51421695D02*
X68234077Y-50608895D01*
X68543715Y-50608895D01*
X68621124Y-50647600D01*
X68659829Y-50686305D01*
X68698534Y-50763714D01*
X68698534Y-50879829D01*
X68659829Y-50957238D01*
X68621124Y-50995943D01*
X68543715Y-51034648D01*
X68234077Y-51034648D01*
X69085582Y-51421695D02*
X69240401Y-51421695D01*
X69317810Y-51382990D01*
X69356515Y-51344286D01*
X69433924Y-51228171D01*
X69472629Y-51073352D01*
X69472629Y-50763714D01*
X69433924Y-50686305D01*
X69395220Y-50647600D01*
X69317810Y-50608895D01*
X69162991Y-50608895D01*
X69085582Y-50647600D01*
X69046877Y-50686305D01*
X69008172Y-50763714D01*
X69008172Y-50957238D01*
X69046877Y-51034648D01*
X69085582Y-51073352D01*
X69162991Y-51112057D01*
X69317810Y-51112057D01*
X69395220Y-51073352D01*
X69433924Y-51034648D01*
X69472629Y-50957238D01*
X67747848Y-49389695D02*
X67747848Y-48576895D01*
X67941372Y-48576895D01*
X68057486Y-48615600D01*
X68134895Y-48693010D01*
X68173600Y-48770419D01*
X68212305Y-48925238D01*
X68212305Y-49041352D01*
X68173600Y-49196171D01*
X68134895Y-49273581D01*
X68057486Y-49350990D01*
X67941372Y-49389695D01*
X67747848Y-49389695D01*
X68560648Y-49389695D02*
X68560648Y-48576895D01*
X69102515Y-48576895D02*
X69257334Y-48576895D01*
X69334743Y-48615600D01*
X69412153Y-48693010D01*
X69450858Y-48847829D01*
X69450858Y-49118762D01*
X69412153Y-49273581D01*
X69334743Y-49350990D01*
X69257334Y-49389695D01*
X69102515Y-49389695D01*
X69025105Y-49350990D01*
X68947696Y-49273581D01*
X68908991Y-49118762D01*
X68908991Y-48847829D01*
X68947696Y-48693010D01*
X69025105Y-48615600D01*
X69102515Y-48576895D01*
X91111010Y-48455943D02*
X91227124Y-48494648D01*
X91265829Y-48533352D01*
X91304534Y-48610762D01*
X91304534Y-48726876D01*
X91265829Y-48804286D01*
X91227124Y-48842990D01*
X91149715Y-48881695D01*
X90840077Y-48881695D01*
X90840077Y-48068895D01*
X91111010Y-48068895D01*
X91188420Y-48107600D01*
X91227124Y-48146305D01*
X91265829Y-48223714D01*
X91265829Y-48301124D01*
X91227124Y-48378533D01*
X91188420Y-48417238D01*
X91111010Y-48455943D01*
X90840077Y-48455943D01*
X91614172Y-48146305D02*
X91652877Y-48107600D01*
X91730286Y-48068895D01*
X91923810Y-48068895D01*
X92001220Y-48107600D01*
X92039924Y-48146305D01*
X92078629Y-48223714D01*
X92078629Y-48301124D01*
X92039924Y-48417238D01*
X91575467Y-48881695D01*
X92078629Y-48881695D01*
X88764534Y-48804286D02*
X88725829Y-48842990D01*
X88609715Y-48881695D01*
X88532305Y-48881695D01*
X88416191Y-48842990D01*
X88338782Y-48765581D01*
X88300077Y-48688171D01*
X88261372Y-48533352D01*
X88261372Y-48417238D01*
X88300077Y-48262419D01*
X88338782Y-48185010D01*
X88416191Y-48107600D01*
X88532305Y-48068895D01*
X88609715Y-48068895D01*
X88725829Y-48107600D01*
X88764534Y-48146305D01*
X89035467Y-48068895D02*
X89577334Y-48068895D01*
X89228991Y-48881695D01*
X86224534Y-48804286D02*
X86185829Y-48842990D01*
X86069715Y-48881695D01*
X85992305Y-48881695D01*
X85876191Y-48842990D01*
X85798782Y-48765581D01*
X85760077Y-48688171D01*
X85721372Y-48533352D01*
X85721372Y-48417238D01*
X85760077Y-48262419D01*
X85798782Y-48185010D01*
X85876191Y-48107600D01*
X85992305Y-48068895D01*
X86069715Y-48068895D01*
X86185829Y-48107600D01*
X86224534Y-48146305D01*
X86611582Y-48881695D02*
X86766401Y-48881695D01*
X86843810Y-48842990D01*
X86882515Y-48804286D01*
X86959924Y-48688171D01*
X86998629Y-48533352D01*
X86998629Y-48223714D01*
X86959924Y-48146305D01*
X86921220Y-48107600D01*
X86843810Y-48068895D01*
X86688991Y-48068895D01*
X86611582Y-48107600D01*
X86572877Y-48146305D01*
X86534172Y-48223714D01*
X86534172Y-48417238D01*
X86572877Y-48494648D01*
X86611582Y-48533352D01*
X86688991Y-48572057D01*
X86843810Y-48572057D01*
X86921220Y-48533352D01*
X86959924Y-48494648D01*
X86998629Y-48417238D01*
X82852381Y-48649467D02*
X83239429Y-48649467D01*
X82774972Y-48881695D02*
X83045905Y-48068895D01*
X83316838Y-48881695D01*
X84013524Y-48881695D02*
X83549067Y-48881695D01*
X83781296Y-48881695D02*
X83781296Y-48068895D01*
X83703886Y-48185010D01*
X83626477Y-48262419D01*
X83549067Y-48301124D01*
X84787619Y-48881695D02*
X84323162Y-48881695D01*
X84555391Y-48881695D02*
X84555391Y-48068895D01*
X84477981Y-48185010D01*
X84400572Y-48262419D01*
X84323162Y-48301124D01*
X80312381Y-48649467D02*
X80699429Y-48649467D01*
X80234972Y-48881695D02*
X80505905Y-48068895D01*
X80776838Y-48881695D01*
X81473524Y-48881695D02*
X81009067Y-48881695D01*
X81241296Y-48881695D02*
X81241296Y-48068895D01*
X81163886Y-48185010D01*
X81086477Y-48262419D01*
X81009067Y-48301124D01*
X82208914Y-48068895D02*
X81821867Y-48068895D01*
X81783162Y-48455943D01*
X81821867Y-48417238D01*
X81899276Y-48378533D01*
X82092800Y-48378533D01*
X82170210Y-48417238D01*
X82208914Y-48455943D01*
X82247619Y-48533352D01*
X82247619Y-48726876D01*
X82208914Y-48804286D01*
X82170210Y-48842990D01*
X82092800Y-48881695D01*
X81899276Y-48881695D01*
X81821867Y-48842990D01*
X81783162Y-48804286D01*
X78217486Y-48804286D02*
X78178781Y-48842990D01*
X78062667Y-48881695D01*
X77985257Y-48881695D01*
X77869143Y-48842990D01*
X77791734Y-48765581D01*
X77753029Y-48688171D01*
X77714324Y-48533352D01*
X77714324Y-48417238D01*
X77753029Y-48262419D01*
X77791734Y-48185010D01*
X77869143Y-48107600D01*
X77985257Y-48068895D01*
X78062667Y-48068895D01*
X78178781Y-48107600D01*
X78217486Y-48146305D01*
X78991581Y-48881695D02*
X78527124Y-48881695D01*
X78759353Y-48881695D02*
X78759353Y-48068895D01*
X78681943Y-48185010D01*
X78604534Y-48262419D01*
X78527124Y-48301124D01*
X79765676Y-48881695D02*
X79301219Y-48881695D01*
X79533448Y-48881695D02*
X79533448Y-48068895D01*
X79456038Y-48185010D01*
X79378629Y-48262419D01*
X79301219Y-48301124D01*
X75600077Y-48881695D02*
X75600077Y-48068895D01*
X75793601Y-48068895D01*
X75909715Y-48107600D01*
X75987124Y-48185010D01*
X76025829Y-48262419D01*
X76064534Y-48417238D01*
X76064534Y-48533352D01*
X76025829Y-48688171D01*
X75987124Y-48765581D01*
X75909715Y-48842990D01*
X75793601Y-48881695D01*
X75600077Y-48881695D01*
X76374172Y-48146305D02*
X76412877Y-48107600D01*
X76490286Y-48068895D01*
X76683810Y-48068895D01*
X76761220Y-48107600D01*
X76799924Y-48146305D01*
X76838629Y-48223714D01*
X76838629Y-48301124D01*
X76799924Y-48417238D01*
X76335467Y-48881695D01*
X76838629Y-48881695D01*
X73331010Y-48455943D02*
X73447124Y-48494648D01*
X73485829Y-48533352D01*
X73524534Y-48610762D01*
X73524534Y-48726876D01*
X73485829Y-48804286D01*
X73447124Y-48842990D01*
X73369715Y-48881695D01*
X73060077Y-48881695D01*
X73060077Y-48068895D01*
X73331010Y-48068895D01*
X73408420Y-48107600D01*
X73447124Y-48146305D01*
X73485829Y-48223714D01*
X73485829Y-48301124D01*
X73447124Y-48378533D01*
X73408420Y-48417238D01*
X73331010Y-48455943D01*
X73060077Y-48455943D01*
X74221220Y-48339829D02*
X74221220Y-48881695D01*
X74027696Y-48030190D02*
X73834172Y-48610762D01*
X74337334Y-48610762D01*
X70791010Y-48455943D02*
X70907124Y-48494648D01*
X70945829Y-48533352D01*
X70984534Y-48610762D01*
X70984534Y-48726876D01*
X70945829Y-48804286D01*
X70907124Y-48842990D01*
X70829715Y-48881695D01*
X70520077Y-48881695D01*
X70520077Y-48068895D01*
X70791010Y-48068895D01*
X70868420Y-48107600D01*
X70907124Y-48146305D01*
X70945829Y-48223714D01*
X70945829Y-48301124D01*
X70907124Y-48378533D01*
X70868420Y-48417238D01*
X70791010Y-48455943D01*
X70520077Y-48455943D01*
X71681220Y-48068895D02*
X71526401Y-48068895D01*
X71448991Y-48107600D01*
X71410286Y-48146305D01*
X71332877Y-48262419D01*
X71294172Y-48417238D01*
X71294172Y-48726876D01*
X71332877Y-48804286D01*
X71371582Y-48842990D01*
X71448991Y-48881695D01*
X71603810Y-48881695D01*
X71681220Y-48842990D01*
X71719924Y-48804286D01*
X71758629Y-48726876D01*
X71758629Y-48533352D01*
X71719924Y-48455943D01*
X71681220Y-48417238D01*
X71603810Y-48378533D01*
X71448991Y-48378533D01*
X71371582Y-48417238D01*
X71332877Y-48455943D01*
X71294172Y-48533352D01*
X91304534Y-55916286D02*
X91265829Y-55954990D01*
X91149715Y-55993695D01*
X91072305Y-55993695D01*
X90956191Y-55954990D01*
X90878782Y-55877581D01*
X90840077Y-55800171D01*
X90801372Y-55645352D01*
X90801372Y-55529238D01*
X90840077Y-55374419D01*
X90878782Y-55297010D01*
X90956191Y-55219600D01*
X91072305Y-55180895D01*
X91149715Y-55180895D01*
X91265829Y-55219600D01*
X91304534Y-55258305D01*
X92001220Y-55180895D02*
X91846401Y-55180895D01*
X91768991Y-55219600D01*
X91730286Y-55258305D01*
X91652877Y-55374419D01*
X91614172Y-55529238D01*
X91614172Y-55838876D01*
X91652877Y-55916286D01*
X91691582Y-55954990D01*
X91768991Y-55993695D01*
X91923810Y-55993695D01*
X92001220Y-55954990D01*
X92039924Y-55916286D01*
X92078629Y-55838876D01*
X92078629Y-55645352D01*
X92039924Y-55567943D01*
X92001220Y-55529238D01*
X91923810Y-55490533D01*
X91768991Y-55490533D01*
X91691582Y-55529238D01*
X91652877Y-55567943D01*
X91614172Y-55645352D01*
X88764534Y-55916286D02*
X88725829Y-55954990D01*
X88609715Y-55993695D01*
X88532305Y-55993695D01*
X88416191Y-55954990D01*
X88338782Y-55877581D01*
X88300077Y-55800171D01*
X88261372Y-55645352D01*
X88261372Y-55529238D01*
X88300077Y-55374419D01*
X88338782Y-55297010D01*
X88416191Y-55219600D01*
X88532305Y-55180895D01*
X88609715Y-55180895D01*
X88725829Y-55219600D01*
X88764534Y-55258305D01*
X89228991Y-55529238D02*
X89151582Y-55490533D01*
X89112877Y-55451829D01*
X89074172Y-55374419D01*
X89074172Y-55335714D01*
X89112877Y-55258305D01*
X89151582Y-55219600D01*
X89228991Y-55180895D01*
X89383810Y-55180895D01*
X89461220Y-55219600D01*
X89499924Y-55258305D01*
X89538629Y-55335714D01*
X89538629Y-55374419D01*
X89499924Y-55451829D01*
X89461220Y-55490533D01*
X89383810Y-55529238D01*
X89228991Y-55529238D01*
X89151582Y-55567943D01*
X89112877Y-55606648D01*
X89074172Y-55684057D01*
X89074172Y-55838876D01*
X89112877Y-55916286D01*
X89151582Y-55954990D01*
X89228991Y-55993695D01*
X89383810Y-55993695D01*
X89461220Y-55954990D01*
X89499924Y-55916286D01*
X89538629Y-55838876D01*
X89538629Y-55684057D01*
X89499924Y-55606648D01*
X89461220Y-55567943D01*
X89383810Y-55529238D01*
X85392381Y-55761467D02*
X85779429Y-55761467D01*
X85314972Y-55993695D02*
X85585905Y-55180895D01*
X85856838Y-55993695D01*
X86553524Y-55993695D02*
X86089067Y-55993695D01*
X86321296Y-55993695D02*
X86321296Y-55180895D01*
X86243886Y-55297010D01*
X86166477Y-55374419D01*
X86089067Y-55413124D01*
X87056686Y-55180895D02*
X87134095Y-55180895D01*
X87211505Y-55219600D01*
X87250210Y-55258305D01*
X87288914Y-55335714D01*
X87327619Y-55490533D01*
X87327619Y-55684057D01*
X87288914Y-55838876D01*
X87250210Y-55916286D01*
X87211505Y-55954990D01*
X87134095Y-55993695D01*
X87056686Y-55993695D01*
X86979276Y-55954990D01*
X86940572Y-55916286D01*
X86901867Y-55838876D01*
X86863162Y-55684057D01*
X86863162Y-55490533D01*
X86901867Y-55335714D01*
X86940572Y-55258305D01*
X86979276Y-55219600D01*
X87056686Y-55180895D01*
X82852381Y-55761467D02*
X83239429Y-55761467D01*
X82774972Y-55993695D02*
X83045905Y-55180895D01*
X83316838Y-55993695D01*
X84013524Y-55993695D02*
X83549067Y-55993695D01*
X83781296Y-55993695D02*
X83781296Y-55180895D01*
X83703886Y-55297010D01*
X83626477Y-55374419D01*
X83549067Y-55413124D01*
X84323162Y-55258305D02*
X84361867Y-55219600D01*
X84439276Y-55180895D01*
X84632800Y-55180895D01*
X84710210Y-55219600D01*
X84748914Y-55258305D01*
X84787619Y-55335714D01*
X84787619Y-55413124D01*
X84748914Y-55529238D01*
X84284457Y-55993695D01*
X84787619Y-55993695D01*
X80757486Y-55916286D02*
X80718781Y-55954990D01*
X80602667Y-55993695D01*
X80525257Y-55993695D01*
X80409143Y-55954990D01*
X80331734Y-55877581D01*
X80293029Y-55800171D01*
X80254324Y-55645352D01*
X80254324Y-55529238D01*
X80293029Y-55374419D01*
X80331734Y-55297010D01*
X80409143Y-55219600D01*
X80525257Y-55180895D01*
X80602667Y-55180895D01*
X80718781Y-55219600D01*
X80757486Y-55258305D01*
X81531581Y-55993695D02*
X81067124Y-55993695D01*
X81299353Y-55993695D02*
X81299353Y-55180895D01*
X81221943Y-55297010D01*
X81144534Y-55374419D01*
X81067124Y-55413124D01*
X82034743Y-55180895D02*
X82112152Y-55180895D01*
X82189562Y-55219600D01*
X82228267Y-55258305D01*
X82266971Y-55335714D01*
X82305676Y-55490533D01*
X82305676Y-55684057D01*
X82266971Y-55838876D01*
X82228267Y-55916286D01*
X82189562Y-55954990D01*
X82112152Y-55993695D01*
X82034743Y-55993695D01*
X81957333Y-55954990D01*
X81918629Y-55916286D01*
X81879924Y-55838876D01*
X81841219Y-55684057D01*
X81841219Y-55490533D01*
X81879924Y-55335714D01*
X81918629Y-55258305D01*
X81957333Y-55219600D01*
X82034743Y-55180895D01*
X78217486Y-55916286D02*
X78178781Y-55954990D01*
X78062667Y-55993695D01*
X77985257Y-55993695D01*
X77869143Y-55954990D01*
X77791734Y-55877581D01*
X77753029Y-55800171D01*
X77714324Y-55645352D01*
X77714324Y-55529238D01*
X77753029Y-55374419D01*
X77791734Y-55297010D01*
X77869143Y-55219600D01*
X77985257Y-55180895D01*
X78062667Y-55180895D01*
X78178781Y-55219600D01*
X78217486Y-55258305D01*
X78991581Y-55993695D02*
X78527124Y-55993695D01*
X78759353Y-55993695D02*
X78759353Y-55180895D01*
X78681943Y-55297010D01*
X78604534Y-55374419D01*
X78527124Y-55413124D01*
X79301219Y-55258305D02*
X79339924Y-55219600D01*
X79417333Y-55180895D01*
X79610857Y-55180895D01*
X79688267Y-55219600D01*
X79726971Y-55258305D01*
X79765676Y-55335714D01*
X79765676Y-55413124D01*
X79726971Y-55529238D01*
X79262514Y-55993695D01*
X79765676Y-55993695D01*
X75871010Y-55567943D02*
X75987124Y-55606648D01*
X76025829Y-55645352D01*
X76064534Y-55722762D01*
X76064534Y-55838876D01*
X76025829Y-55916286D01*
X75987124Y-55954990D01*
X75909715Y-55993695D01*
X75600077Y-55993695D01*
X75600077Y-55180895D01*
X75871010Y-55180895D01*
X75948420Y-55219600D01*
X75987124Y-55258305D01*
X76025829Y-55335714D01*
X76025829Y-55413124D01*
X75987124Y-55490533D01*
X75948420Y-55529238D01*
X75871010Y-55567943D01*
X75600077Y-55567943D01*
X76335467Y-55180895D02*
X76838629Y-55180895D01*
X76567696Y-55490533D01*
X76683810Y-55490533D01*
X76761220Y-55529238D01*
X76799924Y-55567943D01*
X76838629Y-55645352D01*
X76838629Y-55838876D01*
X76799924Y-55916286D01*
X76761220Y-55954990D01*
X76683810Y-55993695D01*
X76451582Y-55993695D01*
X76374172Y-55954990D01*
X76335467Y-55916286D01*
X73331010Y-55567943D02*
X73447124Y-55606648D01*
X73485829Y-55645352D01*
X73524534Y-55722762D01*
X73524534Y-55838876D01*
X73485829Y-55916286D01*
X73447124Y-55954990D01*
X73369715Y-55993695D01*
X73060077Y-55993695D01*
X73060077Y-55180895D01*
X73331010Y-55180895D01*
X73408420Y-55219600D01*
X73447124Y-55258305D01*
X73485829Y-55335714D01*
X73485829Y-55413124D01*
X73447124Y-55490533D01*
X73408420Y-55529238D01*
X73331010Y-55567943D01*
X73060077Y-55567943D01*
X74259924Y-55180895D02*
X73872877Y-55180895D01*
X73834172Y-55567943D01*
X73872877Y-55529238D01*
X73950286Y-55490533D01*
X74143810Y-55490533D01*
X74221220Y-55529238D01*
X74259924Y-55567943D01*
X74298629Y-55645352D01*
X74298629Y-55838876D01*
X74259924Y-55916286D01*
X74221220Y-55954990D01*
X74143810Y-55993695D01*
X73950286Y-55993695D01*
X73872877Y-55954990D01*
X73834172Y-55916286D01*
X70791010Y-55567943D02*
X70907124Y-55606648D01*
X70945829Y-55645352D01*
X70984534Y-55722762D01*
X70984534Y-55838876D01*
X70945829Y-55916286D01*
X70907124Y-55954990D01*
X70829715Y-55993695D01*
X70520077Y-55993695D01*
X70520077Y-55180895D01*
X70791010Y-55180895D01*
X70868420Y-55219600D01*
X70907124Y-55258305D01*
X70945829Y-55335714D01*
X70945829Y-55413124D01*
X70907124Y-55490533D01*
X70868420Y-55529238D01*
X70791010Y-55567943D01*
X70520077Y-55567943D01*
X71255467Y-55180895D02*
X71797334Y-55180895D01*
X71448991Y-55993695D01*
X112805029Y-53961695D02*
X112805029Y-53148895D01*
X113114667Y-53148895D01*
X113192076Y-53187600D01*
X113230781Y-53226305D01*
X113269486Y-53303714D01*
X113269486Y-53419829D01*
X113230781Y-53497238D01*
X113192076Y-53535943D01*
X113114667Y-53574648D01*
X112805029Y-53574648D01*
X114043581Y-53961695D02*
X113579124Y-53961695D01*
X113811353Y-53961695D02*
X113811353Y-53148895D01*
X113733943Y-53265010D01*
X113656534Y-53342419D01*
X113579124Y-53381124D01*
X114546743Y-53148895D02*
X114624152Y-53148895D01*
X114701562Y-53187600D01*
X114740267Y-53226305D01*
X114778971Y-53303714D01*
X114817676Y-53458533D01*
X114817676Y-53652057D01*
X114778971Y-53806876D01*
X114740267Y-53884286D01*
X114701562Y-53922990D01*
X114624152Y-53961695D01*
X114546743Y-53961695D01*
X114469333Y-53922990D01*
X114430629Y-53884286D01*
X114391924Y-53806876D01*
X114353219Y-53652057D01*
X114353219Y-53458533D01*
X114391924Y-53303714D01*
X114430629Y-53226305D01*
X114469333Y-53187600D01*
X114546743Y-53148895D01*
X112979200Y-54999467D02*
X113366248Y-54999467D01*
X112901791Y-55231695D02*
X113172724Y-54418895D01*
X113443657Y-55231695D01*
X113714591Y-55231695D02*
X113714591Y-54418895D01*
X114256458Y-54418895D02*
X114411277Y-54418895D01*
X114488686Y-54457600D01*
X114566096Y-54535010D01*
X114604801Y-54689829D01*
X114604801Y-54960762D01*
X114566096Y-55115581D01*
X114488686Y-55192990D01*
X114411277Y-55231695D01*
X114256458Y-55231695D01*
X114179048Y-55192990D01*
X114101639Y-55115581D01*
X114062934Y-54960762D01*
X114062934Y-54689829D01*
X114101639Y-54535010D01*
X114179048Y-54457600D01*
X114256458Y-54418895D01*
X95429010Y-48455943D02*
X95545124Y-48494648D01*
X95583829Y-48533352D01*
X95622534Y-48610762D01*
X95622534Y-48726876D01*
X95583829Y-48804286D01*
X95545124Y-48842990D01*
X95467715Y-48881695D01*
X95158077Y-48881695D01*
X95158077Y-48068895D01*
X95429010Y-48068895D01*
X95506420Y-48107600D01*
X95545124Y-48146305D01*
X95583829Y-48223714D01*
X95583829Y-48301124D01*
X95545124Y-48378533D01*
X95506420Y-48417238D01*
X95429010Y-48455943D01*
X95158077Y-48455943D01*
X96125696Y-48068895D02*
X96203105Y-48068895D01*
X96280515Y-48107600D01*
X96319220Y-48146305D01*
X96357924Y-48223714D01*
X96396629Y-48378533D01*
X96396629Y-48572057D01*
X96357924Y-48726876D01*
X96319220Y-48804286D01*
X96280515Y-48842990D01*
X96203105Y-48881695D01*
X96125696Y-48881695D01*
X96048286Y-48842990D01*
X96009582Y-48804286D01*
X95970877Y-48726876D01*
X95932172Y-48572057D01*
X95932172Y-48378533D01*
X95970877Y-48223714D01*
X96009582Y-48146305D01*
X96048286Y-48107600D01*
X96125696Y-48068895D01*
X98162534Y-48804286D02*
X98123829Y-48842990D01*
X98007715Y-48881695D01*
X97930305Y-48881695D01*
X97814191Y-48842990D01*
X97736782Y-48765581D01*
X97698077Y-48688171D01*
X97659372Y-48533352D01*
X97659372Y-48417238D01*
X97698077Y-48262419D01*
X97736782Y-48185010D01*
X97814191Y-48107600D01*
X97930305Y-48068895D01*
X98007715Y-48068895D01*
X98123829Y-48107600D01*
X98162534Y-48146305D01*
X98859220Y-48339829D02*
X98859220Y-48881695D01*
X98665696Y-48030190D02*
X98472172Y-48610762D01*
X98975334Y-48610762D01*
X100257429Y-48649467D02*
X100644477Y-48649467D01*
X100180020Y-48881695D02*
X100450953Y-48068895D01*
X100721886Y-48881695D01*
X101341163Y-48068895D02*
X101186344Y-48068895D01*
X101108934Y-48107600D01*
X101070229Y-48146305D01*
X100992820Y-48262419D01*
X100954115Y-48417238D01*
X100954115Y-48726876D01*
X100992820Y-48804286D01*
X101031525Y-48842990D01*
X101108934Y-48881695D01*
X101263753Y-48881695D01*
X101341163Y-48842990D01*
X101379867Y-48804286D01*
X101418572Y-48726876D01*
X101418572Y-48533352D01*
X101379867Y-48455943D01*
X101341163Y-48417238D01*
X101263753Y-48378533D01*
X101108934Y-48378533D01*
X101031525Y-48417238D01*
X100992820Y-48455943D01*
X100954115Y-48533352D01*
X102797429Y-48649467D02*
X103184477Y-48649467D01*
X102720020Y-48881695D02*
X102990953Y-48068895D01*
X103261886Y-48881695D01*
X103881163Y-48339829D02*
X103881163Y-48881695D01*
X103687639Y-48030190D02*
X103494115Y-48610762D01*
X103997277Y-48610762D01*
X105337429Y-48649467D02*
X105724477Y-48649467D01*
X105260020Y-48881695D02*
X105530953Y-48068895D01*
X105801886Y-48881695D01*
X106034115Y-48146305D02*
X106072820Y-48107600D01*
X106150229Y-48068895D01*
X106343753Y-48068895D01*
X106421163Y-48107600D01*
X106459867Y-48146305D01*
X106498572Y-48223714D01*
X106498572Y-48301124D01*
X106459867Y-48417238D01*
X105995410Y-48881695D01*
X106498572Y-48881695D01*
X107877429Y-48649467D02*
X108264477Y-48649467D01*
X107800020Y-48881695D02*
X108070953Y-48068895D01*
X108341886Y-48881695D01*
X108767639Y-48068895D02*
X108845048Y-48068895D01*
X108922458Y-48107600D01*
X108961163Y-48146305D01*
X108999867Y-48223714D01*
X109038572Y-48378533D01*
X109038572Y-48572057D01*
X108999867Y-48726876D01*
X108961163Y-48804286D01*
X108922458Y-48842990D01*
X108845048Y-48881695D01*
X108767639Y-48881695D01*
X108690229Y-48842990D01*
X108651525Y-48804286D01*
X108612820Y-48726876D01*
X108574115Y-48572057D01*
X108574115Y-48378533D01*
X108612820Y-48223714D01*
X108651525Y-48146305D01*
X108690229Y-48107600D01*
X108767639Y-48068895D01*
X110862534Y-48804286D02*
X110823829Y-48842990D01*
X110707715Y-48881695D01*
X110630305Y-48881695D01*
X110514191Y-48842990D01*
X110436782Y-48765581D01*
X110398077Y-48688171D01*
X110359372Y-48533352D01*
X110359372Y-48417238D01*
X110398077Y-48262419D01*
X110436782Y-48185010D01*
X110514191Y-48107600D01*
X110630305Y-48068895D01*
X110707715Y-48068895D01*
X110823829Y-48107600D01*
X110862534Y-48146305D01*
X111172172Y-48146305D02*
X111210877Y-48107600D01*
X111288286Y-48068895D01*
X111481810Y-48068895D01*
X111559220Y-48107600D01*
X111597924Y-48146305D01*
X111636629Y-48223714D01*
X111636629Y-48301124D01*
X111597924Y-48417238D01*
X111133467Y-48881695D01*
X111636629Y-48881695D01*
X110862534Y-55916286D02*
X110823829Y-55954990D01*
X110707715Y-55993695D01*
X110630305Y-55993695D01*
X110514191Y-55954990D01*
X110436782Y-55877581D01*
X110398077Y-55800171D01*
X110359372Y-55645352D01*
X110359372Y-55529238D01*
X110398077Y-55374419D01*
X110436782Y-55297010D01*
X110514191Y-55219600D01*
X110630305Y-55180895D01*
X110707715Y-55180895D01*
X110823829Y-55219600D01*
X110862534Y-55258305D01*
X111133467Y-55180895D02*
X111636629Y-55180895D01*
X111365696Y-55490533D01*
X111481810Y-55490533D01*
X111559220Y-55529238D01*
X111597924Y-55567943D01*
X111636629Y-55645352D01*
X111636629Y-55838876D01*
X111597924Y-55916286D01*
X111559220Y-55954990D01*
X111481810Y-55993695D01*
X111249582Y-55993695D01*
X111172172Y-55954990D01*
X111133467Y-55916286D01*
X107877429Y-55761467D02*
X108264477Y-55761467D01*
X107800020Y-55993695D02*
X108070953Y-55180895D01*
X108341886Y-55993695D01*
X109038572Y-55993695D02*
X108574115Y-55993695D01*
X108806344Y-55993695D02*
X108806344Y-55180895D01*
X108728934Y-55297010D01*
X108651525Y-55374419D01*
X108574115Y-55413124D01*
X105337429Y-55761467D02*
X105724477Y-55761467D01*
X105260020Y-55993695D02*
X105530953Y-55180895D01*
X105801886Y-55993695D01*
X105995410Y-55180895D02*
X106498572Y-55180895D01*
X106227639Y-55490533D01*
X106343753Y-55490533D01*
X106421163Y-55529238D01*
X106459867Y-55567943D01*
X106498572Y-55645352D01*
X106498572Y-55838876D01*
X106459867Y-55916286D01*
X106421163Y-55954990D01*
X106343753Y-55993695D01*
X106111525Y-55993695D01*
X106034115Y-55954990D01*
X105995410Y-55916286D01*
X102797429Y-55761467D02*
X103184477Y-55761467D01*
X102720020Y-55993695D02*
X102990953Y-55180895D01*
X103261886Y-55993695D01*
X103919867Y-55180895D02*
X103532820Y-55180895D01*
X103494115Y-55567943D01*
X103532820Y-55529238D01*
X103610229Y-55490533D01*
X103803753Y-55490533D01*
X103881163Y-55529238D01*
X103919867Y-55567943D01*
X103958572Y-55645352D01*
X103958572Y-55838876D01*
X103919867Y-55916286D01*
X103881163Y-55954990D01*
X103803753Y-55993695D01*
X103610229Y-55993695D01*
X103532820Y-55954990D01*
X103494115Y-55916286D01*
X100257429Y-55761467D02*
X100644477Y-55761467D01*
X100180020Y-55993695D02*
X100450953Y-55180895D01*
X100721886Y-55993695D01*
X100915410Y-55180895D02*
X101457277Y-55180895D01*
X101108934Y-55993695D01*
X98162534Y-55916286D02*
X98123829Y-55954990D01*
X98007715Y-55993695D01*
X97930305Y-55993695D01*
X97814191Y-55954990D01*
X97736782Y-55877581D01*
X97698077Y-55800171D01*
X97659372Y-55645352D01*
X97659372Y-55529238D01*
X97698077Y-55374419D01*
X97736782Y-55297010D01*
X97814191Y-55219600D01*
X97930305Y-55180895D01*
X98007715Y-55180895D01*
X98123829Y-55219600D01*
X98162534Y-55258305D01*
X98897924Y-55180895D02*
X98510877Y-55180895D01*
X98472172Y-55567943D01*
X98510877Y-55529238D01*
X98588286Y-55490533D01*
X98781810Y-55490533D01*
X98859220Y-55529238D01*
X98897924Y-55567943D01*
X98936629Y-55645352D01*
X98936629Y-55838876D01*
X98897924Y-55916286D01*
X98859220Y-55954990D01*
X98781810Y-55993695D01*
X98588286Y-55993695D01*
X98510877Y-55954990D01*
X98472172Y-55916286D01*
X94667010Y-55567943D02*
X94783124Y-55606648D01*
X94821829Y-55645352D01*
X94860534Y-55722762D01*
X94860534Y-55838876D01*
X94821829Y-55916286D01*
X94783124Y-55954990D01*
X94705715Y-55993695D01*
X94396077Y-55993695D01*
X94396077Y-55180895D01*
X94667010Y-55180895D01*
X94744420Y-55219600D01*
X94783124Y-55258305D01*
X94821829Y-55335714D01*
X94821829Y-55413124D01*
X94783124Y-55490533D01*
X94744420Y-55529238D01*
X94667010Y-55567943D01*
X94396077Y-55567943D01*
X95634629Y-55993695D02*
X95170172Y-55993695D01*
X95402401Y-55993695D02*
X95402401Y-55180895D01*
X95324991Y-55297010D01*
X95247582Y-55374419D01*
X95170172Y-55413124D01*
X52994077Y-88251695D02*
X52994077Y-87438895D01*
X53303715Y-87438895D01*
X53381124Y-87477600D01*
X53419829Y-87516305D01*
X53458534Y-87593714D01*
X53458534Y-87709829D01*
X53419829Y-87787238D01*
X53381124Y-87825943D01*
X53303715Y-87864648D01*
X52994077Y-87864648D01*
X54232629Y-88251695D02*
X53768172Y-88251695D01*
X54000401Y-88251695D02*
X54000401Y-87438895D01*
X53922991Y-87555010D01*
X53845582Y-87632419D01*
X53768172Y-87671124D01*
X50200076Y-87825943D02*
X50316190Y-87864648D01*
X50354895Y-87903352D01*
X50393600Y-87980762D01*
X50393600Y-88096876D01*
X50354895Y-88174286D01*
X50316190Y-88212990D01*
X50238781Y-88251695D01*
X49929143Y-88251695D01*
X49929143Y-87438895D01*
X50200076Y-87438895D01*
X50277486Y-87477600D01*
X50316190Y-87516305D01*
X50354895Y-87593714D01*
X50354895Y-87671124D01*
X50316190Y-87748533D01*
X50277486Y-87787238D01*
X50200076Y-87825943D01*
X49929143Y-87825943D01*
X50703238Y-88019467D02*
X51090286Y-88019467D01*
X50625829Y-88251695D02*
X50896762Y-87438895D01*
X51167695Y-88251695D01*
X51322515Y-87438895D02*
X51786972Y-87438895D01*
X51554743Y-88251695D02*
X51554743Y-87438895D01*
D12*
X59436095Y-66762381D02*
X59436095Y-67571905D01*
X59483714Y-67667143D01*
X59531333Y-67714762D01*
X59626571Y-67762381D01*
X59817048Y-67762381D01*
X59912286Y-67714762D01*
X59959905Y-67667143D01*
X60007524Y-67571905D01*
X60007524Y-66762381D01*
X60436095Y-66857619D02*
X60483714Y-66810000D01*
X60578952Y-66762381D01*
X60817048Y-66762381D01*
X60912286Y-66810000D01*
X60959905Y-66857619D01*
X61007524Y-66952857D01*
X61007524Y-67048095D01*
X60959905Y-67190952D01*
X60388476Y-67762381D01*
X61007524Y-67762381D01*
X58198000Y-69302381D02*
X58388477Y-69302381D01*
X58483715Y-69350000D01*
X58578953Y-69445238D01*
X58626572Y-69635714D01*
X58626572Y-69969048D01*
X58578953Y-70159524D01*
X58483715Y-70254762D01*
X58388477Y-70302381D01*
X58198000Y-70302381D01*
X58102762Y-70254762D01*
X58007524Y-70159524D01*
X57959905Y-69969048D01*
X57959905Y-69635714D01*
X58007524Y-69445238D01*
X58102762Y-69350000D01*
X58198000Y-69302381D01*
X59055143Y-70302381D02*
X59055143Y-69302381D01*
X59626572Y-70302381D02*
X59198000Y-69730952D01*
X59626572Y-69302381D02*
X59055143Y-69873810D01*
X60531334Y-70302381D02*
X60055143Y-70302381D01*
X60055143Y-69302381D01*
X60864667Y-69921429D02*
X61626572Y-69921429D01*
X61959905Y-69302381D02*
X62531334Y-69302381D01*
X62245619Y-70302381D02*
X62245619Y-69302381D01*
D11*
X116537619Y-69329904D02*
X115521619Y-69329904D01*
X115521619Y-68942857D01*
X115570000Y-68846095D01*
X115618381Y-68797714D01*
X115715143Y-68749333D01*
X115860286Y-68749333D01*
X115957048Y-68797714D01*
X116005429Y-68846095D01*
X116053810Y-68942857D01*
X116053810Y-69329904D01*
X115521619Y-67878476D02*
X115521619Y-68071999D01*
X115570000Y-68168761D01*
X115618381Y-68217142D01*
X115763524Y-68313904D01*
X115957048Y-68362285D01*
X116344095Y-68362285D01*
X116440857Y-68313904D01*
X116489238Y-68265523D01*
X116537619Y-68168761D01*
X116537619Y-67975238D01*
X116489238Y-67878476D01*
X116440857Y-67830095D01*
X116344095Y-67781714D01*
X116102190Y-67781714D01*
X116005429Y-67830095D01*
X115957048Y-67878476D01*
X115908667Y-67975238D01*
X115908667Y-68168761D01*
X115957048Y-68265523D01*
X116005429Y-68313904D01*
X116102190Y-68362285D01*
X118013238Y-70466857D02*
X118061619Y-70321714D01*
X118061619Y-70079810D01*
X118013238Y-69983048D01*
X117964857Y-69934667D01*
X117868095Y-69886286D01*
X117771333Y-69886286D01*
X117674571Y-69934667D01*
X117626190Y-69983048D01*
X117577810Y-70079810D01*
X117529429Y-70273333D01*
X117481048Y-70370095D01*
X117432667Y-70418476D01*
X117335905Y-70466857D01*
X117239143Y-70466857D01*
X117142381Y-70418476D01*
X117094000Y-70370095D01*
X117045619Y-70273333D01*
X117045619Y-70031429D01*
X117094000Y-69886286D01*
X117045619Y-69547619D02*
X118061619Y-69305714D01*
X117335905Y-69112191D01*
X118061619Y-68918667D01*
X117045619Y-68676762D01*
X118061619Y-68289714D02*
X117045619Y-68289714D01*
X117045619Y-68047809D01*
X117094000Y-67902667D01*
X117190762Y-67805905D01*
X117287524Y-67757524D01*
X117481048Y-67709143D01*
X117626190Y-67709143D01*
X117819714Y-67757524D01*
X117916476Y-67805905D01*
X118013238Y-67902667D01*
X118061619Y-68047809D01*
X118061619Y-68289714D01*
X80276096Y-60149619D02*
X80276096Y-59133619D01*
X80663143Y-59133619D01*
X80759905Y-59182000D01*
X80808286Y-59230381D01*
X80856667Y-59327143D01*
X80856667Y-59472286D01*
X80808286Y-59569048D01*
X80759905Y-59617429D01*
X80663143Y-59665810D01*
X80276096Y-59665810D01*
X81195334Y-59133619D02*
X81872667Y-59133619D01*
X81437239Y-60149619D01*
X76701810Y-63061905D02*
X76701810Y-63709524D01*
X76739905Y-63785714D01*
X76778001Y-63823810D01*
X76854191Y-63861905D01*
X77006572Y-63861905D01*
X77082763Y-63823810D01*
X77120858Y-63785714D01*
X77158953Y-63709524D01*
X77158953Y-63061905D01*
X77501810Y-63633333D02*
X77882762Y-63633333D01*
X77425619Y-63861905D02*
X77692286Y-63061905D01*
X77958953Y-63861905D01*
X78682762Y-63861905D02*
X78416095Y-63480952D01*
X78225619Y-63861905D02*
X78225619Y-63061905D01*
X78530381Y-63061905D01*
X78606572Y-63100000D01*
X78644667Y-63138095D01*
X78682762Y-63214286D01*
X78682762Y-63328571D01*
X78644667Y-63404762D01*
X78606572Y-63442857D01*
X78530381Y-63480952D01*
X78225619Y-63480952D01*
X78911333Y-63061905D02*
X79368476Y-63061905D01*
X79139905Y-63861905D02*
X79139905Y-63061905D01*
D12*
X79317905Y-66452666D02*
X79889333Y-66452666D01*
X80003619Y-66490762D01*
X80079810Y-66566952D01*
X80117905Y-66681238D01*
X80117905Y-66757428D01*
X80117905Y-66071714D02*
X79317905Y-66071714D01*
X79317905Y-65766952D01*
X79356000Y-65690761D01*
X79394095Y-65652666D01*
X79470286Y-65614571D01*
X79584571Y-65614571D01*
X79660762Y-65652666D01*
X79698857Y-65690761D01*
X79736952Y-65766952D01*
X79736952Y-66071714D01*
X79317905Y-65347904D02*
X79317905Y-64852666D01*
X79622667Y-65119333D01*
X79622667Y-65005047D01*
X79660762Y-64928857D01*
X79698857Y-64890761D01*
X79775048Y-64852666D01*
X79965524Y-64852666D01*
X80041714Y-64890761D01*
X80079810Y-64928857D01*
X80117905Y-65005047D01*
X80117905Y-65233619D01*
X80079810Y-65309809D01*
X80041714Y-65347904D01*
X80968857Y-67379714D02*
X81006952Y-67265428D01*
X81045048Y-67227333D01*
X81121238Y-67189238D01*
X81235524Y-67189238D01*
X81311714Y-67227333D01*
X81349810Y-67265428D01*
X81387905Y-67341619D01*
X81387905Y-67646381D01*
X80587905Y-67646381D01*
X80587905Y-67379714D01*
X80626000Y-67303524D01*
X80664095Y-67265428D01*
X80740286Y-67227333D01*
X80816476Y-67227333D01*
X80892667Y-67265428D01*
X80930762Y-67303524D01*
X80968857Y-67379714D01*
X80968857Y-67646381D01*
X80587905Y-66694000D02*
X80587905Y-66541619D01*
X80626000Y-66465428D01*
X80702190Y-66389238D01*
X80854571Y-66351143D01*
X81121238Y-66351143D01*
X81273619Y-66389238D01*
X81349810Y-66465428D01*
X81387905Y-66541619D01*
X81387905Y-66694000D01*
X81349810Y-66770190D01*
X81273619Y-66846381D01*
X81121238Y-66884476D01*
X80854571Y-66884476D01*
X80702190Y-66846381D01*
X80626000Y-66770190D01*
X80587905Y-66694000D01*
X80587905Y-65855905D02*
X80587905Y-65703524D01*
X80626000Y-65627333D01*
X80702190Y-65551143D01*
X80854571Y-65513048D01*
X81121238Y-65513048D01*
X81273619Y-65551143D01*
X81349810Y-65627333D01*
X81387905Y-65703524D01*
X81387905Y-65855905D01*
X81349810Y-65932095D01*
X81273619Y-66008286D01*
X81121238Y-66046381D01*
X80854571Y-66046381D01*
X80702190Y-66008286D01*
X80626000Y-65932095D01*
X80587905Y-65855905D01*
X80587905Y-65284477D02*
X80587905Y-64827334D01*
X81387905Y-65055905D02*
X80587905Y-65055905D01*
X86455334Y-71697905D02*
X86455334Y-72269333D01*
X86417238Y-72383619D01*
X86341048Y-72459810D01*
X86226762Y-72497905D01*
X86150572Y-72497905D01*
X86836286Y-72497905D02*
X86836286Y-71697905D01*
X87141048Y-71697905D01*
X87217239Y-71736000D01*
X87255334Y-71774095D01*
X87293429Y-71850286D01*
X87293429Y-71964571D01*
X87255334Y-72040762D01*
X87217239Y-72078857D01*
X87141048Y-72116952D01*
X86836286Y-72116952D01*
X87598191Y-71774095D02*
X87636286Y-71736000D01*
X87712477Y-71697905D01*
X87902953Y-71697905D01*
X87979143Y-71736000D01*
X88017239Y-71774095D01*
X88055334Y-71850286D01*
X88055334Y-71926476D01*
X88017239Y-72040762D01*
X87560096Y-72497905D01*
X88055334Y-72497905D01*
X81235714Y-71189905D02*
X81502381Y-71989905D01*
X81769048Y-71189905D01*
X82302381Y-71570857D02*
X82416667Y-71608952D01*
X82454762Y-71647048D01*
X82492857Y-71723238D01*
X82492857Y-71837524D01*
X82454762Y-71913714D01*
X82416667Y-71951810D01*
X82340476Y-71989905D01*
X82035714Y-71989905D01*
X82035714Y-71189905D01*
X82302381Y-71189905D01*
X82378571Y-71228000D01*
X82416667Y-71266095D01*
X82454762Y-71342286D01*
X82454762Y-71418476D01*
X82416667Y-71494667D01*
X82378571Y-71532762D01*
X82302381Y-71570857D01*
X82035714Y-71570857D01*
X82797619Y-71761333D02*
X83178571Y-71761333D01*
X82721428Y-71989905D02*
X82988095Y-71189905D01*
X83254762Y-71989905D01*
X83407142Y-71189905D02*
X83864285Y-71189905D01*
X83635714Y-71989905D02*
X83635714Y-71189905D01*
%LPC*%
D13*
X61964000Y-76581000D03*
X60464000Y-76581000D03*
D14*
X54864000Y-52312000D03*
X54864000Y-50812000D03*
D13*
X54852000Y-56896000D03*
X53352000Y-56896000D03*
X98564000Y-59944000D03*
X100064000Y-59944000D03*
X88380000Y-59944000D03*
X86880000Y-59944000D03*
X86094000Y-70104000D03*
X84594000Y-70104000D03*
D14*
X101092000Y-69100000D03*
X101092000Y-70600000D03*
X99314000Y-74434000D03*
X99314000Y-75934000D03*
X97282000Y-74434000D03*
X97282000Y-75934000D03*
D13*
X117106000Y-77724000D03*
X118606000Y-77724000D03*
X91579000Y-81788000D03*
X93079000Y-81788000D03*
X89015000Y-81788000D03*
X87515000Y-81788000D03*
D15*
X51878000Y-75438000D03*
X53278000Y-75438000D03*
D16*
X54864000Y-55310000D03*
X54864000Y-53910000D03*
D17*
X70612000Y-63004700D03*
X70612000Y-64503300D03*
X72390000Y-69354700D03*
X72390000Y-70853300D03*
X77470000Y-69354700D03*
X77470000Y-70853300D03*
X72402700Y-81026000D03*
X73901300Y-81026000D03*
X95250000Y-83578700D03*
X95250000Y-85077300D03*
X103886000Y-83578700D03*
X103886000Y-85077300D03*
D18*
X60467240Y-79060000D03*
X60467240Y-80960000D03*
X62466220Y-80010000D03*
X71897240Y-77536000D03*
X71897240Y-79436000D03*
X73896220Y-78486000D03*
D19*
X58674000Y-79260000D03*
X58674000Y-80760000D03*
X58674000Y-76720000D03*
X58674000Y-78220000D03*
D20*
X64782000Y-75692000D03*
X66282000Y-75692000D03*
X51550000Y-62230000D03*
X50050000Y-62230000D03*
X50050000Y-59690000D03*
X51550000Y-59690000D03*
X51550000Y-57150000D03*
X50050000Y-57150000D03*
X63512000Y-77470000D03*
X65012000Y-77470000D03*
D19*
X65024000Y-80022000D03*
X65024000Y-81522000D03*
D20*
X69100000Y-60960000D03*
X70600000Y-60960000D03*
X83578000Y-67310000D03*
X85078000Y-67310000D03*
D19*
X114300000Y-61456000D03*
X114300000Y-59956000D03*
X114300000Y-63004000D03*
X114300000Y-64504000D03*
D20*
X72402000Y-72390000D03*
X73902000Y-72390000D03*
X77458000Y-72390000D03*
X75958000Y-72390000D03*
X69354000Y-81026000D03*
X70854000Y-81026000D03*
D19*
X69850000Y-77736000D03*
X69850000Y-79236000D03*
D20*
X97040000Y-85090000D03*
X98540000Y-85090000D03*
X105930000Y-85090000D03*
X107430000Y-85090000D03*
X113550000Y-77724000D03*
X115050000Y-77724000D03*
D21*
X87856060Y-78232000D03*
X92737940Y-78232000D03*
D22*
X58420000Y-52324000D03*
D23*
X64770000Y-54610000D03*
D22*
X58420000Y-56896000D03*
D24*
X79502000Y-76454000D03*
D25*
X80752000Y-76454000D03*
D14*
X52070000Y-68568000D03*
X52070000Y-67068000D03*
D13*
X54852000Y-59182000D03*
X53352000Y-59182000D03*
D26*
X50292000Y-70612000D03*
X50292000Y-68580000D03*
D27*
X80010000Y-90160000D03*
X80010000Y-82560000D03*
D28*
X52578000Y-79502000D03*
X55118000Y-79502000D03*
X94286000Y-91912000D03*
X100786000Y-91912000D03*
X94286000Y-87412000D03*
X100786000Y-87412000D03*
X103430000Y-91912000D03*
X109930000Y-91912000D03*
X103430000Y-87412000D03*
X109930000Y-87412000D03*
X111050000Y-84800000D03*
X117550000Y-84800000D03*
X111050000Y-80300000D03*
X117550000Y-80300000D03*
D17*
X111506000Y-76212700D03*
X111506000Y-77711300D03*
D15*
X84136000Y-73406000D03*
X85536000Y-73406000D03*
D29*
X72898000Y-92202000D03*
D30*
X109220000Y-60960000D03*
D31*
X111760000Y-60960000D03*
X109220000Y-63500000D03*
X111760000Y-63500000D03*
X109220000Y-66040000D03*
X111760000Y-66040000D03*
X109220000Y-68580000D03*
X111760000Y-68580000D03*
X109220000Y-71120000D03*
X111760000Y-71120000D03*
D32*
X89722000Y-71740000D03*
X90222000Y-71740000D03*
X90722000Y-71740000D03*
X91222000Y-71740000D03*
X91722000Y-71740000D03*
X92222000Y-71740000D03*
X92722000Y-71740000D03*
X93222000Y-71740000D03*
X93722000Y-71740000D03*
X94222000Y-71740000D03*
X94722000Y-71740000D03*
X95222000Y-71740000D03*
X95722000Y-71740000D03*
X96222000Y-71740000D03*
X96722000Y-71740000D03*
X97222000Y-71740000D03*
D33*
X99172000Y-69790000D03*
X99172000Y-69290000D03*
X99172000Y-68790000D03*
X99172000Y-68290000D03*
X99172000Y-67790000D03*
X99172000Y-67290000D03*
X99172000Y-66790000D03*
X99172000Y-66290000D03*
X99172000Y-65790000D03*
X99172000Y-65290000D03*
X99172000Y-64790000D03*
X99172000Y-64290000D03*
X99172000Y-63790000D03*
X99172000Y-63290000D03*
X99172000Y-62790000D03*
X99172000Y-62290000D03*
D32*
X97222000Y-60340000D03*
X96722000Y-60340000D03*
X96222000Y-60340000D03*
X95722000Y-60340000D03*
X95222000Y-60340000D03*
X94722000Y-60340000D03*
X94222000Y-60340000D03*
X93722000Y-60340000D03*
X93222000Y-60340000D03*
X92722000Y-60340000D03*
X92222000Y-60340000D03*
X91722000Y-60340000D03*
X91222000Y-60340000D03*
X90722000Y-60340000D03*
X90222000Y-60340000D03*
X89722000Y-60340000D03*
D33*
X87772000Y-62290000D03*
X87772000Y-62790000D03*
X87772000Y-63290000D03*
X87772000Y-63790000D03*
X87772000Y-64290000D03*
X87772000Y-64790000D03*
X87772000Y-65290000D03*
X87772000Y-65790000D03*
X87772000Y-66290000D03*
X87772000Y-66790000D03*
X87772000Y-67290000D03*
X87772000Y-67790000D03*
X87772000Y-68290000D03*
X87772000Y-68790000D03*
X87772000Y-69290000D03*
X87772000Y-69790000D03*
D30*
X57150000Y-84582000D03*
D31*
X59690000Y-84582000D03*
X57150000Y-87122000D03*
X59690000Y-87122000D03*
X57150000Y-89662000D03*
X59690000Y-89662000D03*
X57150000Y-92202000D03*
X59690000Y-92202000D03*
D30*
X62230000Y-84582000D03*
D31*
X64770000Y-84582000D03*
X62230000Y-87122000D03*
X64770000Y-87122000D03*
X62230000Y-89662000D03*
X64770000Y-89662000D03*
X62230000Y-92202000D03*
X64770000Y-92202000D03*
D30*
X67310000Y-84582000D03*
D31*
X69850000Y-84582000D03*
X67310000Y-87122000D03*
X69850000Y-87122000D03*
X67310000Y-89662000D03*
X69850000Y-89662000D03*
X67310000Y-92202000D03*
X69850000Y-92202000D03*
D30*
X71120000Y-53340000D03*
D31*
X71120000Y-50800000D03*
X73660000Y-53340000D03*
X73660000Y-50800000D03*
X76200000Y-53340000D03*
X76200000Y-50800000D03*
X78740000Y-53340000D03*
X78740000Y-50800000D03*
X81280000Y-53340000D03*
X81280000Y-50800000D03*
X83820000Y-53340000D03*
X83820000Y-50800000D03*
X86360000Y-53340000D03*
X86360000Y-50800000D03*
X88900000Y-53340000D03*
X88900000Y-50800000D03*
X91440000Y-53340000D03*
X91440000Y-50800000D03*
D30*
X95758000Y-53340000D03*
D31*
X95758000Y-50800000D03*
X98298000Y-53340000D03*
X98298000Y-50800000D03*
X100838000Y-53340000D03*
X100838000Y-50800000D03*
X103378000Y-53340000D03*
X103378000Y-50800000D03*
X105918000Y-53340000D03*
X105918000Y-50800000D03*
X108458000Y-53340000D03*
X108458000Y-50800000D03*
X110998000Y-53340000D03*
X110998000Y-50800000D03*
D30*
X50800000Y-85852000D03*
D31*
X53340000Y-85852000D03*
D34*
X65798000Y-64000000D03*
X65798000Y-66290000D03*
X65798000Y-68580000D03*
D35*
X66483000Y-73160000D03*
D36*
X63633000Y-73160000D03*
D37*
X62488000Y-74860000D03*
D36*
X59053000Y-73160000D03*
D37*
X60198000Y-74860000D03*
X57908000Y-74860000D03*
D38*
X55613000Y-72015000D03*
D35*
X53913000Y-73160000D03*
D34*
X54598000Y-68580000D03*
D39*
X53848000Y-66290000D03*
D40*
X55598000Y-66290000D03*
D34*
X54598000Y-64000000D03*
D41*
X62488000Y-62980000D03*
X60198000Y-62980000D03*
X57908000Y-62980000D03*
D42*
X50820000Y-91870000D03*
X116820000Y-91870000D03*
X116820000Y-50370000D03*
X50820000Y-50370000D03*
D43*
X116332000Y-59944000D03*
X116332000Y-61444000D03*
X116332000Y-62944000D03*
X116332000Y-64444000D03*
X116332000Y-65944000D03*
X74930000Y-60960000D03*
X76430000Y-60960000D03*
X77930000Y-60960000D03*
D44*
X82042000Y-67310000D03*
X82042000Y-66294000D03*
X82042000Y-65278000D03*
X84328000Y-72136000D03*
X85344000Y-72136000D03*
M02*
